<svg width="236" height="233" viewBox="0 0 236 233" fill="none" xmlns="http://www.w3.org/2000/svg">
<path d="M211.135 193.084C208.1 211.695 176.552 226.573 136.345 230.902C128.434 231.798 120.173 232.246 111.714 232.246C102.359 232.246 93.253 231.698 84.6444 230.653C45.5825 225.976 15.2287 211.346 12.2928 193.084C11.9942 191.193 11.6459 189.302 11.2478 187.412C10.8498 185.272 10.4517 183.132 10.0536 180.993C8.46125 171.588 7.11773 167.259 4.03259 154.52C2.68906 148.698 0.201054 138.696 0.00201229 132.377C-0.24679 121.977 22.643 129.889 31.4506 126.704C80.6138 108.591 139.431 105.606 193.52 122.026C200.238 124.017 216.808 118.792 221.386 124.465C227.208 131.73 214.967 168.353 211.135 193.084Z" fill="#D7E3F7"/>
<path d="M214.42 177.011C213.922 179.3 213.424 181.54 212.927 183.779C146.447 218.462 73.3987 217.168 11.248 187.461C10.8499 185.321 10.4518 183.182 10.0537 181.042C73.5977 212.889 148.487 213.237 214.42 177.011Z" fill="#C0D3ED"/>
<path d="M147.989 208.211L136.345 230.952C134.455 231.151 132.564 231.35 130.623 231.499C124.503 231.997 118.183 232.246 111.714 232.246C105.096 232.246 98.6271 231.947 92.3573 231.449C89.72 231.25 87.1822 230.952 84.6444 230.653L72.8014 208.46C71.8062 206.619 72.6522 204.38 74.6426 203.633C102.757 193.333 126.244 194.627 146.397 203.534C148.188 204.38 148.885 206.47 147.989 208.211Z" fill="#B5CBE5"/>
<path d="M136.793 209.804L129.18 231.599C123.059 232.096 118.183 232.295 111.714 232.295C105.096 232.295 98.6271 231.997 92.3573 231.499L83.0023 211.595C82.6042 210.799 82.9526 209.853 83.8483 209.505C101.563 202.19 118.78 203.235 135.699 207.913C136.495 208.112 137.042 208.958 136.793 209.804Z" fill="#19223C"/>
<path d="M97.134 178.206C63.9439 187.411 28.5145 178.206 3.98262 154.57C3.93286 154.321 1.54432 145.513 1.14624 133.023C1.14624 132.028 1.14626 130.088 1.54435 129.391C3.33572 133.869 4.72902 138.646 7.71465 142.428C14.8304 151.385 24.4839 157.953 34.5355 163.278C53.7928 173.379 75.4883 179.5 97.134 178.206Z" fill="black"/>
<path d="M111.664 184.028C48.0704 184.028 0.151123 162.332 0.151123 133.571C0.151123 102.371 50.2599 88.5872 81.4099 84.9049C102.011 82.4169 124.552 82.5164 144.854 85.303C170.68 88.7365 210.886 99.1862 220.988 123.021C222.431 126.355 223.227 129.938 223.227 133.571C223.227 162.332 175.308 184.028 111.664 184.028Z" fill="#C5D6EF"/>
<path d="M215.016 133.57C215.016 156.908 168.739 175.817 111.714 175.817C54.6885 175.817 8.41138 156.908 8.41138 133.57C8.41138 130.187 9.40655 126.903 11.0486 124.016C22.0457 104.66 60.0626 95.7526 82.4051 93.1153C103.105 90.6273 125.099 90.9258 143.809 93.4636C175.905 97.743 201.034 108.242 210.687 121.479C211.832 123.021 212.777 124.614 213.474 126.256C214.469 128.594 215.016 131.033 215.016 133.57Z" fill="#E9F1FF"/>
<path d="M60.7096 146.458C60.212 147.802 58.769 148.598 57.1766 148.101C41.104 142.08 24.9319 135.71 9.00854 129.092C9.45639 127.351 10.153 125.659 11.0487 123.967C26.972 130.585 43.0446 136.905 59.1172 142.926C60.5105 143.473 61.2072 145.065 60.7096 146.458Z" fill="#C0D3ED"/>
<path d="M88.5755 136.308C87.3315 136.308 86.1372 135.412 85.7889 134.019C82.5047 120.782 79.4693 105.755 76.832 92.2696C78.6732 92.0208 80.0664 90.9759 82.0071 90.7271C84.5946 103.963 88.1276 119.489 91.362 132.476C91.8596 134.466 90.3668 136.308 88.5755 136.308Z" fill="#C0D3ED"/>
<path d="M143.76 93.4637C140.326 107.198 136.545 120.782 132.414 134.217C132.016 135.461 130.872 136.258 129.678 136.258C127.637 136.258 126.344 134.267 126.891 132.426C130.872 119.289 134.604 106.053 137.988 92.7173C139.978 92.9661 141.869 93.2149 143.76 93.4637Z" fill="#C0D3ED"/>
<path d="M213.424 126.206C192.376 134.317 162.47 143.921 160.33 143.921C159.136 143.921 158.041 143.124 157.693 141.93C157.295 140.487 158.14 138.945 159.583 138.547C176.751 133.57 193.868 127.848 210.638 121.429C211.832 123.021 212.777 124.614 213.424 126.206Z" fill="#C0D3ED"/>
<path d="M177.647 146.459C180.831 149.245 183.419 153.375 181.976 157.257C180.98 159.894 178.144 162.282 175.606 163.676C155.702 174.722 127.886 175.966 104.996 174.772C114.302 170.493 126.144 169.846 133.41 162.481C136.992 158.849 138.883 153.425 136.992 148.847C135.151 144.319 130.175 141.582 125.299 140.139C120.372 138.646 115.147 138.099 110.47 136.108C130.573 136.108 162.221 133.123 177.647 146.459Z" fill="black"/>
<path d="M43.8904 147.304C40.7555 150.091 38.2177 154.321 39.7106 158.152C40.7555 160.74 43.5919 163.128 46.1794 164.522C66.2328 175.32 94.0489 176.165 116.939 174.673C107.584 170.543 95.7408 170.045 88.3762 162.73C84.7437 159.147 82.8031 153.773 84.5945 149.146C86.3858 144.617 91.3121 141.831 96.1886 140.288C101.065 138.746 106.29 138.099 110.967 136.059C90.8145 136.307 59.1171 133.72 43.8904 147.304Z" fill="black"/>
<path d="M111.266 176.215C85.6396 176.215 63.4963 171.189 52.9471 163.875C43.9404 157.605 43.9902 150.041 54.4896 143.572C80.0665 127.948 146.895 128.843 169.287 144.418C191.231 159.297 158.439 176.215 111.266 176.215Z" fill="#9CED5A"/>
<path d="M69.0196 145.115V163.128C69.0196 163.775 68.4226 164.372 67.6264 164.372C65.835 164.322 60.7096 164.422 52.8973 163.924C51.6533 163.029 50.5585 162.133 49.6628 161.237C55.1365 161.685 60.7097 161.934 66.2331 161.984V146.409C61.3566 146.409 51.4045 146.06 51.1557 146.06C52.1011 145.264 53.1959 144.468 54.4399 143.722C55.3853 143.722 61.6551 143.97 67.6264 143.97C68.3728 143.871 69.0196 144.418 69.0196 145.115Z" fill="white"/>
<path d="M174.611 158.899C174.163 159.695 173.516 160.491 172.72 161.237C171.874 161.237 164.908 160.69 157.493 160.342C156.797 160.342 156.249 159.844 156.2 159.197C156.2 158.948 154.956 142.776 155.553 142.229C156.349 141.532 156.598 141.98 165.007 141.93C166.55 142.726 168.043 143.523 169.287 144.418L158.041 144.319C158.389 148.15 158.538 153.574 158.887 157.953C166.102 158.351 168.59 158.55 174.611 158.899Z" fill="white"/>
<path d="M111.415 142.08C106.788 142.08 103.006 146.658 103.006 152.33C103.006 157.953 106.788 162.581 111.415 162.581C116.043 162.581 119.825 158.003 119.825 152.33C119.825 146.658 116.043 142.08 111.415 142.08ZM111.415 160.093C108.33 160.093 105.743 156.51 105.743 152.33C105.743 148.101 108.33 144.568 111.415 144.568C114.501 144.568 117.088 148.15 117.088 152.33C117.088 156.51 114.501 160.093 111.415 160.093Z" fill="white"/>
<path d="M111.216 175.568C110.52 175.568 110.022 175.021 110.022 174.374V133.67C110.022 132.973 110.57 132.476 111.216 132.476C111.913 132.476 112.411 133.023 112.411 133.67V174.374C112.461 175.021 111.913 175.568 111.216 175.568Z" fill="white"/>
<path d="M192.873 44.6984C191.679 39.3741 189.29 34.3483 185.957 30.0191C181.677 24.4459 178.94 29.0239 175.855 31.2631C172.671 33.5521 168.192 33.4028 164.659 31.6612C156.897 27.8794 154.906 19.3206 150.577 20.6641C148.985 21.1617 148.238 22.9531 147.741 24.5455C143.76 37.2841 142.466 50.7692 138.933 63.6571C134.056 81.4713 124.851 98.1411 112.311 111.825C109.077 115.308 104.797 121.18 99.5725 121.578C119.676 119.986 133.857 97.544 145.253 80.5757C138.435 98.5392 128.682 112.323 117.636 120.931C130.175 115.557 142.217 104.908 151.871 89.6818C142.964 107.645 124.652 123.967 111.963 131.53C119.626 129.988 132.365 121.528 139.082 115.856C146.198 109.785 152.965 102.072 160.28 93.7622C155.105 103.814 148.736 112.124 141.67 118.394C148.786 113.318 155.652 106.501 161.773 98.1411C156.449 110.631 148.139 120.533 138.784 126.355C149.482 121.479 160.678 112.373 166.6 98.9372C161.624 110.183 145.949 126.455 154.209 120.633C176.403 104.908 202.228 84.656 216.36 42.8075" fill="#F9CF6A"/>
<path d="M168.938 104.809C173.467 99.6341 179.438 95.6035 184.016 90.3289C188.793 84.8055 193.022 78.8343 196.506 72.4152C199.989 65.9961 212.976 41.0661 201.83 36.8863C198.844 35.7915 195.56 36.3389 192.425 36.5379C180.831 37.2843 169.038 32.9552 160.728 24.8442C154.458 47.1867 145.85 68.9319 135.101 89.5327C140.276 82.9146 145.501 76.2965 150.676 69.6784C147.293 85.751 148.885 85.8007 133.21 109.138C142.814 98.1911 152.418 87.2935 162.071 76.3462C159.932 85.4524 155.851 94.1107 150.129 101.525C157.294 95.6533 163.763 88.9356 169.386 81.5213C166.749 86.4974 164.112 91.4236 161.474 96.3997C166.749 92.7672 171.277 88.0897 174.661 82.6658C170.979 92.5184 165.405 101.674 158.339 109.487C167.247 100.58 176.154 91.7222 185.061 82.8151C182.075 91.1251 174.661 98.191 168.938 104.809Z" fill="#FCE39E"/>
<path d="M140.923 49.0776C140.923 49.0776 140.874 49.0278 140.923 49.0278C140.874 48.779 138.983 42.9073 139.829 34.9954C142.764 6.53244 174.91 -9.54016 199.491 6.13436H199.541C200.487 6.73148 201.432 7.37837 202.328 8.12478C202.328 8.12478 202.328 8.12478 202.377 8.12478C203.671 9.11998 204.965 10.2147 206.109 11.3592C216.509 21.6098 219.794 36.5877 216.31 49.0278C211.583 66.6927 195.212 78.9338 176.303 77.9386H176.253C171.775 77.64 167.595 76.5951 164.161 75.2018C144.954 67.688 141.023 49.2766 140.923 49.0776Z" fill="#9AC2FC"/>
<path d="M172.123 37.4833C171.526 37.4336 170.58 38.18 170.033 38.379C167.694 39.3245 165.306 40.1206 162.967 40.9666C161.325 41.5637 157.294 42.1608 157.245 44.2507C157.195 45.246 157.742 46.6392 157.891 47.6345C158.489 51.5158 159.384 55.5464 160.529 59.2286C160.678 59.6765 161.026 60.0248 161.474 60.1243C166.401 61.3683 171.327 62.1645 176.402 62.3635C176.9 62.3635 177.398 62.1147 177.597 61.6669C183.17 50.7196 185.16 50.421 184.016 49.0277C181.229 45.5943 177.895 42.6087 174.661 39.623C174.014 39.0757 172.919 37.5331 172.123 37.4833Z" fill="#071D61"/>
<path d="M139.829 34.8958C140.824 25.2423 145.451 18.4251 145.352 18.6739C145.949 17.9773 146.496 17.2309 147.094 16.584C149.631 19.4203 151.074 19.3208 150.826 19.9179C149.034 24.5954 147.989 29.4719 147.74 34.4977C147.74 34.647 147.641 34.7465 147.492 34.7963C145.153 35.4432 143.063 37.0355 141.471 38.9264C141.272 39.1254 140.973 39.0757 140.873 38.8269C140.426 37.5829 140.077 36.3389 139.829 35.0451C139.829 34.9456 139.779 34.8958 139.829 34.8958Z" fill="#071D61"/>
<path d="M165.256 12.5533C169.187 14.8423 173.068 17.5791 176.303 20.7638C181.329 19.3207 186.404 17.6787 191.43 16.2356C190.932 12.8519 190.136 9.51795 189.091 6.28352C183.916 4.44239 178.542 3.44718 173.068 3.74574C169.685 5.98496 167.197 8.92082 165.256 12.5533Z" fill="#071D61"/>
<path d="M205.811 52.6601C200.536 44.2506 199.292 44.3004 199.79 43.1559C201.631 38.8268 202.925 34.2986 203.671 29.6211C203.771 29.0737 204.268 28.6756 204.816 28.7254C210.339 29.0737 211.931 28.8747 212.23 30.0689C213.126 33.6517 215.862 42.8573 215.166 44.0516C213.076 47.5348 210.588 50.5204 207.403 53.0085C206.905 53.3568 206.159 53.2075 205.811 52.6601Z" fill="#071D61"/>
<path d="M180.234 76.4456C182.374 75.2016 184.165 73.46 185.608 71.4198C191.181 71.2705 196.406 69.4791 201.034 66.3442C201.183 67.638 201.532 68.9318 201.93 70.1758C195.66 74.9528 188.096 77.4408 181.13 77.8886C180.931 77.391 180.632 76.8934 180.234 76.4456Z" fill="#071D61"/>
<path d="M143.013 54.9492C146.447 58.4822 148.686 62.6621 154.608 65.1003C156.349 68.5836 158.837 71.7185 161.922 74.1567C159.882 73.5098 154.807 70.4247 150.776 66.2946C147.094 62.5626 145.054 59.1291 143.013 54.9492Z" fill="#071D61"/>
<path d="M203.472 29.5215C199.939 23.0029 194.316 17.5292 187.698 14.1455C187.399 13.9963 187.3 13.6479 187.449 13.3494C187.598 13.0508 187.947 12.9513 188.245 13.1006C195.063 16.5838 200.885 22.2067 204.517 28.9741C204.666 29.2727 204.567 29.621 204.268 29.8201C204.019 29.9196 203.671 29.8201 203.472 29.5215Z" fill="#071D61"/>
<path d="M180.632 49.9731C179.836 49.9731 179.836 48.7789 180.632 48.7789C188.942 48.6794 196.307 45.0966 200.984 42.1608C201.681 41.7129 202.328 42.7579 201.631 43.2057C194.714 47.5349 187.499 49.9234 180.632 49.9731C180.682 49.9731 180.682 49.9731 180.632 49.9731Z" fill="#071D61"/>
<path d="M198.397 68.086C200.735 65.8965 208.199 58.2832 206.508 50.7196C206.309 49.9234 207.503 49.6249 207.652 50.3713V50.4708C209.443 58.4325 202.328 66.0956 199.143 68.9817C198.596 69.529 197.799 68.6333 198.397 68.086Z" fill="#071D61"/>
<path d="M186.355 72.7136C182.324 69.927 178.741 66.3443 175.955 62.264C175.507 61.6171 176.502 60.9204 176.95 61.5673C179.637 65.4984 183.07 69.0314 187.002 71.7184C187.698 72.1663 187.002 73.1615 186.355 72.7136Z" fill="#071D61"/>
<path d="M153.712 64.8017C156.747 63.2094 159.335 60.8706 161.176 58.0343C161.624 57.3874 162.619 58.0343 162.171 58.6812C160.181 61.7166 157.444 64.2046 154.259 65.8467C153.612 66.2448 153.015 65.1998 153.712 64.8017Z" fill="#071D61"/>
<path d="M157.493 44.1511C152.716 40.867 148.835 37.1847 146.049 33.1541C145.601 32.5072 146.596 31.8106 147.044 32.4574C149.731 36.3388 153.513 39.9215 158.19 43.1062C158.489 43.3052 158.538 43.6535 158.339 43.9521C158.19 44.3004 157.792 44.3502 157.493 44.1511Z" fill="#071D61"/>
<path d="M169.834 39.6727C173.218 32.3579 175.457 24.5455 176.402 16.5341C176.502 15.7877 177.696 15.8374 177.597 16.6834C176.651 24.8441 174.362 32.756 170.929 40.1703C170.58 40.9167 169.486 40.3693 169.834 39.6727Z" fill="#071D61"/>
<path d="M148.935 20.1668C153.363 14.8921 160.33 13.3496 166.848 12.006C167.645 11.8568 167.844 13.051 167.097 13.2003C160.827 14.4941 154.06 15.8874 149.88 20.9629C149.383 21.56 148.437 20.8136 148.935 20.1668Z" fill="#071D61"/>
<path d="M187.2 6.48246C187.151 6.23366 187.3 5.98486 187.549 5.88534C187.798 5.83558 188.046 5.73606 188.245 5.68629C191.878 4.89013 195.809 4.98965 199.441 5.98486H199.491C200.437 6.58198 201.382 7.27863 202.278 7.97527C197.75 5.98486 192.525 5.48725 187.798 6.78102C187.599 6.88054 187.3 6.78102 187.2 6.48246Z" fill="#071D61"/>
<path d="M167.943 1.45688C168.491 1.3076 168.988 1.15831 169.585 1.00903C171.228 1.60616 172.72 2.45208 174.114 3.49705C174.611 3.89514 174.014 4.64154 173.516 4.24346C171.874 3.04921 169.984 2.054 167.943 1.45688Z" fill="#071D61"/>
<path d="M214.27 43.4048C214.469 43.2555 214.817 43.3053 214.917 43.5541C215.663 44.6985 216.26 45.9923 216.708 47.2363C216.609 47.8334 216.46 48.4306 216.31 48.9779C215.564 46.1914 214.569 44.8478 214.22 44.1512C214.021 43.8029 213.972 43.5541 214.27 43.4048Z" fill="#071D61"/>
<path d="M139.828 43.106C139.978 41.3147 140.376 39.5233 140.923 37.7817C140.973 37.6324 141.122 37.4831 141.271 37.4333C141.371 37.4333 141.421 37.4333 141.52 37.4333C141.769 37.5329 141.918 37.7817 141.819 38.0305C140.724 41.5137 140.425 45.2955 140.923 48.9778C139.928 45.196 139.928 43.6534 139.828 43.106Z" fill="#071D61"/>
<path d="M164.161 75.1519C164.261 75.1519 164.36 75.1519 164.41 75.1519C169.784 77.2418 175.955 77.5901 180.98 76.0475C181.577 75.8485 181.876 76.7442 181.279 76.9432C179.736 77.4408 178.044 77.7394 176.303 77.8389H176.253C172.023 77.6399 167.943 76.6944 164.161 75.1519Z" fill="#071D61"/>
<path d="M210.787 30.2183C212.13 27.5312 213.026 24.6949 213.524 21.7092C213.772 22.2068 213.972 22.7044 214.22 23.1523C213.673 25.7398 212.777 28.2278 211.633 30.6163C211.533 30.8651 211.235 30.9149 210.986 30.8154C210.787 30.7656 210.687 30.4671 210.787 30.2183Z" fill="#071D61"/>
<path d="M190.534 28.0787C187.201 28.0787 184.513 30.7657 184.513 34.1494C184.513 30.8155 181.826 28.1284 178.492 28.1284C181.826 28.1284 184.513 25.4414 184.513 22.1074C184.513 25.3916 187.201 28.0787 190.534 28.0787Z" fill="white"/>
<path d="M196.854 38.379C195.013 38.379 193.57 39.8718 193.57 41.7129C193.57 39.8718 192.077 38.4287 190.286 38.4287C192.127 38.4287 193.57 36.9359 193.57 35.1445C193.57 36.8861 195.013 38.379 196.854 38.379Z" fill="white"/>
<path d="M9.35704 116.901C8.6604 116.901 8.16284 116.354 8.16284 115.707V82.2179C8.16284 81.5213 8.71016 81.0237 9.35704 81.0237C10.0039 81.0237 10.5513 81.571 10.5513 82.2179V115.707C10.6011 116.354 10.0537 116.901 9.35704 116.901Z" fill="black"/>
<path d="M79.8674 87.7416C79.1707 87.7416 78.6731 87.1943 78.6731 86.5474V57.338C78.6731 56.6414 79.2205 56.1438 79.8674 56.1438C80.564 56.1438 81.0616 56.6912 81.0616 57.338V86.4976C81.1114 87.1943 80.564 87.7416 79.8674 87.7416Z" fill="black"/>
<path d="M209.145 113.766C208.448 113.766 207.951 113.219 207.951 112.572V83.4123C207.951 82.7156 208.498 82.218 209.145 82.218C209.842 82.218 210.339 82.7654 210.339 83.4123V112.572C210.389 113.219 209.842 113.766 209.145 113.766Z" fill="black"/>
<path d="M79.7181 57.3877C81.7085 59.6269 85.142 59.7762 88.1276 59.2288C91.0635 58.6815 93.9496 57.537 96.9352 57.6863C100.219 57.8853 103.155 59.6269 105.842 61.5676C106.24 61.8661 106.041 62.4633 105.544 62.4633C102.807 62.4633 99.7218 64.3542 97.6318 66.0958C94.9945 68.2852 92.606 71.022 89.3716 72.1168C86.0377 73.2613 82.1066 72.4153 79.5688 69.9273C79.9172 65.7474 80.1162 61.5178 79.7181 57.3877Z" fill="#ED3151"/>
<path d="M209.394 82.9146C211.384 85.1538 214.818 85.3031 217.803 84.7557C224.67 83.4122 227.307 81.1729 235.518 87.0944C235.916 87.393 235.717 87.9901 235.219 87.9901C232.482 87.9901 229.397 89.881 227.307 91.6226C224.67 93.8121 222.282 96.5489 219.047 97.6436C215.713 98.7881 211.782 97.9422 209.244 95.4542C209.593 91.2743 209.792 87.0447 209.394 82.9146Z" fill="#F74F6C"/>
<path d="M9.20766 82.417C11.1981 84.6562 14.6315 84.8055 17.6172 84.2581C24.4841 82.9146 27.1214 80.6754 35.3319 86.5969C35.7299 86.8954 35.5309 87.4926 35.0333 87.4926C32.2965 87.4926 29.2113 89.3834 27.1214 91.1251C24.4841 93.3145 22.0956 96.0513 18.8612 97.1461C15.5272 98.2906 11.5961 97.4446 9.05835 94.9566C9.40667 90.8265 9.60574 86.5969 9.20766 82.417Z" fill="#F74F6C"/>
</svg>
