<svg width="25" height="25" viewBox="0 0 25 25" fill="none" xmlns="http://www.w3.org/2000/svg">
<g clip-path="url(#clip0_7_1672)">
<path d="M12.1028 2.02271C6.54555 2.02271 2.02277 6.54549 2.02277 12.1027C2.02277 17.6599 6.54555 22.1827 12.1028 22.1827C17.66 22.1827 22.1828 17.6599 22.1828 12.1027C22.1828 11.3705 22.1045 10.6553 21.9553 9.96552C21.899 9.66508 21.6841 9.4189 21.3939 9.3227C21.1038 9.2265 20.7843 9.29546 20.5597 9.50276C20.3351 9.71007 20.2409 10.023 20.3135 10.3199C20.4376 10.8935 20.5028 11.4898 20.5028 12.1027C20.5028 16.752 16.7521 20.5027 12.1028 20.5027C7.45342 20.5027 3.70277 16.752 3.70277 12.1027C3.70277 7.45336 7.45342 3.70271 12.1028 3.70271C14.3076 3.70271 16.2984 4.558 17.7946 5.94271H16.3028C15.9998 5.93842 15.7181 6.09758 15.5653 6.35924C15.4126 6.6209 15.4126 6.94451 15.5653 7.20617C15.7181 7.46783 15.9998 7.62699 16.3028 7.6227H19.6628C20.1267 7.62266 20.5027 7.2466 20.5028 6.78271V3.42271C20.506 3.19556 20.4172 2.97678 20.2564 2.81625C20.0957 2.65572 19.8768 2.56712 19.6496 2.57067C19.1862 2.57791 18.8161 2.95921 18.8228 3.42271V4.59521C17.0379 2.99754 14.6814 2.02271 12.1028 2.02271ZM12.1028 6.50271C10.5663 6.50271 9.30277 7.76626 9.30277 9.30271V10.4227C8.37485 10.4227 7.62277 11.1748 7.62277 12.1027V15.4627C7.62277 16.3906 8.37485 17.1427 9.30277 17.1427H14.9028C15.8307 17.1427 16.5828 16.3906 16.5828 15.4627V12.1027C16.5828 11.1748 15.8307 10.4227 14.9028 10.4227V9.30271C14.9028 7.76626 13.6392 6.50271 12.1028 6.50271ZM12.1028 8.1827C12.7313 8.1827 13.2228 8.67419 13.2228 9.30271V10.4227H10.9828V9.30271C10.9828 8.67419 11.4743 8.1827 12.1028 8.1827ZM12.1028 12.6627C12.7216 12.6627 13.2228 13.1639 13.2228 13.7827C13.2228 14.4015 12.7216 14.9027 12.1028 14.9027C11.484 14.9027 10.9828 14.4015 10.9828 13.7827C10.9828 13.1639 11.484 12.6627 12.1028 12.6627Z" fill="white"/>
</g>
<defs>
<clipPath id="clip0_7_1672">
<rect width="24" height="24" fill="white" transform="translate(0.102783 0.102783)"/>
</clipPath>
</defs>
</svg>
