<svg width="390" height="651" viewBox="0 0 390 651" fill="none" xmlns="http://www.w3.org/2000/svg">
<path d="M270.097 127.594C266.931 123.377 259.608 120.023 254.427 122.387C247.072 125.773 243.586 138.904 235.303 139.767C235.303 137.307 235.303 134.879 235.271 132.451C235.783 132.259 236.262 132.003 236.774 131.556C238.053 130.438 238.405 128.489 238.437 126.892C238.469 125.071 237.829 123.218 236.742 121.812C235.303 119.991 233.288 119.799 231.146 119.544C200.797 116.125 167.921 116.7 137.636 120.598C137.54 120.598 137.445 120.63 137.349 120.662C137.253 120.662 137.157 120.662 137.061 120.662C135.014 120.949 133.127 121.365 131.784 123.09C130.665 124.527 130.153 126.253 130.185 128.074C130.249 129.767 130.921 131.492 132.168 132.61C132.552 132.93 132.935 133.185 133.319 133.345C133.319 135.39 133.319 137.53 133.319 139.767C125.836 138.936 121.231 126.892 115.346 122.898C110.198 119.384 101.819 123.186 98.5251 127.563C90.0504 138.936 91.2976 155.453 93.7601 168.648C99.9322 202.066 123.341 230.691 159.319 230.532C159.415 230.532 159.511 230.5 159.607 230.5C162.101 232.481 164.851 234.142 167.825 235.516C167.889 235.707 167.953 235.899 168.081 236.059C172.111 241.969 173.71 249.253 174.509 256.282C172.558 257.24 171.119 258.71 171.087 260.883C171.023 263.982 171.279 267.975 174.285 269.668C171.631 282.064 163.828 290.275 153.466 297.272C145.855 302.415 143.873 303.533 143.617 312.383C138.628 312.862 137.796 315.865 137.796 321.169C137.796 331.712 137.796 342.223 137.636 352.766C135.206 352.638 132.712 352.574 130.601 353.117C123.277 355.002 126.156 366.503 126.156 371.967C126.156 373.117 127.115 374.107 128.298 374.107C165.683 374.011 203.035 373.883 240.42 373.788C241.027 373.788 241.507 373.564 241.827 373.244C242.243 372.893 242.53 372.382 242.53 371.647C242.53 366.599 244.705 357.175 239.908 353.66C238.085 352.318 233.992 352.638 231.018 352.83C230.89 342.958 230.89 333.086 230.858 323.245C230.858 317.303 231.114 313.182 225.037 312.415C224.877 304.779 223.822 302.543 216.851 298.358C205.69 291.649 197.087 282.448 194.337 269.604C197.151 268.007 197.599 264.333 197.567 261.298C197.567 261.106 197.535 260.914 197.503 260.755C197.503 260.755 197.503 260.755 197.503 260.723C197.183 258.614 195.872 257.24 194.145 256.282C194.912 249.381 196.479 242.289 200.317 236.442C203.579 234.941 206.553 232.896 209.239 230.468C209.271 230.468 209.335 230.468 209.367 230.468C245.728 230.628 268.242 201.97 274.926 168.584C277.548 155.581 278.54 138.808 270.097 127.594ZM184.391 235.164C164.34 235.164 153.69 220.085 146.783 203.535C137.7 181.843 137.54 156.763 137.668 133.633C137.956 133.601 138.212 133.569 138.5 133.505C168.497 129.767 200.989 129.032 231.05 132.483C231.178 155.773 230.89 180.469 222.351 202.481C215.603 219.861 204.922 235.164 184.391 235.164ZM146.719 214.717C124.077 207.944 111.221 184.239 107.16 162.067C106.264 157.115 103.802 142.674 110.358 139.927C112.468 139.032 116.114 145.933 117.137 147.275C121.455 152.993 126.827 156.444 133.831 157.402C134.822 176.731 137.86 198.456 146.719 214.717ZM233.832 128.521C233.864 128.521 233.896 128.521 233.928 128.521C233.928 128.553 233.864 128.521 233.832 128.521ZM224.526 208.136C231.753 192.449 234.184 174.846 234.983 157.37C241.955 156.38 247.263 152.929 251.581 147.275C252.924 145.485 255.738 139.575 258.36 139.927C265.044 140.853 262.102 158.456 261.558 162.067C258.232 184.494 243.874 208.583 221.104 214.941C222.319 212.737 223.47 210.468 224.526 208.136ZM137.924 124.815C168.113 120.917 200.893 120.374 231.146 123.793C232.137 123.92 232.904 123.857 233.544 124.591C233.992 125.071 234.12 125.965 234.184 126.604C234.248 127.307 234.152 127.978 233.8 128.553C233.128 128.585 232.393 128.393 231.753 128.297C201.468 124.751 168.689 125.486 138.468 129.256C136.805 129.479 134.662 130.374 134.47 128.074C134.279 125.614 135.91 125.134 137.924 124.815ZM98.4931 170.565C95.6789 158.488 94.5596 144.144 100.252 132.706C102.427 128.329 108.183 124.272 113.236 126.604C116.37 128.042 118.832 132.291 120.879 134.879C124.173 139.128 127.787 143.569 133.415 144.048C133.447 146.955 133.511 149.99 133.639 153.121C126.411 151.971 122.158 147.147 118.065 141.364C116.466 139.128 114.707 136.093 111.765 135.645C101.339 133.984 101.787 151.236 102.203 156.987C104.122 183.855 121.646 214.366 149.789 219.861C151.292 222.097 152.987 224.174 154.778 226.123C124.141 224.046 105.241 199.51 98.4931 170.565ZM193.345 261.585C193.377 263.982 193.281 265.803 190.787 266.442C188.708 266.953 186.47 266.985 184.359 267.017C179.882 267.049 174.317 267.272 175.373 261.042C175.724 258.902 182.952 258.742 184.359 258.71C186.598 258.678 192.546 258.678 193.345 261.585ZM238.309 369.538C202.332 369.634 166.322 369.73 130.345 369.858C130.057 364.107 129.226 357.206 136.197 357.206C140.035 357.206 143.904 357.206 147.742 357.206C159.926 357.206 172.143 357.206 184.327 357.206C196.511 357.206 208.728 357.206 220.912 357.206C224.75 357.206 228.619 357.206 232.457 357.206C239.332 357.206 238.565 363.916 238.309 369.538ZM226.636 327.814C226.636 336.185 226.668 344.555 226.764 352.957C213.237 352.957 199.677 352.957 186.15 352.957C171.407 352.957 156.632 352.957 141.89 352.957C141.986 345.386 142.018 337.814 142.018 330.242C142.018 324.332 140.259 316.6 147.934 316.6C159.766 316.6 171.567 316.6 183.4 316.6C195.552 316.6 207.704 316.6 219.825 316.6C227.148 316.6 226.636 321.297 226.636 327.814ZM213.077 300.978C215.188 302.415 220.336 304.62 220.592 307.399C220.752 308.997 220.784 310.626 220.816 312.223C209.015 311.776 197.087 312.351 185.286 312.351C172.814 312.351 160.342 312.351 147.87 312.351C148.03 307.495 149.021 305.035 153.946 302.096C157.656 299.859 161.11 297.176 164.436 294.396C171.759 288.262 176.396 280.179 178.347 270.978C180.362 271.298 182.472 271.298 184.327 271.33C186.246 271.362 188.325 271.266 190.307 270.914C192.13 279.604 196.256 286.697 202.651 292.959C205.754 295.962 209.463 298.518 213.077 300.978ZM190.051 254.94C188.005 254.557 185.926 254.461 184.295 254.461C182.856 254.461 180.745 254.589 178.603 254.972C177.867 249.094 176.588 243.119 173.966 237.784C176.652 238.519 179.498 239.062 182.536 239.317C186.821 239.701 190.723 239.381 194.305 238.519C191.938 243.662 190.755 249.349 190.051 254.94ZM270.193 170.565C263.893 199.67 244.097 224.206 213.525 226.123C215.156 224.206 216.659 222.161 218.066 219.989C218.13 219.989 218.226 219.989 218.29 219.957C245.952 214.941 263.221 185.932 266.163 159.734C266.899 153.089 268.53 135.518 257.497 135.518C254.683 135.518 252.924 138.201 251.421 140.214C246.912 146.284 242.946 151.811 235.143 153.089C235.239 150.054 235.271 147.051 235.303 144.048C247.647 142.77 256.442 112.962 268.434 132.706C274.862 143.281 272.655 159.159 270.193 170.565Z" fill="white" fill-opacity="0.1"/>
<path d="M207.864 330.626C207.832 328.517 207.544 326.504 206.137 324.843C204.474 322.894 201.372 322.67 199.006 322.67C188.612 322.67 178.219 322.67 167.825 322.67C165.907 322.67 163.988 322.99 162.549 324.364C161.078 325.769 160.822 328.038 160.79 329.955C160.79 332.99 160.79 335.993 160.758 339.028C160.758 341.775 160.822 344.683 162.868 346.759C164.563 348.517 167.058 348.453 169.328 348.453C178.571 348.453 187.813 348.453 197.087 348.453C199.741 348.453 202.811 348.708 205.178 347.239C207.992 345.481 207.928 341.935 207.896 339.028C207.864 336.184 207.864 333.405 207.864 330.626ZM202.779 343.66C201.308 344.587 198.718 344.172 197.087 344.172C187.845 344.172 178.603 344.172 169.328 344.172C168.753 344.172 168.177 344.172 167.602 344.172C167.538 344.172 166.994 344.14 166.962 344.14C166.418 344.044 166.066 343.884 165.875 343.724C164.723 342.702 165.011 340.402 165.011 338.996C165.043 335.961 165.043 332.958 165.043 329.923C165.043 329.22 165.075 328.709 165.171 328.197C165.171 328.134 165.331 327.686 165.331 327.654C165.363 327.59 165.395 327.527 165.427 327.463C165.427 327.431 165.427 327.431 165.459 327.431C165.491 327.399 165.491 327.399 165.523 327.367C165.555 327.335 165.555 327.303 165.555 327.303C165.587 327.303 165.651 327.271 165.747 327.207C165.779 327.207 165.779 327.207 165.779 327.175C165.875 327.143 165.971 327.111 166.066 327.079C166.674 326.888 166.93 326.92 167.761 326.92C178.155 326.92 188.548 326.92 198.942 326.92C199.869 326.92 200.765 326.951 201.66 327.175C202.268 327.303 202.651 327.495 202.907 327.718C203.131 327.91 203.227 328.197 203.355 328.613C203.515 329.188 203.515 329.859 203.515 330.626C203.515 333.405 203.515 336.216 203.547 338.996C203.643 340.274 204.091 342.862 202.779 343.66Z" fill="white" fill-opacity="0.1"/>
<path d="M226.988 141.46C226.924 141.204 226.573 141.3 226.541 141.524C224.366 159.032 221.584 175.932 214.612 192.322C210.87 201.171 205.914 209.701 199.102 216.538C192.29 223.375 184.199 225.899 174.957 227.624C174.925 227.624 174.925 227.656 174.893 227.656C174.861 227.688 174.829 227.72 174.829 227.752V227.784V227.816C174.829 227.848 174.829 227.88 174.861 227.912C174.893 227.944 174.893 227.944 174.925 227.976C174.957 227.976 174.957 227.976 174.989 228.008C195.104 236.921 211.062 215.101 217.65 199.286C221.999 188.839 224.59 177.625 226.125 166.444C227.244 158.425 228.491 149.543 226.988 141.46Z" fill="white" fill-opacity="0.1"/>
<path d="M189.092 278.422C189.028 278.326 188.932 278.294 188.836 278.326C188.74 278.358 188.644 278.422 188.676 278.55C190.339 292.224 198.526 306.664 213.876 306.473C213.972 306.473 214.068 306.377 214.1 306.313C214.132 306.217 214.1 306.121 214.004 306.089C208.951 303.789 204.346 301.073 200.413 297.08C195.136 291.744 192.29 285.003 189.092 278.422Z" fill="white" fill-opacity="0.1"/>
<path d="M184.423 134.975C184.455 134.975 184.455 134.975 184.487 134.975C184.583 134.975 184.615 134.879 184.615 134.783C184.615 134.783 184.615 134.783 184.615 134.751C184.615 134.751 184.615 134.751 184.615 134.719C184.615 134.623 184.583 134.559 184.487 134.527C184.455 134.527 184.455 134.527 184.423 134.527C176.332 133.409 168.241 133.92 160.118 134.591C154.074 135.102 146.815 135.166 141.218 137.658C141.058 137.722 141.026 137.85 141.09 137.978C141.122 138.106 141.25 138.201 141.378 138.233C147.55 138.553 153.978 137.275 160.182 136.86C168.241 136.317 176.364 136.125 184.423 134.975Z" fill="white" fill-opacity="0.1"/>
<path d="M127.159 371.86C132.948 340.199 112.513 311.477 80.9484 305.375C50.3757 299.465 22.3613 320.998 17.0527 350.71C11.6481 380.965 32.1152 411.635 63.0717 415.724C93.6124 419.75 120.316 402.019 127.159 371.86ZM68.2204 412.018C37.5517 410.677 18.2679 382.882 20.8902 353.841C23.5766 324.321 51.399 305.471 79.8291 309.497C109.219 313.65 128.247 342.339 123.066 370.741C117.022 397.258 95.2754 413.201 68.2204 412.018Z" fill="white" fill-opacity="0.1"/>
<path d="M158.052 461.953C147.402 445.244 136.721 428.536 126.072 411.827C128.151 408.632 128.023 404.638 126.424 401.284C130.677 402.274 135.026 401.188 137.361 396.811C139.344 393.169 138.704 389.111 136.529 385.949C140.239 385.405 143.405 383.201 144.428 378.952C145.324 375.246 143.981 371.764 141.518 369.272C144.652 367.674 146.859 364.799 146.699 360.646C146.507 356.013 143.309 352.627 139.28 351.189C142.989 348.889 145.26 345.055 143.853 340.295C142.669 336.301 139.344 333.905 135.57 333.202C137.872 330.103 138.544 326.205 136.082 322.435C134.035 319.305 130.741 317.867 127.319 317.867C128.406 314.608 127.927 311.094 125.017 308.282C121.627 304.992 116.862 304.832 112.896 306.717C113.888 302.468 112.8 298.123 108.419 295.791C104.773 293.81 100.712 294.449 97.5458 296.621C97.0022 292.915 94.7956 289.752 90.5422 288.73C86.8326 287.836 83.3468 289.177 80.8523 291.637C79.2533 288.506 76.3752 286.302 72.2178 286.462C67.5807 286.653 64.1908 289.848 62.7517 293.906C60.4492 290.2 56.6116 287.931 51.8466 289.337C47.8491 290.519 45.4507 293.842 44.7471 297.612C41.6451 295.311 37.7435 294.641 33.9699 297.101C30.8358 299.145 29.3967 302.436 29.3967 305.854C26.1348 304.768 22.617 305.247 19.8028 308.155C16.5089 311.541 16.349 316.301 18.2358 320.263C13.9825 319.273 9.6332 320.359 7.29867 324.736C5.31592 328.378 5.95551 332.435 8.13014 335.598C4.42048 336.141 1.25447 338.346 0.231114 342.595C-0.664322 346.301 0.678844 349.783 3.14129 352.275C0.007267 353.873 -2.19935 356.748 -2.03945 360.901C-1.84757 365.534 1.35041 368.92 5.41186 370.358C1.70219 372.658 -0.568375 376.492 0.838739 381.252C2.02199 385.246 5.34791 387.642 9.12153 388.345C6.81898 391.444 6.14739 395.341 8.60984 399.111C10.6566 402.242 13.9505 403.68 17.3723 403.68C16.285 406.939 16.7647 410.453 19.6749 413.296C23.0647 416.587 27.8297 416.747 31.7952 414.862C30.8039 419.111 31.8912 423.456 36.2724 425.788C39.9181 427.769 43.9796 427.13 47.1456 424.957C47.6892 428.663 49.8958 431.826 54.1491 432.849C55.8761 433.264 57.571 433.2 59.106 432.753C59.106 453.136 59.138 473.519 59.138 493.902C59.138 506.457 71.5142 496.681 75.9275 493.231C81.2041 489.109 83.6666 491.601 88.6554 495.307C90.862 496.969 94.3478 500.675 97.4499 500.643C103.27 500.547 102.599 493.806 102.599 489.557C102.599 478.343 102.599 467.097 102.567 455.883C107.268 463.263 111.969 470.643 116.67 478.023C119.612 482.624 122.362 489.653 127.735 491.793C132.34 493.614 134.802 483.518 135.666 481.218C137.808 475.563 138.352 471.506 145.036 473.008C147.019 473.455 149.161 473.423 151.176 473.615C160.418 474.413 162.977 469.685 158.052 461.953ZM92.1093 427.897C88.9433 429.526 86.4168 427.258 85.0737 424.606C88.8153 423.871 92.429 422.817 95.8829 421.475C95.9468 424.159 94.6996 426.555 92.1093 427.897ZM11.616 353.106C12.5434 342.467 16.221 332.978 21.8175 325.055C22.2652 324.736 22.617 324.288 22.7449 323.777C22.7769 323.745 22.8089 323.713 22.8089 323.681C23.2566 323.394 23.6084 322.947 23.7683 322.435C36.0486 307.036 56.036 298.283 77.0787 299.784C113.536 302.404 138.672 337.675 132.148 372.594C125.208 403.52 99.7205 422.465 68.1883 421.315C32.0511 419.973 8.57787 387.61 11.616 353.106ZM66.7812 425.5C70.6188 425.82 74.3924 425.852 78.0701 425.532C77.3665 428.216 75.3838 430.452 72.4097 430.74C68.9878 431.091 67.2929 428.44 66.7812 425.5ZM101.032 419.207C104.422 417.545 107.619 415.597 110.658 413.36C111.425 416.012 110.881 418.887 108.483 420.676C105.765 422.753 102.982 421.411 101.032 419.207ZM114.335 410.485C117.181 408.057 119.836 405.373 122.266 402.434C123.641 404.766 123.897 407.673 122.106 409.974C119.932 412.785 116.83 412.21 114.335 410.485ZM133.843 394.255C132.724 397.642 129.302 397.801 126.456 396.843C128.534 393.744 130.325 390.421 131.892 386.939C133.939 388.824 134.77 391.444 133.843 394.255ZM133.971 381.795C134.898 379.207 135.666 376.524 136.305 373.744C136.497 372.786 136.625 371.827 136.753 370.869C139.12 372.179 140.559 374.447 140.399 377.386C140.207 380.933 136.945 381.987 133.971 381.795ZM142.446 360.614C142.797 364.032 140.175 365.725 137.265 366.237C137.553 362.403 137.489 358.633 137.137 354.927C139.855 355.598 142.126 357.61 142.446 360.614ZM139.567 340.965C141.23 344.16 138.832 346.748 136.114 348.058C135.346 344.32 134.259 340.678 132.884 337.164C135.698 337.036 138.192 338.282 139.567 340.965ZM132.372 324.576C134.483 327.419 133.011 330.263 130.677 332.212C128.982 328.793 126.999 325.566 124.729 322.499C127.447 321.573 130.517 322.084 132.372 324.576ZM121.659 310.966C124.569 313.202 123.833 316.461 121.978 318.985C119.516 316.078 116.798 313.426 113.856 310.966C116.222 309.433 119.292 309.113 121.659 310.966ZM105.925 299.273C109.41 300.423 109.506 304.001 108.451 306.877C105.349 304.768 102.023 302.915 98.5052 301.318C100.36 299.209 103.046 298.315 105.925 299.273ZM89.0072 292.692C92.5889 292.883 93.6123 296.238 93.4204 299.209C90.0625 297.995 86.5768 297.005 82.963 296.302C82.8351 296.27 82.7072 296.27 82.5473 296.238C83.8585 293.938 86.129 292.532 89.0072 292.692ZM72.2178 290.679C75.5117 290.327 77.2066 292.788 77.7823 295.535C74.0406 295.12 70.363 295.024 66.7172 295.248C67.5487 292.851 69.4675 290.935 72.2178 290.679ZM52.5502 293.554C55.4603 292.053 57.8268 293.874 59.234 296.238C55.6522 296.909 52.1344 297.899 48.7446 299.177C48.9365 296.813 50.2156 294.736 52.5502 293.554ZM36.1445 300.711C38.6389 298.826 41.1973 299.784 43.0841 301.637C39.8222 303.267 36.7201 305.151 33.778 307.324C33.2983 304.896 33.9699 302.34 36.1445 300.711ZM22.5211 311.445C24.5358 308.857 27.3181 309.145 29.6846 310.551C26.9343 312.947 24.3439 315.535 22.0094 318.378C20.9541 316.142 20.8901 313.522 22.5211 311.445ZM10.8165 327.164C11.8398 324.033 14.8779 323.65 17.5962 324.384C15.5815 327.451 13.8545 330.678 12.3515 334.097C10.6246 332.244 9.953 329.784 10.8165 327.164ZM10.2408 339.624C9.40935 342.148 8.70579 344.735 8.16214 347.387C7.97026 348.409 7.77837 349.4 7.65044 350.39C5.44384 349.08 4.10069 346.844 4.26059 344.032C4.42049 340.678 7.39462 339.56 10.2408 339.624ZM2.21387 360.805C1.89407 357.515 4.29256 355.821 7.07481 355.246C6.78699 359.016 6.78699 362.722 7.10678 366.364C4.58038 365.629 2.50169 363.681 2.21387 360.805ZM5.09206 380.453C3.52504 377.386 5.60375 374.894 8.16214 373.553C8.89767 377.227 9.953 380.805 11.2962 384.255C8.67381 384.255 6.40323 382.977 5.09206 380.453ZM12.2875 396.875C10.2728 394.191 11.52 391.476 13.6307 389.527C15.2936 392.881 17.2444 396.076 19.451 399.079C16.8287 399.75 14.0144 399.207 12.2875 396.875ZM23.0008 410.453C20.2505 408.312 20.7622 405.277 22.3932 402.817C24.8236 405.661 27.478 408.28 30.3881 410.677C28.0856 412.018 25.2394 412.178 23.0008 410.453ZM38.7349 422.178C35.409 421.092 35.1851 417.737 36.0805 414.958C39.1826 417.002 42.4765 418.823 45.9623 420.325C44.1075 422.274 41.5171 423.072 38.7349 422.178ZM55.6203 428.727C52.0705 428.536 51.0151 425.277 51.207 422.306C54.7248 423.488 58.3705 424.382 62.1761 424.989C60.9289 427.385 58.5944 428.887 55.6203 428.727ZM63.3594 486.969C63.3594 468.056 63.3274 449.174 63.3274 430.261C63.4873 430.133 63.6472 429.973 63.7751 429.845C64.4147 431.123 65.2782 432.242 66.3655 433.136C66.7173 453.583 67.037 474.03 67.2289 494.477C66.8771 494.732 66.5254 494.988 66.1736 495.212C62.2721 497.672 63.3594 489.014 63.3594 486.969ZM78.0701 485.723C75.096 486.585 72.2498 490.515 69.7553 492.56C69.5954 473.231 69.2756 453.871 68.9558 434.542C69.9792 434.893 71.1305 435.053 72.4097 435.021C77.0468 434.829 80.4366 431.635 81.8757 427.577C84.0823 431.155 87.76 433.36 92.2692 432.274C92.3011 452.113 91.2458 471.953 91.2458 491.793C87.5361 488.726 82.7711 484.349 78.0701 485.723ZM93.8042 493.71C93.7402 472.912 94.9235 452.113 94.8276 431.283C96.2666 430.484 97.4179 429.334 98.2494 427.992C98.2494 444.414 98.2814 460.835 98.2814 477.289C98.3133 480.931 100.2 497.288 93.8042 493.71ZM126.008 484.605C125.336 483.582 124.697 482.528 124.025 481.506C121.882 478.119 119.708 474.733 117.565 471.346C112.576 463.519 107.587 455.692 102.599 447.864C102.599 446.235 102.599 444.637 102.599 443.008C111.745 456.426 120.603 470.036 129.814 483.423C128.854 484.126 127.575 484.509 126.008 484.605ZM137.585 468.535C134.195 470.196 132.756 476.905 131.604 479.972C131.54 480.388 131.444 480.771 131.349 481.122C121.659 466.969 112.321 452.561 102.599 438.44C102.599 434.063 102.599 429.686 102.599 425.309C105.125 426.267 107.939 426.139 110.722 424.35C113.824 422.338 115.263 419.079 115.295 415.692C127.863 432.976 138.352 451.794 150.664 469.27C149.129 469.11 147.562 468.854 146.059 468.726C142.861 468.471 140.591 467.065 137.585 468.535ZM154.278 469.461C154.118 469.461 153.958 469.461 153.83 469.461C141.486 452.145 131.029 433.456 118.685 416.14C120.156 416.108 121.627 415.692 123.002 414.83C131.668 428.44 140.367 442.05 149.033 455.66C150.313 457.768 159.171 469.174 154.278 469.461Z" fill="white" fill-opacity="0.1"/>
<path d="M100.104 386.875C99.0811 383.041 98.0577 379.208 96.9704 375.374C96.6506 374.224 95.4673 373.617 94.348 373.872C91.9496 374.447 89.5191 375.054 87.1206 375.629C82.2916 359.144 77.4946 342.659 72.6657 326.173C72.3459 325.087 71.1626 324.32 70.0434 324.672C64.4469 326.429 58.2748 326.781 54.9809 331.828C52.8382 335.119 50.6955 338.378 48.5849 341.668C46.2823 345.183 48.5529 348.793 49.6402 352.659C49.96 353.777 51.1433 354.48 52.2626 354.16C54.9169 353.393 57.5712 352.627 60.2255 351.828C62.9758 361.476 65.79 371.093 68.6362 380.709C66.0139 381.476 63.3596 382.243 60.7372 383.009C59.6499 383.329 58.9143 384.511 59.2341 385.629C60.4494 389.719 61.6646 393.808 62.9438 397.833C63.2956 398.92 64.4149 399.654 65.5662 399.335C76.5672 396.044 87.5683 392.722 98.6013 389.495C99.7206 389.175 100.424 388.025 100.104 386.875ZM61.121 347.163C58.4347 347.93 55.7484 348.729 53.0621 349.496C52.1027 347.004 51.3032 345.342 52.9022 342.85C54.5651 340.295 56.26 337.707 57.923 335.119C60.5453 331.125 64.3509 330.646 69.1479 329.368C73.9769 345.822 78.7738 362.275 83.5708 378.728C83.8906 379.878 85.0419 380.485 86.1932 380.23C88.5917 379.655 90.9902 379.048 93.3886 378.473C94.0922 380.965 94.7638 383.457 95.4354 385.981C85.7455 388.824 76.0875 391.731 66.4296 394.639C65.5981 391.923 64.7667 389.239 63.9672 386.524C66.5895 385.757 69.2438 384.99 71.8662 384.223C72.3139 384.096 72.6337 383.872 72.8576 383.584C72.8895 383.553 72.9215 383.521 72.9535 383.489C72.9535 383.489 72.9535 383.489 72.9535 383.457C73.3693 383.009 73.5611 382.37 73.3373 381.572C70.0753 370.613 66.8773 359.623 63.7433 348.601C63.4235 347.547 62.2403 346.812 61.121 347.163Z" fill="white" fill-opacity="0.1"/>
<path d="M59.5536 314.001C59.5536 313.969 59.5536 313.905 59.5536 313.873C59.5216 313.778 59.4257 313.714 59.2978 313.746C42.4764 316.877 30.8037 332.339 26.7742 348.058C23.6402 360.262 23.6722 380.038 34.1936 389.08C34.2255 389.112 34.2895 389.143 34.3535 389.143C34.5453 389.143 34.7052 389.016 34.6413 388.824C29.4925 376.109 27.5417 363.84 30.356 350.23C31.891 342.755 34.9611 335.662 39.4383 329.464C44.619 322.308 51.7185 317.995 59.4577 314.097C59.4896 314.097 59.5216 314.065 59.5536 314.001Z" fill="white" fill-opacity="0.1"/>
<path d="M65.6298 313.905C67.3248 313.778 68.9877 313.714 70.5867 313.171C70.7146 313.139 70.7786 312.979 70.6507 312.883C69.2755 311.541 67.3887 311.669 65.6298 311.893C64.5105 312.02 62.4638 312.436 61.9202 313.618C61.9202 313.65 61.9202 313.682 61.9521 313.714C62.8796 314.321 64.5425 313.969 65.6298 313.905Z" fill="white" fill-opacity="0.1"/>
<path d="M116.99 344.959C116.926 344.863 116.83 344.831 116.702 344.863C116.67 344.863 116.606 344.895 116.574 344.927H116.542C116.51 344.959 116.478 345.023 116.51 345.087C117.597 354.512 117.118 363.968 114.751 373.137C111.905 384.064 105.989 392.37 98.1855 400.262C98.0576 400.389 98.1855 400.677 98.3774 400.613C117.885 393.105 125.113 362.563 116.99 344.959Z" fill="white" fill-opacity="0.1"/>
<path d="M306.882 358.877C292.875 347.568 270.841 350.028 259.872 364.245C247.975 379.644 249.062 400.186 264.029 413.03C278.74 425.649 299.527 422.997 312.255 409.451C312.383 409.356 312.51 409.228 312.638 409.068C312.766 408.908 312.862 408.78 312.958 408.621C325.079 392.679 322.616 371.593 306.882 358.877ZM259.424 372.583C266.907 357.056 285.136 352.296 300.07 359.516C317.787 368.078 321.145 391.369 309.632 406.065C285.807 432.071 243.882 404.851 259.424 372.583Z" fill="white" fill-opacity="0.1"/>
<path d="M248.359 375.81C247.144 374.596 245.289 374.979 244.297 376.225C243.498 377.247 243.754 378.813 244.681 379.676C245.545 380.474 246.6 380.538 247.559 380.091C247.911 379.995 248.263 379.771 248.519 379.452C248.807 379.164 248.967 378.813 248.998 378.462C249.286 377.535 249.062 376.545 248.359 375.81ZM245.065 377.024C245.033 377.088 245.001 377.152 244.969 377.216C244.969 377.184 244.969 377.184 244.969 377.152C245.001 377.12 245.033 377.056 245.065 377.024Z" fill="white" fill-opacity="0.1"/>
<path d="M328.085 393.445C327.061 392.423 325.143 392.423 324.247 393.605C323.352 394.755 323.32 396.289 324.439 397.311C325.335 398.11 326.39 398.174 327.349 397.726C327.701 397.631 328.021 397.439 328.277 397.119C328.564 396.832 328.724 396.48 328.756 396.129C329.012 395.171 328.82 394.18 328.085 393.445ZM324.791 394.659C324.759 394.723 324.727 394.787 324.695 394.851C324.695 394.819 324.695 394.819 324.695 394.787C324.759 394.755 324.791 394.691 324.791 394.659Z" fill="white" fill-opacity="0.1"/>
<path d="M293.45 348.75C293.738 349.037 294.09 349.197 294.474 349.261C295.401 349.517 296.393 349.325 297.128 348.59C298.343 347.376 297.96 345.523 296.712 344.533C295.689 343.734 294.122 343.989 293.259 344.916C292.459 345.779 292.395 346.865 292.843 347.823C292.907 348.143 293.099 348.462 293.45 348.75ZM295.913 345.299C295.849 345.267 295.785 345.235 295.721 345.203C295.753 345.203 295.753 345.203 295.785 345.203C295.817 345.235 295.881 345.267 295.913 345.299Z" fill="white" fill-opacity="0.1"/>
<path d="M279.283 424.403C278.132 423.508 276.597 423.477 275.574 424.595C274.774 425.457 274.71 426.512 275.126 427.438C275.222 427.79 275.446 428.141 275.765 428.429C276.053 428.716 276.405 428.876 276.789 428.908C277.716 429.163 278.708 428.972 279.443 428.237C280.467 427.214 280.467 425.298 279.283 424.403ZM278.26 424.946C278.196 424.914 278.132 424.882 278.068 424.85C278.1 424.85 278.1 424.85 278.132 424.85C278.164 424.882 278.228 424.914 278.26 424.946Z" fill="white" fill-opacity="0.1"/>
<path d="M263.549 354.628C263.805 354.756 264.093 354.82 264.445 354.82C264.477 354.82 264.509 354.82 264.573 354.82C264.893 354.82 265.18 354.724 265.468 354.564C266.587 354.053 267.387 352.775 267.003 351.529C266.619 350.315 265.596 349.325 264.253 349.484C262.814 349.676 261.695 350.73 261.758 352.232C261.79 353.478 262.558 354.245 263.549 354.628ZM263.901 350.634C263.837 350.666 263.773 350.666 263.709 350.698C263.709 350.698 263.709 350.666 263.741 350.666C263.773 350.666 263.837 350.666 263.901 350.634Z" fill="white" fill-opacity="0.1"/>
<path d="M308.161 418.301C306.722 418.493 305.603 419.515 305.667 421.049C305.699 422.263 306.466 423.061 307.458 423.413C307.713 423.54 308.001 423.636 308.353 423.604C308.385 423.604 308.417 423.604 308.481 423.604C308.801 423.604 309.12 423.509 309.376 423.349C310.464 422.838 311.295 421.56 310.911 420.314C310.528 419.164 309.504 418.141 308.161 418.301ZM307.777 419.451C307.713 419.483 307.649 419.483 307.585 419.515C307.585 419.515 307.585 419.515 307.617 419.483C307.681 419.451 307.745 419.451 307.777 419.451Z" fill="white" fill-opacity="0.1"/>
<path d="M320.697 361.944C319.482 361.976 318.683 362.743 318.331 363.765C318.203 364.021 318.139 364.308 318.139 364.66C318.139 364.66 318.139 364.66 318.139 364.692C318.139 364.724 318.139 364.756 318.139 364.788C318.139 365.107 318.235 365.395 318.395 365.682C318.906 366.8 320.186 367.599 321.433 367.216C322.616 366.864 323.639 365.81 323.48 364.468C323.256 363.031 322.2 361.912 320.697 361.944ZM322.328 364.085C322.296 364.021 322.296 363.957 322.264 363.893C322.264 363.893 322.264 363.893 322.296 363.925C322.296 363.989 322.296 364.053 322.328 364.085Z" fill="white" fill-opacity="0.1"/>
<path d="M251.813 405.809C250.597 405.841 249.798 406.608 249.446 407.63C249.318 407.886 249.254 408.173 249.254 408.525C249.254 408.525 249.254 408.525 249.254 408.557C249.254 408.589 249.254 408.621 249.254 408.653C249.254 408.972 249.35 409.292 249.51 409.547C250.022 410.633 251.301 411.464 252.548 411.081C253.731 410.697 254.755 409.675 254.595 408.333C254.403 406.895 253.348 405.777 251.813 405.809ZM253.444 407.95C253.412 407.886 253.412 407.822 253.38 407.758C253.38 407.758 253.38 407.758 253.412 407.79C253.412 407.854 253.444 407.918 253.444 407.95Z" fill="white" fill-opacity="0.1"/>
<path d="M253.475 365.427C253.795 365.427 254.115 365.363 254.371 365.171C254.403 365.171 254.435 365.139 254.467 365.139C254.755 364.98 254.947 364.788 255.106 364.532C255.682 363.861 255.906 363.063 255.682 362.008C255.33 360.443 253.252 359.708 251.908 360.443C249.286 361.913 250.725 365.746 253.475 365.427ZM252.996 361.21C252.964 361.242 252.9 361.242 252.836 361.242C252.868 361.242 252.932 361.21 252.996 361.21Z" fill="white" fill-opacity="0.1"/>
<path d="M318.331 407.918C315.708 409.387 317.148 413.221 319.898 412.902C320.218 412.902 320.537 412.838 320.825 412.646C320.857 412.646 320.889 412.614 320.921 412.614C321.209 412.454 321.433 412.231 321.593 412.007C322.168 411.336 322.392 410.538 322.168 409.483C321.753 407.918 319.674 407.183 318.331 407.918ZM319.418 408.685C319.386 408.717 319.322 408.717 319.258 408.717C319.29 408.717 319.354 408.685 319.418 408.685Z" fill="white" fill-opacity="0.1"/>
<path d="M307.745 354.596C307.745 354.628 307.777 354.628 307.777 354.66C307.777 354.66 307.777 354.66 307.777 354.692C307.937 354.98 308.129 355.171 308.385 355.331C309.057 355.938 309.888 356.13 310.911 355.906C312.478 355.523 313.214 353.478 312.478 352.136C311.007 349.517 307.17 350.954 307.49 353.702C307.49 354.021 307.585 354.341 307.745 354.596ZM311.743 353.223C311.711 353.191 311.711 353.127 311.711 353.063C311.711 353.095 311.711 353.159 311.743 353.223Z" fill="white" fill-opacity="0.1"/>
<path d="M259.968 420.058C259.968 420.378 260.063 420.665 260.223 420.953C260.223 420.985 260.255 420.985 260.255 421.017C260.255 421.017 260.255 421.017 260.255 421.049C260.415 421.304 260.607 421.528 260.831 421.688C261.535 422.295 262.334 422.518 263.389 422.263C264.956 421.879 265.692 419.835 264.956 418.493C263.485 415.873 259.616 417.311 259.968 420.058ZM264.221 419.579C264.189 419.547 264.189 419.483 264.189 419.419C264.189 419.451 264.189 419.515 264.221 419.579Z" fill="white" fill-opacity="0.1"/>
<path d="M278.036 348.366C278.292 348.622 278.58 348.814 278.964 348.846C278.996 348.846 278.996 348.846 279.028 348.846C279.348 348.942 279.667 348.942 279.923 348.846C280.979 348.75 281.938 348.175 282.258 346.993C282.642 345.651 281.906 344.117 280.499 343.734C277.621 342.935 275.862 346.673 278.036 348.366ZM280.723 345.044C280.723 345.076 280.723 345.076 280.723 345.044C280.691 345.044 280.659 344.98 280.595 344.98C280.627 345.012 280.659 345.044 280.723 345.044Z" fill="white" fill-opacity="0.1"/>
<path d="M293.866 424.276C292.427 423.892 291.052 424.563 290.54 425.969C290.125 427.055 290.572 428.269 291.436 428.94C291.66 429.164 291.947 429.355 292.299 429.387C292.363 429.387 292.395 429.387 292.459 429.387C292.683 429.419 292.939 429.451 293.163 429.419C294.282 429.355 295.273 428.78 295.625 427.566C295.977 426.192 295.241 424.659 293.866 424.276Z" fill="white" fill-opacity="0.1"/>
<path d="M327.509 377.375C326.422 376.96 325.238 377.407 324.535 378.27C324.311 378.525 324.119 378.813 324.055 379.164C324.055 379.196 324.055 379.228 324.055 379.26C323.991 379.548 323.991 379.803 324.023 380.059C324.119 381.145 324.663 382.135 325.878 382.455C327.221 382.838 328.756 382.103 329.14 380.698C329.588 379.26 328.884 377.886 327.509 377.375ZM327.893 380.889C327.893 380.921 327.893 380.921 327.893 380.889V380.889Z" fill="white" fill-opacity="0.1"/>
<path d="M244.009 391.561C243.754 391.816 243.562 392.104 243.53 392.487C243.53 392.519 243.53 392.519 243.53 392.551C243.434 392.871 243.434 393.19 243.53 393.478C243.626 394.532 244.201 395.49 245.385 395.81C246.728 396.193 248.263 395.458 248.646 394.053C249.446 391.177 245.704 389.42 244.009 391.561ZM247.335 394.244C247.335 394.212 247.399 394.18 247.399 394.117C247.367 394.18 247.367 394.212 247.335 394.244Z" fill="white" fill-opacity="0.1"/>
<path d="M296.297 367.056C292.075 366.225 288.206 364.404 284.304 366.481C277.684 370.027 275.734 370.123 274.007 377.535C273.751 378.621 274.326 379.899 275.51 380.155C277.173 380.506 278.804 380.89 280.467 381.241C279.571 385.171 278.708 389.132 277.812 393.094C276.213 392.743 274.646 392.391 273.047 392.04C271.96 391.784 270.681 392.359 270.425 393.541C269.817 396.385 269.21 399.228 268.634 402.071C268.41 403.158 268.922 404.436 270.137 404.691C277.812 406.321 285.487 407.95 293.163 409.643C294.282 409.899 295.497 409.324 295.785 408.142C296.424 405.49 297.064 402.87 297.704 400.218C297.96 399.1 297.384 397.918 296.201 397.599C294.762 397.215 293.29 396.832 291.851 396.417C293.834 387.503 295.817 378.589 297.768 369.644C298.023 368.59 297.48 367.28 296.297 367.056ZM285.295 370.762C288.174 369.229 290.06 369.9 293.195 370.698C291.212 379.58 289.261 388.493 287.278 397.375C287.022 398.493 287.598 399.675 288.781 399.995C290.22 400.378 291.659 400.762 293.099 401.145C292.779 402.423 292.491 403.733 292.171 405.011C285.871 403.637 279.571 402.295 273.271 400.953C273.559 399.484 273.879 398.046 274.198 396.576C275.765 396.928 277.364 397.279 278.931 397.631C279.187 397.694 279.443 397.694 279.667 397.663C280.499 397.663 281.33 397.215 281.554 396.129C282.705 390.794 283.888 385.458 285.104 380.123C285.359 379.037 284.784 377.759 283.601 377.503C281.906 377.12 280.211 376.736 278.484 376.385C278.644 375.267 278.868 374.181 279.315 373.957C281.298 372.935 283.313 371.848 285.295 370.762Z" fill="white" fill-opacity="0.1"/>
<path d="M347.208 288.336C350.215 280.86 351.75 272.841 353.477 264.981C355.619 255.333 358.146 245.589 359.521 235.813C361.216 223.608 346.089 221.979 337.71 220.126C325.91 217.506 314.109 214.887 302.277 212.299C288.461 209.871 284.08 216.612 281.234 229.04C279.059 238.496 276.821 247.953 274.838 257.442C273.559 263.64 271.64 270.892 273.015 277.25C274.806 285.428 281.266 292.936 287.502 299.677C281.97 307.632 282.289 317.632 288.845 324.661C288.398 325.012 287.982 325.364 287.534 325.747C283.76 321.785 279.763 318.079 275.35 314.789C274.39 314.086 273.015 314.661 272.44 315.555C269.465 320.252 266.811 325.076 264.189 329.996C259.264 327.824 254.243 325.875 248.998 324.597C247.943 324.341 246.568 324.916 246.376 326.098C245.417 331.657 244.777 337.216 244.233 342.807C238.765 342.679 233.296 342.871 227.86 343.67C226.676 343.862 226.133 345.267 226.357 346.29C227.572 351.689 229.107 356.992 230.706 362.296C225.685 364.245 220.76 366.449 216.123 369.197C215.196 369.74 214.684 371.145 215.356 372.104C218.586 376.704 222.103 381.081 225.653 385.394C221.688 389.164 217.978 393.158 214.684 397.567C213.98 398.525 214.556 399.899 215.451 400.474C220.153 403.445 224.981 406.097 229.906 408.716C227.732 413.637 225.813 418.652 224.502 423.892C224.246 424.946 224.822 426.32 226.005 426.512C231.569 427.47 237.134 428.109 242.73 428.652C242.602 434.115 242.794 439.578 243.594 445.01C243.786 446.192 245.193 446.735 246.216 446.511C251.621 445.297 256.929 443.764 262.238 442.166C264.189 447.182 266.395 452.102 269.178 456.735C269.721 457.661 271.128 458.172 272.088 457.501C276.693 454.275 281.074 450.76 285.391 447.214C289.197 451.176 293.163 454.882 297.576 458.172C298.535 458.875 299.91 458.3 300.486 457.406C303.46 452.709 306.114 447.885 308.737 442.965C313.662 445.137 318.714 447.086 323.927 448.364C324.982 448.62 326.358 448.045 326.55 446.863C327.509 441.304 328.149 435.745 328.692 430.154C334.161 430.282 339.629 430.09 345.066 429.291C346.249 429.099 346.793 427.694 346.569 426.671C345.354 421.272 343.819 415.969 342.22 410.665C347.24 408.716 352.165 406.512 356.802 403.733C357.73 403.189 358.242 401.784 357.57 400.825C354.34 396.225 350.822 391.848 347.272 387.535C351.238 383.765 354.948 379.771 358.242 375.363C358.945 374.404 358.369 373.03 357.474 372.455C352.773 369.484 347.944 366.832 343.019 364.213C345.194 359.293 347.145 354.277 348.456 349.037C348.712 347.983 348.136 346.609 346.953 346.417C341.388 345.459 335.824 344.82 330.227 344.277C330.355 338.814 330.163 333.351 329.364 327.919C329.172 326.737 327.765 326.194 326.741 326.418C321.337 327.632 316.028 329.165 310.719 330.763C310.56 330.347 310.4 329.964 310.24 329.549C319.226 325.683 324.055 316.514 322.008 306.897C331.474 302.648 343.083 298.623 347.208 288.336ZM337.902 272.968C327.061 280.668 315.9 287.888 304.707 295.077C303.972 294.565 303.236 293.863 302.565 293.064C314.781 285.3 326.965 277.473 338.798 269.135C338.51 270.381 338.222 271.691 337.902 272.968ZM336.751 276.898C335.6 280.125 333.905 283 331.059 284.885C328.021 286.898 324.535 288.367 321.273 289.933C318.523 291.275 312.542 295.109 308.321 295.748C317.915 289.613 327.445 283.416 336.751 276.898ZM301.158 216.42C302.533 216.74 303.908 217.027 305.283 217.347C302.309 219.359 299.271 221.276 296.233 223.193C296.776 220.829 297.32 218.465 297.864 216.101C298.855 216.101 299.942 216.196 301.158 216.42ZM295.433 226.675C299.91 223.896 304.387 221.085 308.705 218.081C310.016 218.369 311.327 218.656 312.638 218.944C306.722 223.033 300.646 226.867 294.538 230.669C294.825 229.359 295.113 228.017 295.433 226.675ZM292.011 241.723C302.565 235.11 313.214 228.56 323.352 221.34C324.663 221.628 325.974 221.915 327.285 222.203C315.516 230.477 303.3 238.081 291.116 245.685C291.436 244.375 291.723 243.033 292.011 241.723ZM290.38 249.199C303.972 240.701 317.659 232.298 330.707 222.969C332.018 223.257 333.361 223.545 334.672 223.832C320.058 234.215 304.739 243.64 289.549 253.161C289.805 251.819 290.092 250.509 290.38 249.199ZM288.653 257.346C288.717 257.09 288.749 256.867 288.813 256.611C305.347 246.26 322.072 236.036 337.902 224.663C337.966 224.631 337.966 224.567 338.03 224.535C339.405 224.79 340.813 225.046 342.252 225.334C324.663 237.793 306.242 249.135 287.982 260.573C288.174 259.486 288.43 258.432 288.653 257.346ZM287.342 263.991C306.978 251.723 326.805 239.583 345.609 226.1C346.441 226.324 347.24 226.548 348.04 226.835C347.944 227.251 347.848 227.666 347.752 228.113C328.117 242.17 307.458 254.886 286.99 267.665C287.022 266.419 287.15 265.205 287.342 263.991ZM339.565 265.461C326.997 274.438 313.981 282.745 300.934 291.051C300.326 290.252 299.75 289.422 299.207 288.719C313.086 279.933 326.965 271.115 340.397 261.659C340.141 262.905 339.853 264.183 339.565 265.461ZM341.228 257.953C327.061 268.048 312.318 277.409 297.608 286.706C296.968 285.971 296.361 285.205 295.753 284.47C311.359 274.63 326.997 264.79 342.092 254.183C341.804 255.461 341.516 256.707 341.228 257.953ZM342.923 250.477C327.093 261.755 310.56 272.138 294.122 282.489C293.514 281.722 292.939 280.955 292.331 280.189C309.664 269.294 327.061 258.464 343.787 246.643C343.499 247.921 343.179 249.199 342.923 250.477ZM344.554 242.969C327.125 255.429 308.865 266.77 290.732 278.176C290.38 277.697 289.997 277.25 289.645 276.802C289.421 276.483 289.197 276.163 289.005 275.844C307.969 263.959 327.093 252.138 345.386 239.167C345.098 240.413 344.842 241.691 344.554 242.969ZM346.185 235.493C327.349 249.007 307.553 261.243 287.886 273.544C287.534 272.585 287.31 271.563 287.15 270.572C307.298 257.985 327.573 245.493 346.953 231.787C346.697 233.001 346.441 234.247 346.185 235.493ZM319.994 220.573C311.135 226.739 301.957 232.49 292.811 238.209C293.099 236.867 293.418 235.525 293.706 234.215C301.221 229.519 308.801 224.854 315.996 219.711C317.275 219.998 318.587 220.286 319.866 220.573C319.898 220.573 319.962 220.573 319.994 220.573ZM290.508 302.872C291.308 303.735 292.107 304.597 292.875 305.428C290.188 310.412 291.052 316.003 294.953 319.805C294.026 320.507 293.131 321.21 292.235 321.945C286.99 316.45 286.703 309.198 290.508 302.872ZM310.656 311.977C310.4 315.076 308.225 317.632 305.187 318.622C304.739 317.792 304.292 316.961 303.812 316.162C303.268 315.236 301.861 314.725 300.902 315.396C300.07 315.971 299.271 316.578 298.439 317.185C295.785 315.044 295.017 311.945 296.041 308.91C300.838 313.766 305.507 313.766 310.656 311.977ZM311.103 335.076C315.293 333.798 319.45 332.552 323.703 331.498C320.793 335.651 317.851 339.804 314.941 343.925C309.952 340.347 304.515 337.887 298.887 336.45C299.974 331.593 301.03 326.737 302.117 321.849C304.1 325.651 305.795 329.581 307.298 333.606C307.713 334.756 308.801 335.14 309.76 335.012C310.112 335.204 310.592 335.236 311.103 335.076ZM338.574 363.765C338.062 364.852 338.51 365.906 339.277 366.513C339.437 366.896 339.725 367.248 340.205 367.503C344.074 369.58 347.912 371.657 351.654 373.861C346.537 374.756 341.388 375.65 336.271 376.513C335.12 370.858 332.977 365.363 329.939 360.251C334.385 357.44 338.798 354.596 343.243 351.785C341.964 355.906 340.365 359.868 338.574 363.765ZM339.341 407.215C338.19 407.63 337.806 408.716 337.934 409.675C337.774 410.058 337.742 410.506 337.902 411.049C339.182 415.234 340.429 419.387 341.484 423.636C337.359 420.729 333.233 417.822 329.076 414.914C332.338 409.771 334.64 404.308 335.952 398.717C341.004 399.835 346.057 400.953 351.11 402.071C347.304 404.02 343.371 405.713 339.341 407.215ZM322.424 416.959C305.667 435.681 281.074 438.78 259.872 425.521C236.814 411.113 233.616 381.433 247.591 359.676C261.854 337.472 290.924 333.542 312.318 347.408C335.952 362.679 339.533 395.714 322.424 416.959ZM247.048 426.991C247.08 425.617 246.056 424.946 245.001 424.946C244.681 424.691 244.297 424.531 243.85 424.499C239.692 424.084 235.535 423.668 231.409 423.061C235.503 420.473 239.564 417.854 243.658 415.266C246.312 419.164 249.51 422.806 253.316 425.969C254.115 426.639 254.915 427.246 255.746 427.853C252.932 431.847 250.118 435.841 247.303 439.802C246.888 435.553 246.888 431.24 247.048 426.991ZM234.384 409.1C234.895 408.014 234.448 406.959 233.68 406.352C233.52 405.969 233.232 405.618 232.753 405.362C228.883 403.317 225.045 401.209 221.304 399.004C226.133 398.174 230.962 397.343 235.791 396.512C236.942 402.327 239.117 407.95 242.251 413.125C238.093 415.777 233.936 418.429 229.778 421.08C231.026 416.959 232.625 412.998 234.384 409.1ZM233.648 365.65C234.799 365.235 235.183 364.149 235.055 363.19C235.215 362.807 235.247 362.36 235.087 361.816C233.808 357.631 232.561 353.446 231.505 349.229C235.567 352.104 239.628 354.948 243.69 357.823C240.236 362.903 237.805 368.366 236.366 374.021C231.537 372.966 226.708 371.88 221.879 370.826C225.685 368.845 229.619 367.152 233.648 365.65ZM328.564 358.11C325.878 354.085 322.616 350.315 318.746 346.929C318.171 346.417 317.563 345.938 316.956 345.459C319.866 341.306 322.808 337.184 325.718 333.031C326.07 337.28 326.07 341.593 325.942 345.874C325.91 347.248 326.933 347.919 327.989 347.919C328.308 348.143 328.692 348.334 329.14 348.366C333.297 348.782 337.455 349.197 341.58 349.804C337.263 352.583 332.913 355.363 328.564 358.11ZM285.679 329.9C286.607 330.891 287.822 330.667 288.589 329.9C288.973 329.836 289.357 329.709 289.741 329.389C292.971 326.737 296.201 324.118 299.559 321.594C298.503 326.354 297.448 331.114 296.393 335.875C290.636 334.724 284.752 334.629 278.995 335.523C278.164 330.667 277.301 325.811 276.469 320.987C279.731 323.734 282.769 326.769 285.679 329.9ZM267.547 332.744C269.593 328.878 271.704 325.044 273.943 321.306C274.806 326.194 275.638 331.082 276.501 335.97C270.713 337.152 265.116 339.325 259.967 342.456C257.249 338.207 254.563 333.99 251.877 329.74C255.97 331.018 259.935 332.616 263.837 334.373C264.924 334.884 265.98 334.437 266.587 333.67C266.939 333.542 267.291 333.223 267.547 332.744ZM245.896 347.024C247.271 347.056 247.943 346.034 247.943 344.98C248.199 344.66 248.359 344.277 248.391 343.83C248.806 339.676 249.222 335.523 249.83 331.402C252.484 335.555 255.138 339.708 257.761 343.862C253.284 346.865 249.19 350.603 245.736 355.043C245.545 355.299 245.353 355.555 245.161 355.81C241.131 352.967 237.07 350.123 233.04 347.28C237.326 346.865 241.643 346.865 245.896 347.024ZM229.906 387.247C230.898 386.321 230.674 385.107 229.906 384.34C229.842 383.957 229.715 383.573 229.395 383.19C226.74 379.963 224.118 376.736 221.592 373.382C226.325 374.436 231.058 375.458 235.791 376.513C234.639 382.295 234.48 388.206 235.343 393.956C230.546 394.787 225.781 395.618 220.984 396.448C223.734 393.19 226.772 390.155 229.906 387.247ZM265.692 439.227C265.276 438.077 264.189 437.694 263.229 437.821C262.846 437.662 262.398 437.63 261.854 437.789C257.665 439.067 253.508 440.313 249.254 441.368C252.068 437.342 254.915 433.349 257.729 429.323C262.878 432.774 268.378 435.17 274.039 436.543C272.983 441.368 271.896 446.16 270.841 450.984C268.89 447.182 267.195 443.253 265.692 439.227ZM287.278 442.965C286.351 441.975 285.136 442.198 284.368 442.965C283.984 443.029 283.601 443.157 283.249 443.476C280.019 446.128 276.789 448.748 273.431 451.272C274.486 446.543 275.51 441.847 276.565 437.118C282.353 438.205 288.238 438.269 293.994 437.342C294.826 442.198 295.689 447.054 296.52 451.879C293.258 449.131 290.22 446.096 287.278 442.965ZM305.443 440.122C303.396 443.987 301.285 447.821 299.079 451.559C298.215 446.671 297.384 441.751 296.52 436.863C302.277 435.649 307.841 433.444 312.99 430.314C315.708 434.563 318.427 438.844 321.145 443.093C317.051 441.815 313.086 440.217 309.184 438.46C308.097 437.949 307.042 438.396 306.434 439.163C306.05 439.323 305.699 439.61 305.443 440.122ZM327.061 425.841C325.686 425.809 325.014 426.831 325.014 427.885C324.759 428.205 324.599 428.588 324.567 429.036C324.151 433.189 323.735 437.342 323.128 441.463C320.473 437.278 317.787 433.093 315.133 428.94C318.842 426.448 322.328 423.445 325.43 419.962C326.23 419.004 326.933 417.981 327.669 416.991C331.762 419.866 335.856 422.742 339.949 425.617C335.664 426 331.346 426 327.061 425.841ZM343.083 385.618C342.092 386.544 342.316 387.758 343.083 388.525C343.147 388.909 343.275 389.292 343.595 389.675C346.249 392.902 348.871 396.129 351.398 399.483C346.441 398.397 341.484 397.279 336.527 396.193C337.583 390.506 337.647 384.723 336.783 379.069C341.868 378.174 346.953 377.311 352.037 376.417C349.255 379.676 346.217 382.711 343.083 385.618ZM308.609 325.651C308.161 324.597 307.649 323.542 307.17 322.52C312.255 320.635 315.261 315.619 314.877 310.284C315.9 309.805 316.956 309.294 318.043 308.782C319.162 315.971 315.452 322.776 308.609 325.651ZM333.073 296.706C328.436 299.23 323.607 301.434 318.842 303.671C314.525 305.683 305.827 311.817 301.253 308.271C293.099 301.945 285.711 290.764 279.859 282.425C273.623 273.575 278.516 260.477 280.626 250.892C282.161 243.959 283.792 237.059 285.391 230.126C286.958 223.353 288.557 218.305 293.386 216.612C289.901 231.755 286.127 246.899 283.377 262.17C282.002 269.774 282.993 275.045 287.662 281.115C291.116 285.588 294.762 289.901 298.439 294.182C299.974 295.971 302.245 299.454 304.931 299.869C311.839 300.923 319.834 295.332 325.782 292.457C333.297 288.815 337.87 285.939 340.845 277.952C346.569 262.426 348.68 244.854 352.069 228.624C352.581 228.944 353.061 229.263 353.509 229.647C358.114 233.448 352.837 247.825 351.814 252.649C350.502 258.911 349.127 265.173 347.72 271.403C345.226 282.106 343.179 291.211 333.073 296.706Z" fill="white" fill-opacity="0.1"/>
<path d="M142.492 570.147C134.714 569.526 127.432 575.795 126.984 583.565C126.494 591.984 131.907 599.068 140.404 600.003C148.754 600.921 155.543 594.888 156.784 586.928C156.806 586.863 156.82 586.786 156.827 586.697C156.834 586.609 156.837 586.54 156.832 586.459C157.27 577.79 151.232 570.848 142.492 570.147ZM128.864 586.658C127.744 579.272 133.102 573.111 140.211 572.041C148.644 570.772 155.542 578.284 155.017 586.358C152.853 601.49 131.194 602.004 128.864 586.658Z" fill="white" fill-opacity="0.1"/>
<path d="M125.694 590.518C124.962 590.381 124.392 590.972 124.342 591.66C124.306 592.221 124.78 592.719 125.323 592.801C125.828 592.875 126.221 592.64 126.455 592.246C126.557 592.125 126.628 591.959 126.642 591.782C126.674 591.609 126.646 591.444 126.571 591.311C126.447 590.909 126.125 590.609 125.694 590.518ZM124.812 591.758C124.816 591.789 124.82 591.82 124.825 591.85C124.817 591.839 124.817 591.839 124.809 591.827C124.813 591.808 124.808 591.777 124.812 591.758Z" fill="white" fill-opacity="0.1"/>
<path d="M158.533 577.329C157.917 577.214 157.23 577.683 157.199 578.325C157.16 578.956 157.524 579.512 158.174 579.604C158.69 579.671 159.083 579.436 159.317 579.041C159.419 578.921 159.487 578.774 159.5 578.597C159.533 578.424 159.504 578.259 159.43 578.125C159.287 577.72 158.976 577.412 158.533 577.329ZM157.652 578.569C157.656 578.6 157.66 578.631 157.664 578.661C157.656 578.65 157.656 578.65 157.648 578.638C157.664 578.611 157.659 578.581 157.652 578.569Z" fill="white" fill-opacity="0.1"/>
<path d="M135.209 569.808C135.383 569.84 135.548 569.812 135.701 569.741C136.095 569.605 136.403 569.294 136.486 568.851C136.624 568.12 136.034 567.551 135.345 567.501C134.784 567.466 134.285 567.94 134.203 568.483C134.128 568.987 134.371 569.392 134.765 569.625C134.866 569.724 135.013 569.791 135.209 569.808ZM135.247 567.971C135.216 567.975 135.185 567.98 135.154 567.984C135.166 567.976 135.166 567.976 135.177 567.968C135.197 567.972 135.227 567.967 135.247 567.971Z" fill="white" fill-opacity="0.1"/>
<path d="M148.643 600.342C148.013 600.303 147.456 600.667 147.363 601.318C147.288 601.822 147.523 602.215 147.898 602.445C148.018 602.547 148.184 602.618 148.369 602.642C148.542 602.675 148.707 602.646 148.853 602.564C149.247 602.428 149.555 602.117 149.638 601.674C149.754 601.058 149.285 600.372 148.643 600.342ZM148.41 600.786C148.379 600.791 148.349 600.795 148.318 600.799C148.329 600.791 148.329 600.791 148.341 600.783C148.36 600.787 148.391 600.783 148.41 600.786Z" fill="white" fill-opacity="0.1"/>
<path d="M125.948 579.224C126.071 579.207 126.19 579.16 126.316 579.074C126.327 579.066 126.338 579.058 126.361 579.042C126.476 578.964 126.555 578.859 126.619 578.732C126.895 578.275 126.868 577.622 126.426 577.27C125.992 576.93 125.384 576.826 124.942 577.212C124.474 577.632 124.331 578.283 124.721 578.805C125.038 579.243 125.5 579.329 125.948 579.224ZM125.097 577.709C125.082 577.736 125.06 577.752 125.044 577.779C125.044 577.779 125.037 577.767 125.048 577.76C125.06 577.752 125.082 577.736 125.097 577.709Z" fill="white" fill-opacity="0.1"/>
<path d="M157.483 591.095C157.015 591.516 156.865 592.156 157.263 592.689C157.571 593.115 158.041 593.213 158.482 593.096C158.605 593.08 158.731 593.044 158.849 592.946C158.861 592.938 158.872 592.93 158.895 592.915C159.009 592.837 159.1 592.724 159.153 592.604C159.417 592.155 159.402 591.495 158.96 591.143C158.541 590.825 157.925 590.71 157.483 591.095ZM157.627 591.601C157.612 591.628 157.589 591.643 157.574 591.671C157.574 591.671 157.574 591.671 157.578 591.651C157.593 591.624 157.616 591.609 157.627 591.601Z" fill="white" fill-opacity="0.1"/>
<path d="M148.186 567.865C147.759 568.173 147.66 568.643 147.784 569.095C147.801 569.218 147.848 569.336 147.934 569.462C147.934 569.462 147.934 569.462 147.942 569.474C147.95 569.485 147.958 569.496 147.966 569.508C148.044 569.622 148.148 569.702 148.276 569.765C148.732 570.04 149.386 570.013 149.738 569.571C150.075 569.156 150.184 568.528 149.798 568.087C149.367 567.628 148.716 567.486 148.186 567.865ZM149.293 568.232C149.266 568.217 149.25 568.194 149.223 568.179C149.223 568.179 149.223 568.179 149.242 568.182C149.258 568.205 149.273 568.228 149.293 568.232Z" fill="white" fill-opacity="0.1"/>
<path d="M134.267 600.407C133.84 600.716 133.741 601.186 133.865 601.638C133.882 601.76 133.929 601.879 134.015 602.005C134.015 602.005 134.015 602.005 134.023 602.016C134.031 602.027 134.039 602.039 134.047 602.05C134.125 602.165 134.237 602.255 134.357 602.308C134.806 602.571 135.467 602.556 135.819 602.113C136.149 601.687 136.265 601.071 135.879 600.63C135.459 600.162 134.808 600.02 134.267 600.407ZM135.374 600.774C135.347 600.759 135.331 600.736 135.304 600.721C135.304 600.721 135.304 600.721 135.323 600.725C135.339 600.748 135.366 600.763 135.374 600.774Z" fill="white" fill-opacity="0.1"/>
<path d="M124.985 585.552C125.099 585.473 125.198 585.372 125.243 585.241C125.254 585.233 125.258 585.214 125.269 585.206C125.333 585.079 125.355 584.963 125.35 584.833C125.392 584.452 125.276 584.111 124.939 583.789C124.43 583.315 123.506 583.56 123.205 584.152C122.627 585.319 124.079 586.339 124.985 585.552ZM123.782 584.16C123.778 584.179 123.756 584.195 123.733 584.211C123.744 584.203 123.759 584.176 123.782 584.16Z" fill="white" fill-opacity="0.1"/>
<path d="M158.583 584.893C158.004 586.061 159.457 587.08 160.363 586.293C160.477 586.215 160.576 586.114 160.632 585.975C160.643 585.967 160.647 585.948 160.658 585.94C160.722 585.813 160.748 585.678 160.75 585.559C160.792 585.178 160.677 584.837 160.339 584.515C159.807 584.056 158.884 584.302 158.583 584.893ZM159.159 584.902C159.156 584.921 159.133 584.937 159.11 584.952C159.122 584.945 159.137 584.917 159.159 584.902Z" fill="white" fill-opacity="0.1"/>
<path d="M141.754 568.403C141.762 568.415 141.773 568.407 141.781 568.419C141.781 568.419 141.781 568.419 141.789 568.43C141.917 568.494 142.032 568.515 142.163 568.51C142.552 568.563 142.896 568.428 143.207 568.098C143.674 567.577 143.437 566.666 142.846 566.366C141.679 565.788 140.657 567.241 141.444 568.146C141.522 568.26 141.634 568.351 141.754 568.403ZM142.849 566.934C142.829 566.931 142.814 566.908 142.798 566.885C142.806 566.896 142.821 566.919 142.849 566.934Z" fill="white" fill-opacity="0.1"/>
<path d="M140.67 603.511C140.748 603.626 140.852 603.705 140.98 603.769C140.988 603.78 140.999 603.772 141.007 603.784C141.007 603.784 141.007 603.784 141.015 603.795C141.134 603.848 141.258 603.881 141.377 603.883C141.777 603.928 142.118 603.813 142.433 603.463C142.9 602.943 142.663 602.031 142.072 601.731C140.905 601.153 139.872 602.614 140.67 603.511ZM142.074 602.3C142.055 602.296 142.039 602.273 142.024 602.25C142.031 602.262 142.047 602.285 142.074 602.3Z" fill="white" fill-opacity="0.1"/>
<path d="M129.6 573.441C129.754 573.47 129.904 573.468 130.049 573.385C130.061 573.378 130.061 573.378 130.072 573.37C130.21 573.326 130.325 573.248 130.393 573.151C130.747 572.858 130.949 572.418 130.775 571.917C130.584 571.343 129.946 570.974 129.348 571.181C128.123 571.599 128.408 573.367 129.6 573.441ZM129.749 571.595C129.757 571.606 129.757 571.606 129.749 571.595C129.737 571.603 129.71 571.588 129.688 571.603C129.707 571.607 129.726 571.61 129.749 571.595Z" fill="white" fill-opacity="0.1"/>
<path d="M153.83 596.729C153.221 596.944 152.893 597.521 153.054 598.149C153.171 598.639 153.628 598.964 154.101 598.993C154.236 599.018 154.386 599.016 154.519 598.942C154.542 598.926 154.554 598.918 154.577 598.903C154.665 598.859 154.764 598.808 154.836 598.742C155.221 598.445 155.435 597.997 155.264 597.477C155.054 596.899 154.416 596.53 153.83 596.729Z" fill="white" fill-opacity="0.1"/>
<path d="M154.397 571.72C153.906 571.838 153.592 572.287 153.552 572.768C153.534 572.914 153.536 573.064 153.599 573.205C153.606 573.216 153.614 573.228 153.622 573.239C153.67 573.358 153.732 573.449 153.806 573.533C154.106 573.898 154.543 574.12 155.056 573.937C155.63 573.745 156 573.107 155.793 572.51C155.602 571.886 155.014 571.567 154.397 571.72ZM155.394 572.884C155.402 572.895 155.402 572.895 155.394 572.884V572.884Z" fill="white" fill-opacity="0.1"/>
<path d="M127.99 597.218C127.961 597.372 127.962 597.521 128.045 597.666C128.053 597.678 128.053 597.678 128.06 597.689C128.104 597.827 128.182 597.941 128.287 598.021C128.579 598.375 129.019 598.577 129.521 598.402C130.095 598.21 130.465 597.572 130.258 596.975C129.841 595.751 128.073 596.037 127.99 597.218ZM129.836 597.364C129.828 597.353 129.843 597.326 129.828 597.303C129.832 597.334 129.84 597.345 129.836 597.364Z" fill="white" fill-opacity="0.1"/>
<path d="M140.705 575.662C138.992 576.397 137.162 576.692 136.274 578.389C134.772 581.277 134.098 581.788 135.293 584.863C135.467 585.314 135.985 585.63 136.471 585.432C137.152 585.152 137.83 584.89 138.51 584.609C139.151 586.234 139.811 587.863 140.46 589.499C139.802 589.764 139.155 590.022 138.497 590.287C138.045 590.462 137.728 590.98 137.926 591.466C138.404 592.632 138.882 593.798 139.371 594.956C139.557 595.399 140.053 595.731 140.55 595.526C143.695 594.231 146.839 592.937 150 591.666C150.463 591.484 150.757 590.981 150.571 590.487C150.151 589.382 149.739 588.288 149.319 587.183C149.137 586.72 148.642 586.438 148.141 586.613C147.532 586.828 146.912 587.051 146.296 587.254C144.825 583.58 143.354 579.906 141.864 576.228C141.698 575.788 141.183 575.452 140.705 575.662ZM137.675 579.678C138.33 578.426 139.169 578.204 140.486 577.724C141.949 581.386 143.431 585.053 144.894 588.716C145.076 589.178 145.571 589.46 146.072 589.285C146.681 589.071 147.29 588.856 147.898 588.641C148.096 589.176 148.314 589.715 148.512 590.251C145.922 591.3 143.339 592.361 140.757 593.422C140.501 592.825 140.263 592.233 140.018 591.629C140.665 591.371 141.323 591.106 141.97 590.848C142.077 590.809 142.168 590.746 142.241 590.68C142.538 590.477 142.726 590.113 142.541 589.67C141.648 587.479 140.766 585.281 139.896 583.075C139.722 582.623 139.204 582.307 138.718 582.505C138.017 582.782 137.317 583.06 136.613 583.356C136.397 582.917 136.212 582.474 136.317 582.284C136.776 581.433 137.232 580.552 137.675 579.678Z" fill="white" fill-opacity="0.1"/>
<path d="M139.669 535.044C138.916 531.633 137.504 528.389 136.199 525.154C134.606 521.178 133.127 517.074 131.228 513.24C128.85 508.458 123.039 511.575 119.588 512.961C114.725 514.91 109.862 516.859 104.995 518.827C99.4582 521.337 99.5393 524.82 101.56 529.963C103.095 533.879 104.607 537.81 106.218 541.69C107.277 544.22 108.364 547.284 110.411 549.223C113.052 551.711 117.199 552.818 121.079 553.704C121.045 557.904 123.605 561.404 127.67 562.315C127.596 562.55 127.533 562.778 127.467 563.024C125.148 562.53 122.811 562.181 120.427 562.083C119.912 562.067 119.561 562.609 119.573 563.07C119.658 565.477 119.888 567.853 120.153 570.254C117.86 570.682 115.586 571.212 113.397 572.038C112.957 572.204 112.606 572.746 112.826 573.216C113.843 575.44 114.973 577.585 116.146 579.719C114.158 581.011 112.248 582.417 110.499 584.032C110.122 584.39 110.271 585.026 110.602 585.337C112.357 586.972 114.203 588.494 116.072 590C114.753 591.926 113.53 593.919 112.542 596.036C112.343 596.457 112.504 597.085 112.979 597.264C115.26 598.12 117.589 598.826 119.914 599.501C119.417 601.82 119.066 604.156 118.966 606.539C118.949 607.054 119.491 607.405 119.952 607.391C122.36 607.305 124.737 607.072 127.14 606.805C127.565 609.098 128.105 611.362 128.917 613.557C129.084 613.997 129.626 614.347 130.096 614.127C132.321 613.109 134.469 611.976 136.604 610.802C137.894 612.788 139.299 614.696 140.913 616.444C141.271 616.82 141.908 616.67 142.219 616.339C143.856 614.583 145.38 612.736 146.889 610.866C148.814 612.184 150.807 613.405 152.935 614.382C153.356 614.58 153.985 614.419 154.164 613.944C155.022 611.663 155.73 609.334 156.408 607.01C158.738 607.496 161.064 607.852 163.448 607.951C163.963 607.967 164.314 607.425 164.301 606.964C164.217 604.557 163.987 602.181 163.722 599.78C166.015 599.352 168.3 598.814 170.477 597.996C170.917 597.83 171.269 597.288 171.048 596.818C170.032 594.594 168.901 592.449 167.728 590.315C169.716 589.023 171.626 587.617 173.376 586.002C173.753 585.644 173.603 585.008 173.273 584.697C171.518 583.062 169.671 581.54 167.802 580.034C169.122 578.108 170.345 576.115 171.324 573.986C171.523 573.565 171.363 572.937 170.888 572.759C168.607 571.902 166.278 571.197 163.953 570.522C164.45 568.203 164.8 565.867 164.901 563.484C164.918 562.969 164.376 562.618 163.915 562.631C161.506 562.718 159.13 562.95 156.727 563.217C156.302 560.925 155.773 558.653 154.961 556.458C154.795 556.018 154.253 555.667 153.782 555.888C151.557 556.906 149.41 558.038 147.274 559.213C145.984 557.227 144.579 555.319 142.965 553.571C142.607 553.195 141.971 553.345 141.659 553.675C140.022 555.431 138.498 557.279 136.989 559.148C136.831 559.039 136.68 558.941 136.521 558.831C138.791 555.25 138.276 550.789 135.192 547.848C137.539 544.013 140.708 539.733 139.669 535.044ZM132.58 531.821C130.584 537.228 128.357 542.541 126.11 547.85C125.722 547.847 125.287 547.776 124.851 547.654C127.324 541.889 129.769 536.108 131.963 530.231C132.165 530.747 132.382 531.286 132.58 531.821ZM133.13 533.509C133.507 534.945 133.604 536.388 133.046 537.759C132.451 539.222 131.564 540.6 130.779 541.958C130.123 543.111 128.921 545.945 127.567 547.207C129.5 542.665 131.394 538.117 133.13 533.509ZM105.603 520.575C106.173 520.353 106.735 520.12 107.305 519.898C106.733 521.345 106.115 522.774 105.497 524.203C105.113 523.224 104.73 522.245 104.346 521.266C104.701 521.024 105.113 520.792 105.603 520.575ZM106.063 525.644C106.985 523.555 107.899 521.454 108.709 519.324C109.249 519.106 109.788 518.888 110.328 518.67C109.211 521.58 107.975 524.438 106.719 527.292C106.502 526.753 106.276 526.203 106.063 525.644ZM108.519 531.865C110.677 526.918 112.886 521.97 114.747 516.907C115.287 516.689 115.826 516.472 116.365 516.254C114.178 522.093 111.667 527.801 109.167 533.502C108.961 532.955 108.736 532.404 108.519 531.865ZM109.763 534.939C112.548 528.574 115.39 522.22 117.777 515.691C118.317 515.474 118.868 515.248 119.407 515.03C116.717 522.32 113.542 529.438 110.435 536.56C110.198 536.017 109.981 535.478 109.763 534.939ZM111.138 538.276C111.098 538.169 111.055 538.082 111.016 537.974C114.4 530.227 117.884 522.478 120.766 514.537C120.781 514.51 120.765 514.487 120.78 514.46C121.335 514.215 121.901 513.963 122.486 513.714C119.24 522.474 115.423 531.037 111.687 539.595C111.49 539.16 111.324 538.72 111.138 538.276ZM112.294 540.975C116.319 531.783 120.444 522.59 123.875 513.167C124.227 513.043 124.568 512.928 124.925 512.835C124.992 513.007 125.059 513.179 125.134 513.363C121.547 523.195 117.265 532.797 113.067 542.375C112.774 541.922 112.522 541.456 112.294 540.975ZM131.339 528.728C129.038 535.014 126.412 541.17 123.775 547.333C123.363 547.196 122.954 547.039 122.587 546.921C125.404 540.383 128.214 533.833 130.707 527.165C130.92 527.673 131.13 528.201 131.339 528.728ZM130.098 525.635C127.498 532.712 124.512 539.667 121.523 546.592C121.114 546.485 120.709 546.359 120.312 546.245C123.489 538.907 126.678 531.562 129.485 524.075C129.694 524.603 129.896 525.119 130.098 525.635ZM128.876 522.546C125.97 530.453 122.594 538.211 119.244 545.935C118.839 545.81 118.446 545.676 118.041 545.55C121.578 537.413 125.154 529.283 128.247 520.963C128.457 521.49 128.655 522.026 128.876 522.546ZM127.623 519.461C124.434 528.181 120.675 536.706 116.976 545.221C116.733 545.136 116.487 545.07 116.251 544.996C116.093 544.936 115.935 544.876 115.788 544.809C119.667 535.919 123.618 527.012 126.991 517.897C127.193 518.413 127.414 518.933 127.623 519.461ZM126.378 516.387C122.944 525.829 118.854 535.049 114.825 544.26C114.465 544.003 114.135 543.692 113.835 543.377C117.965 533.945 122.165 524.517 125.747 514.873C125.952 515.37 126.165 515.878 126.378 516.387ZM113.358 517.454C111.697 521.827 109.819 526.129 107.945 530.412C107.72 529.862 107.506 529.304 107.289 528.765C108.829 525.246 110.4 521.723 111.717 518.123C112.245 517.913 112.784 517.695 113.312 517.485C113.324 517.478 113.347 517.462 113.358 517.454ZM122.936 554.112C123.433 554.225 123.93 554.338 124.408 554.448C124.666 556.888 126.342 558.677 128.668 559.084C128.508 559.562 128.36 560.032 128.219 560.514C124.998 559.831 123.122 557.306 122.936 554.112ZM132.372 552.443C133.038 553.614 132.885 555.06 132.041 556.158C131.677 555.97 131.314 555.782 130.947 555.614C130.526 555.415 129.897 555.577 129.718 556.051C129.561 556.46 129.424 556.873 129.275 557.294C127.801 557.177 126.769 556.256 126.393 554.92C129.297 555.484 130.967 554.342 132.372 552.443ZM138.181 560.598C139.368 559.116 140.551 557.653 141.815 556.236C141.789 558.434 141.752 560.639 141.719 562.826C139.059 562.766 136.512 563.215 134.146 564.077C133.348 562.074 132.538 560.078 131.731 558.063C133.37 558.939 134.938 559.93 136.46 561.003C136.89 561.313 137.373 561.184 137.685 560.903C137.858 560.886 138.037 560.78 138.181 560.598ZM155.027 564.144C155.11 564.658 155.528 564.926 155.951 564.955C156.102 565.053 156.291 565.109 156.525 565.083C158.417 564.88 160.298 564.684 162.176 564.558C160.564 566.129 158.941 567.708 157.321 569.269C155.526 567.527 153.416 566.085 151.078 564.999C151.981 562.906 152.865 560.809 153.768 558.716C154.318 560.503 154.715 562.312 155.027 564.144ZM165.929 579.503C165.618 579.933 165.747 580.416 166.027 580.727C166.063 580.904 166.161 581.071 166.351 581.227C167.833 582.411 169.295 583.592 170.711 584.855C168.524 584.823 166.337 584.792 164.139 584.769C164.048 582.13 163.535 579.613 162.637 577.291C164.719 576.456 166.8 575.62 168.881 574.784C167.996 576.412 167.003 577.98 165.929 579.503ZM162.259 587.127C160.842 597.924 152.8 605.048 141.971 605.489C130.197 605.973 121.794 596.136 121.473 584.933C121.146 573.5 130.586 564.984 141.632 564.713C153.823 564.397 163.184 575.341 162.259 587.127ZM137.742 609.152C137.418 608.652 136.888 608.662 136.51 608.921C136.333 608.907 136.157 608.944 135.989 609.042C134.399 609.91 132.81 610.779 131.186 611.57C132.018 609.643 132.83 607.713 133.662 605.785C135.565 606.531 137.6 607.052 139.735 607.253C140.185 607.297 140.62 607.319 141.066 607.333C141.035 609.45 141.005 611.567 140.967 613.673C139.779 612.254 138.724 610.711 137.742 609.152ZM128.835 605.847C128.753 605.334 128.335 605.066 127.912 605.036C127.761 604.938 127.572 604.883 127.338 604.909C125.453 605.124 123.564 605.308 121.686 605.434C123.211 603.956 124.736 602.478 126.26 600.999C128.094 602.798 130.248 604.278 132.635 605.364C131.796 607.329 130.957 609.295 130.118 611.26C129.556 609.481 129.159 607.672 128.835 605.847ZM117.946 590.481C118.256 590.051 118.128 589.568 117.847 589.257C117.811 589.08 117.713 588.913 117.523 588.757C116.042 587.573 114.572 586.38 113.163 585.129C115.319 585.165 117.468 585.189 119.624 585.224C119.631 587.887 120.097 590.436 120.965 592.811C118.98 593.615 116.986 594.407 115.001 595.211C115.878 593.572 116.871 592.004 117.946 590.481ZM150.063 564.569C148.117 563.786 146.028 563.235 143.815 562.969C143.484 562.927 143.15 562.904 142.815 562.882C142.84 560.684 142.885 558.49 142.911 556.292C144.076 557.726 145.131 559.269 146.132 560.832C146.456 561.332 146.987 561.322 147.364 561.063C147.533 561.065 147.718 561.04 147.886 560.942C149.475 560.074 151.064 559.205 152.688 558.414C151.823 560.464 150.947 562.522 150.063 564.569ZM127.819 564.964C128.393 565.092 128.773 564.714 128.86 564.252C128.982 564.136 129.088 563.996 129.147 563.788C129.654 562.049 130.169 560.322 130.753 558.597C131.54 560.559 132.327 562.52 133.113 564.481C130.772 565.478 128.643 566.883 126.803 568.611C125.317 567.076 123.821 565.55 122.343 564.027C124.183 564.213 126.012 564.556 127.819 564.964ZM122.026 570.416C121.813 568.532 121.631 566.644 121.518 564.76C123.022 566.297 124.515 567.843 126.019 569.381C124.238 571.219 122.766 573.365 121.69 575.745C119.678 574.889 117.686 574.037 115.685 573.174C117.462 572.63 119.272 572.232 121.098 571.906C121.612 571.823 121.88 571.405 121.91 570.982C122.004 570.851 122.052 570.65 122.026 570.416ZM117.773 580.821C118.272 580.496 118.263 579.966 118.005 579.589C118.018 579.412 117.982 579.236 117.884 579.068C117.017 577.48 116.15 575.892 115.359 574.269C117.325 575.106 119.29 575.943 121.244 576.788C120.377 578.957 119.826 581.296 119.677 583.729C119.67 583.868 119.664 584.006 119.658 584.144C117.521 584.113 115.372 584.089 113.235 584.057C114.667 582.86 116.212 581.804 117.773 580.821ZM121.889 599.124C122.017 598.55 121.64 598.17 121.178 598.083C121.061 597.962 120.922 597.856 120.713 597.797C118.975 597.292 117.247 596.778 115.523 596.196C117.474 595.416 119.418 594.624 121.369 593.844C122.371 596.194 123.76 598.348 125.475 600.194C123.962 601.665 122.46 603.128 120.947 604.598C121.134 602.759 121.479 600.93 121.889 599.124ZM147.406 608.97C146.976 608.66 146.493 608.789 146.181 609.069C146.005 609.106 145.837 609.204 145.681 609.394C144.495 610.876 143.312 612.338 142.048 613.756C142.07 611.627 142.112 609.502 142.134 607.374C144.821 607.349 147.375 606.861 149.736 605.968C150.538 607.952 151.321 609.933 152.124 611.917C150.496 611.034 148.928 610.043 147.406 608.97ZM156.044 605.028C155.47 604.9 155.09 605.277 155.003 605.74C154.881 605.856 154.775 605.996 154.727 606.196C154.22 607.935 153.705 609.662 153.121 611.387C152.342 609.437 151.559 607.506 150.781 605.556C153.117 604.529 155.238 603.113 157.071 601.373C158.557 602.908 160.053 604.434 161.531 605.957C159.692 605.771 157.862 605.428 156.044 605.028ZM161.848 599.568C162.061 601.452 162.243 603.34 162.368 605.217C160.863 603.679 159.363 602.122 157.858 600.584C159.621 598.742 161.073 596.592 162.149 594.213C164.161 595.068 166.181 595.935 168.193 596.791C166.415 597.334 164.606 597.733 162.78 598.058C162.266 598.141 161.998 598.559 161.968 598.982C161.87 599.133 161.814 599.322 161.848 599.568ZM166.09 589.171C165.59 589.496 165.6 590.026 165.858 590.403C165.844 590.58 165.881 590.756 165.979 590.924C166.846 592.512 167.713 594.099 168.504 595.723C166.53 594.874 164.545 594.034 162.58 593.197C163.298 591.398 163.811 589.471 164.069 587.466C164.12 586.928 164.122 586.39 164.143 585.856C166.311 585.883 168.479 585.911 170.647 585.939C169.207 587.124 167.662 588.18 166.09 589.171ZM161.985 570.86C161.857 571.434 162.234 571.814 162.696 571.901C162.813 572.022 162.952 572.128 163.161 572.187C164.9 572.692 166.627 573.206 168.351 573.788C166.312 574.612 164.265 575.424 162.226 576.248C161.213 573.955 159.821 571.87 158.129 570.058C159.73 568.494 161.338 566.942 162.939 565.378C162.74 567.225 162.396 569.054 161.985 570.86ZM134.984 557.836C134.566 557.568 134.125 557.316 133.703 557.067C135.062 555.149 134.91 552.619 133.468 550.804C133.717 550.383 133.97 549.942 134.234 549.493C136.392 551.791 136.729 555.133 134.984 557.836ZM136.658 541.496C135.616 543.533 134.428 545.503 133.27 547.468C132.217 549.244 130.605 553.566 128.101 553.416C123.637 553.147 118.258 550.953 114.125 549.401C109.729 547.76 108.277 541.876 106.688 537.931C105.541 535.075 104.437 532.207 103.314 529.335C102.218 526.528 101.555 524.331 102.869 522.544C105.325 528.815 107.679 535.156 110.43 541.293C111.798 544.35 113.442 545.994 116.597 547.024C118.926 547.779 121.286 548.431 123.649 549.063C124.635 549.328 126.3 550.019 127.362 549.51C130.092 548.198 131.585 544.242 133.01 541.759C134.808 538.617 135.741 536.47 134.852 532.885C133.103 525.929 129.56 519.126 126.804 512.49C127.065 512.479 127.315 512.476 127.569 512.504C130.146 512.738 131.775 519.172 132.588 521.149C133.651 523.71 134.69 526.287 135.71 528.86C137.435 533.299 138.93 537.058 136.658 541.496Z" fill="white" fill-opacity="0.1"/>
<path d="M207.265 420.372C203.855 417.261 200.669 413.862 197.13 410.848C196.808 410.271 196.229 409.886 195.328 409.982C186.254 410.816 177.148 411.104 168.042 411.136C167.591 410.976 167.076 411.008 166.529 411.329C166.272 411.457 166.047 411.617 165.886 411.81C161.864 414.856 158.163 418.576 154.785 422.328C154.173 423.033 154.109 423.835 154.367 424.508C154.431 424.669 154.495 424.861 154.592 425.053C161.703 437.046 170.616 449.584 180.848 459.172C181.041 459.365 181.266 459.493 181.492 459.589C182.232 460.07 183.165 460.07 183.905 459.172C192.882 447.885 201.023 435.86 207.587 423.001C207.619 422.905 207.652 422.841 207.684 422.745C208.07 421.975 208.038 421.077 207.265 420.372ZM202.085 421.366C198.61 422.167 195.07 422.68 191.499 423.065C192.979 420.5 194.363 417.87 195.521 415.145C197.773 417.133 199.897 419.281 202.085 421.366ZM188.699 422.712C186.576 420.179 184.42 417.678 182.425 415.081C185.964 414.92 189.504 414.696 193.043 414.407C191.788 417.261 190.276 420.019 188.699 422.712ZM186.029 423.514C184.709 423.61 183.422 423.707 182.135 423.803C179.883 423.963 177.566 424.091 175.217 424.188C176.89 421.59 178.628 419.025 180.14 416.331C182.039 418.8 184.034 421.141 186.029 423.514ZM173.061 422.841C171.613 420.436 170.391 417.935 169.232 415.369C172.096 415.337 174.96 415.305 177.824 415.209C176.376 417.838 174.702 420.34 173.061 422.841ZM180.462 426.464C182.747 426.368 185.063 426.208 187.412 426.047C186.125 434.962 184.098 443.78 182.264 452.599C179.4 444.133 177.116 435.379 174.992 426.721C176.826 426.625 178.66 426.56 180.462 426.464ZM190.019 425.823C194.105 425.438 198.224 424.861 202.182 423.963C197.258 433.134 191.595 441.888 185.353 450.226C187.091 442.113 188.892 434 190.019 425.823ZM166.883 416.395C168.074 419.089 169.393 421.75 170.906 424.252C167.109 424.252 163.312 423.995 159.708 423.226C161.96 420.821 164.341 418.48 166.883 416.395ZM160.191 425.919C164.148 426.657 168.267 426.817 172.353 426.753C174.381 434.93 176.504 443.203 179.111 451.252C171.967 443.62 165.596 434.737 160.191 425.919Z" fill="white" fill-opacity="0.1"/>
<path d="M88.5753 118.927C86.915 114.619 85.5853 110.155 83.7669 105.876C83.7372 105.216 83.3911 104.613 82.5422 104.296C74.053 100.985 65.7786 97.1718 57.619 93.1293C57.2877 92.7844 56.8129 92.5829 56.1802 92.6252C55.8926 92.6249 55.6195 92.6676 55.3895 92.7677C50.4298 93.6944 45.4568 95.3673 40.7573 97.2127C39.8951 97.5704 39.4791 98.2587 39.4083 98.9762C39.3942 99.1483 39.3657 99.3492 39.366 99.5645C40.3649 113.471 42.7319 128.671 47.5979 141.822C47.6846 142.081 47.8287 142.296 47.9872 142.483C48.4341 143.244 49.2688 143.661 50.3322 143.189C63.4089 137.106 76.067 129.99 87.6875 121.422C87.7593 121.351 87.8167 121.308 87.8885 121.236C88.578 120.72 88.9506 119.903 88.5753 118.927ZM83.4969 117.5C80.0301 116.663 76.6347 115.539 73.2678 114.287C75.7387 112.654 78.152 110.92 80.4067 109C81.5326 111.786 82.4716 114.657 83.4969 117.5ZM70.9215 112.72C70.1545 109.504 69.3444 106.303 68.7211 103.088C71.9588 104.527 75.2252 105.909 78.5203 107.233C76.1218 109.225 73.5361 111.015 70.9215 112.72ZM68.1742 112.243C66.9511 111.739 65.7568 111.25 64.5625 110.76C62.4761 109.897 60.3465 108.976 58.2024 108.011C60.8603 106.436 63.5615 104.918 66.1185 103.185C66.7127 106.242 67.4506 109.228 68.1742 112.243ZM56.8761 105.843C56.6562 103.044 56.6807 100.26 56.7915 97.4477C59.3674 98.6994 61.9434 99.9511 64.548 101.145C62.0772 102.85 59.4623 104.339 56.8761 105.843ZM61.8759 112.393C63.9625 113.328 66.1064 114.221 68.2792 115.127C63.1423 122.526 57.3865 129.507 51.8033 136.575C53.0266 127.723 54.897 118.871 56.8683 110.177C58.5519 110.911 60.2211 111.673 61.8759 112.393ZM70.7109 116.092C74.5383 117.575 78.4804 118.9 82.422 119.866C73.9181 125.868 64.9386 131.167 55.6273 135.834C60.8087 129.354 66.0477 122.903 70.7109 116.092ZM54.2316 97.3154C54.0923 100.257 54.0824 103.228 54.3169 106.141C50.9206 104.444 47.6391 102.517 44.7596 100.217C47.8495 99.0727 51.026 98.0433 54.2316 97.3154ZM43.987 102.842C47.1974 105.271 50.8099 107.256 54.4938 109.026C52.6513 117.246 50.852 125.596 49.5848 133.961C46.6074 123.941 44.8798 113.147 43.987 102.842Z" fill="white" fill-opacity="0.1"/>
<path d="M276.728 78.7455C276.696 78.9053 276.664 79.097 276.664 79.2887C276.664 79.4803 276.664 79.6401 276.696 79.7998C277.719 100.79 309.699 100.215 310.435 79.065C311.202 57.4361 278.231 58.107 276.728 78.7455ZM280.917 79.2887C281.653 63.4743 305.638 62.8034 306.181 79.065C306.725 94.9752 281.301 95.2947 280.917 79.2887Z" fill="white" fill-opacity="0.1"/>
<path d="M286.929 80.0872C286.578 77.4354 287.057 74.7518 287.729 72.2279C287.761 72.164 287.761 72.0681 287.729 72.0042C287.729 71.9723 287.697 71.9723 287.697 71.9723C287.665 71.9404 287.633 71.9084 287.601 71.8765C287.569 71.8765 287.569 71.8765 287.537 71.8445C287.441 71.8126 287.345 71.7806 287.249 71.8445C287.217 71.8445 287.217 71.8765 287.185 71.9084C283.987 73.9531 283.124 78.0425 283.891 81.5887C284.499 84.496 287.057 87.563 290.063 88.1062C290.799 88.2659 291.598 88.234 292.398 87.9784C292.718 87.8825 292.878 87.4352 292.59 87.2116C290.095 84.8474 287.441 83.9209 286.929 80.0872Z" fill="white" fill-opacity="0.1"/>
<path d="M301.32 73.1864C300.905 72.9947 300.393 73.2184 300.393 73.7295C300.393 74.8797 301.097 76.1257 301.448 77.2119C301.832 78.4898 301.704 79.8636 302.088 81.1096C302.28 81.6527 302.919 81.6847 303.239 81.2693C304.678 79.3205 303.623 74.1768 301.32 73.1864Z" fill="white" fill-opacity="0.1"/>
<path d="M218.193 510.519C218.161 510.678 218.129 510.87 218.129 511.062C218.129 511.254 218.129 511.413 218.161 511.573C219.216 532.563 251.164 531.988 251.9 510.838C252.667 489.209 219.696 489.848 218.193 510.519ZM222.382 511.062C223.118 495.216 247.103 494.577 247.647 510.838C248.19 526.748 222.766 527.068 222.382 511.062Z" fill="white" fill-opacity="0.1"/>
<path d="M228.395 511.828C228.043 509.177 228.523 506.493 229.194 503.969C229.226 503.905 229.226 503.809 229.194 503.745C229.194 503.714 229.162 503.714 229.162 503.714C229.13 503.682 229.098 503.65 229.066 503.618C229.066 503.618 229.034 503.618 229.034 503.586C228.939 503.554 228.843 503.522 228.747 503.586C228.715 503.586 228.715 503.618 228.683 503.65C225.485 505.694 224.621 509.784 225.357 513.33C225.964 516.237 228.491 519.304 231.529 519.847C232.264 520.007 233.064 519.975 233.863 519.72C234.183 519.624 234.343 519.176 234.055 518.953C231.529 516.621 228.875 515.694 228.395 511.828Z" fill="white" fill-opacity="0.1"/>
<path d="M242.754 504.959C242.338 504.768 241.826 504.991 241.826 505.502C241.826 506.653 242.53 507.899 242.882 508.985C243.266 510.263 243.138 511.637 243.521 512.883C243.713 513.426 244.353 513.458 244.673 513.042C246.144 511.093 245.088 505.95 242.754 504.959Z" fill="white" fill-opacity="0.1"/>
<path d="M389.946 378.142C389.265 377.374 388.195 377.054 387.288 376.606C385.764 375.806 384.467 375.134 383.202 373.917C380.673 371.421 379.7 367.612 379.052 364.252C378.955 363.74 378.566 363.579 378.177 363.643C377.787 363.579 377.398 363.74 377.301 364.252C376.653 367.74 375.583 371.229 373.151 373.917C371.303 375.934 368.158 376.222 366.439 378.174C366.374 378.238 366.374 378.334 366.407 378.43C366.342 378.494 366.374 378.622 366.439 378.686C367.12 379.454 368.19 379.774 369.098 380.222C370.622 381.023 371.919 381.695 373.183 382.911C375.712 385.407 376.685 389.216 377.333 392.545C377.431 393.057 377.82 393.217 378.209 393.153C378.598 393.217 378.987 393.057 379.084 392.545C379.733 389.056 380.803 385.567 383.235 382.911C385.083 380.895 388.228 380.606 389.946 378.654C390.011 378.59 390.011 378.494 389.979 378.398C390.011 378.334 390.011 378.238 389.946 378.142ZM381.808 380.574C380.122 382.015 378.922 383.871 378.177 385.919C377.496 384.159 376.458 382.527 375.064 381.055C374.253 380.19 372.891 379.102 371.432 378.398C372.664 377.79 373.799 376.926 374.577 376.254C376.264 374.813 377.496 372.957 378.209 370.909C378.89 372.669 379.927 374.301 381.289 375.774C382.1 376.638 383.462 377.726 384.921 378.43C383.721 379.038 382.586 379.902 381.808 380.574Z" fill="white" fill-opacity="0.1"/>
<path d="M61.7569 203.686C61.2772 199.405 60.2858 189.213 53.9538 190.427C50.2761 191.13 47.7817 194.421 45.607 197.168C42.8888 200.555 41.3537 202.6 36.7167 201.865C34.4141 201.481 32.1115 201.386 29.777 201.705C23.2211 202.568 24.1486 208.542 26.8669 212.823C28.178 214.868 32.4314 218.51 30.9603 221.13C29.5212 223.654 27.5384 225.666 26.3232 228.382C25.2679 230.65 24.98 233.11 26.2592 235.315C27.3465 237.168 29.873 237.391 31.7918 237.327C37.2923 237.168 43.0167 230.682 47.5898 235.89C49.5406 238.094 58.9746 250.969 62.9721 243.589C64.5391 240.746 64.4112 237.391 63.9315 234.228C63.132 229.244 61.533 226.082 68.1848 222.983C70.5193 221.896 72.5341 220.81 74.261 218.893C81.2646 211.162 62.8762 207.999 61.7569 203.686ZM61.9807 221.193C60.4137 222.727 59.1345 224.516 58.9427 226.784C58.6548 230.618 59.902 234.26 60.0299 238.094C60.2858 244.995 53.2502 236.081 51.9391 234.484C48.4213 230.139 45.8629 227.903 40.2984 229.947C38.8593 230.458 28.9775 235.666 29.841 231.193C30.5445 227.647 33.7425 224.899 35.4694 221.864C38.3796 216.721 30.5765 211.801 28.9775 207.647C27.8262 204.612 39.1791 206.433 40.0745 206.529C41.8015 206.721 44.104 205.731 45.2553 204.453C47.7177 201.737 49.6685 198.638 52.2589 196.05C56.6721 191.673 57.2797 201.961 57.5675 204.165C57.5675 204.197 57.5675 204.229 57.5995 204.229C57.5995 204.389 57.6315 204.548 57.6635 204.708C59.1345 211.29 64.4432 210.906 69.6559 213.781C74.6448 216.561 63.2599 219.948 61.9807 221.193Z" fill="white" fill-opacity="0.1"/>
<path d="M56.6401 210.235C56.0005 209.533 55.6168 208.606 55.3609 207.712C55.0731 206.785 55.201 205.795 54.6893 204.964C54.4655 204.613 53.9858 204.613 53.7619 204.964C52.6746 206.689 53.9538 209.501 55.0411 210.97C55.6807 211.865 56.5442 212.568 57.4716 213.175C58.4949 213.846 59.6142 213.846 60.7975 214.005C61.1493 214.037 61.2772 213.494 60.9894 213.334C59.4543 212.664 57.7274 211.481 56.6401 210.235Z" fill="white" fill-opacity="0.1"/>
<path d="M42.345 208.83C41.1618 208.35 39.9466 208.223 38.6674 208.223C37.58 208.223 36.3328 207.999 35.4054 208.702C35.2135 208.83 35.1496 209.085 35.3414 209.277C36.1409 210.044 37.1323 209.948 38.1877 209.948C39.6268 209.948 41.0019 209.884 42.377 209.469C42.6648 209.341 42.6329 208.925 42.345 208.83Z" fill="white" fill-opacity="0.1"/>
<path d="M50.0523 225.826C48.0696 224.324 45.1914 224.836 43.1127 225.794C42.7929 225.954 42.9208 226.369 43.2086 226.465C45.2234 227.168 47.2701 226.209 49.061 227.711C50.7879 229.117 51.5234 231.449 53.4102 232.631C53.6021 232.759 53.826 232.599 53.826 232.407C53.9219 229.947 51.9711 227.264 50.0523 225.826Z" fill="white" fill-opacity="0.1"/>
<path d="M38.8593 227.008C38.4115 227.328 38.3156 228.286 39.0511 228.382C39.9466 228.51 41.0659 228.094 41.4176 227.2C41.4816 227.008 41.3857 226.816 41.2258 226.721C40.5222 226.273 39.4349 226.561 38.8593 227.008Z" fill="white" fill-opacity="0.1"/>
<path d="M217.515 0.229019C212.489 0.281016 207.402 1.09562 202.376 2.72484C175.606 11.4255 160.917 40.2487 169.618 67.0268C178.319 93.7961 207.142 108.485 233.92 99.7844C260.559 91.127 275.188 62.5464 266.764 35.8897C266.747 35.7511 266.721 35.6124 266.678 35.4824C260.152 15.4032 242.309 2.12688 222.498 0.411005C220.852 0.272348 219.188 0.20302 217.515 0.229019ZM206.362 6.19125L215.99 12.1881V30.6381L199.36 42.7186C199.317 42.6926 199.273 42.6839 199.221 42.6666L181.629 37.0076L178.925 26.1058C184.532 17.3531 193.086 10.4116 203.754 6.94519C204.62 6.65921 205.487 6.41656 206.362 6.19125ZM229.925 6.19125C241.087 9.1117 250.983 16.1312 257.37 26.0971L254.641 37.1116L236.936 42.7186L220.427 30.7248V12.1188L229.925 6.19125ZM180.321 41.2453L197.869 46.8869C197.913 46.9043 197.956 46.9216 198.008 46.9303L204.326 66.4028L193.302 81.577L182.115 80.7884C178.535 76.4207 175.684 71.3425 173.839 65.6489C171.993 59.9553 171.308 54.175 171.629 48.5508L180.321 41.2453ZM256.062 41.306L264.667 48.5508C265.369 60.3799 261.469 71.8624 254.155 80.7884L242.872 81.5857L231.979 66.3768L238.288 46.9389L256.062 41.306ZM207.922 69.0026H228.4L239.319 84.2462L235.099 94.6454C234.267 94.9747 233.417 95.278 232.542 95.564C221.874 99.0304 210.877 98.4411 201.197 94.6541L196.933 84.1248L207.922 69.0026Z" fill="white" fill-opacity="0.1"/>
<path d="M284.713 548.832C279.687 548.884 274.6 549.699 269.573 551.328C242.804 560.029 228.115 588.852 236.816 615.63C245.517 642.399 274.34 657.088 301.118 648.388C327.757 639.73 342.385 611.15 333.962 584.493C333.945 584.354 333.919 584.216 333.875 584.086C327.35 564.007 309.507 550.73 289.696 549.014C288.049 548.876 286.386 548.806 284.713 548.832ZM273.56 554.795L283.188 560.791V579.241L266.558 591.322C266.514 591.296 266.471 591.287 266.419 591.27L248.827 585.611L246.123 574.709C251.73 565.956 260.284 559.015 270.951 555.548C271.818 555.262 272.685 555.02 273.56 554.795ZM297.123 554.795C308.285 557.715 318.181 564.734 324.568 574.7L321.838 585.715L304.134 591.322L287.625 579.328V560.722L297.123 554.795ZM247.518 589.849L265.067 595.49C265.11 595.508 265.154 595.525 265.206 595.534L271.523 615.006L260.5 630.18L249.312 629.392C245.733 625.024 242.882 619.946 241.036 614.252C239.19 608.559 238.506 602.778 238.826 597.154L247.518 589.849ZM323.26 589.909L331.865 597.154C332.567 608.983 328.667 620.466 321.353 629.392L310.07 630.189L299.177 614.98L305.486 595.542L323.26 589.909ZM275.12 617.606H295.598L306.517 632.849L302.296 643.249C301.464 643.578 300.615 643.881 299.74 644.167C289.072 647.634 278.075 647.044 268.395 643.257L264.131 632.728L275.12 617.606Z" fill="white" fill-opacity="0.1"/>
</svg>
