<svg width="390" height="844" viewBox="0 0 390 844" fill="none" xmlns="http://www.w3.org/2000/svg">
<path d="M327.18 125.887C321.64 118.508 308.825 112.638 299.759 116.775C286.888 122.701 280.788 145.678 266.294 147.188C266.294 142.883 266.294 138.634 266.238 134.385C267.133 134.05 267.973 133.602 268.868 132.82C271.107 130.863 271.722 127.453 271.778 124.657C271.834 121.471 270.715 118.228 268.812 115.768C266.294 112.582 262.768 112.246 259.019 111.799C205.911 105.817 148.382 106.823 95.3866 113.644C95.2187 113.644 95.0508 113.7 94.8829 113.756C94.715 113.756 94.5471 113.756 94.3792 113.756C90.7977 114.259 87.4959 114.986 85.1455 118.005C83.1869 120.52 82.2915 123.539 82.3474 126.726C82.4594 129.689 83.6346 132.708 85.8171 134.665C86.4886 135.224 87.1602 135.671 87.8317 135.951C87.8317 139.529 87.8317 143.274 87.8317 147.188C74.7366 145.734 66.6781 124.657 56.3812 117.669C47.3713 111.519 32.7093 118.172 26.9452 125.831C12.1154 145.734 14.2979 174.638 18.6069 197.727C29.4076 256.205 70.3716 306.298 133.329 306.018C133.497 306.018 133.664 305.962 133.832 305.962C138.197 309.428 143.01 312.336 148.215 314.74C148.326 315.075 148.438 315.41 148.662 315.69C155.713 326.033 158.512 338.779 159.911 351.079C156.497 352.756 153.979 355.328 153.923 359.129C153.811 364.552 154.258 371.541 159.519 374.504C154.874 396.195 141.219 410.563 123.088 422.807C109.769 431.808 106.299 433.764 105.851 449.251C97.1214 450.089 95.6664 455.344 95.6664 464.625C95.6664 483.074 95.6664 501.467 95.3866 519.916C91.1335 519.693 86.7684 519.581 83.075 520.531C70.2597 523.83 75.2963 543.956 75.2963 553.516C75.2963 555.529 76.9751 557.262 79.0457 557.262C144.465 557.094 209.828 556.871 275.248 556.703C276.311 556.703 277.151 556.312 277.71 555.752C278.438 555.138 278.941 554.243 278.941 552.957C278.941 544.124 282.747 527.632 274.352 521.482C271.163 519.134 264 519.693 258.795 520.028C258.571 502.753 258.571 485.478 258.515 468.259C258.515 457.86 258.963 450.648 248.33 449.306C248.05 435.945 246.204 432.031 234.004 424.708C214.473 412.967 199.42 396.866 194.607 374.392C199.532 371.596 200.315 365.167 200.259 359.856C200.259 359.521 200.203 359.185 200.147 358.906C200.147 358.906 200.147 358.906 200.147 358.85C199.587 355.16 197.293 352.756 194.271 351.079C195.614 339.003 198.356 326.592 205.072 316.361C210.78 313.733 215.984 310.155 220.685 305.906C220.741 305.906 220.853 305.906 220.909 305.906C284.538 306.186 323.935 256.038 335.631 197.615C340.22 174.861 341.954 145.511 327.18 125.887ZM177.203 314.125C142.115 314.125 123.479 287.737 111.392 258.777C95.4985 220.817 95.2187 176.93 95.4425 136.454C95.9462 136.398 96.3939 136.342 96.8975 136.23C149.39 129.689 206.247 128.403 258.851 134.441C259.075 175.197 258.571 218.413 243.629 256.932C231.821 287.345 213.13 314.125 177.203 314.125ZM111.28 278.344C71.6587 266.492 49.1621 225.01 42.0549 186.21C40.488 177.545 36.1789 152.275 47.6511 147.467C51.3446 145.902 57.7242 157.978 59.515 160.326C67.0699 170.333 76.4715 176.371 88.7271 178.048C90.4619 211.872 95.7783 249.888 111.28 278.344ZM263.72 127.509C263.776 127.509 263.832 127.509 263.888 127.509C263.888 127.565 263.776 127.509 263.72 127.509ZM247.435 266.828C260.082 239.378 264.335 208.573 265.734 177.992C277.934 176.259 287.224 170.221 294.779 160.326C297.129 157.195 302.054 146.852 306.642 147.467C318.339 149.089 313.19 179.893 312.239 186.21C306.419 225.457 281.292 267.61 241.447 278.736C243.573 274.878 245.588 270.909 247.435 266.828ZM95.8902 121.023C148.718 114.203 206.079 113.252 259.019 119.234C260.754 119.458 262.097 119.346 263.216 120.632C264 121.471 264.223 123.036 264.335 124.154C264.447 125.384 264.279 126.558 263.664 127.565C262.489 127.62 261.201 127.285 260.082 127.117C207.086 120.912 149.725 122.198 96.8416 128.795C93.9315 129.186 90.1821 130.751 89.8463 126.726C89.5106 122.421 92.3646 121.583 95.8902 121.023ZM26.8893 201.082C21.9646 179.949 20.006 154.847 29.9672 134.832C33.7726 127.173 43.8457 120.073 52.6877 124.154C58.1719 126.67 62.481 134.106 66.0626 138.634C71.8266 146.07 78.1503 153.841 87.9996 154.679C88.0555 159.767 88.1675 165.078 88.3913 170.557C75.7439 168.544 68.301 160.102 61.1379 149.983C58.3398 146.07 55.2619 140.758 50.1134 139.976C31.8699 137.069 32.6533 167.258 33.3808 177.321C36.7386 224.339 67.4056 277.729 116.652 287.345C119.282 291.259 122.248 294.893 125.382 298.303C71.7707 294.669 38.6972 251.733 26.8893 201.082ZM192.872 360.359C192.928 364.552 192.76 367.739 188.395 368.857C184.758 369.752 180.84 369.807 177.147 369.863C169.312 369.919 159.575 370.311 161.422 359.409C162.037 355.663 174.684 355.384 177.147 355.328C181.064 355.272 191.473 355.272 192.872 360.359ZM271.554 549.267C208.597 549.435 145.584 549.603 82.6273 549.826C82.1236 539.763 80.6686 527.687 92.8683 527.687C99.5837 527.687 106.355 527.687 113.07 527.687C134.392 527.687 155.769 527.687 177.091 527.687C198.412 527.687 219.79 527.687 241.111 527.687C247.827 527.687 254.598 527.687 261.313 527.687C273.345 527.687 272.002 539.428 271.554 549.267ZM251.128 476.253C251.128 490.901 251.184 505.548 251.352 520.252C227.68 520.252 203.952 520.252 180.281 520.252C154.482 520.252 128.628 520.252 102.829 520.252C102.997 507.002 103.053 493.752 103.053 480.502C103.053 470.16 99.9754 456.63 113.406 456.63C134.112 456.63 154.762 456.63 175.468 456.63C196.733 456.63 217.999 456.63 239.208 456.63C252.024 456.63 251.128 464.848 251.128 476.253ZM227.4 429.292C231.094 431.808 240.104 435.665 240.552 440.529C240.831 443.324 240.887 446.176 240.943 448.971C220.293 448.188 199.42 449.195 178.77 449.195C156.945 449.195 135.119 449.195 113.294 449.195C113.574 440.697 115.309 436.392 123.927 431.249C130.419 427.335 136.463 422.639 142.283 417.775C155.098 407.041 163.212 392.897 166.626 376.796C170.152 377.355 173.845 377.355 177.091 377.411C180.449 377.467 184.086 377.299 187.556 376.684C190.746 391.891 197.965 404.302 209.157 415.259C214.585 420.515 221.077 424.987 227.4 429.292ZM187.108 348.731C183.526 348.06 179.889 347.892 177.035 347.892C174.517 347.892 170.823 348.116 167.074 348.787C165.787 338.5 163.548 328.045 158.959 318.709C163.66 319.995 168.641 320.945 173.957 321.392C181.456 322.063 188.283 321.504 194.551 319.995C190.41 328.996 188.339 338.947 187.108 348.731ZM327.348 201.082C316.324 252.012 281.684 294.949 228.184 298.303C231.038 294.949 233.668 291.371 236.131 287.569C236.242 287.569 236.41 287.569 236.522 287.513C284.929 278.736 315.149 227.973 320.297 182.129C321.584 170.501 324.438 139.752 305.132 139.752C300.207 139.752 297.129 144.448 294.499 147.97C286.608 158.593 279.669 168.264 266.014 170.501C266.182 165.19 266.238 159.934 266.294 154.679C287.895 152.443 303.285 100.282 324.27 134.832C335.519 153.337 331.657 181.123 327.348 201.082Z" fill="white" fill-opacity="0.1"/>
<path d="M218.279 481.173C218.223 477.483 217.719 473.961 215.257 471.054C212.347 467.644 206.918 467.252 202.777 467.252C184.59 467.252 166.402 467.252 148.214 467.252C144.857 467.252 141.499 467.811 138.981 470.215C136.407 472.675 135.959 476.645 135.903 479.999C135.903 485.31 135.903 490.565 135.847 495.877C135.847 500.685 135.959 505.772 139.54 509.406C142.506 512.481 146.871 512.369 150.845 512.369C167.018 512.369 183.191 512.369 199.42 512.369C204.064 512.369 209.437 512.816 213.578 510.245C218.503 507.17 218.391 500.964 218.335 495.877C218.279 490.901 218.279 486.037 218.279 481.173ZM209.381 503.983C206.807 505.604 202.274 504.878 199.42 504.878C183.247 504.878 167.074 504.878 150.845 504.878C149.837 504.878 148.83 504.878 147.823 504.878C147.711 504.878 146.759 504.822 146.704 504.822C145.752 504.654 145.137 504.374 144.801 504.095C142.786 502.306 143.29 498.281 143.29 495.821C143.346 490.51 143.346 485.254 143.346 479.943C143.346 478.713 143.402 477.819 143.57 476.924C143.57 476.812 143.849 476.03 143.849 475.974C143.905 475.862 143.961 475.75 144.017 475.638C144.017 475.583 144.017 475.582 144.073 475.582C144.129 475.527 144.129 475.527 144.185 475.471C144.241 475.415 144.241 475.359 144.241 475.359C144.297 475.359 144.409 475.303 144.577 475.191C144.633 475.191 144.633 475.191 144.633 475.135C144.801 475.079 144.969 475.023 145.137 474.968C146.2 474.632 146.648 474.688 148.103 474.688C166.29 474.688 184.478 474.688 202.665 474.688C204.288 474.688 205.855 474.744 207.422 475.135C208.485 475.359 209.157 475.694 209.605 476.086C209.996 476.421 210.164 476.924 210.388 477.651C210.668 478.657 210.668 479.831 210.668 481.173C210.668 486.037 210.668 490.957 210.724 495.821C210.892 498.057 211.675 502.585 209.381 503.983Z" fill="white" fill-opacity="0.1"/>
<path d="M251.744 150.151C251.632 149.703 251.016 149.871 250.96 150.262C247.155 180.899 242.286 210.474 230.087 239.154C223.539 254.64 214.865 269.567 202.945 281.531C191.025 293.495 176.867 297.912 160.694 300.93C160.638 300.93 160.638 300.986 160.582 300.986C160.526 301.042 160.47 301.098 160.47 301.154V301.21V301.266C160.47 301.322 160.47 301.378 160.526 301.434C160.582 301.49 160.582 301.49 160.638 301.545C160.694 301.545 160.694 301.545 160.75 301.601C195.95 317.199 223.875 279.015 235.403 251.341C243.014 233.06 247.547 213.437 250.233 193.87C252.192 179.837 254.374 164.295 251.744 150.151Z" fill="white" fill-opacity="0.1"/>
<path d="M185.429 389.822C185.317 389.655 185.15 389.599 184.982 389.655C184.814 389.71 184.646 389.822 184.702 390.046C187.612 413.974 201.938 439.244 228.8 438.908C228.968 438.908 229.136 438.74 229.192 438.629C229.248 438.461 229.192 438.293 229.024 438.237C220.182 434.212 212.123 429.46 205.24 422.472C196.006 413.135 191.026 401.339 185.429 389.822Z" fill="white" fill-opacity="0.1"/>
<path d="M177.259 138.802C177.315 138.802 177.315 138.802 177.371 138.802C177.539 138.802 177.595 138.634 177.595 138.467C177.595 138.467 177.595 138.467 177.595 138.411C177.595 138.411 177.595 138.411 177.595 138.355C177.595 138.187 177.539 138.075 177.371 138.019C177.315 138.019 177.315 138.019 177.259 138.019C163.101 136.063 148.942 136.957 134.728 138.131C124.151 139.026 111.448 139.137 101.655 143.498C101.375 143.61 101.319 143.834 101.431 144.057C101.487 144.281 101.711 144.449 101.934 144.504C112.735 145.064 123.983 142.827 134.84 142.1C148.942 141.15 163.157 140.815 177.259 138.802Z" fill="white" fill-opacity="0.1"/>
<path d="M77.0526 553.329C87.1817 497.925 51.4221 447.665 -3.81224 436.987C-57.3118 426.645 -106.334 464.326 -115.624 516.319C-125.082 569.262 -89.266 622.932 -35.0949 630.088C18.3486 637.133 65.0768 606.104 77.0526 553.329ZM-26.0851 623.603C-79.7525 621.255 -113.497 572.616 -108.909 521.797C-104.208 470.14 -55.521 437.155 -5.7709 444.199C45.658 451.467 78.9553 501.671 69.8895 551.372C59.3127 597.774 21.2586 625.672 -26.0851 623.603Z" fill="white" fill-opacity="0.1"/>
<path d="M131.112 710.985C112.476 681.746 93.7851 652.507 75.1498 623.268C78.7873 617.677 78.5634 610.689 75.7653 604.818C83.2083 606.552 90.8191 604.651 94.9043 596.992C98.374 590.618 97.2547 583.518 93.4493 577.983C99.9409 577.033 105.481 573.175 107.272 565.74C108.839 559.255 106.488 553.161 102.179 548.8C107.664 546.005 111.525 540.973 111.245 533.705C110.909 525.599 105.313 519.673 98.262 517.157C104.754 513.132 108.727 506.423 106.265 498.093C104.194 491.105 98.374 486.912 91.7705 485.682C95.7997 480.259 96.9749 473.438 92.6658 466.841C89.0843 461.362 83.3202 458.847 77.3323 458.847C79.235 453.144 78.3956 446.994 73.3031 442.075C67.3711 436.316 59.0328 436.037 52.0935 439.335C53.8283 431.9 51.9256 424.296 44.2589 420.215C37.8792 416.749 30.7721 417.867 25.2318 421.669C24.2805 415.184 20.4191 409.649 12.9762 407.86C6.4846 406.294 0.38475 408.643 -3.98029 412.947C-6.77837 407.468 -11.8149 403.611 -19.09 403.89C-27.2044 404.226 -33.1364 409.817 -35.6547 416.917C-39.6839 410.432 -46.3993 406.462 -54.7376 408.922C-61.7329 410.991 -65.93 416.805 -67.1611 423.402C-72.5894 419.377 -79.4168 418.203 -86.0203 422.507C-91.5046 426.085 -94.0229 431.844 -94.0229 437.826C-99.731 435.925 -105.887 436.764 -110.811 441.851C-116.575 447.777 -116.855 456.107 -113.554 463.04C-120.996 461.306 -128.607 463.207 -132.692 470.866C-136.162 477.24 -135.043 484.34 -131.237 489.875C-137.729 490.825 -143.269 494.683 -145.06 502.118C-146.627 508.603 -144.277 514.697 -139.968 519.058C-145.452 521.853 -149.313 526.885 -149.033 534.153C-148.698 542.259 -143.101 548.185 -135.994 550.701C-142.486 554.726 -146.459 561.435 -143.997 569.765C-141.926 576.753 -136.106 580.946 -129.503 582.176C-133.532 587.599 -134.707 594.42 -130.398 601.017C-126.816 606.496 -121.052 609.011 -115.064 609.011C-116.967 614.714 -116.128 620.864 -111.035 625.839C-105.103 631.598 -96.765 631.877 -89.8257 628.579C-91.5605 636.014 -89.6578 643.618 -81.9911 647.699C-75.6114 651.165 -68.5042 650.047 -62.964 646.245C-62.0126 652.73 -58.1513 658.265 -50.7084 660.054C-47.6865 660.781 -44.7205 660.669 -42.0343 659.886C-42.0343 695.555 -41.9783 731.223 -41.9783 766.891C-41.9783 788.863 -20.3211 771.755 -12.5983 765.717C-3.36464 758.505 0.944382 762.866 9.67442 769.351C13.5358 772.258 19.6356 778.744 25.0639 778.688C35.249 778.52 34.0738 766.724 34.0738 759.288C34.0738 739.665 34.0738 719.986 34.0178 700.363C42.2442 713.277 50.4706 726.191 58.697 739.106C63.8455 747.156 68.6582 759.456 78.0598 763.202C86.1183 766.388 90.4274 748.722 91.9383 744.696C95.6878 734.801 96.6391 727.701 108.335 730.329C111.805 731.111 115.554 731.055 119.08 731.391C135.253 732.788 139.73 724.514 131.112 710.985ZM15.7183 651.389C10.1781 654.24 5.75713 650.27 3.40672 645.63C9.95425 644.344 16.2779 642.499 22.3218 640.151C22.4337 644.847 20.2512 649.04 15.7183 651.389ZM-125.138 520.511C-123.515 501.895 -117.079 485.29 -107.286 471.426C-106.502 470.866 -105.887 470.084 -105.663 469.189C-105.607 469.133 -105.551 469.077 -105.551 469.022C-104.768 468.518 -104.152 467.736 -103.872 466.841C-82.3828 439.894 -47.4066 424.576 -10.5837 427.203C53.2128 431.788 97.1987 493.509 85.7825 554.614C73.6388 608.732 29.0372 641.884 -26.1412 639.872C-89.378 637.524 -130.454 580.89 -125.138 520.511ZM-28.6035 647.196C-21.8881 647.755 -15.2845 647.811 -8.84894 647.251C-10.0801 651.948 -13.5497 655.861 -18.7542 656.364C-24.7421 656.979 -27.7081 652.339 -28.6035 647.196ZM31.3317 636.182C37.2636 633.275 42.8598 629.865 48.1762 625.951C49.5193 630.591 48.5679 635.623 44.3708 638.754C39.614 642.388 34.7454 640.04 31.3317 636.182ZM54.6118 620.92C59.5924 616.671 64.2372 611.974 68.4903 606.831C70.8967 610.912 71.3443 616 68.2105 620.025C64.4051 624.945 58.9768 623.938 54.6118 620.92ZM88.7485 592.519C86.7899 598.445 80.802 598.725 75.8214 597.047C79.4589 591.625 82.5927 585.81 85.3349 579.716C88.9164 583.015 90.3714 587.599 88.7485 592.519ZM88.9724 570.715C90.5953 566.187 91.9383 561.491 93.0576 556.627C93.3933 554.95 93.6172 553.273 93.841 551.595C97.9822 553.888 100.501 557.857 100.221 563C99.8849 569.206 94.1768 571.051 88.9724 570.715ZM103.802 533.649C104.418 539.631 99.8289 542.595 94.7364 543.489C95.2401 536.78 95.1281 530.183 94.5125 523.698C99.2693 524.872 103.243 528.394 103.802 533.649ZM98.7657 499.267C101.676 504.858 97.4786 509.386 92.7218 511.678C91.3787 505.137 89.476 498.764 87.0697 492.614C91.9943 492.39 96.3593 494.571 98.7657 499.267ZM86.1743 470.587C89.8678 475.563 87.2935 480.538 83.2083 483.949C80.2423 477.967 76.7727 472.32 72.7994 466.953C77.5562 465.332 82.9285 466.226 86.1743 470.587ZM67.4271 446.771C72.5196 450.684 71.2325 456.387 67.9867 460.803C63.6776 455.716 58.9209 451.076 53.7724 446.771C57.9135 444.087 63.2859 443.528 67.4271 446.771ZM39.8938 426.309C45.9937 428.322 46.1615 434.583 44.3148 439.615C38.8865 435.925 33.0665 432.682 26.9107 429.887C30.1565 426.197 34.8573 424.632 39.8938 426.309ZM10.29 414.792C16.5577 415.128 18.3485 420.998 18.0127 426.197C12.1367 424.073 6.03694 422.34 -0.286743 421.11C-0.51059 421.054 -0.734467 421.054 -1.01428 420.998C1.28017 416.973 5.25342 414.513 10.29 414.792ZM-19.09 411.27C-13.3259 410.655 -10.3599 414.96 -9.3526 419.768C-15.9001 419.041 -22.3357 418.873 -28.7154 419.265C-27.2604 415.072 -23.9027 411.717 -19.09 411.27ZM-53.5065 416.302C-48.414 413.674 -44.2728 416.861 -41.8105 420.998C-48.0782 422.172 -54.234 423.905 -60.1659 426.141C-59.8301 422.004 -57.5917 418.37 -53.5065 416.302ZM-82.2149 428.825C-77.8499 425.526 -73.3729 427.203 -70.0712 430.446C-75.7793 433.297 -81.2076 436.596 -86.3561 440.397C-87.1955 436.149 -86.0203 431.676 -82.2149 428.825ZM-106.055 447.609C-102.529 443.081 -97.6604 443.584 -93.5192 446.044C-98.3319 450.237 -102.865 454.765 -106.95 459.741C-108.797 455.828 -108.909 451.243 -106.055 447.609ZM-126.537 475.115C-124.746 469.637 -119.43 468.966 -114.673 470.252C-118.198 475.619 -121.22 481.265 -123.851 487.247C-126.872 484.005 -128.048 479.7 -126.537 475.115ZM-127.544 496.919C-128.999 501.336 -130.23 505.864 -131.181 510.504C-131.517 512.293 -131.853 514.026 -132.077 515.759C-135.938 513.467 -138.289 509.554 -138.009 504.634C-137.729 498.764 -132.525 496.807 -127.544 496.919ZM-141.59 533.985C-142.15 528.227 -137.953 525.264 -133.084 524.257C-133.588 530.854 -133.588 537.339 -133.028 543.713C-137.449 542.427 -141.087 539.016 -141.59 533.985ZM-136.554 568.367C-139.296 563 -135.658 558.64 -131.181 556.292C-129.894 562.721 -128.048 568.982 -125.697 575.02C-130.286 575.02 -134.259 572.784 -136.554 568.367ZM-123.962 597.103C-127.488 592.407 -125.306 587.655 -121.612 584.245C-118.702 590.115 -115.288 595.706 -111.427 600.961C-116.016 602.135 -120.94 601.185 -123.962 597.103ZM-105.215 620.864C-110.028 617.118 -109.133 611.807 -106.278 607.502C-102.025 612.478 -97.3805 617.062 -92.288 621.255C-96.3173 623.603 -101.298 623.883 -105.215 620.864ZM-77.682 641.381C-83.502 639.48 -83.8937 633.61 -82.3268 628.746C-76.8985 632.324 -71.1345 635.511 -65.0346 638.139C-68.2804 641.549 -72.8133 642.947 -77.682 641.381ZM-48.1341 652.842C-54.3459 652.507 -56.1926 646.804 -55.8569 641.605C-49.7011 643.673 -43.3214 645.239 -36.6619 646.301C-38.8445 650.494 -42.9297 653.122 -48.1341 652.842ZM-34.5914 754.76C-34.5914 721.663 -34.6473 688.622 -34.6473 655.526C-34.3675 655.302 -34.0877 655.022 -33.8638 654.799C-32.7446 657.035 -31.2337 658.992 -29.3309 660.557C-28.7154 696.337 -28.1558 732.118 -27.82 767.898C-28.4356 768.345 -29.0511 768.792 -29.6667 769.184C-36.494 773.488 -34.5914 758.338 -34.5914 754.76ZM-8.84894 752.579C-14.0534 754.089 -19.034 760.965 -23.399 764.543C-23.6788 730.72 -24.2384 696.841 -24.7981 663.017C-23.0073 663.632 -20.9926 663.912 -18.7542 663.856C-10.6397 663.52 -4.70775 657.93 -2.18945 650.829C1.67191 657.091 8.10751 660.949 15.9981 659.048C16.0541 693.766 14.2073 728.484 14.2073 763.202C7.71574 757.835 -0.622543 750.175 -8.84894 752.579ZM18.6843 766.556C18.5723 730.161 20.643 693.766 20.4751 657.315C22.9934 655.917 25.008 653.904 26.463 651.556C26.463 680.292 26.5189 709.028 26.5189 737.82C26.5749 744.193 29.8766 772.817 18.6843 766.556ZM75.0379 750.623C73.8627 748.834 72.7434 746.989 71.5682 745.2C67.8188 739.274 64.0134 733.347 60.2639 727.421C51.5339 713.724 42.8038 700.027 34.0738 686.33C34.0738 683.479 34.0738 680.684 34.0738 677.832C50.0789 701.313 65.5803 725.129 81.6973 748.554C80.0185 749.784 77.78 750.455 75.0379 750.623ZM95.296 722.502C89.3641 725.409 86.8458 737.149 84.8312 742.516C84.7193 743.243 84.5514 743.914 84.3835 744.529C67.427 719.762 51.0862 694.548 34.0738 669.838C34.0738 662.178 34.0738 654.519 34.0738 646.86C38.4948 648.537 43.4194 648.314 48.2881 645.183C53.7164 641.661 56.2347 635.958 56.2907 630.032C78.2837 660.278 96.6391 693.207 118.184 723.787C115.498 723.508 112.756 723.061 110.126 722.837C104.53 722.39 100.556 719.93 95.296 722.502ZM124.508 724.123C124.228 724.123 123.949 724.123 123.725 724.123C102.123 693.822 83.8239 661.116 62.2226 630.815C64.7968 630.759 67.3711 630.032 69.7775 628.523C84.9431 652.339 100.165 676.155 115.33 699.971C117.569 703.661 133.07 723.62 124.508 724.123Z" fill="white" fill-opacity="0.1"/>
<path d="M29.7091 579.605C27.9183 572.896 26.1275 566.187 24.2248 559.479C23.6652 557.466 21.5946 556.404 19.6359 556.851C15.4388 557.857 11.1857 558.919 6.98859 559.926C-1.46165 531.078 -9.85596 502.23 -18.3062 473.383C-18.8658 471.482 -20.9364 470.14 -22.895 470.755C-32.6884 473.83 -43.489 474.445 -49.2531 483.278C-53.0025 489.036 -56.7519 494.739 -60.4454 500.497C-64.4747 506.647 -60.5014 512.964 -58.5987 519.729C-58.0391 521.686 -55.9685 522.916 -54.0098 522.357C-49.365 521.015 -44.7202 519.673 -40.0754 518.275C-35.2627 535.159 -30.338 551.987 -25.3574 568.815C-29.9463 570.157 -34.5911 571.498 -39.1799 572.84C-41.0826 573.399 -42.3698 575.468 -41.8102 577.425C-39.6836 584.581 -37.5571 591.737 -35.3186 598.781C-34.703 600.682 -32.7443 601.967 -30.7297 601.408C-11.4788 595.65 7.772 589.836 27.0788 584.189C29.0375 583.63 30.2687 581.618 29.7091 579.605ZM-38.5084 510.113C-43.2092 511.455 -47.91 512.853 -52.6108 514.194C-54.2896 509.834 -55.6887 506.926 -52.8906 502.566C-49.9806 498.093 -47.0146 493.565 -44.1046 489.036C-39.5157 482.048 -32.8563 481.209 -24.462 478.973C-16.0118 507.765 -7.61751 536.557 0.776768 565.349C1.33639 567.361 3.35105 568.424 5.36568 567.976C9.56282 566.97 13.7599 565.908 17.9571 564.901C19.1882 569.262 20.3635 573.623 21.5387 578.039C4.58222 583.015 -12.3183 588.103 -29.2188 593.19C-30.6738 588.438 -32.1287 583.742 -33.5278 578.99C-28.9389 577.648 -24.2941 576.306 -19.7052 574.965C-18.9218 574.741 -18.3622 574.35 -17.9704 573.846C-17.9145 573.791 -17.8585 573.735 -17.8025 573.679C-17.8025 573.679 -17.8025 573.679 -17.8025 573.623C-17.075 572.84 -16.7393 571.722 -17.131 570.324C-22.8391 551.148 -28.4353 531.917 -33.9196 512.629C-34.4792 510.784 -36.5497 509.498 -38.5084 510.113Z" fill="white" fill-opacity="0.1"/>
<path d="M59.2569 506.256C59.1449 506.088 58.9771 506.032 58.7533 506.088C58.6973 506.088 58.5854 506.144 58.5294 506.2H58.4734C58.4175 506.256 58.3615 506.368 58.4174 506.479C60.3201 522.972 59.4807 539.52 55.3395 555.565C50.3589 574.685 40.006 589.221 26.3513 603.03C26.1275 603.254 26.3513 603.757 26.6871 603.645C60.8238 590.507 73.4712 537.06 59.2569 506.256Z" fill="white" fill-opacity="0.1"/>
<path d="M391.551 530.611C367.04 510.82 328.482 515.125 309.287 540.003C288.469 566.95 290.372 602.898 316.562 625.372C342.305 647.455 378.68 642.815 400.953 619.111C401.177 618.943 401.4 618.719 401.624 618.44C401.848 618.16 402.016 617.937 402.184 617.657C423.393 589.76 419.084 552.862 391.551 530.611ZM308.504 554.595C321.599 527.424 353.497 519.094 379.631 531.729C410.634 546.712 416.51 587.468 396.364 613.185C354.672 658.693 281.306 611.06 308.504 554.595Z" fill="white" fill-opacity="0.1"/>
<path d="M289.141 560.241C287.014 558.117 283.768 558.788 282.034 560.968C280.635 562.757 281.082 565.497 282.705 567.006C284.216 568.404 286.063 568.515 287.742 567.733C288.357 567.565 288.973 567.174 289.421 566.615C289.924 566.111 290.204 565.496 290.26 564.882C290.764 563.26 290.372 561.527 289.141 560.241ZM283.377 562.366C283.321 562.478 283.265 562.589 283.209 562.701C283.209 562.645 283.209 562.645 283.209 562.589C283.265 562.533 283.321 562.422 283.377 562.366Z" fill="white" fill-opacity="0.1"/>
<path d="M368.047 512.889C368.551 513.392 369.166 513.671 369.838 513.783C371.461 514.23 373.195 513.895 374.483 512.609C376.609 510.485 375.938 507.242 373.755 505.509C371.964 504.111 369.222 504.559 367.711 506.18C366.312 507.689 366.2 509.59 366.984 511.267C367.096 511.826 367.431 512.386 368.047 512.889ZM372.356 506.851C372.244 506.795 372.132 506.739 372.02 506.683C372.076 506.683 372.076 506.683 372.132 506.683C372.188 506.739 372.3 506.795 372.356 506.851Z" fill="white" fill-opacity="0.1"/>
<path d="M343.256 645.275C341.241 643.71 338.555 643.654 336.764 645.61C335.365 647.12 335.253 648.965 335.981 650.586C336.149 651.201 336.541 651.816 337.1 652.319C337.604 652.822 338.219 653.102 338.891 653.158C340.514 653.605 342.249 653.27 343.536 651.984C345.327 650.195 345.327 646.84 343.256 645.275ZM341.465 646.225C341.353 646.17 341.241 646.114 341.129 646.058C341.185 646.058 341.185 646.058 341.241 646.058C341.297 646.114 341.409 646.17 341.465 646.225Z" fill="white" fill-opacity="0.1"/>
<path d="M315.723 523.175C316.17 523.399 316.674 523.51 317.29 523.51C317.346 523.51 317.402 523.51 317.513 523.51C318.073 523.51 318.577 523.343 319.08 523.063C321.039 522.169 322.438 519.932 321.767 517.752C321.095 515.628 319.304 513.894 316.954 514.174C314.436 514.509 312.477 516.354 312.589 518.982C312.645 521.162 313.988 522.504 315.723 523.175ZM316.338 516.187C316.226 516.243 316.114 516.243 316.002 516.298C316.002 516.298 316.002 516.243 316.058 516.243C316.114 516.243 316.226 516.243 316.338 516.187Z" fill="white" fill-opacity="0.1"/>
<path d="M393.79 634.597C391.271 634.932 389.313 636.721 389.424 639.405C389.48 641.529 390.824 642.927 392.558 643.542C393.006 643.765 393.51 643.933 394.125 643.877C394.181 643.877 394.237 643.877 394.349 643.877C394.909 643.877 395.468 643.71 395.916 643.43C397.819 642.536 399.274 640.299 398.602 638.119C397.931 636.106 396.14 634.317 393.79 634.597ZM393.118 636.609C393.006 636.665 392.894 636.665 392.782 636.721C392.782 636.721 392.782 636.721 392.838 636.665C392.95 636.609 393.062 636.609 393.118 636.609Z" fill="white" fill-opacity="0.1"/>
<path d="M295.184 612.737C293.058 612.793 291.659 614.135 291.043 615.924C290.819 616.371 290.708 616.875 290.708 617.49C290.708 617.49 290.708 617.49 290.708 617.545C290.708 617.601 290.708 617.657 290.708 617.713C290.708 618.272 290.875 618.831 291.155 619.279C292.051 621.179 294.289 622.633 296.472 621.962C298.542 621.291 300.333 619.502 300.053 617.154C299.717 614.638 297.871 612.682 295.184 612.737ZM298.039 616.483C297.983 616.371 297.983 616.26 297.927 616.148C297.927 616.148 297.927 616.148 297.983 616.204C297.983 616.316 298.039 616.427 298.039 616.483Z" fill="white" fill-opacity="0.1"/>
<path d="M298.095 542.072C298.654 542.072 299.214 541.96 299.661 541.625C299.717 541.625 299.773 541.569 299.829 541.569C300.333 541.289 300.669 540.954 300.949 540.506C301.956 539.332 302.348 537.935 301.956 536.09C301.34 533.35 297.703 532.065 295.352 533.35C290.763 535.922 293.282 542.631 298.095 542.072ZM297.255 534.692C297.199 534.748 297.087 534.748 296.975 534.748C297.031 534.748 297.143 534.692 297.255 534.692Z" fill="white" fill-opacity="0.1"/>
<path d="M309.455 637.672C309.455 638.231 309.623 638.734 309.903 639.238C309.903 639.293 309.959 639.293 309.959 639.349C309.959 639.349 309.959 639.349 309.959 639.405C310.239 639.853 310.574 640.244 310.966 640.523C312.197 641.586 313.596 641.977 315.443 641.53C318.185 640.859 319.472 637.281 318.185 634.933C315.611 630.348 308.84 632.864 309.455 637.672ZM316.898 636.834C316.842 636.778 316.842 636.666 316.842 636.554C316.842 636.61 316.842 636.722 316.898 636.834Z" fill="white" fill-opacity="0.1"/>
<path d="M341.074 512.218C341.522 512.665 342.025 513.001 342.697 513.057C342.753 513.057 342.753 513.057 342.809 513.057C343.368 513.224 343.928 513.224 344.376 513.057C346.222 512.889 347.901 511.882 348.461 509.814C349.132 507.466 347.845 504.782 345.383 504.111C340.346 502.714 337.268 509.255 341.074 512.218ZM345.775 506.404C345.775 506.46 345.775 506.46 345.775 506.404C345.719 506.404 345.663 506.292 345.551 506.292C345.607 506.348 345.663 506.404 345.775 506.404Z" fill="white" fill-opacity="0.1"/>
<path d="M368.775 645.052C366.256 644.381 363.85 645.555 362.954 648.015C362.227 649.916 363.01 652.04 364.521 653.214C364.913 653.605 365.417 653.941 366.032 653.997C366.144 653.997 366.2 653.997 366.312 653.997C366.704 654.053 367.152 654.109 367.543 654.053C369.502 653.941 371.237 652.935 371.852 650.81C372.468 648.406 371.181 645.723 368.775 645.052Z" fill="white" fill-opacity="0.1"/>
<path d="M281.53 587.804C281.082 588.251 280.747 588.754 280.691 589.425C280.691 589.481 280.691 589.481 280.691 589.537C280.523 590.096 280.523 590.655 280.691 591.158C280.858 593.003 281.866 594.68 283.936 595.239C286.287 595.91 288.973 594.624 289.645 592.164C291.044 587.133 284.496 584.058 281.53 587.804ZM287.35 592.5C287.35 592.444 287.462 592.388 287.462 592.276C287.406 592.388 287.406 592.444 287.35 592.5Z" fill="white" fill-opacity="0.1"/>
<path d="M373.028 544.923C365.641 543.469 358.869 540.283 352.042 543.917C340.458 550.122 337.044 550.29 334.022 563.26C333.575 565.161 334.582 567.397 336.652 567.845C339.562 568.46 342.416 569.131 345.326 569.746C343.76 576.622 342.249 583.554 340.682 590.487C337.884 589.872 335.141 589.257 332.343 588.642C330.441 588.195 328.202 589.201 327.755 591.27C326.691 596.245 325.628 601.221 324.621 606.197C324.229 608.097 325.124 610.334 327.251 610.781C340.682 613.632 354.113 616.483 367.543 619.446C369.502 619.894 371.629 618.887 372.132 616.819C373.251 612.179 374.371 607.594 375.49 602.954C375.938 600.997 374.93 598.929 372.86 598.37C370.341 597.699 367.767 597.028 365.249 596.301C368.719 580.703 372.188 565.105 375.602 549.451C376.05 547.607 375.098 545.314 373.028 544.923ZM353.777 551.408C358.813 548.725 362.115 549.899 367.599 551.296C364.13 566.838 360.716 582.436 357.246 597.978C356.799 599.935 357.806 602.004 359.877 602.563C362.395 603.234 364.913 603.904 367.431 604.575C366.872 606.812 366.368 609.104 365.809 611.34C354.784 608.936 343.76 606.588 332.735 604.24C333.239 601.668 333.798 599.152 334.358 596.581C337.1 597.196 339.898 597.811 342.64 598.426C343.088 598.537 343.536 598.537 343.927 598.481C345.382 598.481 346.837 597.699 347.229 595.798C349.244 586.462 351.314 577.125 353.441 567.789C353.889 565.888 352.881 563.652 350.811 563.204C347.845 562.534 344.879 561.863 341.857 561.248C342.137 559.291 342.528 557.39 343.312 556.999C346.782 555.21 350.307 553.309 353.777 551.408Z" fill="white" fill-opacity="0.1"/>
<path d="M462.119 407.169C467.379 394.087 470.065 380.055 473.087 366.302C476.837 349.418 481.258 332.367 483.664 315.259C486.63 293.903 460.16 291.052 445.498 287.809C424.848 283.225 404.198 278.64 383.492 274.112C359.317 269.863 351.65 281.659 346.67 303.407C342.864 319.955 338.947 336.504 335.477 353.108C333.239 363.954 329.881 376.645 332.287 387.77C335.421 402.082 346.726 415.22 357.638 427.016C347.957 440.937 348.516 458.436 359.988 470.735C359.205 471.35 358.478 471.965 357.694 472.636C351.091 465.704 344.095 459.218 336.373 453.46C334.694 452.23 332.287 453.236 331.28 454.802C326.076 463.02 321.431 471.462 316.842 480.072C308.224 476.27 299.438 472.86 290.26 470.623C288.413 470.176 286.007 471.182 285.671 473.251C283.992 482.979 282.873 492.706 281.922 502.49C272.352 502.266 262.783 502.602 253.269 504C251.199 504.335 250.247 506.795 250.639 508.584C252.766 518.032 255.452 527.313 258.25 536.593C249.464 540.003 240.846 543.861 232.731 548.669C231.108 549.619 230.213 552.079 231.388 553.756C237.04 561.807 243.196 569.466 249.408 577.013C242.469 583.61 235.977 590.599 230.213 598.314C228.982 599.991 229.989 602.395 231.556 603.401C239.782 608.601 248.233 613.241 256.851 617.825C253.045 626.435 249.688 635.212 247.393 644.381C246.946 646.226 247.953 648.63 250.023 648.965C259.761 650.642 269.498 651.76 279.292 652.711C279.068 662.271 279.403 671.831 280.802 681.335C281.138 683.404 283.601 684.354 285.391 683.963C294.849 681.838 304.139 679.155 313.428 676.359C316.842 685.137 320.703 693.746 325.572 701.853C326.523 703.474 328.986 704.368 330.664 703.194C338.723 697.548 346.39 691.398 353.945 685.193C360.604 692.125 367.543 698.61 375.266 704.368C376.945 705.598 379.351 704.592 380.359 703.027C385.563 694.808 390.208 686.367 394.797 677.757C403.415 681.559 412.257 684.969 421.379 687.205C423.225 687.652 425.632 686.646 425.967 684.578C427.646 674.85 428.766 665.122 429.717 655.338C439.286 655.562 448.856 655.227 458.369 653.829C460.44 653.494 461.391 651.034 461 649.245C458.873 639.796 456.187 630.516 453.389 621.235C462.175 617.825 470.793 613.968 478.907 609.104C480.53 608.153 481.426 605.693 480.25 604.016C474.598 595.966 468.443 588.307 462.231 580.759C469.17 574.162 475.662 567.174 481.426 559.459C482.657 557.782 481.65 555.378 480.083 554.371C471.856 549.172 463.406 544.532 454.788 539.947C458.593 531.338 462.007 522.56 464.301 513.392C464.749 511.547 463.742 509.143 461.671 508.807C451.934 507.13 442.196 506.012 432.403 505.062C432.627 495.502 432.291 485.942 430.892 476.438C430.556 474.369 428.094 473.419 426.303 473.81C416.846 475.934 407.556 478.618 398.266 481.413C397.987 480.687 397.707 480.016 397.427 479.289C413.152 472.524 421.602 456.479 418.021 439.651C434.586 432.216 454.9 425.171 462.119 407.169ZM445.834 380.278C426.863 393.752 407.332 406.387 387.746 418.966C386.458 418.071 385.171 416.841 383.996 415.444C405.374 401.858 426.695 388.161 447.401 373.57C446.897 375.75 446.394 378.042 445.834 380.278ZM443.819 387.155C441.805 392.801 438.839 397.833 433.858 401.132C428.542 404.654 422.442 407.225 416.734 409.965C411.921 412.313 401.456 419.022 394.069 420.14C410.858 409.406 427.534 398.56 443.819 387.155ZM381.534 281.324C383.94 281.883 386.347 282.386 388.753 282.945C383.548 286.467 378.232 289.822 372.916 293.176C373.867 289.039 374.818 284.902 375.77 280.765C377.505 280.765 379.407 280.933 381.534 281.324ZM371.517 299.27C379.351 294.406 387.186 289.486 394.741 284.231C397.035 284.734 399.33 285.237 401.624 285.741C391.271 292.897 380.638 299.605 369.95 306.258C370.453 303.966 370.957 301.618 371.517 299.27ZM365.529 325.602C383.996 314.029 402.631 302.568 420.371 289.934C422.666 290.437 424.96 290.94 427.255 291.443C406.661 305.923 385.283 319.229 363.962 332.534C364.521 330.242 365.025 327.894 365.529 325.602ZM362.675 338.684C386.458 323.813 410.41 309.109 433.243 292.785C435.537 293.288 437.887 293.791 440.182 294.294C414.607 312.464 387.802 328.956 361.22 345.616C361.667 343.268 362.171 340.976 362.675 338.684ZM359.653 352.94C359.765 352.493 359.821 352.102 359.933 351.654C388.865 333.541 418.133 315.651 445.834 295.748C445.946 295.692 445.946 295.58 446.058 295.524C448.464 295.971 450.926 296.419 453.445 296.922C422.666 318.725 390.432 338.572 358.477 358.587C358.813 356.686 359.261 354.841 359.653 352.94ZM357.358 364.569C391.719 343.101 426.415 321.856 459.321 298.264C460.776 298.655 462.175 299.046 463.574 299.549C463.406 300.276 463.238 301.003 463.07 301.786C428.71 326.385 392.558 348.635 356.743 370.998C356.799 368.818 357.022 366.693 357.358 364.569ZM448.744 367.14C426.751 382.85 403.974 397.386 381.142 411.922C380.079 410.524 379.071 409.07 378.12 407.84C402.408 392.466 426.695 377.036 450.199 360.488C449.751 362.668 449.248 364.904 448.744 367.14ZM451.654 354.002C426.863 371.669 401.064 388.049 375.322 404.318C374.203 403.032 373.14 401.691 372.076 400.405C399.386 383.186 426.751 365.966 453.165 347.405C452.661 349.642 452.158 351.822 451.654 354.002ZM454.62 340.92C426.919 360.655 397.987 378.825 369.222 396.939C368.159 395.597 367.152 394.255 366.088 392.913C396.42 373.849 426.863 354.897 456.131 334.211C455.627 336.448 455.068 338.684 454.62 340.92ZM457.474 327.782C426.975 349.586 395.021 369.433 363.29 389.391C362.675 388.553 362.003 387.77 361.388 386.987C360.996 386.428 360.604 385.869 360.268 385.31C393.454 364.513 426.919 343.827 458.929 321.129C458.425 323.31 457.978 325.546 457.474 327.782ZM460.328 314.7C427.367 338.349 392.726 359.761 358.31 381.285C357.694 379.608 357.302 377.819 357.023 376.085C392.278 354.058 427.758 332.199 461.671 308.215C461.223 310.339 460.776 312.52 460.328 314.7ZM414.495 288.592C398.994 299.382 382.933 309.445 366.928 319.452C367.431 317.104 367.991 314.756 368.495 312.464C381.646 304.246 394.909 296.083 407.5 287.082C409.739 287.585 412.033 288.089 414.271 288.592C414.327 288.592 414.439 288.592 414.495 288.592ZM362.898 432.607C364.298 434.116 365.697 435.626 367.04 437.079C362.339 445.801 363.85 455.584 370.677 462.237C369.054 463.467 367.487 464.697 365.92 465.983C356.743 456.367 356.239 443.676 362.898 432.607ZM398.154 448.54C397.707 453.963 393.901 458.436 388.585 460.169C387.802 458.715 387.018 457.262 386.179 455.864C385.227 454.243 382.765 453.348 381.086 454.522C379.631 455.529 378.232 456.591 376.777 457.653C372.132 453.907 370.789 448.484 372.58 443.173C380.974 451.671 389.145 451.671 398.154 448.54ZM398.938 488.961C406.269 486.724 413.544 484.544 420.987 482.699C415.894 489.967 410.746 497.235 405.653 504.447C396.923 498.185 387.41 493.88 377.561 491.365C379.463 482.867 381.31 474.369 383.213 465.815C386.682 472.468 389.648 479.345 392.278 486.389C393.006 488.402 394.909 489.072 396.588 488.849C397.203 489.184 398.043 489.24 398.938 488.961ZM447.009 539.165C446.114 541.066 446.897 542.91 448.24 543.973C448.52 544.644 449.024 545.259 449.863 545.706C456.635 549.34 463.35 552.974 469.898 556.831C460.944 558.397 451.934 559.962 442.98 561.471C440.965 551.576 437.216 541.96 431.899 533.015C439.678 528.095 447.401 523.12 455.18 518.2C452.941 525.412 450.143 532.344 447.009 539.165ZM448.352 615.198C446.338 615.924 445.666 617.825 445.89 619.502C445.61 620.173 445.554 620.956 445.834 621.906C448.072 629.23 450.255 636.498 452.102 643.934C444.883 638.846 437.663 633.759 430.388 628.671C436.097 619.67 440.126 610.11 442.42 600.326C451.262 602.283 460.104 604.24 468.946 606.197C462.287 609.607 455.403 612.57 448.352 615.198ZM418.748 632.249C389.424 665.01 346.39 670.433 309.287 647.232C268.939 622.018 263.342 570.081 287.798 532.009C312.757 493.154 363.626 486.277 401.064 510.541C442.42 537.264 448.688 595.071 418.748 632.249ZM286.846 649.804C286.902 647.4 285.112 646.226 283.265 646.226C282.705 645.778 282.034 645.499 281.25 645.443C273.975 644.716 266.7 643.989 259.481 642.927C266.644 638.399 273.751 633.814 280.914 629.286C285.559 636.107 291.155 642.48 297.815 648.015C299.214 649.189 300.613 650.251 302.068 651.313C297.143 658.301 292.219 665.29 287.294 672.222C286.567 664.787 286.567 657.239 286.846 649.804ZM264.685 618.496C265.581 616.595 264.797 614.75 263.454 613.688C263.174 613.017 262.671 612.402 261.831 611.955C255.06 608.377 248.345 604.687 241.797 600.83C250.247 599.376 258.698 597.922 267.148 596.469C269.162 606.644 272.968 616.483 278.452 625.54C271.177 630.18 263.902 634.821 256.627 639.461C258.809 632.249 261.608 625.317 264.685 618.496ZM263.398 542.463C265.413 541.736 266.085 539.836 265.861 538.158C266.14 537.488 266.196 536.705 265.917 535.754C263.678 528.431 261.496 521.107 259.649 513.727C266.756 518.759 273.863 523.735 280.97 528.766C274.926 537.655 270.673 547.215 268.155 557.111C259.705 555.266 251.255 553.365 242.804 551.52C249.464 548.054 256.347 545.091 263.398 542.463ZM429.493 529.269C424.792 522.225 419.084 515.628 412.313 509.702C411.305 508.807 410.242 507.969 409.179 507.13C414.271 499.862 419.42 492.65 424.512 485.383C425.128 492.818 425.128 500.366 424.904 507.857C424.848 510.261 426.639 511.435 428.486 511.435C429.045 511.826 429.717 512.162 430.5 512.218C437.775 512.945 445.05 513.671 452.27 514.734C444.715 519.597 437.104 524.461 429.493 529.269ZM354.448 479.904C356.071 481.637 358.198 481.246 359.541 479.904C360.212 479.792 360.884 479.568 361.555 479.009C367.208 474.369 372.86 469.785 378.736 465.368C376.889 473.698 375.042 482.028 373.195 490.358C363.122 488.346 352.825 488.178 342.752 489.743C341.297 481.246 339.786 472.748 338.331 464.306C344.039 469.114 349.356 474.425 354.448 479.904ZM322.718 484.88C326.299 478.115 329.993 471.406 333.91 464.865C335.421 473.419 336.876 481.972 338.387 490.526C328.258 492.595 318.465 496.396 309.455 501.875C304.698 494.44 299.997 487.06 295.297 479.624C302.46 481.861 309.399 484.656 316.226 487.731C318.129 488.625 319.976 487.843 321.039 486.501C321.655 486.277 322.27 485.718 322.718 484.88ZM284.832 509.87C287.238 509.926 288.413 508.137 288.413 506.292C288.861 505.733 289.141 505.062 289.197 504.279C289.924 497.011 290.652 489.743 291.715 482.531C296.36 489.799 301.005 497.067 305.594 504.335C297.759 509.59 290.596 516.131 284.552 523.902C284.216 524.349 283.88 524.797 283.545 525.244C276.493 520.268 269.386 515.293 262.335 510.317C269.834 509.59 277.389 509.59 284.832 509.87ZM256.851 580.256C258.586 578.635 258.194 576.51 256.851 575.169C256.739 574.498 256.515 573.827 255.955 573.156C251.311 567.509 246.722 561.863 242.301 555.993C250.583 557.837 258.865 559.626 267.148 561.471C265.133 571.59 264.853 581.933 266.364 591.996C257.97 593.45 249.632 594.904 241.237 596.357C246.05 590.655 251.367 585.343 256.851 580.256ZM319.472 671.216C318.745 669.203 316.842 668.532 315.163 668.756C314.492 668.476 313.708 668.421 312.757 668.7C305.426 670.936 298.151 673.117 290.708 674.962C295.632 667.917 300.613 660.929 305.538 653.885C314.547 659.923 324.173 664.116 334.078 666.52C332.231 674.962 330.329 683.348 328.482 691.789C325.068 685.137 322.102 678.26 319.472 671.216ZM357.246 677.757C355.623 676.024 353.497 676.415 352.154 677.757C351.482 677.869 350.811 678.092 350.195 678.651C344.543 683.292 338.891 687.876 333.015 692.293C334.862 684.018 336.652 675.8 338.499 667.526C348.628 669.427 358.925 669.539 368.998 667.917C370.453 676.415 371.964 684.913 373.419 693.355C367.711 688.547 362.395 683.236 357.246 677.757ZM389.033 672.781C385.451 679.546 381.758 686.255 377.896 692.796C376.385 684.242 374.93 675.633 373.419 667.079C383.492 664.954 393.23 661.097 402.24 655.618C406.996 663.054 411.753 670.545 416.51 677.981C409.347 675.744 402.408 672.949 395.58 669.874C393.678 668.98 391.831 669.762 390.767 671.104C390.096 671.384 389.48 671.887 389.033 672.781ZM426.863 647.791C424.456 647.735 423.281 649.524 423.281 651.369C422.834 651.928 422.554 652.599 422.498 653.382C421.77 660.65 421.043 667.917 419.98 675.129C415.335 667.806 410.634 660.482 405.989 653.214C412.481 648.853 418.581 643.598 424.009 637.504C425.408 635.827 426.639 634.038 427.926 632.305C435.089 637.337 442.252 642.368 449.415 647.4C441.917 648.071 434.362 648.071 426.863 647.791ZM454.9 577.405C453.165 579.026 453.557 581.15 454.9 582.492C455.012 583.163 455.236 583.834 455.795 584.505C460.44 590.151 465.029 595.798 469.45 601.668C460.776 599.767 452.102 597.811 443.428 595.91C445.274 585.958 445.386 575.839 443.875 565.944C452.773 564.379 461.671 562.869 470.569 561.304C465.7 567.006 460.384 572.317 454.9 577.405ZM394.573 472.468C393.789 470.623 392.894 468.778 392.055 466.989C400.953 463.691 406.213 454.914 405.541 445.577C407.332 444.739 409.179 443.844 411.082 442.95C413.04 455.529 406.549 467.437 394.573 472.468ZM437.384 421.817C429.269 426.234 420.819 430.091 412.481 434.005C404.926 437.527 389.704 448.261 381.702 442.055C367.431 430.986 354.504 411.418 344.263 396.827C333.351 381.341 341.913 358.419 345.606 341.647C348.292 329.515 351.147 317.44 353.945 305.308C356.687 293.456 359.485 284.622 367.935 281.659C361.835 308.159 355.232 334.659 350.419 361.382C348.013 374.688 349.747 383.912 357.918 394.535C363.962 402.361 370.341 409.909 376.777 417.4C379.463 420.531 383.436 426.625 388.137 427.352C400.225 429.197 414.215 419.413 424.624 414.381C437.775 408.008 445.778 402.976 450.982 389C461 361.829 464.693 331.081 470.625 302.68C471.52 303.239 472.36 303.798 473.143 304.469C481.202 311.122 471.968 336.28 470.177 344.722C467.883 355.68 465.477 366.637 463.014 377.539C458.649 396.268 455.068 412.201 437.384 421.817Z" fill="white" fill-opacity="0.1"/>
<path d="M98.9427 838.886C97.6253 832.919 95.1544 827.241 92.872 821.581C90.0842 814.623 87.4957 807.441 84.1727 800.731C80.0107 792.364 69.8424 797.818 63.8032 800.244C55.2934 803.654 46.7836 807.064 38.2675 810.508C28.5782 814.9 28.7201 820.996 32.257 829.996C34.9427 836.847 37.5884 843.727 40.4079 850.516C42.2596 854.944 44.162 860.306 47.744 863.699C52.3657 868.053 59.6236 869.989 66.4132 871.541C66.3539 878.889 70.8339 885.014 77.9468 886.609C77.8168 887.02 77.7069 887.418 77.5907 887.85C73.5325 886.985 69.4434 886.375 65.2719 886.203C64.3704 886.174 63.7555 887.123 63.7779 887.929C63.9257 892.142 64.3285 896.299 64.7923 900.502C60.7789 901.249 56.8012 902.178 52.9704 903.622C52.2003 903.914 51.5854 904.863 51.9712 905.685C53.7496 909.576 55.7283 913.331 57.7807 917.064C54.3021 919.324 50.9601 921.785 47.898 924.612C47.2392 925.238 47.5004 926.351 48.0781 926.895C51.1498 929.756 54.3807 932.419 57.6516 935.055C55.342 938.424 53.2019 941.913 51.4744 945.617C51.1262 946.354 51.4075 947.454 52.2382 947.766C56.2295 949.264 60.3053 950.499 64.3738 951.68C63.5043 955.738 62.8908 959.826 62.7153 963.996C62.685 964.898 63.6334 965.511 64.4401 965.488C68.6552 965.337 72.8136 964.93 77.0184 964.463C77.7625 968.474 78.7078 972.436 80.1293 976.277C80.4203 977.047 81.3687 977.661 82.1916 977.274C86.0858 975.493 89.8433 973.512 93.5798 971.456C95.8379 974.932 98.2962 978.27 101.121 981.329C101.747 981.987 102.861 981.724 103.406 981.146C106.27 978.073 108.938 974.841 111.578 971.569C114.946 973.875 118.433 976.011 122.158 977.72C122.895 978.068 123.995 977.786 124.308 976.955C125.811 972.964 127.05 968.888 128.235 964.82C132.313 965.672 136.382 966.295 140.554 966.467C141.455 966.496 142.07 965.548 142.048 964.741C141.9 960.528 141.497 956.371 141.034 952.168C145.047 951.421 149.045 950.478 152.855 949.048C153.626 948.756 154.24 947.807 153.855 946.985C152.076 943.094 150.097 939.34 148.045 935.606C151.524 933.346 154.866 930.885 157.928 928.059C158.587 927.432 158.325 926.319 157.748 925.775C154.676 922.915 151.445 920.251 148.174 917.615C150.484 914.246 152.624 910.758 154.338 907.033C154.686 906.296 154.405 905.197 153.574 904.884C149.583 903.386 145.507 902.151 141.438 900.97C142.308 896.912 142.921 892.824 143.097 888.654C143.127 887.753 142.179 887.139 141.372 887.162C137.157 887.314 132.999 887.72 128.794 888.187C128.05 884.176 127.124 880.201 125.703 876.359C125.412 875.589 124.463 874.976 123.641 875.362C119.746 877.143 115.989 879.125 112.252 881.18C109.994 877.705 107.536 874.366 104.711 871.308C104.085 870.65 102.971 870.912 102.426 871.49C99.562 874.563 96.8945 877.795 94.2543 881.068C93.9764 880.876 93.7122 880.704 93.4343 880.513C97.4064 874.246 96.5057 866.439 91.1085 861.293C95.2169 854.582 100.762 847.093 98.9427 838.886ZM86.539 833.247C83.0464 842.708 79.1485 852.006 75.2168 861.297C74.5375 861.292 73.7762 861.166 73.0138 860.954C77.3401 850.864 81.619 840.749 85.4589 830.464C85.8119 831.367 86.1923 832.31 86.539 833.247ZM87.5 836.201C88.1602 838.714 88.3295 841.239 87.3542 843.638C86.3134 846.198 84.7598 848.61 83.3875 850.986C82.2397 853.004 80.1362 857.963 77.7666 860.17C81.1483 852.224 84.4626 844.264 87.5 836.201ZM39.3305 813.567C40.3283 813.179 41.3123 812.77 42.31 812.382C41.3093 814.915 40.2275 817.416 39.1457 819.916C38.4743 818.203 37.8028 816.49 37.1314 814.777C37.7521 814.353 38.4739 813.948 39.3305 813.567ZM40.1355 822.439C41.7492 818.782 43.3492 815.106 44.767 811.378C45.711 810.996 46.655 810.615 47.5991 810.234C45.6449 815.327 43.4813 820.328 41.284 825.322C40.9036 824.379 40.5095 823.416 40.1355 822.439ZM44.4331 833.325C48.2104 824.667 52.0751 816.009 55.3324 807.149C56.2764 806.768 57.2204 806.387 58.1644 806.006C54.3372 816.224 49.9426 826.213 45.568 836.188C45.2076 835.231 44.8135 834.268 44.4331 833.325ZM46.6115 838.703C51.4843 827.566 56.4582 816.447 60.635 805.022C61.5791 804.64 62.5431 804.246 63.4871 803.864C58.7803 816.62 53.2228 829.077 47.7864 841.54C47.3723 840.59 46.9919 839.647 46.6115 838.703ZM49.0169 844.543C48.9476 844.356 48.8719 844.202 48.8026 844.015C54.7244 830.458 60.8212 816.898 65.865 803.002C65.8913 802.955 65.864 802.915 65.8904 802.867C66.8608 802.439 67.8512 801.997 68.8753 801.561C63.1951 816.89 56.5157 831.875 49.9775 846.851C49.6327 846.089 49.3417 845.319 49.0169 844.543ZM51.04 849.265C58.0838 833.18 65.3023 817.093 71.3059 800.604C71.9222 800.388 72.5185 800.186 73.1421 800.024C73.2598 800.325 73.3775 800.626 73.5089 800.947C67.2308 818.152 59.7378 834.955 52.3922 851.716C51.879 850.922 51.4395 850.108 51.04 849.265ZM84.367 827.835C80.3401 838.835 75.7456 849.606 71.1312 860.391C70.4089 860.151 69.693 859.878 69.0518 859.67C73.9818 848.229 78.898 836.768 83.2605 825.099C83.6336 825.988 84.0003 826.912 84.367 827.835ZM82.195 822.422C77.6454 834.807 72.421 846.977 67.1892 859.094C66.4743 858.908 65.7657 858.688 65.0708 858.488C70.6307 845.648 76.2107 832.794 81.1222 819.692C81.4889 820.616 81.8419 821.519 82.195 822.422ZM80.0567 817.016C74.9718 830.852 69.0636 844.43 63.2018 857.946C62.4932 857.726 61.8046 857.492 61.096 857.272C67.2861 843.033 73.5434 828.806 78.9565 814.246C79.3232 815.17 79.6699 816.107 80.0567 817.016ZM77.8646 811.617C72.2845 826.878 65.7053 841.794 59.2335 856.696C58.8081 856.547 58.3764 856.431 57.9647 856.301C57.6878 856.197 57.4109 856.093 57.154 855.975C63.9414 840.417 70.8561 824.831 76.7581 808.881C77.1111 809.784 77.4979 810.694 77.8646 811.617ZM75.6862 806.238C69.6764 822.761 62.5188 838.895 55.4687 855.014C54.8383 854.564 54.2606 854.02 53.7366 853.468C60.964 836.964 68.3125 820.465 74.5807 803.59C74.9401 804.459 75.3132 805.349 75.6862 806.238ZM52.9018 808.106C49.9943 815.758 46.7088 823.287 43.4297 830.782C43.0356 829.819 42.6615 828.842 42.2811 827.898C44.9766 821.742 47.7258 815.577 50.0297 809.277C50.9537 808.91 51.8977 808.529 52.8217 808.161C52.8417 808.147 52.8817 808.12 52.9018 808.106ZM69.6628 872.255C70.5325 872.453 71.4023 872.65 72.2384 872.842C72.6894 877.112 75.6229 880.243 79.6929 880.954C79.413 881.791 79.1532 882.614 78.907 883.458C73.2714 882.262 69.9873 877.844 69.6628 872.255ZM86.1743 869.333C87.3404 871.383 87.0727 873.914 85.5944 875.834C84.9586 875.506 84.3227 875.177 83.6805 874.882C82.9436 874.535 81.8438 874.817 81.5303 875.648C81.2558 876.364 81.015 877.086 80.7542 877.822C78.1761 877.618 76.3693 876.006 75.711 873.667C80.7929 874.655 83.7163 872.657 86.1743 869.333ZM96.3405 883.604C98.4166 881.011 100.486 878.451 102.698 875.971C102.654 879.817 102.589 883.676 102.531 887.502C97.8757 887.397 93.4189 888.184 89.2795 889.692C87.882 886.186 86.4644 882.694 85.0532 879.168C87.9217 880.7 90.6648 882.435 93.3287 884.312C94.0812 884.855 94.9261 884.629 95.4721 884.139C95.7744 884.108 96.0884 883.923 96.3405 883.604ZM125.819 889.81C125.964 890.709 126.695 891.177 127.435 891.229C127.7 891.401 128.03 891.498 128.44 891.452C131.752 891.096 135.043 890.754 138.329 890.533C135.508 893.283 132.668 896.047 129.833 898.777C126.692 895.729 122.999 893.205 118.909 891.305C120.489 887.642 122.035 883.973 123.615 880.31C124.578 883.438 125.272 886.603 125.819 889.81ZM144.895 916.686C144.352 917.439 144.577 918.283 145.067 918.829C145.131 919.137 145.303 919.431 145.635 919.702C148.227 921.775 150.786 923.842 153.265 926.051C149.438 925.996 145.61 925.941 141.763 925.9C141.604 921.284 140.708 916.878 139.136 912.816C142.778 911.354 146.42 909.891 150.063 908.429C148.514 911.278 146.776 914.021 144.895 916.686ZM138.473 930.028C135.994 948.921 121.922 961.387 102.972 962.16C82.3689 963.007 67.664 945.792 67.1027 926.189C66.5301 906.182 83.0494 891.28 102.379 890.805C123.712 890.252 140.093 909.403 138.473 930.028ZM95.572 968.569C95.004 967.695 94.0762 967.713 93.4154 968.164C93.1058 968.141 92.7971 968.205 92.5031 968.377C89.7223 969.896 86.9416 971.415 84.0988 972.801C85.5542 969.429 86.976 966.05 88.4314 962.678C91.7615 963.982 95.3226 964.894 99.059 965.246C99.8467 965.324 100.607 965.362 101.387 965.386C101.335 969.091 101.282 972.796 101.215 976.48C99.1363 973.998 97.2904 971.297 95.572 968.569ZM79.9857 962.787C79.8412 961.887 79.1096 961.419 78.3693 961.367C78.1051 961.196 77.7745 961.099 77.3647 961.144C74.0668 961.52 70.7616 961.842 67.4754 962.063C70.1434 959.477 72.8114 956.89 75.4794 954.303C78.6888 957.451 82.4569 960.041 86.6343 961.94C85.1661 965.38 83.698 968.819 82.2298 972.259C81.2469 969.145 80.5526 965.98 79.9857 962.787ZM60.9295 935.897C61.4725 935.144 61.2479 934.299 60.7576 933.754C60.6937 933.446 60.5223 933.152 60.1897 932.88C57.5976 930.807 55.0255 928.721 52.5598 926.532C56.3334 926.594 60.0932 926.636 63.8668 926.698C63.8783 931.357 64.6947 935.818 66.2138 939.974C62.7391 941.381 59.2507 942.767 55.776 944.174C57.311 941.305 59.0492 938.561 60.9295 935.897ZM117.132 890.553C113.727 889.182 110.071 888.218 106.199 887.754C105.62 887.68 105.034 887.64 104.449 887.6C104.493 883.754 104.571 879.915 104.616 876.069C106.655 878.579 108.501 881.279 110.253 884.014C110.821 884.888 111.749 884.87 112.409 884.418C112.705 884.422 113.028 884.377 113.322 884.206C116.102 882.687 118.883 881.167 121.726 879.782C120.212 883.37 118.679 886.972 117.132 890.553ZM78.2069 891.244C79.2114 891.467 79.8766 890.807 80.029 889.999C80.2419 889.794 80.4275 889.55 80.5311 889.186C81.4185 886.143 82.3197 883.121 83.3419 880.103C84.7185 883.535 86.095 886.968 87.4716 890.4C83.3752 892.143 79.6499 894.602 76.4285 897.625C73.8296 894.941 71.2106 892.27 68.6253 889.605C71.8436 889.929 75.0448 890.529 78.2069 891.244ZM68.0706 900.785C67.6976 897.489 67.3784 894.185 67.1802 890.886C69.8129 893.577 72.4255 896.282 75.0581 898.973C71.9398 902.19 69.3655 905.946 67.4818 910.11C63.9612 908.613 60.4744 907.122 56.9739 905.611C60.0838 904.659 63.2504 903.962 66.4452 903.393C67.3448 903.248 67.8142 902.516 67.8664 901.776C68.032 901.545 68.1155 901.195 68.0706 900.785ZM60.6268 918.993C61.5015 918.424 61.4844 917.496 61.0332 916.836C61.0567 916.527 60.9927 916.218 60.8213 915.925C59.3041 913.146 57.7868 910.368 56.4034 907.527C59.8429 908.992 63.2824 910.456 66.7018 911.934C65.1838 915.731 64.2206 919.823 63.9587 924.082C63.948 924.324 63.9372 924.566 63.9265 924.808C60.1866 924.753 56.4267 924.71 52.6869 924.655C55.1922 922.561 57.8954 920.713 60.6268 918.993ZM67.8299 951.02C68.0541 950.016 67.3943 949.352 66.5856 949.2C66.3815 948.987 66.1373 948.802 65.773 948.699C62.7301 947.815 59.7072 946.917 56.6896 945.897C60.1043 944.532 63.5053 943.146 66.9199 941.781C68.674 945.894 71.1034 949.663 74.1052 952.894C71.4573 955.467 68.8293 958.027 66.1813 960.6C66.5086 957.383 67.1119 954.182 67.8299 951.02ZM112.482 968.25C111.73 967.708 110.885 967.934 110.339 968.424C110.03 968.488 109.736 968.66 109.464 968.993C107.388 971.586 105.318 974.145 103.107 976.626C103.146 972.901 103.219 969.182 103.258 965.457C107.958 965.414 112.428 964.56 116.56 962.998C117.964 966.47 119.334 969.936 120.738 973.408C117.889 971.863 115.146 970.128 112.482 968.25ZM127.598 961.352C126.593 961.129 125.928 961.789 125.776 962.598C125.563 962.802 125.377 963.046 125.294 963.397C124.406 966.439 123.505 969.462 122.483 972.479C121.12 969.067 119.751 965.689 118.388 962.277C122.477 960.479 126.189 958.001 129.396 954.957C131.995 957.642 134.614 960.313 137.199 962.978C133.981 962.653 130.78 962.053 127.598 961.352ZM137.754 951.798C138.127 955.094 138.446 958.398 138.665 961.683C136.032 958.992 133.406 956.267 130.773 953.576C133.858 950.352 136.398 946.591 138.282 942.427C141.803 943.924 145.337 945.441 148.857 946.938C145.747 947.89 142.581 948.587 139.386 949.156C138.486 949.302 138.017 950.033 137.965 950.773C137.793 951.038 137.696 951.368 137.754 951.798ZM145.178 933.604C144.303 934.172 144.32 935.1 144.772 935.76C144.748 936.07 144.812 936.378 144.983 936.672C146.501 939.45 148.018 942.229 149.401 945.069C145.948 943.585 142.475 942.114 139.036 940.649C140.292 937.501 141.189 934.129 141.641 930.621C141.731 929.679 141.734 928.738 141.771 927.803C145.564 927.851 149.358 927.9 153.152 927.948C150.633 930.022 147.929 931.87 145.178 933.604ZM137.995 901.562C137.771 902.567 138.43 903.231 139.239 903.383C139.443 903.595 139.687 903.781 140.052 903.884C143.095 904.768 146.118 905.666 149.135 906.685C145.567 908.127 141.985 909.548 138.416 910.989C136.643 906.977 134.208 903.329 131.247 900.158C134.048 897.422 136.863 894.705 139.664 891.969C139.316 895.2 138.713 898.401 137.995 901.562ZM90.745 878.77C90.0135 878.302 89.2419 877.861 88.504 877.426C90.8809 874.069 90.6164 869.642 88.0927 866.466C88.5284 865.728 88.9703 864.956 89.4324 864.171C93.2097 868.193 93.7994 874.041 90.745 878.77ZM93.6748 850.177C91.8516 853.742 89.7715 857.189 87.7452 860.628C85.9035 863.736 83.0824 871.3 78.7014 871.036C70.8881 870.566 61.4771 866.726 54.2441 864.01C46.5521 861.138 44.0095 850.843 41.2291 843.938C39.2231 838.94 37.2908 833.922 35.3249 828.897C33.4073 823.985 32.2481 820.14 34.5469 817.013C38.8455 827.987 42.9639 839.084 47.7778 849.822C50.171 855.172 53.0478 858.048 58.5692 859.85C62.6459 861.173 66.7745 862.313 70.9094 863.419C72.6362 863.883 75.5483 865.091 77.408 864.201C82.1842 861.905 84.7972 854.983 87.2909 850.637C90.4376 845.14 92.0704 841.383 90.5142 835.109C87.4531 822.937 81.2543 811.032 76.4308 799.419C76.8879 799.4 77.325 799.395 77.7694 799.444C82.2798 799.853 85.129 811.113 86.5529 814.571C88.4119 819.053 90.2309 823.562 92.0162 828.065C95.0349 835.834 97.6503 842.411 93.6748 850.177Z" fill="white" fill-opacity="0.1"/>
<path d="M217.231 638.221C211.263 632.778 205.689 626.83 199.495 621.555C198.932 620.545 197.918 619.872 196.342 620.04C180.463 621.499 164.528 622.004 148.593 622.06C147.805 621.779 146.904 621.836 145.947 622.397C145.497 622.621 145.102 622.902 144.821 623.238C137.783 628.569 131.307 635.078 125.395 641.644C124.325 642.878 124.213 644.281 124.663 645.459C124.776 645.74 124.888 646.077 125.057 646.413C137.501 667.4 153.098 689.34 171.004 706.118C171.341 706.455 171.736 706.68 172.13 706.848C173.425 707.69 175.058 707.69 176.353 706.118C192.062 686.366 206.308 665.324 217.794 642.822C217.851 642.654 217.907 642.542 217.963 642.373C218.639 641.026 218.583 639.455 217.231 638.221ZM208.166 639.96C202.085 641.363 195.891 642.261 189.641 642.934C192.231 638.445 194.652 633.844 196.679 629.074C200.621 632.553 204.337 636.313 208.166 639.96ZM184.742 642.317C181.026 637.884 177.254 633.507 173.763 628.962C179.956 628.681 186.15 628.289 192.344 627.784C190.148 632.778 187.501 637.604 184.742 642.317ZM180.069 643.72C177.76 643.888 175.508 644.057 173.256 644.225C169.314 644.506 165.26 644.73 161.15 644.898C164.078 640.353 167.118 635.864 169.765 631.15C173.087 635.471 176.578 639.568 180.069 643.72ZM157.377 642.542C154.843 638.333 152.704 633.956 150.677 629.467C155.688 629.411 160.699 629.355 165.711 629.186C163.177 633.788 160.249 638.165 157.377 642.542ZM170.328 648.882C174.326 648.714 178.38 648.434 182.49 648.153C180.238 663.753 176.691 679.184 173.481 694.615C168.47 679.801 164.472 664.482 160.756 649.331C163.965 649.163 167.175 649.051 170.328 648.882ZM187.051 647.76C194.202 647.087 201.409 646.077 208.335 644.506C199.72 660.554 189.81 675.873 178.886 690.463C181.927 676.266 185.08 662.069 187.051 647.76ZM146.566 631.263C148.65 635.976 150.958 640.634 153.605 645.011C146.961 645.011 140.316 644.562 134.01 643.215C137.951 639.006 142.118 634.91 146.566 631.263ZM134.855 647.928C141.78 649.219 148.988 649.5 156.139 649.387C159.686 663.696 163.402 678.174 167.963 692.258C155.463 678.903 144.314 663.36 134.855 647.928Z" fill="white" fill-opacity="0.1"/>
<path d="M9.53402 110.719C6.62876 103.182 4.30186 95.3692 1.11987 87.8819C1.0678 86.7267 0.462268 85.6713 -1.02324 85.117C-15.8787 79.3229 -30.358 72.6503 -44.6366 65.5762C-45.2163 64.9728 -46.0472 64.6202 -47.1543 64.6942C-47.6576 64.6936 -48.1356 64.7683 -48.538 64.9436C-57.2171 66.5652 -65.9193 69.4926 -74.143 72.7219C-75.6519 73.3479 -76.3798 74.5523 -76.5037 75.8078C-76.5284 76.1091 -76.5782 76.4606 -76.5777 76.8373C-74.8297 101.173 -70.6877 127.772 -62.1726 150.785C-62.021 151.237 -61.7688 151.614 -61.4915 151.941C-60.7094 153.273 -59.2488 154.003 -57.3879 153.176C-34.5049 142.532 -12.3544 130.079 7.98047 115.087C8.1061 114.961 8.20664 114.886 8.33227 114.761C9.53877 113.858 10.1909 112.428 9.53402 110.719ZM0.6474 108.222C-5.41931 106.758 -11.361 104.792 -17.2526 102.6C-12.9288 99.7426 -8.70583 96.7093 -4.7602 93.3491C-2.79003 98.2233 -1.14677 103.248 0.6474 108.222ZM-21.3585 99.8578C-22.7007 94.231 -24.1183 88.6293 -25.2089 83.0028C-19.5432 85.521 -13.8274 87.9388 -8.06133 90.2563C-12.2584 93.7417 -16.7832 96.8751 -21.3585 99.8578ZM-26.166 99.0232C-28.3063 98.1416 -30.3962 97.2852 -32.4861 96.4288C-36.1371 94.9176 -39.8638 93.3058 -43.6158 91.6187C-38.9647 88.8621 -34.2379 86.2061 -29.7633 83.173C-28.7235 88.5232 -27.4322 93.7481 -26.166 99.0232ZM-45.9366 87.8239C-46.3215 82.9266 -46.2785 78.0549 -46.0847 73.1332C-41.577 75.3235 -37.0694 77.5138 -32.5116 79.6037C-36.8352 82.5867 -41.4111 85.1927 -45.9366 87.8239ZM-37.1874 99.2858C-33.5362 100.923 -29.7844 102.484 -25.9823 104.071C-34.9713 117.018 -45.0435 129.235 -54.8135 141.603C-52.6729 126.112 -49.3999 110.621 -45.9503 95.4077C-43.0042 96.6921 -40.0832 98.0266 -37.1874 99.2858ZM-21.727 105.759C-15.0295 108.353 -8.13109 110.672 -1.23363 112.363C-16.1147 122.867 -31.8281 132.139 -48.1219 140.305C-39.0549 128.966 -29.8872 117.677 -21.727 105.759ZM-50.5642 72.9017C-50.8081 78.0493 -50.8253 83.2475 -50.415 88.3458C-56.3582 85.3752 -62.1006 82.0031 -67.1395 77.979C-61.7323 75.9767 -56.1738 74.1755 -50.5642 72.9017ZM-68.4914 82.5728C-62.8734 86.8237 -56.552 90.2969 -50.1054 93.3937C-53.3297 107.779 -56.4783 122.39 -58.6957 137.028C-63.906 119.493 -66.9291 100.605 -68.4914 82.5728Z" fill="white" fill-opacity="0.1"/>
<path d="M338.784 40.406C338.728 40.6856 338.672 41.021 338.672 41.3565C338.672 41.6919 338.672 41.9714 338.728 42.251C340.519 78.9815 396.481 77.9752 397.768 40.9651C399.111 3.11641 341.414 4.29045 338.784 40.406ZM346.115 41.3565C347.402 13.6827 389.374 12.5087 390.325 40.9651C391.276 68.8066 346.787 69.3656 346.115 41.3565Z" fill="white" fill-opacity="0.1"/>
<path d="M356.636 42.7538C356.02 38.1136 356.86 33.4174 358.035 29.0008C358.091 28.889 358.091 28.7213 358.035 28.6095C358.035 28.5536 357.979 28.5536 357.979 28.5536C357.923 28.4977 357.867 28.4418 357.811 28.3858C357.755 28.3858 357.755 28.3858 357.699 28.3299C357.531 28.274 357.363 28.2181 357.195 28.3299C357.139 28.3299 357.14 28.3858 357.084 28.4417C351.487 32.0198 349.976 39.1758 351.319 45.3814C352.383 50.4689 356.86 55.8359 362.12 56.7863C363.407 57.0659 364.806 57.01 366.205 56.5627C366.765 56.395 367.045 55.6123 366.541 55.221C362.176 51.0839 357.531 49.4626 356.636 42.7538Z" fill="white" fill-opacity="0.1"/>
<path d="M381.819 30.6781C381.091 30.3427 380.196 30.734 380.196 31.6285C380.196 33.6411 381.427 35.8215 382.043 37.7223C382.714 39.9586 382.49 42.3626 383.162 44.5429C383.498 45.4933 384.617 45.5492 385.176 44.8224C387.695 41.4122 385.848 32.4112 381.819 30.6781Z" fill="white" fill-opacity="0.1"/>
<path d="M236.353 795.97C236.297 796.249 236.241 796.585 236.241 796.92C236.241 797.256 236.241 797.535 236.297 797.815C238.144 834.545 294.05 833.539 295.337 796.529C296.68 758.68 238.984 759.798 236.353 795.97ZM243.684 796.92C244.972 769.191 286.943 768.073 287.894 796.529C288.846 824.37 244.356 824.929 243.684 796.92Z" fill="white" fill-opacity="0.1"/>
<path d="M254.205 798.262C253.59 793.622 254.429 788.925 255.604 784.509C255.66 784.397 255.66 784.229 255.604 784.118C255.604 784.062 255.548 784.062 255.548 784.062C255.492 784.006 255.437 783.95 255.381 783.894C255.381 783.894 255.325 783.894 255.325 783.838C255.157 783.782 254.989 783.726 254.821 783.838C254.765 783.838 254.765 783.894 254.709 783.95C249.113 787.528 247.602 794.684 248.889 800.889C249.952 805.977 254.373 811.344 259.69 812.294C260.977 812.574 262.376 812.518 263.775 812.071C264.334 811.903 264.614 811.12 264.111 810.729C259.69 806.648 255.045 805.027 254.205 798.262Z" fill="white" fill-opacity="0.1"/>
<path d="M279.332 786.242C278.605 785.906 277.709 786.297 277.709 787.192C277.709 789.205 278.94 791.385 279.556 793.286C280.228 795.522 280.004 797.926 280.675 800.106C281.011 801.057 282.13 801.113 282.69 800.386C285.264 796.976 283.417 787.975 279.332 786.242Z" fill="white" fill-opacity="0.1"/>
<path d="M235.167 -96.9906C226.372 -96.8996 217.47 -95.4741 208.675 -92.6231C161.831 -77.3977 136.126 -26.9597 151.352 19.8994C166.577 66.7433 217.015 92.4476 263.874 77.2222C310.491 62.0726 336.089 12.0592 321.349 -34.5876C321.318 -34.8302 321.273 -35.0729 321.197 -35.3003C309.778 -70.4371 278.554 -93.6695 243.887 -96.6721C241.006 -96.9148 238.094 -97.0361 235.167 -96.9906ZM215.65 -86.5572L232.498 -76.0632V-43.7774L203.397 -22.6377C203.321 -22.6832 203.246 -22.6984 203.155 -22.7287L172.37 -32.6313L167.639 -51.7086C177.45 -67.025 192.418 -79.172 211.086 -85.2379C212.602 -85.7383 214.119 -86.1629 215.65 -86.5572ZM256.883 -86.5572C276.416 -81.4467 293.734 -69.1632 304.91 -51.7238L300.133 -32.4493L269.152 -22.6377L240.263 -43.6258V-76.1845L256.883 -86.5572ZM170.08 -25.2158L200.789 -15.3435C200.865 -15.3132 200.941 -15.2828 201.032 -15.2677L212.087 18.8075L192.797 45.361L173.219 43.981C166.956 36.338 161.967 27.4515 158.737 17.4882C155.507 7.52496 154.309 -2.58994 154.87 -12.4319L170.08 -25.2158ZM302.62 -25.1096L317.679 -12.4319C318.907 8.26803 312.083 28.3613 299.284 43.981L279.54 45.3762L260.477 18.762L271.517 -15.2525L302.62 -25.1096ZM218.38 23.357H254.214L273.322 50.0318L265.937 68.2295C264.481 68.8057 262.995 69.3365 261.463 69.837C242.795 75.9029 223.551 74.8717 206.612 68.2447L199.151 49.8195L218.38 23.357Z" fill="white" fill-opacity="0.1"/>
</svg>
