<svg width="390" height="824" viewBox="0 0 390 824" fill="none" xmlns="http://www.w3.org/2000/svg">
<path d="M290.271 161.128C286.266 155.793 277.002 151.55 270.448 154.54C261.143 158.824 256.734 175.435 246.256 176.526C246.256 173.414 246.256 170.343 246.215 167.271C246.863 167.029 247.469 166.705 248.117 166.14C249.735 164.725 250.18 162.26 250.22 160.239C250.261 157.935 249.452 155.591 248.076 153.813C246.256 151.509 243.707 151.267 240.996 150.943C202.604 146.619 161.016 147.346 122.705 152.277C122.583 152.277 122.462 152.318 122.34 152.358C122.219 152.358 122.098 152.358 121.976 152.358C119.387 152.722 117 153.247 115.301 155.43C113.885 157.248 113.238 159.431 113.278 161.734C113.359 163.876 114.209 166.059 115.787 167.473C116.272 167.877 116.758 168.201 117.243 168.403C117.243 170.989 117.243 173.697 117.243 176.526C107.777 175.476 101.951 160.239 94.5071 155.187C87.9938 150.741 77.3944 155.551 73.2275 161.088C62.5068 175.476 64.0846 196.37 67.1996 213.062C75.0075 255.337 104.621 291.549 150.133 291.347C150.255 291.347 150.376 291.306 150.498 291.306C153.653 293.812 157.132 295.914 160.895 297.652C160.975 297.894 161.056 298.137 161.218 298.339C166.316 305.816 168.338 315.03 169.35 323.922C166.882 325.134 165.062 326.993 165.021 329.742C164.94 333.662 165.264 338.714 169.067 340.856C165.709 356.537 155.838 366.924 142.73 375.775C133.102 382.282 130.593 383.696 130.27 394.891C123.959 395.498 122.907 399.297 122.907 406.006C122.907 419.343 122.907 432.639 122.705 445.977C119.63 445.815 116.474 445.734 113.804 446.421C104.54 448.806 108.181 463.355 108.181 470.266C108.181 471.721 109.395 472.974 110.892 472.974C158.184 472.853 205.436 472.691 252.729 472.57C253.497 472.57 254.104 472.287 254.509 471.883C255.035 471.438 255.399 470.792 255.399 469.862C255.399 463.477 258.15 451.554 252.081 447.108C249.775 445.411 244.597 445.815 240.835 446.057C240.673 433.569 240.673 421.081 240.632 408.633C240.632 401.115 240.956 395.902 233.269 394.932C233.067 385.272 231.732 382.443 222.913 377.149C208.794 368.662 197.911 357.022 194.432 340.775C197.992 338.754 198.559 334.106 198.518 330.267C198.518 330.025 198.478 329.782 198.437 329.58C198.437 329.58 198.437 329.58 198.437 329.54C198.033 326.872 196.374 325.134 194.189 323.922C195.16 315.192 197.143 306.22 201.997 298.824C206.124 296.924 209.886 294.338 213.284 291.266C213.325 291.266 213.406 291.266 213.446 291.266C259.444 291.468 287.925 255.215 296.38 212.981C299.697 196.532 300.952 175.314 290.271 161.128ZM181.851 297.207C156.485 297.207 143.013 278.131 134.275 257.196C122.785 229.754 122.583 198.027 122.745 168.767C123.109 168.726 123.433 168.686 123.797 168.605C161.744 163.876 202.847 162.947 240.875 167.312C241.037 196.775 240.673 228.016 229.871 255.862C221.335 277.848 207.823 297.207 181.851 297.207ZM134.194 271.341C105.551 262.773 89.2883 232.785 84.1505 204.736C83.0177 198.472 79.9027 180.204 88.196 176.728C90.8661 175.597 95.478 184.327 96.7726 186.024C102.234 193.258 109.031 197.623 117.89 198.836C119.145 223.287 122.988 250.77 134.194 271.341ZM244.395 162.3C244.435 162.3 244.476 162.3 244.516 162.3C244.516 162.341 244.435 162.3 244.395 162.3ZM232.622 263.016C241.765 243.172 244.84 220.903 245.851 198.795C254.67 197.542 261.386 193.178 266.848 186.024C268.547 183.761 272.107 176.284 275.424 176.728C283.879 177.901 280.157 200.169 279.47 204.736C275.262 233.108 257.098 263.581 228.293 271.624C229.831 268.835 231.287 265.966 232.622 263.016ZM123.069 157.612C161.259 152.681 202.726 151.994 240.996 156.319C242.251 156.48 243.222 156.399 244.031 157.329C244.597 157.935 244.759 159.067 244.84 159.875C244.921 160.764 244.799 161.613 244.354 162.341C243.505 162.381 242.574 162.138 241.765 162.017C203.454 157.531 161.987 158.461 123.756 163.23C121.653 163.513 118.942 164.644 118.699 161.734C118.457 158.622 120.52 158.016 123.069 157.612ZM73.187 215.487C69.627 200.21 68.211 182.063 75.4121 167.595C78.1631 162.058 85.4451 156.925 91.837 159.875C95.8017 161.694 98.9167 167.069 101.506 170.343C105.673 175.718 110.244 181.336 117.364 181.942C117.405 185.62 117.486 189.459 117.648 193.42C108.505 191.965 103.124 185.862 97.9458 178.547C95.923 175.718 93.698 171.879 89.9761 171.313C76.7876 169.211 77.354 191.036 77.8799 198.31C80.3072 232.3 102.477 270.897 138.078 277.848C139.979 280.677 142.123 283.304 144.389 285.77C105.632 283.143 81.7232 252.103 73.187 215.487ZM193.178 330.631C193.219 333.662 193.097 335.966 189.942 336.774C187.312 337.421 184.48 337.461 181.81 337.501C176.146 337.542 169.107 337.825 170.442 329.944C170.887 327.236 180.03 327.034 181.81 326.993C184.642 326.953 192.167 326.953 193.178 330.631ZM250.059 467.195C204.546 467.316 158.993 467.437 113.481 467.599C113.117 460.324 112.065 451.594 120.884 451.594C125.739 451.594 130.634 451.594 135.489 451.594C150.902 451.594 166.356 451.594 181.77 451.594C197.183 451.594 212.637 451.594 228.051 451.594C232.905 451.594 237.8 451.594 242.655 451.594C251.353 451.594 250.382 460.082 250.059 467.195ZM235.292 414.412C235.292 425.001 235.333 435.59 235.454 446.219C218.341 446.219 201.188 446.219 184.076 446.219C165.426 446.219 146.735 446.219 128.085 446.219C128.207 436.641 128.247 427.062 128.247 417.484C128.247 410.007 126.022 400.226 135.731 400.226C150.7 400.226 165.628 400.226 180.596 400.226C195.969 400.226 211.343 400.226 226.675 400.226C235.94 400.226 235.292 406.167 235.292 414.412ZM218.139 380.463C220.809 382.282 227.323 385.07 227.646 388.587C227.848 390.607 227.889 392.669 227.929 394.689C213.001 394.124 197.911 394.851 182.983 394.851C167.206 394.851 151.428 394.851 135.65 394.851C135.853 388.708 137.107 385.596 143.337 381.878C148.03 379.049 152.399 375.654 156.606 372.137C165.871 364.378 171.737 354.153 174.204 342.513C176.753 342.917 179.423 342.917 181.77 342.957C184.197 342.998 186.827 342.877 189.335 342.432C191.641 353.425 196.86 362.397 204.951 370.319C208.875 374.118 213.568 377.351 218.139 380.463ZM189.011 322.224C186.422 321.739 183.792 321.618 181.729 321.618C179.909 321.618 177.239 321.78 174.528 322.265C173.598 314.828 171.979 307.271 168.662 300.521C172.06 301.451 175.661 302.138 179.504 302.461C184.925 302.946 189.861 302.542 194.392 301.451C191.398 307.958 189.901 315.152 189.011 322.224ZM290.393 215.487C282.423 252.305 257.381 283.345 218.706 285.77C220.769 283.345 222.67 280.758 224.45 278.01C224.531 278.01 224.652 278.01 224.733 277.969C259.727 271.624 281.573 234.927 285.295 201.786C286.226 193.38 288.289 171.151 274.332 171.151C270.772 171.151 268.547 174.546 266.645 177.092C260.941 184.771 255.925 191.763 246.053 193.38C246.175 189.54 246.215 185.741 246.256 181.942C261.872 180.325 272.997 142.618 288.168 167.595C296.299 180.972 293.508 201.059 290.393 215.487Z" fill="white" fill-opacity="0.1"/>
<path d="M211.545 417.969C211.504 415.301 211.14 412.755 209.36 410.654C207.257 408.188 203.332 407.905 200.339 407.905C187.191 407.905 174.043 407.905 160.895 407.905C158.467 407.905 156.04 408.309 154.219 410.047C152.358 411.826 152.035 414.695 151.994 417.12C151.994 420.959 151.994 424.759 151.954 428.598C151.954 432.074 152.035 435.752 154.624 438.379C156.768 440.601 159.924 440.521 162.796 440.521C174.488 440.521 186.179 440.521 197.911 440.521C201.269 440.521 205.153 440.844 208.147 438.985C211.707 436.762 211.626 432.276 211.585 428.598C211.545 425.001 211.545 421.485 211.545 417.969ZM205.112 434.458C203.251 435.63 199.975 435.105 197.911 435.105C186.22 435.105 174.528 435.105 162.796 435.105C162.068 435.105 161.34 435.105 160.611 435.105C160.53 435.105 159.843 435.064 159.802 435.064C159.114 434.943 158.669 434.741 158.427 434.539C156.97 433.246 157.334 430.336 157.334 428.558C157.375 424.718 157.375 420.919 157.375 417.08C157.375 416.19 157.415 415.544 157.537 414.897C157.537 414.816 157.739 414.25 157.739 414.21C157.779 414.129 157.82 414.048 157.86 413.968C157.86 413.927 157.86 413.927 157.901 413.927C157.941 413.887 157.941 413.887 157.982 413.846C158.022 413.806 158.022 413.766 158.022 413.766C158.063 413.766 158.144 413.725 158.265 413.644C158.305 413.644 158.305 413.644 158.305 413.604C158.427 413.563 158.548 413.523 158.669 413.483C159.438 413.24 159.762 413.281 160.814 413.281C173.962 413.281 187.11 413.281 200.258 413.281C201.431 413.281 202.564 413.321 203.696 413.604C204.465 413.766 204.951 414.008 205.274 414.291C205.557 414.533 205.679 414.897 205.841 415.423C206.043 416.15 206.043 416.999 206.043 417.969C206.043 421.485 206.043 425.041 206.083 428.558C206.205 430.174 206.771 433.448 205.112 434.458Z" fill="white" fill-opacity="0.1"/>
<path d="M235.737 178.668C235.656 178.345 235.211 178.466 235.171 178.749C232.42 200.897 228.9 222.277 220.081 243.01C215.348 254.205 209.077 264.996 200.46 273.645C191.843 282.294 181.608 285.487 169.916 287.669C169.876 287.669 169.876 287.709 169.835 287.709C169.795 287.75 169.754 287.79 169.754 287.831V287.871V287.912C169.754 287.952 169.754 287.992 169.795 288.033C169.835 288.073 169.835 288.073 169.876 288.114C169.916 288.114 169.916 288.114 169.957 288.154C195.403 299.43 215.59 271.826 223.924 251.82C229.426 238.605 232.703 224.419 234.645 210.273C236.061 200.129 237.639 188.894 235.737 178.668Z" fill="white" fill-opacity="0.1"/>
<path d="M187.798 351.93C187.717 351.809 187.595 351.768 187.474 351.809C187.353 351.849 187.231 351.93 187.272 352.092C189.375 369.389 199.732 387.657 219.151 387.415C219.272 387.415 219.393 387.293 219.434 387.213C219.474 387.091 219.434 386.97 219.312 386.93C212.92 384.02 207.095 380.584 202.119 375.533C195.444 368.783 191.843 360.255 187.798 351.93Z" fill="white" fill-opacity="0.1"/>
<path d="M181.891 170.464C181.932 170.464 181.932 170.464 181.972 170.464C182.093 170.464 182.134 170.343 182.134 170.222C182.134 170.222 182.134 170.222 182.134 170.181C182.134 170.181 182.134 170.181 182.134 170.141C182.134 170.02 182.093 169.939 181.972 169.898C181.932 169.898 181.932 169.898 181.891 169.898C171.656 168.484 161.421 169.131 151.145 169.979C143.499 170.626 134.316 170.707 127.236 173.859C127.034 173.94 126.993 174.102 127.074 174.263C127.114 174.425 127.276 174.546 127.438 174.587C135.246 174.991 143.378 173.374 151.226 172.849C161.421 172.162 171.696 171.919 181.891 170.464Z" fill="white" fill-opacity="0.1"/>
<path d="M109.451 470.131C116.773 430.079 90.922 393.745 50.9924 386.026C12.317 378.549 -23.1221 405.789 -29.8377 443.375C-36.6746 481.649 -10.7831 520.448 28.3778 525.621C67.0128 530.713 100.793 508.283 109.451 470.131ZM34.8911 520.933C-3.90572 519.235 -28.3004 484.074 -24.983 447.336C-21.5847 409.992 13.6115 386.147 49.5765 391.239C86.7551 396.494 110.826 432.787 104.272 468.716C96.6262 502.261 69.1165 522.428 34.8911 520.933Z" fill="white" fill-opacity="0.1"/>
<path d="M148.531 584.102C135.059 562.965 121.547 541.828 108.075 520.69C110.705 516.649 110.543 511.597 108.52 507.353C113.901 508.606 119.403 507.232 122.356 501.695C124.864 497.088 124.055 491.955 121.304 487.954C125.997 487.267 130.002 484.478 131.297 479.103C132.429 474.415 130.73 470.009 127.615 466.857C131.58 464.836 134.371 461.199 134.169 455.945C133.926 450.084 129.881 445.8 124.783 443.982C129.476 441.072 132.348 436.222 130.568 430.2C129.071 425.148 124.864 422.117 120.09 421.228C123.003 417.307 123.853 412.377 120.738 407.608C118.148 403.647 113.982 401.828 109.653 401.828C111.028 397.706 110.422 393.26 106.74 389.704C102.452 385.541 96.4239 385.339 91.4074 387.723C92.6615 382.348 91.2861 376.852 85.7437 373.901C81.1317 371.395 75.9939 372.204 71.9888 374.952C71.301 370.264 68.5096 366.263 63.129 364.969C58.4362 363.838 54.0265 365.535 50.871 368.647C48.8482 364.687 45.2072 361.898 39.948 362.1C34.0819 362.342 29.7937 366.384 27.9732 371.517C25.0604 366.829 20.2057 363.959 14.1778 365.737C9.12091 367.233 6.08677 371.436 5.19675 376.205C1.27256 373.295 -3.66304 372.446 -8.43679 375.558C-12.4014 378.145 -14.2219 382.308 -14.2219 386.632C-18.3484 385.258 -22.7985 385.864 -26.3586 389.542C-30.5255 393.826 -30.7278 399.848 -28.3409 404.86C-33.7215 403.607 -39.2234 404.981 -42.1767 410.518C-44.6849 415.125 -43.8758 420.258 -41.1248 424.259C-45.8177 424.946 -49.8228 427.735 -51.1173 433.11C-52.2501 437.798 -50.551 442.203 -47.4359 445.356C-51.4005 447.377 -54.192 451.014 -53.9897 456.268C-53.7469 462.128 -49.7014 466.412 -44.5635 468.231C-49.2564 471.141 -52.1287 475.991 -50.3487 482.013C-48.8518 487.065 -44.6444 490.096 -39.8707 490.985C-42.7835 494.905 -43.6331 499.836 -40.518 504.605C-37.9288 508.566 -33.7619 510.384 -29.4332 510.384C-30.8087 514.507 -30.2018 518.952 -26.5204 522.549C-22.2321 526.712 -16.2042 526.914 -11.1878 524.53C-12.4419 529.905 -11.0664 535.402 -5.52399 538.352C-0.91206 540.858 4.22581 540.049 8.23091 537.301C8.91865 541.989 11.71 545.99 17.0906 547.284C19.2752 547.809 21.4194 547.728 23.3612 547.163C23.3612 572.948 23.4017 598.733 23.4017 624.518C23.4017 640.401 39.058 628.034 44.6409 623.669C51.316 618.455 54.4311 621.608 60.7421 626.296C63.5336 628.398 67.9432 633.086 71.8674 633.045C79.2303 632.924 78.3807 624.397 78.3807 619.021C78.3807 604.835 78.3807 590.609 78.3403 576.423C84.2872 585.759 90.2342 595.095 96.1811 604.431C99.903 610.251 103.382 619.142 110.179 621.85C116.004 624.154 119.119 611.383 120.212 608.473C122.922 601.319 123.61 596.186 132.065 598.086C134.573 598.652 137.284 598.611 139.833 598.854C151.524 599.864 154.761 593.883 148.531 584.102ZM65.1113 541.019C61.1062 543.081 57.9103 540.211 56.2111 536.857C60.9444 535.927 65.5159 534.593 69.8851 532.896C69.966 536.291 68.3882 539.322 65.1113 541.019ZM-36.7152 446.407C-35.542 432.948 -30.8896 420.945 -23.8099 410.922C-23.2435 410.518 -22.7985 409.952 -22.6367 409.305C-22.5962 409.265 -22.5557 409.224 -22.5557 409.184C-21.9894 408.82 -21.5444 408.254 -21.3421 407.608C-5.80717 388.127 19.4775 377.054 46.0973 378.953C92.2165 382.267 124.015 426.886 115.762 471.06C106.983 510.182 74.7397 534.149 34.8506 532.694C-10.8641 530.996 -40.5584 490.055 -36.7152 446.407ZM33.0705 537.988C37.9252 538.392 42.699 538.433 47.3514 538.029C46.4613 541.424 43.9531 544.253 40.1908 544.616C35.862 545.061 33.7178 541.706 33.0705 537.988ZM76.3984 530.026C80.6867 527.925 84.7323 525.459 88.5755 522.63C89.5465 525.985 88.8587 529.622 85.8245 531.885C82.3858 534.512 78.8662 532.815 76.3984 530.026ZM93.2279 518.993C96.8285 515.921 100.186 512.526 103.261 508.808C105 511.759 105.324 515.436 103.059 518.346C100.308 521.903 96.3834 521.175 93.2279 518.993ZM117.906 498.462C116.49 502.746 112.161 502.948 108.561 501.735C111.19 497.815 113.456 493.612 115.438 489.207C118.027 491.591 119.079 494.905 117.906 498.462ZM118.068 482.7C119.241 479.426 120.212 476.031 121.021 472.515C121.264 471.303 121.425 470.09 121.587 468.878C124.581 470.535 126.401 473.404 126.199 477.122C125.956 481.609 121.83 482.942 118.068 482.7ZM128.788 455.904C129.233 460.229 125.916 462.371 122.234 463.017C122.599 458.168 122.518 453.399 122.073 448.71C125.511 449.559 128.384 452.105 128.788 455.904ZM125.147 431.049C127.251 435.09 124.217 438.364 120.778 440.021C119.807 435.292 118.432 430.685 116.692 426.239C120.252 426.078 123.408 427.654 125.147 431.049ZM116.045 410.316C118.715 413.913 116.854 417.51 113.901 419.975C111.757 415.65 109.248 411.568 106.376 407.689C109.815 406.517 113.698 407.163 116.045 410.316ZM102.492 393.099C106.174 395.928 105.243 400.05 102.897 403.243C99.7817 399.565 96.343 396.211 92.6211 393.099C95.6148 391.159 99.4985 390.755 102.492 393.099ZM82.5881 378.307C86.9977 379.761 87.1191 384.288 85.7841 387.925C81.8599 385.258 77.6525 382.914 73.2024 380.893C75.5489 378.226 78.9471 377.094 82.5881 378.307ZM61.1871 369.981C65.7181 370.223 67.0127 374.467 66.77 378.226C62.5222 376.69 58.1125 375.437 53.5411 374.548C53.3792 374.507 53.2174 374.507 53.0151 374.467C54.6738 371.557 57.5461 369.779 61.1871 369.981ZM39.948 367.435C44.1149 366.99 46.2591 370.102 46.9873 373.578C42.254 373.053 37.6016 372.931 32.9897 373.214C34.0415 370.183 36.4688 367.758 39.948 367.435ZM15.0678 371.072C18.7493 369.173 21.743 371.476 23.5231 374.467C18.992 375.316 14.542 376.569 10.2537 378.185C10.4964 375.195 12.1146 372.568 15.0678 371.072ZM-5.68579 380.125C-2.53027 377.741 0.706154 378.953 3.09303 381.297C-1.03343 383.358 -4.95761 385.743 -8.67951 388.491C-9.28635 385.42 -8.43677 382.186 -5.68579 380.125ZM-22.9199 393.705C-20.3712 390.431 -16.8515 390.795 -13.8578 392.573C-17.337 395.604 -20.6139 398.878 -23.5671 402.475C-24.9022 399.646 -24.9831 396.332 -22.9199 393.705ZM-37.7266 413.589C-36.432 409.629 -32.5887 409.144 -29.15 410.073C-31.6987 413.953 -33.8833 418.035 -35.7847 422.359C-37.9693 420.015 -38.8189 416.903 -37.7266 413.589ZM-38.4548 429.351C-39.5066 432.544 -40.3966 435.818 -41.0844 439.172C-41.3271 440.466 -41.5698 441.718 -41.7317 442.971C-44.5231 441.314 -46.2222 438.485 -46.0199 434.929C-45.8177 430.685 -42.0553 429.27 -38.4548 429.351ZM-48.6091 456.147C-49.0137 451.984 -45.9795 449.842 -42.4599 449.115C-42.824 453.884 -42.824 458.572 -42.4194 463.179C-45.6154 462.25 -48.245 459.784 -48.6091 456.147ZM-44.9681 481.002C-46.9504 477.122 -44.3208 473.97 -41.0844 472.273C-40.1539 476.92 -38.8189 481.447 -37.1197 485.812C-40.4371 485.812 -43.3094 484.195 -44.9681 481.002ZM-35.8656 501.776C-38.4143 498.381 -36.8365 494.946 -34.1665 492.48C-32.0628 496.724 -29.595 500.766 -26.8036 504.565C-30.1209 505.413 -33.681 504.726 -35.8656 501.776ZM-22.313 518.952C-25.7922 516.245 -25.1449 512.405 -23.0817 509.293C-20.007 512.89 -16.6492 516.204 -12.9678 519.235C-15.8806 520.933 -19.4811 521.135 -22.313 518.952ZM-2.40891 533.785C-6.61628 532.411 -6.89947 528.167 -5.76671 524.651C-1.84253 527.238 2.32438 529.541 6.73402 531.441C4.3876 533.906 1.11072 534.917 -2.40891 533.785ZM18.9516 542.07C14.4611 541.828 13.126 537.705 13.3687 533.947C17.8188 535.442 22.4308 536.574 27.245 537.342C25.6672 540.373 22.714 542.272 18.9516 542.07ZM28.7418 615.748C28.7418 591.822 28.7014 567.936 28.7014 544.01C28.9037 543.848 29.1059 543.646 29.2678 543.485C30.0769 545.101 31.1692 546.516 32.5447 547.647C32.9897 573.513 33.3942 599.379 33.6369 625.245C33.1919 625.569 32.7469 625.892 32.3019 626.175C27.3664 629.287 28.7418 618.334 28.7418 615.748ZM47.3514 614.171C43.589 615.263 39.9885 620.234 36.8329 622.82C36.6307 598.369 36.2261 573.877 35.8215 549.426C37.1161 549.87 38.5725 550.072 40.1908 550.032C46.0568 549.79 50.3451 545.748 52.1656 540.615C54.957 545.142 59.6094 547.93 65.3136 546.556C65.3541 571.654 64.019 596.752 64.019 621.85C59.3262 617.97 53.2983 612.434 47.3514 614.171ZM67.2554 624.275C67.1745 597.965 68.6714 571.654 68.5501 545.303C70.3706 544.293 71.8269 542.838 72.8788 541.141C72.8788 561.914 72.9192 582.688 72.9192 603.502C72.9597 608.109 75.3466 628.802 67.2554 624.275ZM107.994 612.757C107.145 611.464 106.335 610.13 105.486 608.837C102.775 604.553 100.024 600.268 97.3139 595.984C91.0029 586.083 84.6918 576.181 78.3807 566.279C78.3807 564.218 78.3807 562.197 78.3807 560.136C89.951 577.11 101.157 594.327 112.808 611.261C111.595 612.151 109.977 612.636 107.994 612.757ZM122.639 592.428C118.351 594.529 116.53 603.017 115.074 606.897C114.993 607.422 114.872 607.907 114.75 608.352C102.492 590.448 90.6792 572.22 78.3807 554.356C78.3807 548.82 78.3807 543.283 78.3807 537.746C81.5767 538.958 85.1368 538.796 88.6564 536.533C92.5806 533.987 94.4011 529.865 94.4416 525.581C110.341 547.445 123.61 571.25 139.185 593.357C137.243 593.155 135.261 592.832 133.36 592.67C129.314 592.347 126.442 590.569 122.639 592.428ZM143.757 593.6C143.555 593.6 143.352 593.6 143.19 593.6C127.575 571.695 114.346 548.052 98.7299 526.146C100.591 526.106 102.452 525.581 104.191 524.489C115.155 541.706 126.159 558.923 137.122 576.14C138.74 578.808 149.947 593.236 143.757 593.6Z" fill="white" fill-opacity="0.1"/>
<path d="M75.2254 489.126C73.9308 484.276 72.6362 479.426 71.2607 474.576C70.8562 473.121 69.3593 472.354 67.9434 472.677C64.9092 473.404 61.8346 474.172 58.8005 474.9C52.6917 454.045 46.6233 433.191 40.5146 412.336C40.11 410.962 38.6132 409.992 37.1972 410.437C30.1175 412.66 22.3096 413.104 18.1427 419.49C15.4322 423.653 12.7217 427.775 10.0516 431.938C7.13879 436.384 10.0111 440.951 11.3866 445.841C11.7911 447.255 13.288 448.145 14.704 447.74C18.0618 446.771 21.4195 445.801 24.7774 444.79C28.2565 456.996 31.8166 469.161 35.4172 481.326C32.0998 482.296 28.742 483.266 25.4247 484.236C24.0492 484.64 23.1187 486.135 23.5232 487.55C25.0606 492.723 26.5979 497.896 28.2161 502.988C28.6611 504.363 30.0771 505.292 31.5335 504.888C45.4501 500.725 59.3668 496.522 73.324 492.44C74.7399 492.036 75.63 490.581 75.2254 489.126ZM25.9101 438.889C22.5119 439.859 19.1136 440.87 15.7154 441.84C14.5017 438.687 13.4903 436.586 15.5131 433.433C17.6168 430.2 19.7609 426.926 21.8646 423.653C25.1819 418.601 29.9961 417.995 36.0644 416.378C42.1732 437.192 48.2415 458.006 54.3099 478.82C54.7144 480.275 56.1709 481.043 57.6273 480.72C60.6614 479.992 63.6956 479.224 66.7297 478.497C67.6198 481.649 68.4693 484.801 69.3189 487.994C57.0609 491.591 44.8433 495.269 32.6257 498.947C31.5739 495.512 30.5221 492.117 29.5107 488.681C32.828 487.711 36.1858 486.741 39.5032 485.771C40.0695 485.61 40.4741 485.327 40.7573 484.963C40.7977 484.923 40.8382 484.882 40.8787 484.842C40.8787 484.842 40.8787 484.842 40.8787 484.801C41.4046 484.236 41.6473 483.427 41.3641 482.417C37.2376 468.554 33.1921 454.652 29.2275 440.708C28.8229 439.374 27.3261 438.445 25.9101 438.889Z" fill="white" fill-opacity="0.1"/>
<path d="M23.9275 396.938C23.9275 396.898 23.9275 396.817 23.9275 396.776C23.887 396.655 23.7657 396.574 23.6039 396.615C2.32429 400.575 -12.442 420.137 -17.5394 440.021C-21.504 455.46 -21.4636 480.477 -8.15371 491.915C-8.11325 491.955 -8.03234 491.995 -7.95143 491.995C-7.7087 491.995 -7.50641 491.834 -7.58732 491.591C-14.1007 475.506 -16.5685 459.986 -13.0084 442.769C-11.0665 433.312 -7.18277 424.34 -1.519 416.499C5.0348 407.446 14.0159 401.99 23.8062 397.059C23.8466 397.059 23.887 397.019 23.9275 396.938Z" fill="white" fill-opacity="0.1"/>
<path d="M31.6142 396.817C33.7584 396.655 35.862 396.574 37.8848 395.887C38.0466 395.847 38.1276 395.645 37.9658 395.524C36.2262 393.826 33.8393 393.988 31.6142 394.271C30.1983 394.432 27.6091 394.958 26.9214 396.453C26.9214 396.494 26.9214 396.534 26.9618 396.574C28.135 397.342 30.2387 396.898 31.6142 396.817Z" fill="white" fill-opacity="0.1"/>
<path d="M96.5859 436.101C96.5049 435.98 96.3836 435.939 96.2218 435.98C96.1813 435.98 96.1004 436.02 96.06 436.061H96.0195C95.9791 436.101 95.9386 436.182 95.979 436.263C97.3545 448.185 96.7477 460.148 93.754 471.747C90.1534 485.57 82.6692 496.078 72.7981 506.06C72.6362 506.222 72.798 506.586 73.0408 506.505C97.7186 497.007 106.862 458.37 96.5859 436.101Z" fill="white" fill-opacity="0.1"/>
<path d="M336.806 453.708C319.086 439.401 291.212 442.513 277.336 460.498C262.287 479.978 263.662 505.965 282.595 522.212C301.205 538.176 327.501 534.822 343.602 517.686C343.764 517.564 343.926 517.403 344.088 517.201C344.249 516.999 344.371 516.837 344.492 516.635C359.825 496.467 356.71 469.793 336.806 453.708ZM276.77 471.046C286.236 451.404 309.296 445.382 328.189 454.516C350.601 465.347 354.849 494.81 340.285 513.402C310.145 546.3 257.108 511.866 276.77 471.046Z" fill="white" fill-opacity="0.1"/>
<path d="M262.772 475.128C261.235 473.592 258.888 474.077 257.634 475.653C256.623 476.947 256.946 478.927 258.119 480.018C259.212 481.029 260.547 481.109 261.76 480.544C262.205 480.422 262.65 480.139 262.974 479.735C263.338 479.372 263.541 478.927 263.581 478.482C263.945 477.31 263.662 476.057 262.772 475.128ZM258.605 476.664C258.564 476.745 258.524 476.825 258.484 476.906C258.484 476.866 258.484 476.866 258.484 476.825C258.524 476.785 258.564 476.704 258.605 476.664Z" fill="white" fill-opacity="0.1"/>
<path d="M363.628 497.438C362.333 496.144 359.906 496.144 358.773 497.64C357.64 499.095 357.6 501.035 359.016 502.328C360.148 503.338 361.483 503.419 362.697 502.853C363.142 502.732 363.547 502.489 363.87 502.085C364.234 501.722 364.437 501.277 364.477 500.832C364.801 499.62 364.558 498.367 363.628 497.438ZM359.461 498.973C359.42 499.054 359.38 499.135 359.339 499.216C359.339 499.175 359.339 499.175 359.339 499.135C359.42 499.095 359.461 499.014 359.461 498.973Z" fill="white" fill-opacity="0.1"/>
<path d="M319.814 440.896C320.178 441.26 320.623 441.462 321.109 441.543C322.282 441.866 323.536 441.624 324.466 440.694C326.004 439.158 325.518 436.814 323.941 435.561C322.646 434.551 320.664 434.874 319.571 436.046C318.56 437.138 318.479 438.512 319.045 439.724C319.126 440.128 319.369 440.532 319.814 440.896ZM322.929 436.531C322.848 436.491 322.767 436.451 322.686 436.41C322.727 436.41 322.727 436.41 322.767 436.41C322.808 436.451 322.889 436.491 322.929 436.531Z" fill="white" fill-opacity="0.1"/>
<path d="M301.892 536.6C300.436 535.468 298.494 535.428 297.2 536.842C296.188 537.934 296.107 539.267 296.633 540.439C296.755 540.884 297.038 541.329 297.442 541.692C297.806 542.056 298.251 542.258 298.737 542.299C299.91 542.622 301.164 542.379 302.095 541.45C303.389 540.157 303.389 537.732 301.892 536.6ZM300.598 537.287C300.517 537.247 300.436 537.206 300.355 537.166C300.396 537.166 300.396 537.166 300.436 537.166C300.476 537.206 300.557 537.247 300.598 537.287Z" fill="white" fill-opacity="0.1"/>
<path d="M281.988 448.332C282.312 448.494 282.676 448.575 283.121 448.575C283.162 448.575 283.202 448.575 283.283 448.575C283.687 448.575 284.052 448.454 284.416 448.251C285.832 447.605 286.843 445.988 286.357 444.412C285.872 442.876 284.577 441.623 282.878 441.825C281.058 442.068 279.642 443.402 279.723 445.301C279.763 446.877 280.734 447.847 281.988 448.332ZM282.433 443.28C282.352 443.321 282.271 443.321 282.191 443.361C282.191 443.361 282.191 443.321 282.231 443.321C282.271 443.321 282.352 443.321 282.433 443.28Z" fill="white" fill-opacity="0.1"/>
<path d="M338.424 528.881C336.603 529.123 335.187 530.416 335.268 532.356C335.309 533.892 336.28 534.902 337.534 535.347C337.857 535.509 338.221 535.63 338.666 535.59C338.707 535.59 338.747 535.59 338.828 535.59C339.233 535.59 339.637 535.468 339.961 535.266C341.337 534.62 342.388 533.003 341.903 531.427C341.417 529.972 340.123 528.678 338.424 528.881ZM337.938 530.336C337.857 530.376 337.776 530.376 337.696 530.416C337.696 530.416 337.696 530.416 337.736 530.376C337.817 530.335 337.898 530.336 337.938 530.336Z" fill="white" fill-opacity="0.1"/>
<path d="M354.282 457.588C352.745 457.628 351.734 458.598 351.289 459.891C351.127 460.215 351.046 460.579 351.046 461.023C351.046 461.023 351.046 461.023 351.046 461.063C351.046 461.104 351.046 461.144 351.046 461.185C351.046 461.589 351.167 461.953 351.37 462.316C352.017 463.731 353.635 464.741 355.213 464.256C356.71 463.812 358.004 462.478 357.802 460.781C357.519 458.962 356.184 457.547 354.282 457.588ZM356.346 460.296C356.305 460.215 356.305 460.134 356.265 460.053C356.265 460.053 356.265 460.053 356.305 460.094C356.305 460.174 356.305 460.255 356.346 460.296Z" fill="white" fill-opacity="0.1"/>
<path d="M267.141 513.078C265.604 513.119 264.592 514.089 264.147 515.382C263.985 515.705 263.905 516.069 263.905 516.514C263.905 516.514 263.905 516.514 263.905 516.554C263.905 516.594 263.905 516.635 263.905 516.675C263.905 517.079 264.026 517.484 264.228 517.807C264.875 519.181 266.494 520.232 268.071 519.747C269.568 519.262 270.863 517.968 270.661 516.271C270.418 514.452 269.083 513.038 267.141 513.078ZM269.204 515.786C269.164 515.705 269.164 515.624 269.123 515.544C269.123 515.544 269.123 515.544 269.164 515.584C269.164 515.665 269.204 515.746 269.204 515.786Z" fill="white" fill-opacity="0.1"/>
<path d="M269.245 461.993C269.649 461.993 270.054 461.912 270.377 461.67C270.418 461.67 270.458 461.629 270.499 461.629C270.863 461.427 271.106 461.185 271.308 460.861C272.036 460.013 272.319 459.002 272.036 457.669C271.591 455.688 268.961 454.759 267.262 455.688C263.945 457.547 265.765 462.397 269.245 461.993ZM268.638 456.658C268.597 456.699 268.516 456.699 268.436 456.699C268.476 456.699 268.557 456.658 268.638 456.658Z" fill="white" fill-opacity="0.1"/>
<path d="M351.289 515.746C347.971 517.605 349.792 522.455 353.271 522.051C353.676 522.051 354.08 521.97 354.444 521.727C354.485 521.727 354.525 521.687 354.566 521.687C354.93 521.485 355.213 521.202 355.415 520.919C356.143 520.07 356.427 519.06 356.143 517.726C355.617 515.746 352.988 514.816 351.289 515.746ZM352.664 516.716C352.624 516.756 352.543 516.756 352.462 516.756C352.502 516.756 352.583 516.716 352.664 516.716Z" fill="white" fill-opacity="0.1"/>
<path d="M337.898 448.292C337.898 448.333 337.938 448.333 337.938 448.373C337.938 448.373 337.938 448.373 337.938 448.413C338.141 448.777 338.383 449.02 338.707 449.222C339.556 449.99 340.608 450.232 341.903 449.949C343.885 449.464 344.816 446.878 343.885 445.18C342.024 441.866 337.17 443.685 337.574 447.161C337.574 447.565 337.696 447.969 337.898 448.292ZM342.955 446.554C342.914 446.514 342.914 446.433 342.914 446.352C342.914 446.393 342.914 446.474 342.955 446.554Z" fill="white" fill-opacity="0.1"/>
<path d="M277.457 531.104C277.457 531.508 277.579 531.872 277.781 532.235C277.781 532.276 277.822 532.276 277.822 532.316C277.822 532.316 277.822 532.316 277.822 532.357C278.024 532.68 278.267 532.963 278.55 533.165C279.44 533.933 280.451 534.216 281.786 533.892C283.768 533.407 284.699 530.821 283.768 529.123C281.908 525.809 277.012 527.628 277.457 531.104ZM282.838 530.497C282.798 530.457 282.798 530.376 282.798 530.295C282.798 530.336 282.798 530.417 282.838 530.497Z" fill="white" fill-opacity="0.1"/>
<path d="M300.315 440.411C300.638 440.735 301.003 440.977 301.488 441.018C301.529 441.018 301.529 441.018 301.569 441.018C301.974 441.139 302.378 441.139 302.702 441.018C304.037 440.896 305.25 440.169 305.655 438.673C306.14 436.976 305.21 435.036 303.43 434.551C299.789 433.541 297.564 438.269 300.315 440.411ZM303.713 436.208C303.713 436.249 303.713 436.249 303.713 436.208C303.673 436.208 303.632 436.127 303.551 436.127C303.592 436.168 303.632 436.208 303.713 436.208Z" fill="white" fill-opacity="0.1"/>
<path d="M320.34 536.439C318.52 535.954 316.78 536.802 316.133 538.581C315.607 539.955 316.173 541.49 317.266 542.339C317.549 542.622 317.913 542.865 318.358 542.905C318.439 542.905 318.479 542.905 318.56 542.905C318.843 542.945 319.167 542.986 319.45 542.945C320.866 542.865 322.12 542.137 322.565 540.601C323.01 538.863 322.08 536.924 320.34 536.439Z" fill="white" fill-opacity="0.1"/>
<path d="M362.899 477.108C361.524 476.583 360.027 477.149 359.137 478.24C358.854 478.563 358.611 478.927 358.53 479.371C358.53 479.412 358.53 479.452 358.53 479.493C358.449 479.856 358.449 480.18 358.49 480.503C358.611 481.877 359.299 483.13 360.836 483.534C362.535 484.019 364.477 483.09 364.963 481.311C365.529 479.493 364.639 477.755 362.899 477.108ZM363.385 481.554C363.385 481.594 363.385 481.594 363.385 481.554V481.554Z" fill="white" fill-opacity="0.1"/>
<path d="M257.27 495.053C256.946 495.376 256.704 495.74 256.663 496.225C256.663 496.266 256.663 496.266 256.663 496.306C256.542 496.71 256.542 497.114 256.663 497.478C256.784 498.812 257.513 500.024 259.009 500.428C260.709 500.913 262.65 499.984 263.136 498.206C264.147 494.568 259.414 492.345 257.27 495.053ZM261.477 498.448C261.477 498.408 261.558 498.367 261.558 498.286C261.518 498.367 261.518 498.408 261.477 498.448Z" fill="white" fill-opacity="0.1"/>
<path d="M323.415 464.054C318.075 463.003 313.18 460.7 308.244 463.327C299.87 467.813 297.402 467.934 295.217 477.31C294.894 478.685 295.622 480.301 297.119 480.625C299.222 481.069 301.286 481.554 303.389 481.999C302.257 486.97 301.164 491.981 300.031 496.993C298.009 496.548 296.026 496.104 294.004 495.659C292.628 495.336 291.01 496.063 290.686 497.559C289.918 501.156 289.149 504.753 288.421 508.35C288.138 509.724 288.785 511.34 290.322 511.664C300.031 513.725 309.741 515.786 319.45 517.928C320.866 518.251 322.403 517.524 322.767 516.028C323.577 512.674 324.386 509.36 325.195 506.005C325.518 504.591 324.79 503.096 323.293 502.691C321.473 502.206 319.612 501.721 317.791 501.196C320.3 489.92 322.808 478.644 325.276 467.328C325.599 465.994 324.912 464.337 323.415 464.054ZM309.498 468.742C313.139 466.802 315.526 467.651 319.491 468.662C316.982 479.897 314.515 491.173 312.006 502.408C311.683 503.823 312.411 505.318 313.908 505.723C315.728 506.208 317.549 506.692 319.369 507.177C318.965 508.794 318.601 510.451 318.196 512.068C310.226 510.33 302.257 508.632 294.287 506.935C294.651 505.076 295.055 503.257 295.46 501.398C297.442 501.843 299.465 502.287 301.447 502.732C301.771 502.813 302.095 502.813 302.378 502.772C303.43 502.772 304.482 502.206 304.765 500.832C306.221 494.083 307.718 487.333 309.255 480.584C309.579 479.21 308.851 477.593 307.354 477.27C305.21 476.785 303.066 476.3 300.881 475.855C301.083 474.441 301.367 473.067 301.933 472.784C304.441 471.491 306.99 470.116 309.498 468.742Z" fill="white" fill-opacity="0.1"/>
<path d="M387.82 364.47C391.623 355.013 393.565 344.869 395.749 334.927C398.46 322.721 401.656 310.395 403.395 298.027C405.539 282.589 386.404 280.527 375.805 278.183C360.876 274.869 345.948 271.555 330.98 268.282C313.503 265.21 307.961 273.738 304.36 289.459C301.609 301.422 298.777 313.385 296.269 325.389C294.651 333.229 292.224 342.404 293.963 350.446C296.229 360.793 304.401 370.29 312.289 378.818C305.291 388.881 305.695 401.531 313.989 410.423C313.422 410.867 312.896 411.312 312.33 411.797C307.556 406.785 302.499 402.097 296.916 397.934C295.703 397.045 293.963 397.773 293.235 398.904C289.473 404.846 286.115 410.948 282.797 417.172C276.567 414.424 270.216 411.959 263.581 410.342C262.246 410.019 260.506 410.746 260.264 412.242C259.05 419.274 258.241 426.306 257.553 433.379C250.635 433.217 243.717 433.46 236.84 434.47C235.343 434.713 234.655 436.491 234.939 437.784C236.476 444.614 238.418 451.323 240.44 458.032C234.089 460.498 227.859 463.286 221.993 466.762C220.82 467.449 220.172 469.227 221.022 470.44C225.108 476.26 229.558 481.797 234.048 487.253C229.032 492.022 224.339 497.074 220.172 502.651C219.282 503.864 220.01 505.601 221.143 506.329C227.09 510.088 233.199 513.442 239.429 516.756C236.678 522.98 234.251 529.325 232.592 535.953C232.268 537.287 232.997 539.025 234.493 539.268C241.533 540.48 248.572 541.288 255.652 541.975C255.49 548.886 255.733 555.797 256.744 562.668C256.987 564.163 258.767 564.851 260.061 564.568C266.898 563.032 273.614 561.092 280.33 559.071C282.797 565.416 285.589 571.64 289.108 577.501C289.796 578.673 291.576 579.319 292.79 578.471C298.615 574.389 304.158 569.943 309.619 565.457C314.434 570.468 319.45 575.156 325.033 579.319C326.247 580.208 327.986 579.481 328.714 578.349C332.477 572.408 335.835 566.305 339.152 560.081C345.382 562.83 351.774 565.295 358.368 566.912C359.703 567.235 361.443 566.508 361.686 565.012C362.899 557.98 363.708 550.948 364.396 543.875C371.314 544.037 378.232 543.794 385.109 542.784C386.606 542.541 387.294 540.763 387.011 539.47C385.473 532.639 383.532 525.93 381.509 519.221C387.86 516.756 394.09 513.967 399.957 510.451C401.13 509.764 401.777 507.986 400.927 506.773C396.841 500.954 392.391 495.417 387.901 489.961C392.917 485.192 397.61 480.14 401.777 474.562C402.667 473.35 401.939 471.612 400.806 470.884C394.859 467.126 388.75 463.771 382.52 460.457C385.271 454.233 387.739 447.888 389.398 441.26C389.721 439.926 388.993 438.188 387.496 437.946C380.457 436.733 373.418 435.925 366.338 435.238C366.5 428.327 366.257 421.416 365.246 414.545C365.003 413.05 363.223 412.363 361.928 412.646C355.091 414.182 348.376 416.121 341.66 418.142C341.458 417.617 341.256 417.132 341.053 416.606C352.421 411.716 358.53 400.117 355.941 387.952C367.916 382.577 382.601 377.484 387.82 364.47ZM376.047 345.031C362.333 354.771 348.214 363.905 334.055 372.998C333.124 372.351 332.194 371.462 331.344 370.452C346.798 360.631 362.212 350.729 377.18 340.181C376.816 341.757 376.452 343.414 376.047 345.031ZM374.591 350.002C373.135 354.084 370.99 357.721 367.39 360.106C363.547 362.652 359.137 364.511 355.01 366.491C351.531 368.189 343.966 373.039 338.626 373.847C350.763 366.087 362.818 358.246 374.591 350.002ZM329.564 273.495C331.304 273.899 333.043 274.263 334.783 274.667C331.02 277.213 327.177 279.638 323.334 282.063C324.022 279.072 324.709 276.082 325.397 273.091C326.651 273.091 328.027 273.212 329.564 273.495ZM322.322 286.469C327.986 282.952 333.65 279.396 339.111 275.597C340.77 275.961 342.429 276.324 344.087 276.688C336.603 281.861 328.917 286.711 321.19 291.52C321.554 289.863 321.918 288.166 322.322 286.469ZM317.994 305.504C331.344 297.138 344.816 288.853 357.64 279.719C359.299 280.083 360.957 280.447 362.616 280.81C347.728 291.278 332.274 300.897 316.861 310.516C317.265 308.859 317.63 307.161 317.994 305.504ZM315.93 314.961C333.124 304.211 350.439 293.582 366.945 281.78C368.604 282.144 370.303 282.508 371.961 282.872C353.473 296.007 334.095 307.929 314.879 319.973C315.202 318.276 315.566 316.618 315.93 314.961ZM313.746 325.267C313.827 324.944 313.867 324.661 313.948 324.338C334.864 311.243 356.022 298.31 376.047 283.922C376.128 283.882 376.128 283.801 376.209 283.761C377.949 284.084 379.729 284.407 381.549 284.771C359.299 300.533 335.996 314.881 312.896 329.349C313.139 327.975 313.463 326.642 313.746 325.267ZM312.087 333.674C336.927 318.154 362.009 302.796 385.797 285.741C386.849 286.024 387.86 286.307 388.872 286.671C388.75 287.196 388.629 287.721 388.508 288.287C363.668 306.07 337.534 322.155 311.642 338.322C311.683 336.745 311.844 335.21 312.087 333.674ZM378.151 335.533C362.252 346.89 345.787 357.398 329.281 367.906C328.512 366.895 327.784 365.845 327.096 364.955C344.654 353.841 362.212 342.687 379.203 330.724C378.879 332.3 378.515 333.916 378.151 335.533ZM380.255 326.035C362.333 338.807 343.683 350.648 325.073 362.409C324.264 361.48 323.496 360.51 322.727 359.58C342.469 347.132 362.252 334.684 381.347 321.266C380.983 322.883 380.619 324.459 380.255 326.035ZM382.399 316.578C362.373 330.845 341.458 343.98 320.664 357.074C319.895 356.104 319.167 355.134 318.398 354.165C340.325 340.383 362.333 326.682 383.491 311.728C383.127 313.345 382.722 314.961 382.399 316.578ZM384.462 307.08C362.414 322.842 339.314 337.19 316.375 351.618C315.93 351.012 315.445 350.446 315 349.88C314.717 349.476 314.434 349.072 314.191 348.668C338.181 333.633 362.373 318.68 385.514 302.271C385.15 303.847 384.826 305.464 384.462 307.08ZM386.525 297.623C362.697 314.719 337.655 330.198 312.775 345.758C312.33 344.546 312.047 343.252 311.844 341.999C337.331 326.076 362.98 310.273 387.496 292.935C387.173 294.471 386.849 296.047 386.525 297.623ZM353.392 278.749C342.186 286.549 330.575 293.824 319.005 301.059C319.369 299.361 319.774 297.664 320.138 296.007C329.645 290.066 339.233 284.165 348.335 277.658C349.954 278.022 351.612 278.385 353.23 278.749C353.271 278.749 353.352 278.749 353.392 278.749ZM316.092 382.86C317.104 383.951 318.115 385.042 319.086 386.093C315.688 392.398 316.78 399.47 321.716 404.28C320.542 405.169 319.41 406.058 318.277 406.988C311.642 400.036 311.278 390.862 316.092 382.86ZM341.579 394.378C341.256 398.298 338.505 401.531 334.661 402.784C334.095 401.734 333.529 400.683 332.922 399.672C332.234 398.5 330.454 397.854 329.24 398.702C328.188 399.43 327.177 400.198 326.125 400.966C322.767 398.258 321.796 394.338 323.091 390.498C329.159 396.641 335.066 396.641 341.579 394.378ZM342.146 423.598C347.445 421.982 352.704 420.406 358.085 419.072C354.404 424.326 350.682 429.58 347 434.793C340.689 430.267 333.812 427.155 326.692 425.336C328.067 419.193 329.402 413.05 330.778 406.866C333.286 411.676 335.43 416.647 337.331 421.739C337.857 423.194 339.233 423.679 340.446 423.518C340.891 423.76 341.498 423.8 342.146 423.598ZM376.897 459.891C376.25 461.266 376.816 462.599 377.787 463.367C377.989 463.852 378.353 464.297 378.96 464.62C383.855 467.247 388.71 469.874 393.443 472.663C386.97 473.794 380.457 474.926 373.984 476.017C372.528 468.864 369.817 461.912 365.974 455.446C371.597 451.889 377.18 448.292 382.803 444.736C381.185 449.949 379.162 454.961 376.897 459.891ZM377.868 514.857C376.411 515.382 375.926 516.756 376.088 517.969C375.885 518.454 375.845 519.019 376.047 519.706C377.666 525.001 379.243 530.255 380.578 535.63C375.36 531.952 370.141 528.275 364.882 524.597C369.008 518.09 371.921 511.179 373.58 504.106C379.971 505.521 386.363 506.935 392.755 508.35C387.941 510.815 382.965 512.957 377.868 514.857ZM356.467 527.183C335.268 550.867 304.158 554.787 277.336 538.015C248.167 519.787 244.122 482.241 261.801 454.718C279.844 426.63 316.618 421.658 343.683 439.199C373.58 458.517 378.111 500.307 356.467 527.183ZM261.113 539.874C261.154 538.136 259.859 537.287 258.524 537.287C258.12 536.964 257.634 536.762 257.068 536.721C251.808 536.196 246.549 535.671 241.33 534.903C246.509 531.629 251.647 528.315 256.825 525.041C260.183 529.972 264.228 534.579 269.043 538.58C270.054 539.429 271.065 540.197 272.117 540.965C268.557 546.017 264.997 551.069 261.437 556.08C260.911 550.705 260.911 545.249 261.113 539.874ZM245.093 517.241C245.74 515.867 245.174 514.533 244.203 513.765C244.001 513.28 243.636 512.836 243.03 512.512C238.134 509.926 233.28 507.258 228.547 504.47C234.655 503.419 240.764 502.368 246.873 501.317C248.329 508.673 251.08 515.786 255.045 522.333C249.786 525.688 244.526 529.042 239.267 532.397C240.845 527.183 242.868 522.172 245.093 517.241ZM244.162 462.276C245.619 461.751 246.104 460.376 245.942 459.164C246.145 458.679 246.185 458.113 245.983 457.426C244.365 452.132 242.787 446.837 241.452 441.502C246.59 445.14 251.728 448.737 256.865 452.374C252.496 458.8 249.422 465.711 247.601 472.865C241.492 471.531 235.384 470.157 229.275 468.823C234.089 466.318 239.065 464.176 244.162 462.276ZM364.234 452.738C360.836 447.646 356.71 442.877 351.814 438.592C351.086 437.946 350.318 437.34 349.549 436.733C353.23 431.479 356.952 426.266 360.634 421.012C361.079 426.387 361.079 431.843 360.917 437.259C360.876 438.997 362.171 439.845 363.506 439.845C363.911 440.128 364.396 440.371 364.962 440.411C370.222 440.937 375.481 441.462 380.7 442.23C375.238 445.746 369.736 449.262 364.234 452.738ZM309.983 417.051C311.157 418.304 312.694 418.021 313.665 417.051C314.15 416.97 314.636 416.809 315.121 416.404C319.207 413.05 323.293 409.736 327.541 406.543C326.206 412.565 324.871 418.587 323.536 424.609C316.254 423.154 308.81 423.033 301.528 424.164C300.476 418.021 299.384 411.878 298.332 405.775C302.459 409.251 306.302 413.09 309.983 417.051ZM287.045 420.648C289.634 415.758 292.304 410.908 295.136 406.179C296.229 412.363 297.28 418.546 298.373 424.73C291.05 426.225 283.971 428.974 277.457 432.934C274.019 427.559 270.62 422.224 267.222 416.849C272.4 418.466 277.417 420.486 282.352 422.709C283.728 423.356 285.063 422.79 285.832 421.82C286.277 421.658 286.722 421.254 287.045 420.648ZM259.657 438.714C261.396 438.754 262.246 437.461 262.246 436.127C262.57 435.723 262.772 435.238 262.812 434.672C263.338 429.418 263.864 424.164 264.633 418.951C267.991 424.205 271.348 429.459 274.666 434.713C269.002 438.512 263.824 443.24 259.455 448.858C259.212 449.181 258.969 449.505 258.726 449.828C253.629 446.231 248.491 442.634 243.394 439.037C248.815 438.512 254.276 438.512 259.657 438.714ZM239.429 489.597C240.683 488.425 240.4 486.889 239.429 485.919C239.348 485.434 239.186 484.949 238.782 484.464C235.424 480.382 232.107 476.3 228.911 472.057C234.898 473.39 240.885 474.684 246.873 476.017C245.416 483.332 245.214 490.809 246.307 498.084C240.238 499.135 234.21 500.186 228.142 501.237C231.621 497.114 235.464 493.275 239.429 489.597ZM284.699 555.353C284.173 553.898 282.797 553.413 281.584 553.575C281.098 553.373 280.532 553.332 279.844 553.534C274.544 555.151 269.285 556.727 263.905 558.061C267.465 552.968 271.065 547.916 274.625 542.824C281.139 547.189 288.097 550.22 295.258 551.958C293.923 558.061 292.547 564.123 291.212 570.226C288.744 565.416 286.6 560.445 284.699 555.353ZM312.006 560.081C310.833 558.829 309.296 559.112 308.325 560.081C307.839 560.162 307.354 560.324 306.909 560.728C302.823 564.083 298.737 567.397 294.489 570.59C295.824 564.608 297.119 558.667 298.454 552.685C305.776 554.06 313.22 554.14 320.502 552.968C321.554 559.112 322.646 565.255 323.698 571.357C319.571 567.882 315.728 564.042 312.006 560.081ZM334.985 556.484C332.396 561.375 329.726 566.225 326.934 570.953C325.842 564.77 324.79 558.546 323.698 552.362C330.98 550.826 338.019 548.038 344.532 544.077C347.971 549.452 351.41 554.868 354.849 560.243C349.67 558.627 344.654 556.606 339.718 554.383C338.343 553.736 337.008 554.302 336.239 555.272C335.754 555.474 335.309 555.838 334.985 556.484ZM362.333 538.419C360.593 538.378 359.744 539.672 359.744 541.005C359.42 541.41 359.218 541.895 359.177 542.46C358.651 547.714 358.126 552.968 357.357 558.182C353.999 552.888 350.601 547.593 347.243 542.339C351.936 539.187 356.345 535.388 360.27 530.982C361.281 529.77 362.171 528.477 363.102 527.224C368.28 530.861 373.458 534.498 378.636 538.136C373.215 538.621 367.754 538.621 362.333 538.419ZM382.601 487.536C381.347 488.708 381.63 490.243 382.601 491.213C382.682 491.698 382.844 492.183 383.248 492.668C386.606 496.75 389.924 500.832 393.12 505.076C386.849 503.702 380.578 502.287 374.308 500.913C375.643 493.719 375.724 486.404 374.631 479.25C381.064 478.119 387.496 477.028 393.929 475.896C390.409 480.018 386.566 483.858 382.601 487.536ZM338.99 411.676C338.424 410.342 337.776 409.008 337.17 407.715C343.602 405.331 347.405 398.985 346.919 392.236C348.214 391.63 349.549 390.983 350.924 390.336C352.34 399.43 347.648 408.038 338.99 411.676ZM369.939 375.059C364.072 378.252 357.964 381.041 351.936 383.87C346.474 386.416 335.47 394.176 329.685 389.69C319.369 381.687 310.024 367.542 302.621 356.994C294.732 345.798 300.921 329.228 303.591 317.103C305.533 308.333 307.597 299.604 309.619 290.833C311.602 282.265 313.624 275.88 319.733 273.738C315.324 292.895 310.55 312.052 307.071 331.37C305.331 340.989 306.585 347.658 312.492 355.337C316.861 360.995 321.473 366.451 326.125 371.866C328.067 374.13 330.939 378.535 334.338 379.06C343.076 380.394 353.19 373.321 360.715 369.684C370.222 365.077 376.007 361.439 379.769 351.335C387.011 331.693 389.681 309.465 393.969 288.934C394.616 289.338 395.223 289.742 395.79 290.227C401.615 295.037 394.94 313.224 393.645 319.326C391.987 327.248 390.247 335.169 388.467 343.05C385.312 356.589 382.722 368.108 369.939 375.059Z" fill="white" fill-opacity="0.1"/>
<path d="M128.847 720.97C119.008 720.185 109.796 728.115 109.23 737.944C108.609 748.595 115.457 757.557 126.205 758.74C136.768 759.9 145.357 752.268 146.927 742.199C146.955 742.116 146.973 742.019 146.982 741.907C146.99 741.795 146.994 741.707 146.988 741.606C147.542 730.64 139.903 721.857 128.847 720.97ZM111.607 741.857C110.19 732.514 116.968 724.719 125.962 723.367C136.63 721.761 145.356 731.264 144.692 741.478C141.954 760.62 114.555 761.271 111.607 741.857Z" fill="white" fill-opacity="0.1"/>
<path d="M107.597 746.741C106.671 746.567 105.95 747.315 105.887 748.185C105.841 748.896 106.442 749.525 107.128 749.628C107.766 749.723 108.264 749.425 108.559 748.926C108.689 748.774 108.779 748.564 108.796 748.34C108.837 748.121 108.801 747.912 108.707 747.743C108.55 747.235 108.143 746.856 107.597 746.741ZM106.482 748.309C106.487 748.348 106.492 748.387 106.497 748.426C106.487 748.411 106.487 748.411 106.478 748.397C106.482 748.373 106.477 748.334 106.482 748.309Z" fill="white" fill-opacity="0.1"/>
<path d="M149.14 730.056C148.36 729.91 147.492 730.504 147.452 731.316C147.403 732.114 147.862 732.818 148.685 732.934C149.338 733.019 149.835 732.721 150.131 732.222C150.261 732.069 150.346 731.884 150.363 731.66C150.404 731.441 150.368 731.232 150.274 731.063C150.093 730.55 149.7 730.161 149.14 730.056ZM148.024 731.625C148.03 731.664 148.035 731.703 148.04 731.741C148.03 731.727 148.03 731.727 148.02 731.713C148.039 731.678 148.034 731.639 148.024 731.625Z" fill="white" fill-opacity="0.1"/>
<path d="M119.634 720.541C119.854 720.583 120.062 720.546 120.256 720.456C120.755 720.285 121.144 719.891 121.25 719.331C121.424 718.406 120.677 717.686 119.806 717.623C119.096 717.578 118.466 718.179 118.361 718.866C118.266 719.503 118.574 720.015 119.073 720.31C119.201 720.435 119.386 720.52 119.634 720.541ZM119.681 718.218C119.643 718.223 119.604 718.228 119.565 718.234C119.579 718.224 119.579 718.224 119.594 718.214C119.618 718.219 119.657 718.213 119.681 718.218Z" fill="white" fill-opacity="0.1"/>
<path d="M136.629 759.168C135.831 759.119 135.126 759.58 135.009 760.402C134.914 761.04 135.211 761.537 135.686 761.828C135.838 761.957 136.048 762.047 136.282 762.078C136.501 762.119 136.71 762.083 136.893 761.979C137.392 761.807 137.782 761.414 137.887 760.854C138.034 760.074 137.441 759.207 136.629 759.168ZM136.334 759.73C136.295 759.736 136.256 759.741 136.217 759.746C136.231 759.736 136.231 759.736 136.246 759.726C136.27 759.731 136.309 759.726 136.334 759.73Z" fill="white" fill-opacity="0.1"/>
<path d="M107.919 732.453C108.074 732.432 108.224 732.372 108.384 732.263C108.398 732.253 108.413 732.243 108.441 732.223C108.586 732.125 108.687 731.992 108.768 731.831C109.116 731.253 109.083 730.427 108.523 729.982C107.974 729.551 107.205 729.42 106.646 729.907C106.054 730.439 105.873 731.263 106.367 731.923C106.767 732.477 107.352 732.587 107.919 732.453ZM106.843 730.537C106.824 730.571 106.795 730.591 106.776 730.625C106.776 730.625 106.766 730.611 106.78 730.601C106.795 730.591 106.824 730.571 106.843 730.537Z" fill="white" fill-opacity="0.1"/>
<path d="M147.812 747.471C147.22 748.003 147.029 748.812 147.533 749.486C147.923 750.026 148.517 750.15 149.075 750.002C149.23 749.981 149.39 749.935 149.54 749.812C149.554 749.802 149.569 749.792 149.597 749.773C149.742 749.674 149.857 749.531 149.924 749.38C150.258 748.812 150.239 747.976 149.679 747.531C149.15 747.129 148.37 746.983 147.812 747.471ZM147.994 748.11C147.975 748.145 147.946 748.164 147.927 748.199C147.927 748.199 147.927 748.199 147.932 748.174C147.951 748.14 147.98 748.12 147.994 748.11Z" fill="white" fill-opacity="0.1"/>
<path d="M136.05 718.084C135.509 718.474 135.385 719.068 135.542 719.64C135.563 719.795 135.623 719.945 135.732 720.104C135.732 720.104 135.732 720.104 135.742 720.119C135.752 720.133 135.761 720.148 135.771 720.162C135.87 720.307 136.003 720.407 136.164 720.488C136.741 720.836 137.568 720.801 138.013 720.242C138.44 719.717 138.577 718.923 138.09 718.365C137.544 717.784 136.72 717.604 136.05 718.084ZM137.45 718.548C137.416 718.529 137.396 718.5 137.362 718.481C137.362 718.481 137.362 718.481 137.386 718.485C137.406 718.514 137.426 718.543 137.45 718.548Z" fill="white" fill-opacity="0.1"/>
<path d="M118.442 759.251C117.902 759.641 117.777 760.236 117.934 760.807C117.955 760.962 118.015 761.112 118.124 761.271C118.124 761.271 118.124 761.271 118.134 761.286C118.144 761.3 118.154 761.315 118.164 761.329C118.262 761.474 118.405 761.589 118.556 761.655C119.124 761.988 119.96 761.969 120.406 761.409C120.823 760.87 120.97 760.09 120.482 759.532C119.95 758.941 119.127 758.761 118.442 759.251ZM119.842 759.715C119.808 759.696 119.788 759.667 119.754 759.648C119.754 759.648 119.754 759.648 119.779 759.653C119.798 759.682 119.833 759.701 119.842 759.715Z" fill="white" fill-opacity="0.1"/>
<path d="M106.7 740.458C106.845 740.359 106.97 740.231 107.027 740.065C107.041 740.055 107.046 740.031 107.06 740.021C107.141 739.86 107.169 739.714 107.162 739.548C107.215 739.067 107.069 738.636 106.641 738.228C105.998 737.628 104.83 737.939 104.449 738.687C103.717 740.163 105.554 741.453 106.7 740.458ZM105.178 738.698C105.174 738.722 105.145 738.742 105.116 738.761C105.13 738.752 105.15 738.717 105.178 738.698Z" fill="white" fill-opacity="0.1"/>
<path d="M149.202 739.625C148.47 741.102 150.308 742.392 151.454 741.396C151.599 741.297 151.723 741.169 151.794 740.994C151.809 740.984 151.814 740.959 151.828 740.949C151.909 740.788 151.941 740.618 151.944 740.467C151.997 739.985 151.851 739.554 151.424 739.146C150.751 738.566 149.583 738.877 149.202 739.625ZM149.932 739.636C149.927 739.66 149.898 739.68 149.869 739.7C149.884 739.69 149.903 739.656 149.932 739.636Z" fill="white" fill-opacity="0.1"/>
<path d="M127.914 718.765C127.924 718.779 127.938 718.77 127.948 718.784C127.948 718.784 127.948 718.784 127.958 718.799C128.119 718.879 128.265 718.907 128.431 718.9C128.922 718.967 129.358 718.796 129.752 718.378C130.343 717.72 130.043 716.567 129.295 716.187C127.819 715.457 126.526 717.295 127.521 718.439C127.62 718.584 127.762 718.699 127.914 718.765ZM129.298 716.906C129.274 716.902 129.254 716.873 129.234 716.844C129.244 716.858 129.264 716.887 129.298 716.906Z" fill="white" fill-opacity="0.1"/>
<path d="M126.542 763.177C126.64 763.322 126.773 763.422 126.934 763.503C126.944 763.518 126.959 763.508 126.968 763.522C126.968 763.522 126.968 763.522 126.978 763.537C127.13 763.603 127.286 763.645 127.437 763.648C127.943 763.705 128.374 763.559 128.772 763.116C129.363 762.458 129.063 761.305 128.315 760.925C126.839 760.195 125.532 762.043 126.542 763.177ZM128.318 761.645C128.294 761.64 128.274 761.611 128.255 761.582C128.264 761.597 128.284 761.626 128.318 761.645Z" fill="white" fill-opacity="0.1"/>
<path d="M112.539 725.137C112.734 725.174 112.923 725.172 113.107 725.067C113.121 725.057 113.121 725.057 113.136 725.047C113.31 724.992 113.455 724.893 113.541 724.77C113.989 724.401 114.245 723.843 114.025 723.209C113.783 722.483 112.976 722.017 112.22 722.279C110.67 722.808 111.031 725.044 112.539 725.137ZM112.727 722.802C112.737 722.817 112.737 722.817 112.727 722.802C112.712 722.812 112.678 722.793 112.649 722.813C112.673 722.817 112.698 722.822 112.727 722.802Z" fill="white" fill-opacity="0.1"/>
<path d="M143.19 754.598C142.42 754.87 142.005 755.599 142.208 756.394C142.356 757.014 142.934 757.425 143.533 757.461C143.703 757.493 143.893 757.491 144.062 757.397C144.091 757.377 144.105 757.367 144.134 757.347C144.246 757.292 144.371 757.228 144.463 757.144C144.95 756.769 145.22 756.202 145.004 755.543C144.738 754.813 143.931 754.346 143.19 754.598Z" fill="white" fill-opacity="0.1"/>
<path d="M143.907 722.961C143.286 723.109 142.889 723.678 142.838 724.286C142.815 724.471 142.818 724.66 142.897 724.839C142.907 724.853 142.917 724.868 142.927 724.882C142.987 725.032 143.066 725.148 143.16 725.254C143.539 725.716 144.092 725.996 144.74 725.765C145.467 725.522 145.935 724.715 145.673 723.96C145.431 723.171 144.688 722.767 143.907 722.961ZM145.168 724.433C145.178 724.447 145.178 724.447 145.168 724.433V724.433Z" fill="white" fill-opacity="0.1"/>
<path d="M110.501 755.216C110.465 755.41 110.467 755.6 110.571 755.783C110.581 755.798 110.581 755.798 110.591 755.812C110.646 755.987 110.745 756.131 110.877 756.232C111.247 756.679 111.804 756.935 112.438 756.713C113.165 756.471 113.632 755.664 113.371 754.909C112.843 753.36 110.606 753.722 110.501 755.216ZM112.837 755.401C112.827 755.387 112.846 755.353 112.826 755.324C112.832 755.362 112.842 755.377 112.837 755.401Z" fill="white" fill-opacity="0.1"/>
<path d="M126.587 727.947C124.419 728.877 122.104 729.25 120.981 731.397C119.082 735.05 118.228 735.697 119.74 739.586C119.96 740.157 120.616 740.558 121.231 740.307C122.092 739.952 122.949 739.621 123.81 739.265C124.621 741.321 125.456 743.381 126.276 745.451C125.444 745.787 124.626 746.113 123.793 746.448C123.222 746.669 122.821 747.325 123.071 747.939C123.675 749.414 124.28 750.889 124.899 752.354C125.134 752.915 125.761 753.336 126.39 753.075C130.368 751.438 134.346 749.801 138.344 748.193C138.93 747.962 139.302 747.326 139.067 746.702C138.536 745.304 138.015 743.92 137.484 742.522C137.254 741.936 136.627 741.58 135.993 741.801C135.223 742.073 134.439 742.354 133.659 742.612C131.798 737.964 129.938 733.316 128.053 728.663C127.843 728.107 127.192 727.682 126.587 727.947ZM122.754 733.028C123.582 731.443 124.644 731.163 126.31 730.555C128.16 735.189 130.035 739.827 131.885 744.46C132.115 745.046 132.742 745.403 133.376 745.181C134.146 744.909 134.916 744.638 135.686 744.366C135.937 745.043 136.212 745.725 136.462 746.403C133.186 747.73 129.919 749.072 126.652 750.414C126.328 749.659 126.028 748.91 125.718 748.146C126.536 747.82 127.368 747.484 128.186 747.158C128.322 747.108 128.438 747.029 128.529 746.945C128.906 746.688 129.143 746.228 128.909 745.667C127.779 742.896 126.664 740.115 125.563 737.324C125.343 736.754 124.687 736.353 124.072 736.604C123.187 736.954 122.301 737.305 121.41 737.681C121.137 737.125 120.902 736.564 121.036 736.324C121.617 735.248 122.193 734.133 122.754 733.028Z" fill="white" fill-opacity="0.1"/>
<path d="M125.275 676.564C124.323 672.25 122.537 668.145 120.887 664.054C118.871 659.024 117 653.831 114.598 648.981C111.589 642.933 104.238 646.875 99.8725 648.629C93.7206 651.094 87.5688 653.559 81.4124 656.049C74.4079 659.224 74.5105 663.631 77.0673 670.137C79.0089 675.09 80.9215 680.063 82.9597 684.971C84.2983 688.172 85.6736 692.049 88.2631 694.501C91.6042 697.649 96.851 699.048 101.759 700.17C101.716 705.483 104.955 709.91 110.097 711.063C110.003 711.361 109.924 711.648 109.84 711.96C106.906 711.335 103.95 710.894 100.934 710.77C100.282 710.749 99.838 711.434 99.8542 712.017C99.9611 715.063 100.252 718.068 100.587 721.106C97.6862 721.647 94.8106 722.318 92.0413 723.362C91.4846 723.573 91.0401 724.259 91.3189 724.853C92.6046 727.666 94.035 730.38 95.5188 733.079C93.004 734.713 90.5881 736.492 88.3744 738.536C87.8981 738.989 88.087 739.793 88.5046 740.187C90.7252 742.254 93.0608 744.18 95.4254 746.086C93.7558 748.521 92.2087 751.043 90.9599 753.721C90.7081 754.254 90.9114 755.048 91.512 755.274C94.3973 756.358 97.3438 757.25 100.285 758.104C99.6564 761.037 99.2129 763.993 99.086 767.007C99.0641 767.659 99.7497 768.103 100.333 768.086C103.38 767.976 106.386 767.683 109.426 767.345C109.964 770.244 110.647 773.108 111.675 775.886C111.885 776.442 112.571 776.886 113.166 776.606C115.981 775.319 118.697 773.886 121.398 772.4C123.031 774.913 124.808 777.326 126.85 779.537C127.303 780.013 128.108 779.823 128.502 779.405C130.572 777.184 132.501 774.847 134.409 772.482C136.844 774.149 139.365 775.693 142.058 776.929C142.591 777.18 143.386 776.976 143.612 776.375C144.698 773.49 145.594 770.544 146.451 767.603C149.399 768.219 152.341 768.669 155.356 768.793C156.008 768.815 156.453 768.129 156.437 767.546C156.33 764.5 156.038 761.495 155.703 758.457C158.605 757.916 161.495 757.235 164.249 756.201C164.806 755.99 165.251 755.304 164.972 754.71C163.686 751.897 162.256 749.183 160.772 746.484C163.287 744.85 165.703 743.071 167.916 741.028C168.393 740.575 168.204 739.77 167.786 739.377C165.566 737.309 163.23 735.383 160.865 733.478C162.535 731.042 164.082 728.521 165.321 725.828C165.573 725.295 165.369 724.5 164.769 724.274C161.883 723.191 158.937 722.299 155.996 721.445C156.624 718.511 157.068 715.556 157.195 712.541C157.217 711.89 156.531 711.446 155.948 711.463C152.901 711.572 149.895 711.866 146.855 712.204C146.317 709.304 145.648 706.431 144.621 703.653C144.41 703.097 143.725 702.653 143.13 702.933C140.314 704.22 137.598 705.653 134.897 707.139C133.265 704.626 131.487 702.213 129.445 700.002C128.993 699.526 128.188 699.716 127.794 700.133C125.723 702.355 123.795 704.692 121.886 707.057C121.685 706.919 121.494 706.795 121.293 706.656C124.165 702.126 123.514 696.482 119.612 692.762C122.582 687.91 126.591 682.497 125.275 676.564ZM116.308 672.487C113.784 679.327 110.966 686.048 108.124 692.765C107.632 692.761 107.082 692.67 106.531 692.517C109.658 685.223 112.752 677.91 115.528 670.475C115.783 671.128 116.058 671.81 116.308 672.487ZM117.003 674.622C117.48 676.439 117.603 678.265 116.898 679.999C116.145 681.85 115.022 683.593 114.03 685.311C113.2 686.769 111.68 690.355 109.967 691.95C112.411 686.205 114.807 680.452 117.003 674.622ZM82.1809 658.261C82.9021 657.98 83.6135 657.684 84.3348 657.404C83.6114 659.235 82.8293 661.042 82.0472 662.85C81.5619 661.612 81.0765 660.373 80.5911 659.135C81.0398 658.828 81.5616 658.535 82.1809 658.261ZM82.7628 664.674C83.9293 662.03 85.086 659.372 86.111 656.677C86.7934 656.402 87.4759 656.126 88.1583 655.851C86.7456 659.532 85.1815 663.148 83.5931 666.758C83.3181 666.076 83.0332 665.38 82.7628 664.674ZM85.8696 672.543C88.6003 666.285 91.3941 660.025 93.7488 653.621C94.4312 653.345 95.1137 653.07 95.7961 652.794C93.0294 660.181 89.8525 667.402 86.69 674.613C86.4295 673.922 86.1446 673.225 85.8696 672.543ZM87.4444 676.432C90.967 668.38 94.5627 660.342 97.5822 652.083C98.2646 651.807 98.9615 651.522 99.644 651.246C96.2414 660.468 92.2238 669.473 88.2937 678.482C87.9944 677.796 87.7194 677.114 87.4444 676.432ZM89.1833 680.653C89.1332 680.518 89.0785 680.407 89.0283 680.271C93.3093 670.471 97.7167 660.669 101.363 650.623C101.382 650.589 101.362 650.56 101.381 650.525C102.083 650.216 102.799 649.896 103.539 649.581C99.4328 660.662 94.6042 671.495 89.8777 682.322C89.6284 681.771 89.4181 681.214 89.1833 680.653ZM90.6458 684.067C95.7378 672.439 100.956 660.809 105.296 648.889C105.742 648.733 106.173 648.587 106.624 648.47C106.709 648.687 106.794 648.905 106.889 649.137C102.35 661.575 96.9335 673.722 91.6233 685.839C91.2523 685.265 90.9346 684.676 90.6458 684.067ZM114.738 668.575C111.827 676.527 108.506 684.313 105.17 692.11C104.648 691.937 104.13 691.739 103.667 691.589C107.231 683.318 110.785 675.033 113.938 666.597C114.208 667.24 114.473 667.907 114.738 668.575ZM113.168 664.662C109.879 673.615 106.102 682.413 102.32 691.173C101.803 691.038 101.291 690.879 100.789 690.734C104.808 681.452 108.842 672.159 112.393 662.688C112.658 663.356 112.913 664.009 113.168 664.662ZM111.622 660.754C107.946 670.756 103.675 680.571 99.4377 690.342C98.9255 690.183 98.4277 690.014 97.9154 689.855C102.39 679.561 106.914 669.276 110.827 658.751C111.092 659.419 111.343 660.096 111.622 660.754ZM110.038 656.851C106.004 667.883 101.248 678.666 96.569 689.439C96.2615 689.331 95.9494 689.247 95.6518 689.153C95.4516 689.078 95.2514 689.003 95.0657 688.917C99.9724 677.671 104.971 666.403 109.238 654.873C109.493 655.526 109.773 656.183 110.038 656.851ZM108.463 652.962C104.118 664.907 98.944 676.57 93.8474 688.223C93.3916 687.898 92.974 687.504 92.5952 687.105C97.82 675.174 103.132 663.247 107.664 651.047C107.923 651.676 108.193 652.319 108.463 652.962ZM91.9917 654.313C89.8898 659.844 87.5147 665.287 85.1442 670.705C84.8593 670.009 84.5889 669.303 84.3139 668.621C86.2625 664.17 88.2499 659.713 89.9154 655.159C90.5834 654.893 91.2658 654.618 91.9338 654.352C91.9483 654.342 91.9772 654.323 91.9917 654.313ZM104.108 700.686C104.737 700.829 105.366 700.972 105.97 701.111C106.296 704.198 108.417 706.461 111.359 706.975C111.157 707.58 110.969 708.175 110.791 708.785C106.717 707.92 104.343 704.727 104.108 700.686ZM116.045 698.574C116.888 700.056 116.694 701.886 115.626 703.274C115.166 703.036 114.706 702.799 114.242 702.586C113.709 702.335 112.914 702.539 112.688 703.139C112.489 703.657 112.315 704.179 112.127 704.711C110.263 704.563 108.957 703.398 108.481 701.708C112.155 702.421 114.268 700.977 116.045 698.574ZM123.394 708.891C124.895 707.016 126.391 705.166 127.99 703.373C127.958 706.153 127.911 708.943 127.869 711.709C124.504 711.633 121.282 712.201 118.29 713.292C117.279 710.758 116.255 708.233 115.234 705.684C117.308 706.792 119.291 708.046 121.217 709.403C121.761 709.795 122.372 709.632 122.766 709.277C122.985 709.255 123.212 709.121 123.394 708.891ZM144.705 713.377C144.809 714.027 145.338 714.366 145.873 714.403C146.064 714.527 146.303 714.597 146.599 714.564C148.993 714.307 151.373 714.06 153.748 713.9C151.709 715.888 149.655 717.886 147.606 719.859C145.336 717.656 142.666 715.832 139.709 714.458C140.851 711.81 141.969 709.158 143.111 706.51C143.807 708.771 144.309 711.059 144.705 713.377ZM158.495 732.806C158.102 733.35 158.265 733.961 158.619 734.355C158.665 734.578 158.789 734.79 159.03 734.987C160.904 736.485 162.753 737.979 164.546 739.576C161.779 739.537 159.012 739.497 156.231 739.467C156.116 736.13 155.468 732.945 154.331 730.009C156.964 728.951 159.597 727.894 162.23 726.837C161.111 728.897 159.854 730.88 158.495 732.806ZM153.852 742.451C152.06 756.11 141.887 765.121 128.188 765.68C113.294 766.292 102.664 753.847 102.258 739.676C101.844 725.213 113.786 714.44 127.76 714.097C143.181 713.697 155.023 727.541 153.852 742.451ZM122.839 770.313C122.428 769.681 121.757 769.694 121.279 770.02C121.056 770.004 120.833 770.05 120.62 770.174C118.61 771.273 116.599 772.371 114.544 773.372C115.597 770.935 116.624 768.492 117.677 766.054C120.084 766.997 122.658 767.657 125.359 767.911C125.929 767.967 126.478 767.994 127.043 768.012C127.004 770.69 126.966 773.368 126.918 776.032C125.415 774.238 124.081 772.285 122.839 770.313ZM111.571 766.133C111.467 765.483 110.938 765.144 110.402 765.107C110.211 764.983 109.972 764.913 109.676 764.946C107.292 765.217 104.903 765.45 102.527 765.61C104.456 763.74 106.385 761.87 108.313 760C110.633 762.276 113.357 764.148 116.377 765.521C115.316 768.007 114.255 770.494 113.193 772.98C112.483 770.729 111.981 768.441 111.571 766.133ZM97.795 746.694C98.1876 746.15 98.0252 745.539 97.6708 745.145C97.6246 744.922 97.5007 744.71 97.2602 744.513C95.3864 743.015 93.5269 741.506 91.7445 739.924C94.4724 739.969 97.1905 739.999 99.9184 740.044C99.9268 743.412 100.517 746.637 101.615 749.642C99.1032 750.658 96.5814 751.661 94.0695 752.678C95.1792 750.604 96.4357 748.62 97.795 746.694ZM138.424 713.915C135.963 712.924 133.32 712.226 130.521 711.891C130.102 711.838 129.679 711.809 129.255 711.78C129.288 708.999 129.344 706.224 129.377 703.443C130.85 705.258 132.185 707.21 133.451 709.187C133.862 709.819 134.533 709.806 135.011 709.48C135.224 709.482 135.457 709.45 135.67 709.326C137.68 708.228 139.691 707.129 141.746 706.128C140.651 708.722 139.543 711.325 138.424 713.915ZM110.285 714.414C111.011 714.575 111.492 714.098 111.602 713.514C111.756 713.366 111.89 713.189 111.965 712.926C112.607 710.727 113.258 708.541 113.997 706.36C114.992 708.841 115.988 711.322 116.983 713.804C114.021 715.064 111.328 716.841 108.999 719.027C107.121 717.086 105.227 715.155 103.358 713.229C105.685 713.463 107.999 713.897 110.285 714.414ZM102.957 721.311C102.688 718.928 102.457 716.54 102.314 714.155C104.217 716.101 106.106 718.056 108.009 720.001C105.755 722.327 103.894 725.042 102.532 728.052C99.9867 726.97 97.4661 725.892 94.9355 724.8C97.1837 724.112 99.4728 723.608 101.782 723.196C102.433 723.091 102.772 722.562 102.81 722.027C102.93 721.861 102.99 721.607 102.957 721.311ZM97.5762 734.474C98.2085 734.063 98.1962 733.392 97.87 732.915C97.887 732.691 97.8407 732.468 97.7168 732.256C96.62 730.247 95.5232 728.239 94.5231 726.185C97.0095 727.244 99.4959 728.303 101.968 729.371C100.871 732.116 100.174 735.074 99.9849 738.153C99.9771 738.328 99.9694 738.503 99.9616 738.678C97.258 738.638 94.5399 738.607 91.8363 738.567C93.6475 737.053 95.6016 735.717 97.5762 734.474ZM102.783 757.627C102.945 756.901 102.469 756.421 101.884 756.311C101.736 756.157 101.56 756.023 101.296 755.949C99.0967 755.309 96.9114 754.66 94.73 753.924C97.1985 752.936 99.6571 751.935 102.126 750.948C103.394 753.921 105.15 756.646 107.32 758.982C105.406 760.842 103.506 762.692 101.592 764.552C101.828 762.226 102.264 759.913 102.783 757.627ZM135.063 770.083C134.519 769.691 133.909 769.854 133.514 770.208C133.291 770.255 133.078 770.379 132.881 770.619C131.381 772.494 129.884 774.344 128.285 776.137C128.314 773.445 128.366 770.756 128.395 768.064C131.793 768.032 135.024 767.415 138.011 766.286C139.026 768.796 140.016 771.301 141.031 773.811C138.972 772.694 136.989 771.44 135.063 770.083ZM145.99 765.096C145.264 764.935 144.783 765.412 144.673 765.996C144.519 766.144 144.385 766.321 144.325 766.574C143.683 768.774 143.032 770.959 142.293 773.14C141.308 770.673 140.318 768.231 139.332 765.764C142.288 764.465 144.972 762.673 147.291 760.473C149.169 762.414 151.063 764.345 152.932 766.271C150.605 766.037 148.291 765.603 145.99 765.096ZM153.333 758.189C153.602 760.572 153.833 762.96 153.991 765.335C152.088 763.39 150.189 761.42 148.286 759.474C150.516 757.144 152.352 754.425 153.714 751.414C156.259 752.497 158.814 753.593 161.359 754.676C159.111 755.364 156.822 755.868 154.512 756.279C153.862 756.384 153.523 756.913 153.485 757.448C153.36 757.639 153.29 757.878 153.333 758.189ZM158.699 745.036C158.067 745.447 158.079 746.118 158.406 746.595C158.389 746.819 158.435 747.042 158.559 747.254C159.656 749.263 160.752 751.271 161.752 753.325C159.256 752.252 156.745 751.188 154.259 750.13C155.167 747.854 155.816 745.416 156.142 742.88C156.208 742.199 156.21 741.519 156.236 740.843C158.979 740.878 161.721 740.913 164.464 740.948C162.643 742.447 160.688 743.783 158.699 745.036ZM153.507 721.873C153.345 722.599 153.821 723.08 154.406 723.189C154.554 723.343 154.73 723.477 154.994 723.551C157.193 724.191 159.379 724.84 161.56 725.577C158.98 726.619 156.391 727.646 153.811 728.688C152.529 725.788 150.769 723.15 148.629 720.858C150.653 718.88 152.688 716.916 154.713 714.938C154.462 717.274 154.026 719.588 153.507 721.873ZM119.349 705.396C118.82 705.058 118.262 704.739 117.729 704.425C119.447 701.998 119.256 698.798 117.432 696.502C117.747 695.968 118.066 695.41 118.4 694.842C121.131 697.75 121.557 701.978 119.349 705.396ZM121.467 684.726C120.149 687.303 118.645 689.795 117.18 692.281C115.849 694.528 113.81 699.996 110.643 699.806C104.994 699.465 98.1909 696.69 92.9621 694.726C87.4014 692.65 85.5634 685.207 83.5534 680.216C82.1032 676.603 80.7064 672.975 79.2852 669.342C77.8989 665.792 77.0609 663.012 78.7227 660.752C81.8303 668.685 84.8075 676.706 88.2875 684.47C90.0176 688.337 92.0973 690.416 96.0887 691.719C99.0359 692.675 102.02 693.499 105.01 694.299C106.258 694.634 108.363 695.508 109.708 694.865C113.16 693.205 115.049 688.2 116.852 685.058C119.127 681.085 120.307 678.368 119.182 673.833C116.969 665.034 112.488 656.428 109.001 648.033C109.332 648.019 109.648 648.015 109.969 648.05C113.229 648.346 115.289 656.486 116.319 658.986C117.662 662.226 118.977 665.486 120.268 668.741C122.45 674.357 124.341 679.112 121.467 684.726Z" fill="white" fill-opacity="0.1"/>
<path d="M210.788 531.5C206.473 527.565 202.443 523.265 197.966 519.452C197.559 518.722 196.826 518.235 195.686 518.357C184.207 519.412 172.688 519.777 161.168 519.817C160.599 519.615 159.947 519.655 159.255 520.061C158.93 520.223 158.645 520.426 158.441 520.669C153.353 524.523 148.672 529.229 144.398 533.975C143.625 534.867 143.543 535.881 143.869 536.733C143.95 536.936 144.032 537.179 144.154 537.423C153.15 552.594 164.425 568.455 177.369 580.584C177.613 580.828 177.898 580.99 178.183 581.112C179.119 581.72 180.3 581.72 181.236 580.584C192.593 566.305 202.891 551.093 211.195 534.827C211.235 534.705 211.276 534.624 211.317 534.502C211.805 533.528 211.765 532.393 210.788 531.5ZM204.234 532.758C199.838 533.772 195.361 534.421 190.842 534.908C192.715 531.662 194.465 528.336 195.93 524.888C198.78 527.403 201.466 530.121 204.234 532.758ZM187.301 534.461C184.614 531.257 181.887 528.093 179.364 524.807C183.841 524.604 188.319 524.32 192.796 523.955C191.209 527.565 189.296 531.054 187.301 534.461ZM183.922 535.476C182.254 535.597 180.625 535.719 178.997 535.841C176.148 536.044 173.217 536.206 170.246 536.327C172.362 533.042 174.56 529.796 176.473 526.389C178.875 529.512 181.399 532.474 183.922 535.476ZM167.518 534.624C165.687 531.581 164.14 528.417 162.675 525.172C166.297 525.131 169.92 525.091 173.543 524.969C171.711 528.296 169.594 531.46 167.518 534.624ZM176.881 539.208C179.771 539.086 182.701 538.883 185.673 538.68C184.045 549.957 181.48 561.113 179.16 572.268C175.537 561.559 172.647 550.485 169.961 539.532C172.281 539.41 174.601 539.329 176.881 539.208ZM188.97 538.396C194.139 537.91 199.35 537.179 204.356 536.044C198.128 547.645 190.964 558.72 183.068 569.267C185.266 559.003 187.545 548.74 188.97 538.396ZM159.703 526.47C161.209 529.878 162.878 533.245 164.791 536.409C159.988 536.409 155.185 536.084 150.626 535.111C153.475 532.068 156.487 529.107 159.703 526.47ZM151.236 538.518C156.243 539.451 161.453 539.654 166.623 539.573C169.187 549.917 171.874 560.383 175.171 570.565C166.134 560.91 158.075 549.673 151.236 538.518Z" fill="white" fill-opacity="0.1"/>
<path d="M60.6407 150.163C58.5404 144.714 56.8583 139.066 54.558 133.653C54.5204 132.818 54.0826 132.055 53.0087 131.655C42.2695 127.466 31.8023 122.642 21.4801 117.528C21.061 117.092 20.4603 116.837 19.66 116.891C19.2961 116.89 18.9506 116.944 18.6597 117.071C12.3855 118.243 6.09454 120.36 0.149528 122.694C-0.941264 123.147 -1.46749 124.017 -1.55707 124.925C-1.57493 125.143 -1.61093 125.397 -1.61052 125.669C-0.346877 143.262 2.64742 162.49 8.80306 179.127C8.91271 179.454 9.09504 179.726 9.29549 179.962C9.86088 180.925 10.9168 181.453 12.262 180.856C28.8044 173.161 44.8173 164.158 59.5176 153.32C59.6084 153.229 59.6811 153.175 59.7719 153.084C60.6441 152.432 61.1155 151.398 60.6407 150.163ZM54.2164 148.358C49.8307 147.299 45.5355 145.878 41.2763 144.293C44.4021 142.228 47.4549 140.035 50.3072 137.606C51.7315 141.129 52.9194 144.762 54.2164 148.358ZM38.3081 142.311C37.3378 138.243 36.313 134.194 35.5246 130.126C39.6204 131.947 43.7525 133.695 47.9208 135.37C44.8867 137.889 41.6157 140.155 38.3081 142.311ZM34.8327 141.708C33.2855 141.07 31.7746 140.451 30.2638 139.832C27.6244 138.74 24.9304 137.574 22.218 136.355C25.5804 134.362 28.9974 132.442 32.2322 130.249C32.9839 134.117 33.9173 137.894 34.8327 141.708ZM20.5403 133.611C20.262 130.071 20.2931 126.549 20.4332 122.991C23.6919 124.575 26.9505 126.158 30.2454 127.669C27.1198 129.825 23.8118 131.709 20.5403 133.611ZM26.8652 141.897C29.5047 143.081 32.2169 144.21 34.9655 145.357C28.4672 154.716 21.1859 163.548 14.1231 172.489C15.6705 161.29 18.0366 150.092 20.5304 139.094C22.6602 140.022 24.7718 140.987 26.8652 141.897ZM38.0417 146.577C42.8834 148.453 47.8704 150.129 52.8566 151.351C42.0989 158.944 30.7395 165.647 18.9605 171.551C25.5151 163.354 32.1426 155.192 38.0417 146.577ZM17.1949 122.824C17.0187 126.545 17.0062 130.303 17.3028 133.989C13.0064 131.841 8.85511 129.404 5.21246 126.494C9.12139 125.047 13.1397 123.745 17.1949 122.824ZM4.23516 129.815C8.29646 132.888 12.8663 135.399 17.5266 137.638C15.1957 148.037 12.9196 158.6 11.3166 169.182C7.55 156.506 5.36456 142.851 4.23516 129.815Z" fill="white" fill-opacity="0.1"/>
<path d="M298.66 99.3326C298.619 99.5346 298.579 99.7771 298.579 100.02C298.579 100.262 298.579 100.464 298.619 100.666C299.914 127.219 340.369 126.492 341.3 99.7367C342.271 72.3754 300.561 73.2242 298.66 99.3326ZM303.959 100.02C304.89 80.014 335.231 79.1652 335.919 99.7367C336.607 119.864 304.445 120.268 303.959 100.02Z" fill="white" fill-opacity="0.1"/>
<path d="M311.565 101.03C311.12 97.6753 311.727 94.2804 312.576 91.0876C312.617 91.0067 312.617 90.8855 312.576 90.8047C312.576 90.7642 312.536 90.7642 312.536 90.7642C312.495 90.7238 312.455 90.6834 312.414 90.643C312.374 90.643 312.374 90.643 312.333 90.6026C312.212 90.5622 312.091 90.5217 311.969 90.6026C311.929 90.6026 311.929 90.643 311.888 90.6834C307.843 93.27 306.751 98.4432 307.722 102.929C308.49 106.607 311.727 110.487 315.529 111.174C316.46 111.376 317.471 111.336 318.483 111.012C318.887 110.891 319.09 110.325 318.725 110.042C315.57 107.052 312.212 105.88 311.565 101.03Z" fill="white" fill-opacity="0.1"/>
<path d="M329.77 92.3002C329.244 92.0577 328.597 92.3406 328.597 92.9872C328.597 94.4422 329.487 96.0184 329.932 97.3925C330.417 99.0091 330.255 100.747 330.741 102.323C330.984 103.01 331.793 103.051 332.197 102.525C334.018 100.06 332.683 93.553 329.77 92.3002Z" fill="white" fill-opacity="0.1"/>
<path d="M224.611 645.539C224.571 645.741 224.53 645.984 224.53 646.226C224.53 646.469 224.53 646.671 224.571 646.873C225.906 673.426 266.321 672.698 267.251 645.943C268.222 618.582 226.513 619.39 224.611 645.539ZM229.911 646.226C230.841 626.18 261.183 625.372 261.871 645.943C262.558 666.07 230.396 666.474 229.911 646.226Z" fill="white" fill-opacity="0.1"/>
<path d="M237.517 647.196C237.072 643.842 237.678 640.447 238.528 637.254C238.568 637.173 238.568 637.052 238.528 636.971C238.528 636.93 238.487 636.93 238.487 636.93C238.447 636.89 238.407 636.85 238.366 636.809C238.366 636.809 238.326 636.809 238.326 636.769C238.204 636.728 238.083 636.688 237.962 636.769C237.921 636.769 237.921 636.809 237.881 636.85C233.835 639.436 232.743 644.609 233.673 649.096C234.442 652.773 237.638 656.653 241.481 657.34C242.412 657.542 243.423 657.502 244.434 657.179C244.839 657.057 245.041 656.492 244.677 656.209C241.481 653.258 238.123 652.086 237.517 647.196Z" fill="white" fill-opacity="0.1"/>
<path d="M255.681 638.506C255.155 638.264 254.508 638.547 254.508 639.194C254.508 640.648 255.398 642.225 255.843 643.599C256.328 645.215 256.166 646.953 256.652 648.529C256.895 649.217 257.704 649.257 258.108 648.732C259.969 646.266 258.634 639.759 255.681 638.506Z" fill="white" fill-opacity="0.1"/>
<path d="M26.7145 257.386C26.1076 251.97 24.8535 239.078 16.8433 240.613C12.1909 241.503 9.03542 245.665 6.28444 249.141C2.84573 253.425 0.903893 256.012 -4.96216 255.082C-7.87495 254.597 -10.7878 254.476 -13.741 254.88C-22.0344 255.971 -20.8612 263.529 -17.4225 268.945C-15.7638 271.531 -10.3832 276.139 -12.2441 279.453C-14.0646 282.646 -16.5729 285.192 -18.1102 288.627C-19.4452 291.497 -19.8094 294.609 -18.1911 297.397C-16.8156 299.741 -13.6196 300.024 -11.1923 299.943C-4.23397 299.741 3.00758 291.537 8.79272 298.125C11.2605 300.913 23.1949 317.201 28.2518 307.865C30.2341 304.268 30.0723 300.024 29.4655 296.023C28.4541 289.718 26.4313 285.717 34.846 281.797C37.7993 280.423 40.348 279.049 42.5326 276.624C51.3923 266.843 28.1304 262.842 26.7145 257.386ZM26.9977 279.534C25.0154 281.473 23.3972 283.737 23.1544 286.606C22.7903 291.456 24.368 296.063 24.5299 300.913C24.8535 309.643 15.9533 298.367 14.2947 296.346C9.84455 290.85 6.6081 288.021 -0.43116 290.607C-2.25166 291.254 -14.7524 297.842 -13.6601 292.184C-12.7701 287.697 -8.72453 284.222 -6.53993 280.382C-2.85848 273.875 -12.7296 267.651 -14.7524 262.397C-16.2088 258.558 -1.84708 260.862 -0.714329 260.983C1.47027 261.225 4.38305 259.972 5.83944 258.356C8.95452 254.921 11.4223 251 14.6992 247.727C20.2821 242.19 21.0507 255.203 21.4148 257.992C21.4148 258.033 21.4148 258.073 21.4553 258.073C21.4553 258.275 21.4957 258.477 21.5362 258.679C23.3972 267.005 30.1128 266.52 36.707 270.157C43.0181 273.673 28.6159 277.957 26.9977 279.534Z" fill="white" fill-opacity="0.1"/>
<path d="M20.2415 265.671C19.4324 264.782 18.9469 263.61 18.6233 262.478C18.2592 261.306 18.421 260.053 17.7737 259.003C17.4906 258.558 16.8837 258.558 16.6005 259.003C15.225 261.185 16.8433 264.742 18.2187 266.601C19.0279 267.732 20.1201 268.622 21.2934 269.389C22.5879 270.238 24.0039 270.238 25.5007 270.44C25.9457 270.481 26.1076 269.794 25.7435 269.591C23.8016 268.743 21.617 267.247 20.2415 265.671Z" fill="white" fill-opacity="0.1"/>
<path d="M2.15795 263.893C0.661092 263.286 -0.876218 263.125 -2.49444 263.125C-3.86993 263.125 -5.44772 262.842 -6.62093 263.731C-6.86366 263.893 -6.94455 264.216 -6.70182 264.459C-5.69043 265.429 -4.4363 265.307 -3.10127 265.307C-1.28077 265.307 0.458804 265.226 2.19839 264.701C2.56249 264.539 2.52205 264.014 2.15795 263.893Z" fill="white" fill-opacity="0.1"/>
<path d="M11.9078 285.394C9.39952 283.494 5.75854 284.141 3.12893 285.353C2.72438 285.556 2.88617 286.081 3.25027 286.202C5.79897 287.091 8.38814 285.879 10.6536 287.778C12.8382 289.557 13.7687 292.507 16.1556 294.002C16.3983 294.164 16.6815 293.962 16.6815 293.719C16.8029 290.607 14.3351 287.213 11.9078 285.394Z" fill="white" fill-opacity="0.1"/>
<path d="M-2.25174 286.889C-2.81812 287.294 -2.93949 288.506 -2.00902 288.627C-0.876264 288.789 0.539689 288.264 0.984699 287.132C1.06561 286.889 0.944254 286.647 0.741976 286.526C-0.148045 285.96 -1.52354 286.324 -2.25174 286.889Z" fill="white" fill-opacity="0.1"/>
<path d="M223.754 0.00681323C217.396 0.0725914 210.96 1.10309 204.602 3.1641C170.738 14.1707 152.156 50.633 163.163 84.508C174.169 118.372 210.631 136.954 244.507 125.947C278.206 114.996 296.711 78.8403 286.056 45.1187C286.034 44.9433 286.001 44.7679 285.946 44.6035C277.691 19.2027 255.118 2.40767 230.058 0.237031C227.975 0.0616265 225.87 -0.0260759 223.754 0.00681323ZM209.645 7.54922L221.824 15.1355V38.4753L200.787 53.7574C200.732 53.7245 200.677 53.7135 200.611 53.6916L178.357 46.5329L174.937 32.7417C182.03 21.6693 192.85 12.8881 206.345 8.50298C207.441 8.14121 208.538 7.83425 209.645 7.54922ZM239.453 7.54922C253.573 11.2437 266.092 20.1235 274.172 32.7308L270.719 46.6645L248.322 53.7574L227.437 38.5849V15.0478L239.453 7.54922ZM176.702 51.8937L198.901 59.0305C198.956 59.0524 199.011 59.0744 199.077 59.0853L207.069 83.7187L193.124 102.915L178.971 101.917C174.443 96.3917 170.837 89.9675 168.501 82.765C166.166 75.5624 165.3 68.2502 165.706 61.1354L176.702 51.8937ZM272.516 51.9705L283.403 61.1354C284.29 76.0996 279.357 90.6253 270.105 101.917L255.831 102.926L242.051 83.6858L250.032 59.0963L272.516 51.9705ZM211.618 87.0076H237.523L251.336 106.291L245.997 119.446C244.945 119.863 243.871 120.247 242.763 120.609C229.268 124.994 215.356 124.248 203.111 119.457L197.717 106.138L211.618 87.0076Z" fill="white" fill-opacity="0.1"/>
<path d="M308.761 694.007C302.403 694.073 295.967 695.103 289.609 697.164C255.745 708.171 237.163 744.633 248.17 778.508C259.176 812.372 295.639 830.954 329.514 819.947C363.213 808.996 381.718 772.84 371.063 739.119C371.041 738.943 371.008 738.768 370.953 738.603C362.698 713.203 340.126 696.408 315.065 694.237C312.982 694.062 310.877 693.974 308.761 694.007ZM294.652 701.549L306.832 709.135V732.475L285.794 747.757C285.739 747.725 285.684 747.714 285.619 747.692L263.364 740.533L259.944 726.742C267.037 715.669 277.857 706.888 291.352 702.503C292.448 702.141 293.545 701.834 294.652 701.549ZM324.46 701.549C338.58 705.244 351.099 714.124 359.179 726.731L355.726 740.664L333.329 747.757L312.445 732.585V709.048L324.46 701.549ZM261.709 745.894L283.908 753.03C283.963 753.052 284.018 753.074 284.084 753.085L292.076 777.719L278.131 796.915L263.978 795.917C259.45 790.392 255.844 783.968 253.509 776.765C251.173 769.562 250.307 762.25 250.713 755.135L261.709 745.894ZM357.524 745.97L368.41 755.135C369.298 770.1 364.364 784.625 355.112 795.917L340.838 796.926L327.058 777.686L335.039 753.096L357.524 745.97ZM296.625 781.008H322.53L336.343 800.291L331.005 813.446C329.952 813.863 328.878 814.247 327.771 814.609C314.275 818.994 300.364 818.248 288.118 813.457L282.724 800.138L296.625 781.008Z" fill="white" fill-opacity="0.1"/>
</svg>
