<svg width="98" height="171" viewBox="0 0 98 171" fill="none" xmlns="http://www.w3.org/2000/svg">
<path d="M61.5919 101.933C51.9278 94.1299 36.7255 95.8272 29.1575 105.636C20.9497 116.26 21.6999 130.434 32.0259 139.295C42.1754 148.001 56.5171 146.172 65.2986 136.826C65.3869 136.76 65.4752 136.672 65.5634 136.561C65.6517 136.451 65.7179 136.363 65.7841 136.253C74.1464 125.254 72.4474 110.706 61.5919 101.933ZM28.8486 111.389C34.0117 100.676 46.5882 97.3922 56.8922 102.374C69.1157 108.281 71.4325 124.35 63.4894 134.489C47.0516 152.432 18.1255 133.652 28.8486 111.389Z" fill="white" fill-opacity="0.1"/>
<path d="M21.2144 113.615C20.376 112.778 19.0963 113.042 18.4123 113.902C17.8607 114.607 18.0372 115.687 18.6771 116.283C19.2728 116.834 20.0009 116.878 20.6628 116.569C20.9055 116.503 21.1483 116.349 21.3248 116.128C21.5233 115.93 21.6337 115.687 21.6557 115.445C21.8543 114.806 21.6999 114.122 21.2144 113.615ZM18.9418 114.453C18.9198 114.497 18.8977 114.541 18.8756 114.585C18.8756 114.563 18.8756 114.563 18.8756 114.541C18.8977 114.519 18.9198 114.475 18.9418 114.453Z" fill="white" fill-opacity="0.1"/>
<path d="M76.2204 125.783C75.5144 125.077 74.1905 125.077 73.5727 125.893C72.9549 126.687 72.9329 127.745 73.7051 128.45C74.3229 129.001 75.051 129.045 75.7129 128.737C75.9557 128.67 76.1763 128.538 76.3528 128.318C76.5514 128.119 76.6617 127.877 76.6838 127.634C76.8603 126.973 76.7279 126.29 76.2204 125.783ZM73.9478 126.62C73.9257 126.665 73.9037 126.709 73.8816 126.753C73.8816 126.731 73.8816 126.731 73.8816 126.709C73.9258 126.687 73.9478 126.642 73.9478 126.62Z" fill="white" fill-opacity="0.1"/>
<path d="M52.3249 94.9456C52.5235 95.144 52.7662 95.2542 53.031 95.2983C53.6708 95.4746 54.3548 95.3423 54.8623 94.8354C55.7007 93.9978 55.436 92.7193 54.5755 92.036C53.8694 91.4849 52.7883 91.6613 52.1925 92.3005C51.6409 92.8956 51.5968 93.6451 51.9057 94.3064C51.9498 94.5268 52.0822 94.7472 52.3249 94.9456ZM54.0239 92.565C53.9797 92.543 53.9356 92.5209 53.8915 92.4989C53.9135 92.4989 53.9135 92.4989 53.9356 92.4989C53.9577 92.5209 54.0018 92.543 54.0239 92.565Z" fill="white" fill-opacity="0.1"/>
<path d="M42.5505 147.142C41.7562 146.525 40.6971 146.502 39.9911 147.274C39.4395 147.869 39.3953 148.597 39.6822 149.236C39.7484 149.478 39.9028 149.721 40.1235 149.919C40.322 150.117 40.5647 150.228 40.8295 150.25C41.4694 150.426 42.1534 150.294 42.6608 149.787C43.3669 149.081 43.3669 147.759 42.5505 147.142ZM41.8445 147.516C41.8003 147.494 41.7562 147.472 41.7121 147.45C41.7341 147.45 41.7341 147.45 41.7562 147.45C41.7783 147.472 41.8224 147.494 41.8445 147.516Z" fill="white" fill-opacity="0.1"/>
<path d="M31.6949 99.0012C31.8714 99.0894 32.07 99.1335 32.3127 99.1335C32.3348 99.1335 32.3568 99.1335 32.401 99.1335C32.6216 99.1335 32.8202 99.0673 33.0188 98.9571C33.791 98.6044 34.3426 97.7227 34.0778 96.8631C33.8131 96.0255 33.107 95.3422 32.1803 95.4524C31.1874 95.5846 30.4152 96.312 30.4593 97.348C30.4814 98.2077 31.0109 98.7367 31.6949 99.0012ZM31.9376 96.2459C31.8935 96.2679 31.8494 96.2679 31.8052 96.29C31.8052 96.29 31.8052 96.2679 31.8273 96.2679C31.8494 96.2679 31.8935 96.2679 31.9376 96.2459Z" fill="white" fill-opacity="0.1"/>
<path d="M62.4745 142.932C61.4816 143.064 60.7094 143.769 60.7535 144.827C60.7756 145.665 61.3051 146.216 61.9891 146.458C62.1656 146.547 62.3642 146.613 62.6069 146.591C62.629 146.591 62.651 146.591 62.6952 146.591C62.9158 146.591 63.1364 146.524 63.3129 146.414C64.0631 146.062 64.6368 145.18 64.372 144.32C64.1073 143.527 63.4012 142.821 62.4745 142.932ZM62.2097 143.725C62.1656 143.747 62.1215 143.747 62.0774 143.769C62.0774 143.769 62.0774 143.769 62.0994 143.747C62.1435 143.725 62.1877 143.725 62.2097 143.725Z" fill="white" fill-opacity="0.1"/>
<path d="M71.1235 104.049C70.2851 104.071 69.7335 104.6 69.4908 105.305C69.4025 105.482 69.3584 105.68 69.3584 105.923C69.3584 105.923 69.3584 105.923 69.3584 105.945C69.3584 105.967 69.3584 105.989 69.3584 106.011C69.3584 106.231 69.4246 106.43 69.5349 106.628C69.8879 107.399 70.7705 107.951 71.631 107.686C72.4474 107.444 73.1534 106.716 73.0431 105.79C72.8887 104.798 72.1605 104.027 71.1235 104.049ZM72.2488 105.526C72.2267 105.482 72.2267 105.438 72.2047 105.394C72.2047 105.394 72.2047 105.394 72.2267 105.416C72.2267 105.46 72.2267 105.504 72.2488 105.526Z" fill="white" fill-opacity="0.1"/>
<path d="M23.5973 134.313C22.7588 134.335 22.2072 134.864 21.9645 135.57C21.8763 135.746 21.8322 135.944 21.8322 136.187C21.8322 136.187 21.8322 136.187 21.8322 136.209C21.8322 136.231 21.8322 136.253 21.8322 136.275C21.8322 136.495 21.8983 136.716 22.0087 136.892C22.3617 137.642 23.2443 138.215 24.1048 137.95C24.9211 137.686 25.6272 136.98 25.5169 136.055C25.3845 135.063 24.6564 134.291 23.5973 134.313ZM24.7226 135.79C24.7005 135.746 24.7005 135.702 24.6784 135.658C24.6784 135.658 24.6784 135.658 24.7005 135.68C24.7005 135.724 24.7226 135.768 24.7226 135.79Z" fill="white" fill-opacity="0.1"/>
<path d="M24.7447 106.452C24.9653 106.452 25.1859 106.408 25.3625 106.275C25.3845 106.275 25.4066 106.253 25.4287 106.253C25.6272 106.143 25.7596 106.011 25.8699 105.834C26.2671 105.372 26.4215 104.821 26.2671 104.093C26.0244 103.013 24.5902 102.506 23.6635 103.013C21.8543 104.027 22.8472 106.672 24.7447 106.452ZM24.4137 103.542C24.3916 103.564 24.3475 103.564 24.3034 103.564C24.3254 103.564 24.3696 103.542 24.4137 103.542Z" fill="white" fill-opacity="0.1"/>
<path d="M69.4909 135.768C67.6817 136.782 68.6745 139.427 70.5721 139.207C70.7927 139.207 71.0133 139.162 71.2119 139.03C71.234 139.03 71.256 139.008 71.2781 139.008C71.4767 138.898 71.6311 138.744 71.7415 138.589C72.1386 138.126 72.2931 137.575 72.1386 136.848C71.8518 135.768 70.4176 135.261 69.4909 135.768ZM70.2411 136.297C70.219 136.319 70.1749 136.319 70.1308 136.319C70.1528 136.319 70.197 136.297 70.2411 136.297Z" fill="white" fill-opacity="0.1"/>
<path d="M62.1876 98.9792C62.1876 99.0013 62.2096 99.0013 62.2096 99.0233C62.2096 99.0233 62.2096 99.0233 62.2096 99.0454C62.3199 99.2437 62.4523 99.376 62.6289 99.4862C63.0922 99.905 63.6659 100.037 64.3719 99.883C65.4531 99.6185 65.9605 98.2077 65.4531 97.282C64.4381 95.4745 61.7904 96.4664 62.011 98.362C62.011 98.5825 62.0772 98.8029 62.1876 98.9792ZM64.9456 98.0314C64.9235 98.0094 64.9235 97.9653 64.9235 97.9212C64.9235 97.9432 64.9235 97.9873 64.9456 98.0314Z" fill="white" fill-opacity="0.1"/>
<path d="M29.2238 144.144C29.2238 144.364 29.29 144.563 29.4003 144.761C29.4003 144.783 29.4224 144.783 29.4224 144.805C29.4224 144.805 29.4224 144.805 29.4224 144.827C29.5327 145.004 29.6651 145.158 29.8195 145.268C30.3049 145.687 30.8565 145.841 31.5846 145.665C32.6658 145.4 33.1732 143.99 32.6658 143.064C31.6508 141.256 28.9811 142.248 29.2238 144.144ZM32.1583 143.813C32.1362 143.791 32.1362 143.747 32.1362 143.703C32.1362 143.725 32.1362 143.769 32.1583 143.813Z" fill="white" fill-opacity="0.1"/>
<path d="M41.6901 94.6808C41.8666 94.8571 42.0652 94.9894 42.3299 95.0114C42.352 95.0114 42.352 95.0114 42.374 95.0114C42.5947 95.0776 42.8153 95.0776 42.9919 95.0114C43.72 94.9453 44.3819 94.5485 44.6025 93.733C44.8673 92.8072 44.3598 91.7492 43.389 91.4846C41.4032 90.9336 40.1897 93.5125 41.6901 94.6808ZM43.5435 92.3884C43.5435 92.4104 43.5435 92.4104 43.5435 92.3884C43.5214 92.3884 43.4993 92.3443 43.4552 92.3443C43.4773 92.3663 43.4993 92.3884 43.5435 92.3884Z" fill="white" fill-opacity="0.1"/>
<path d="M52.6118 147.054C51.6189 146.789 50.6701 147.252 50.3171 148.222C50.0303 148.971 50.3392 149.809 50.9349 150.272C51.0893 150.426 51.2879 150.558 51.5306 150.581C51.5747 150.581 51.5968 150.581 51.6409 150.581C51.7954 150.603 51.9719 150.625 52.1264 150.603C52.8986 150.558 53.5826 150.162 53.8253 149.324C54.068 148.376 53.5605 147.318 52.6118 147.054Z" fill="white" fill-opacity="0.1"/>
<path d="M75.8233 114.695C75.0731 114.409 74.2567 114.717 73.7713 115.313C73.6169 115.489 73.4845 115.687 73.4404 115.93C73.4404 115.952 73.4404 115.974 73.4404 115.996C73.3962 116.194 73.3962 116.371 73.4183 116.547C73.4845 117.296 73.8596 117.98 74.698 118.2C75.6247 118.465 76.6838 117.958 76.9486 116.988C77.2575 115.996 76.7721 115.048 75.8233 114.695ZM76.0881 117.12C76.0881 117.142 76.0881 117.142 76.0881 117.12V117.12Z" fill="white" fill-opacity="0.1"/>
<path d="M18.2137 124.482C18.0372 124.659 17.9048 124.857 17.8828 125.121C17.8828 125.143 17.8828 125.143 17.8828 125.166C17.8166 125.386 17.8166 125.606 17.8828 125.805C17.949 126.532 18.3461 127.193 19.1625 127.414C20.0892 127.678 21.1483 127.171 21.413 126.202C21.9646 124.218 19.3831 123.005 18.2137 124.482ZM20.5084 126.334C20.5084 126.312 20.5525 126.29 20.5525 126.246C20.5305 126.29 20.5305 126.312 20.5084 126.334Z" fill="white" fill-opacity="0.1"/>
<path d="M54.2887 107.576C51.3762 107.003 48.7064 105.746 46.0146 107.179C41.4473 109.626 40.1014 109.692 38.91 114.806C38.7335 115.555 39.1306 116.437 39.947 116.613C41.0943 116.856 42.2196 117.12 43.3669 117.363C42.7491 120.074 42.1534 122.807 41.5356 125.54C40.4324 125.298 39.3513 125.055 38.248 124.813C37.4979 124.636 36.6153 125.033 36.4388 125.849C36.0196 127.811 35.6003 129.772 35.2032 131.734C35.0487 132.484 35.4018 133.365 36.2402 133.542C41.5356 134.666 46.831 135.79 52.1264 136.958C52.8986 137.135 53.7371 136.738 53.9357 135.922C54.3769 134.093 54.8182 132.285 55.2595 130.456C55.436 129.684 55.0389 128.869 54.2225 128.648C53.2296 128.384 52.2147 128.119 51.2218 127.833C52.5898 121.683 53.9577 115.533 55.3036 109.361C55.4802 108.634 55.1051 107.73 54.2887 107.576ZM46.6986 110.133C48.6844 109.075 49.9862 109.537 52.1485 110.089C50.7805 116.216 49.4346 122.366 48.0666 128.494C47.8901 129.265 48.2872 130.081 49.1036 130.301C50.0965 130.566 51.0894 130.83 52.0823 131.095C51.8616 131.977 51.6631 132.88 51.4424 133.762C47.0958 132.814 42.7491 131.888 38.4025 130.963C38.6011 129.949 38.8217 128.957 39.0423 127.943C40.1235 128.185 41.2267 128.428 42.3078 128.67C42.4844 128.714 42.6609 128.714 42.8153 128.692C43.389 128.692 43.9627 128.384 44.1171 127.634C44.9114 123.953 45.7278 120.272 46.5662 116.591C46.7427 115.842 46.3456 114.96 45.5292 114.784C44.3598 114.519 43.1904 114.255 41.999 114.012C42.1093 113.241 42.2637 112.491 42.5726 112.337C43.9406 111.632 45.3306 110.882 46.6986 110.133Z" fill="white" fill-opacity="0.1"/>
<path d="M89.4148 53.2634C91.4888 48.1055 92.5479 42.5729 93.7394 37.1505C95.2177 30.4937 96.9607 23.7707 97.9095 17.0258C99.0789 8.60561 88.6425 7.48145 82.8617 6.20299C74.72 4.39552 66.5784 2.58805 58.4146 0.802619C48.8829 -0.8726 45.8601 3.77834 43.8964 12.3528C42.396 18.8773 40.8515 25.4019 39.4836 31.9485C38.601 36.2247 37.2771 41.2283 38.2259 45.6147C39.4615 51.2576 43.9185 56.4375 48.221 61.0884C44.4039 66.577 44.6245 73.4762 49.1477 78.3256C48.8388 78.568 48.5519 78.8105 48.243 79.075C45.6395 76.3418 42.8814 73.7848 39.8366 71.5145C39.1747 71.0295 38.2259 71.4263 37.8288 72.0435C35.7768 75.2837 33.9455 78.6121 32.1362 82.0066C28.7383 80.5078 25.2743 79.1632 21.6557 78.2815C20.9276 78.1051 19.9788 78.5019 19.8465 79.3175C19.1845 83.1528 18.7433 86.9882 18.3682 90.8456C14.5952 90.7574 10.8222 90.8897 7.07131 91.4408C6.25494 91.573 5.87984 92.5429 6.03429 93.2482C6.87273 96.9734 7.93181 100.632 9.03502 104.291C5.57095 105.636 2.17306 107.157 -1.02624 109.053C-1.6661 109.427 -2.01913 110.397 -1.55578 111.058C0.672702 114.233 3.09976 117.252 5.54889 120.228C2.81293 122.829 0.253482 125.584 -2.01913 128.626C-2.50454 129.287 -2.10739 130.235 -1.48959 130.632C1.75384 132.682 5.08554 134.512 8.48342 136.319C6.98305 139.714 5.6592 143.174 4.75457 146.789C4.57806 147.516 4.97521 148.464 5.79159 148.597C9.63075 149.258 13.4699 149.699 17.3311 150.073C17.2429 153.843 17.3753 157.612 17.9269 161.359C18.0593 162.175 19.0301 162.549 19.7361 162.395C23.465 161.557 27.1276 160.499 30.7903 159.397C32.1362 162.858 33.6586 166.252 35.5782 169.449C35.9533 170.088 36.9241 170.441 37.5861 169.978C40.7633 167.751 43.7861 165.327 46.7647 162.88C49.3904 165.613 52.1263 168.17 55.1712 170.441C55.8331 170.925 56.7819 170.529 57.179 169.912C59.231 166.671 61.0623 163.343 62.8716 159.948C66.2695 161.447 69.7556 162.792 73.3521 163.674C74.0802 163.85 75.0289 163.453 75.1613 162.638C75.8232 158.802 76.2645 154.967 76.6396 151.109C80.4126 151.198 84.1856 151.065 87.9365 150.514C88.7528 150.382 89.1279 149.412 88.9735 148.707C88.135 144.982 87.076 141.323 85.9728 137.664C89.4368 136.319 92.8347 134.798 96.034 132.88C96.6739 132.506 97.0269 131.536 96.5636 130.875C94.3351 127.7 91.908 124.681 89.4589 121.705C92.1949 119.104 94.7543 116.349 97.0269 113.307C97.5123 112.645 97.1152 111.698 96.4974 111.301C93.2539 109.251 89.9222 107.421 86.5244 105.614C88.0247 102.219 89.3707 98.7588 90.2753 95.1439C90.4518 94.4165 90.0546 93.4687 89.2383 93.3364C85.3991 92.6751 81.5599 92.2343 77.6987 91.8596C77.787 88.0903 77.6546 84.3211 77.103 80.5739C76.9706 79.7583 75.9998 79.3836 75.2937 79.5379C71.5649 80.3755 67.9022 81.4335 64.2396 82.5356C64.1292 82.2491 64.0189 81.9846 63.9086 81.698C70.1086 79.0309 73.4403 72.7048 72.0282 66.07C78.5592 63.1384 86.5685 60.361 89.4148 53.2634ZM82.9941 42.661C75.5144 47.9732 67.814 52.9548 60.0915 57.9143C59.584 57.5617 59.0765 57.0767 58.6132 56.5257C67.0417 51.1694 75.4482 45.769 83.6119 40.016C83.4133 40.8756 83.2147 41.7793 82.9941 42.661ZM82.1998 45.3722C81.4055 47.5985 80.2361 49.5823 78.2724 50.8828C76.1763 52.2715 73.7713 53.2855 71.5207 54.3655C69.6232 55.2913 65.4972 57.9364 62.5847 58.3772C69.204 54.1451 75.7791 49.8689 82.1998 45.3722ZM57.6424 3.64608C58.5911 3.8665 59.5399 4.06489 60.4887 4.28531C58.4367 5.67398 56.3406 6.99652 54.2445 8.31906C54.6196 6.68793 54.9947 5.05679 55.3698 3.42566C56.0538 3.42566 56.8039 3.49179 57.6424 3.64608ZM53.6929 10.7217C56.7819 8.80399 59.8709 6.86426 62.8495 4.79228C63.7542 4.99066 64.6588 5.18905 65.5634 5.38743C61.4815 8.20885 57.2893 10.8539 53.0751 13.477C53.2737 12.5732 53.4723 11.6475 53.6929 10.7217ZM51.332 21.1036C58.6132 16.5409 65.9606 12.0222 72.9549 7.0406C73.8595 7.23898 74.7642 7.43737 75.6688 7.63575C67.5492 13.3447 59.1207 18.5908 50.7142 23.8369C50.9349 22.9331 51.1335 22.0074 51.332 21.1036ZM50.2067 26.2615C59.584 20.3983 69.0275 14.6011 78.0297 8.16476C78.9343 8.36314 79.861 8.56153 80.7656 8.75991C70.6823 15.9237 60.1136 22.4262 49.6331 28.9948C49.8096 28.069 50.0082 27.1653 50.2067 26.2615ZM49.0153 31.8823C49.0594 31.706 49.0815 31.5517 49.1256 31.3754C60.5328 24.2336 72.0723 17.1801 82.9941 9.33301C83.0382 9.31097 83.0382 9.26688 83.0824 9.24484C84.0311 9.42118 85.0019 9.59752 85.9948 9.7959C73.8595 18.3924 61.1506 26.2175 48.5519 34.1086C48.6843 33.3592 48.8608 32.6318 49.0153 31.8823ZM48.1107 36.4671C61.6581 28.0029 75.3378 19.6268 88.3116 10.3249C88.8852 10.4792 89.4368 10.6335 89.9884 10.8319C89.9223 11.1184 89.8561 11.405 89.7899 11.7136C76.2425 21.4122 61.989 30.1851 47.868 39.002C47.89 38.1424 47.9783 37.3048 48.1107 36.4671ZM84.1414 37.4811C75.4702 43.675 66.4901 49.406 57.4879 55.137C57.0687 54.586 56.6716 54.0129 56.2965 53.5279C65.8723 47.4663 75.4482 41.3826 84.7151 34.8581C84.5386 35.7177 84.34 36.5994 84.1414 37.4811ZM85.2888 32.3011C75.5143 39.2665 65.3428 45.7249 55.1933 52.1392C54.752 51.6323 54.3328 51.1033 53.9135 50.5963C64.6809 43.8072 75.4702 37.0182 85.8845 29.7001C85.6859 30.5818 85.4874 31.4415 85.2888 32.3011ZM86.4582 27.1432C75.5364 34.9242 64.1292 42.0879 52.7883 49.2297C52.369 48.7006 51.9719 48.1716 51.5527 47.6426C63.5115 40.1262 75.5143 32.6538 87.0539 24.4981C86.8553 25.3798 86.6347 26.2615 86.4582 27.1432ZM87.5835 21.9633C75.5585 30.5598 62.9598 38.3848 50.4495 46.2539C50.2068 45.9233 49.942 45.6147 49.6993 45.3061C49.5448 45.0857 49.3904 44.8653 49.258 44.6449C62.342 36.4451 75.5364 28.2894 88.1571 19.3402C87.9585 20.1999 87.782 21.0816 87.5835 21.9633ZM88.7087 16.8054C75.7129 26.1293 62.0552 34.5715 48.4857 43.0578C48.243 42.3965 48.0886 41.6912 47.9783 41.0079C61.8787 32.3232 75.8674 23.7046 89.2383 14.2485C89.0617 15.0861 88.8852 15.9457 88.7087 16.8054ZM70.6382 6.51159C64.5264 10.7658 58.194 14.7334 51.8836 18.679C52.0822 17.7532 52.3028 16.8274 52.5014 15.9237C57.6865 12.6834 62.9157 9.46526 67.8801 5.91644C68.7627 6.11482 69.6673 6.31321 70.5499 6.51159C70.572 6.51159 70.6161 6.51159 70.6382 6.51159ZM50.295 63.2927C50.8466 63.8878 51.3982 64.483 51.9278 65.0561C50.0744 68.4947 50.6701 72.3521 53.3619 74.9751C52.7221 75.4601 52.1043 75.945 51.4865 76.452C47.868 72.6607 47.6694 67.6571 50.295 63.2927ZM64.1954 69.5747C64.0189 71.7129 62.5186 73.4762 60.4225 74.1596C60.1136 73.5864 59.8047 73.0134 59.4737 72.4623C59.0986 71.8231 58.1278 71.4704 57.4659 71.9333C56.8922 72.33 56.3406 72.7488 55.7669 73.1676C53.9356 71.6908 53.4061 69.5527 54.1121 67.4587C57.4217 70.8091 60.6431 70.8091 64.1954 69.5747ZM64.5043 85.5114C67.3947 84.6297 70.2631 83.77 73.1976 83.0426C71.1898 85.9081 69.1599 88.7736 67.152 91.6171C63.71 89.1484 59.9591 87.4511 56.0758 86.4592C56.826 83.1087 57.5541 79.7583 58.3043 76.3858C59.6723 79.0089 60.8417 81.7201 61.8787 84.4974C62.1655 85.2909 62.9157 85.5555 63.5776 85.4673C63.8203 85.5995 64.1513 85.6216 64.5043 85.5114ZM83.4574 105.305C83.1044 106.055 83.4133 106.782 83.9429 107.201C84.0532 107.466 84.2518 107.708 84.5827 107.884C87.2525 109.317 89.9002 110.75 92.4817 112.271C88.9514 112.888 85.3991 113.505 81.8688 114.1C81.0745 110.199 79.5962 106.408 77.5001 102.881C80.567 100.941 83.6119 98.9792 86.6788 97.0395C85.7963 99.883 84.693 102.616 83.4574 105.305ZM83.987 135.283C83.1927 135.57 82.9279 136.319 83.0162 136.98C82.9058 137.245 82.8838 137.553 82.9941 137.928C83.8767 140.816 84.7372 143.681 85.4653 146.613C82.619 144.607 79.7727 142.601 76.9044 140.595C79.1549 137.046 80.7436 133.277 81.6482 129.42C85.1343 130.191 88.6205 130.963 92.1066 131.734C89.481 133.079 86.7671 134.247 83.987 135.283ZM72.315 142.006C60.7534 154.923 43.7861 157.061 29.1575 147.913C13.2493 137.972 11.0429 117.495 20.6849 102.484C30.5255 87.1645 50.5818 84.4533 65.3428 94.0197C81.6482 104.556 84.1194 127.348 72.315 142.006ZM20.3098 148.927C20.3319 147.979 19.6258 147.516 18.8977 147.516C18.6771 147.34 18.4123 147.23 18.1034 147.208C15.235 146.921 12.3667 146.635 9.52044 146.216C12.3446 144.431 15.1468 142.623 17.971 140.838C19.8023 143.527 22.0088 146.04 24.6344 148.222C25.186 148.685 25.7376 149.104 26.3113 149.522C24.3696 152.278 22.428 155.033 20.4863 157.766C20.1995 154.835 20.1995 151.859 20.3098 148.927ZM11.5724 136.583C11.9254 135.834 11.6165 135.107 11.087 134.688C10.9767 134.423 10.7781 134.181 10.4471 134.005C7.77736 132.594 5.12966 131.139 2.54816 129.618C5.87985 129.045 9.21153 128.472 12.5432 127.899C13.3375 131.911 14.8379 135.79 17.0002 139.361C14.1318 141.19 11.2635 143.02 8.39516 144.849C9.25566 142.006 10.3589 139.273 11.5724 136.583ZM11.0649 106.606C11.8592 106.319 12.124 105.57 12.0357 104.909C12.1461 104.644 12.1681 104.336 12.0578 103.961C11.1752 101.073 10.3147 98.1857 9.58663 95.2761C12.3888 97.2599 15.1909 99.2217 17.9931 101.206C15.6101 104.71 13.9333 108.479 12.9404 112.381C9.60869 111.654 6.277 110.904 2.94531 110.177C5.57095 108.81 8.28484 107.642 11.0649 106.606ZM76.5514 101.404C74.698 98.6266 72.4474 96.0256 69.7777 93.6891C69.3805 93.3364 68.9613 93.0058 68.5421 92.6751C70.5499 89.8096 72.5798 86.9662 74.5876 84.1007C74.8304 87.0323 74.8304 90.008 74.7421 92.9617C74.72 93.9095 75.4261 94.3724 76.1542 94.3724C76.3749 94.5267 76.6396 94.6589 76.9485 94.681C79.8169 94.9675 82.6852 95.2541 85.5315 95.6729C82.5528 97.5906 79.5521 99.5083 76.5514 101.404ZM46.9633 81.9405C47.6032 82.6238 48.4416 82.4695 48.9712 81.9405C49.2359 81.8964 49.5007 81.8083 49.7655 81.5878C51.9939 79.7583 54.2224 77.9508 56.5392 76.2095C55.811 79.4938 55.0829 82.7781 54.3548 86.0624C50.3833 85.2689 46.3235 85.2028 42.3519 85.82C41.7782 82.4695 41.1825 79.1191 40.6088 75.7907C42.8594 77.6863 44.9555 79.7804 46.9633 81.9405ZM34.4529 83.9023C35.8651 81.2351 37.3213 78.5901 38.8658 76.0111C39.4615 79.3836 40.0352 82.7561 40.6309 86.1285C36.6373 86.9441 32.7761 88.443 29.2237 90.6031C27.3483 87.6715 25.4949 84.7619 23.6415 81.8303C26.4657 82.712 29.2017 83.8141 31.8935 85.0264C32.6437 85.3791 33.3718 85.0705 33.791 84.5415C34.0337 84.4533 34.2764 84.2329 34.4529 83.9023ZM19.5155 93.7552C20.4643 93.7772 20.9276 93.0719 20.9276 92.3445C21.1041 92.1241 21.2144 91.8596 21.2365 91.551C21.5233 88.6855 21.8102 85.82 22.2294 82.9765C24.0607 85.842 25.892 88.7075 27.7013 91.573C24.6123 93.645 21.7881 96.2239 19.4052 99.2878C19.2728 99.4642 19.1404 99.6405 19.008 99.8168C16.2279 97.8551 13.4258 95.8933 10.6457 93.9315C13.6023 93.645 16.581 93.645 19.5155 93.7552ZM8.48342 121.507C9.16741 120.867 9.01296 120.03 8.48342 119.501C8.43929 119.236 8.35103 118.972 8.13039 118.707C6.29906 116.481 4.4898 114.255 2.74673 111.94C6.01223 112.668 9.27773 113.373 12.5432 114.1C11.7489 118.09 11.6386 122.168 12.2343 126.135C8.9247 126.709 5.63714 127.282 2.32752 127.855C4.22503 125.606 6.32113 123.512 8.48342 121.507ZM33.1732 157.369C32.8864 156.576 32.1362 156.311 31.4743 156.4C31.2095 156.289 30.9006 156.267 30.5255 156.378C27.6351 157.259 24.7668 158.119 21.8322 158.846C23.7739 156.069 25.7376 153.314 27.6792 150.536C31.2316 152.917 35.0266 154.57 38.932 155.518C38.2038 158.846 37.4537 162.153 36.7255 165.481C35.3796 162.858 34.2102 160.147 33.1732 157.369ZM48.0665 159.948C47.4267 159.265 46.5882 159.419 46.0587 159.948C45.7939 159.992 45.5291 160.081 45.2864 160.301C43.058 162.131 40.8295 163.938 38.5127 165.679C39.2409 162.417 39.9469 159.177 40.675 155.915C44.6687 156.664 48.7285 156.708 52.7 156.069C53.2737 159.419 53.8694 162.77 54.4431 166.098C52.1925 164.203 50.0964 162.109 48.0665 159.948ZM60.599 157.987C59.1869 160.654 57.7306 163.299 56.2082 165.878C55.6125 162.505 55.0388 159.111 54.4431 155.738C58.4146 154.901 62.2538 153.38 65.8061 151.22C67.6816 154.151 69.557 157.105 71.4325 160.037C68.6083 159.155 65.8723 158.053 63.1805 156.84C62.4303 156.488 61.7022 156.796 61.283 157.325C61.0182 157.436 60.7755 157.634 60.599 157.987ZM75.5143 148.134C74.5656 148.112 74.1022 148.817 74.1022 149.544C73.9257 149.765 73.8154 150.029 73.7933 150.338C73.5065 153.203 73.2197 156.069 72.8005 158.912C70.9691 156.025 69.1157 153.137 67.2844 150.272C69.8439 148.552 72.2489 146.48 74.3891 144.078C74.9407 143.417 75.4261 142.711 75.9336 142.028C78.7578 144.012 81.582 145.996 84.4062 147.979C81.4496 148.244 78.4709 148.244 75.5143 148.134ZM86.5685 120.382C85.8845 121.022 86.039 121.859 86.5685 122.388C86.6126 122.653 86.7009 122.917 86.9215 123.182C88.7528 125.408 90.5621 127.634 92.3052 129.949C88.8852 129.199 85.4653 128.428 82.0453 127.678C82.7735 123.755 82.8176 119.765 82.2219 115.864C85.7301 115.246 89.2383 114.651 92.7465 114.034C90.8269 116.282 88.7308 118.377 86.5685 120.382ZM62.7833 79.0089C62.4744 78.2815 62.1214 77.5541 61.7904 76.8487C65.2986 75.5482 67.3727 72.0876 67.1079 68.4065C67.814 68.0759 68.5421 67.7232 69.2923 67.3705C70.0645 72.33 67.5051 77.0251 62.7833 79.0089ZM79.6624 59.0385C76.4631 60.7799 73.1314 62.3008 69.8439 63.8437C66.8652 65.2324 60.8637 69.4645 57.7086 67.0178C52.0822 62.6534 46.9854 54.9386 42.9476 49.1856C38.6451 43.0798 42.0209 34.0425 43.4772 27.4298C44.5363 22.6466 45.6615 17.8854 46.7647 13.1022C47.8459 8.42927 48.9491 4.94658 52.2808 3.77834C49.8758 14.2264 47.2722 24.6745 45.3747 35.2107C44.4259 40.4568 45.1099 44.0938 48.3313 48.2818C50.7142 51.3678 53.2295 54.3435 55.7669 57.2972C56.826 58.5315 58.3926 60.9341 60.2459 61.2207C65.0118 61.9481 70.5278 58.0907 74.6318 56.1069C79.8169 53.594 82.972 51.6102 85.024 46.0996C88.9735 35.3871 90.4297 23.2638 92.7685 12.0663C93.1216 12.2867 93.4525 12.5071 93.7614 12.7716C96.9387 15.3947 93.2981 25.3137 92.592 28.6421C91.6874 32.9624 90.7386 37.2827 89.7678 41.581C88.0468 48.9652 86.6347 55.2472 79.6624 59.0385Z" fill="white" fill-opacity="0.1"/>
</svg>
