<svg width="118" height="142" viewBox="0 0 118 142" fill="none" xmlns="http://www.w3.org/2000/svg">
<path d="M112.944 26.8412C112.002 24.4986 109.031 22.0397 106.342 22.4911C102.521 23.1459 99.2814 28.7866 95.344 28.1592C95.6488 27.0215 95.9497 25.8985 96.2358 24.7717C96.4961 24.7464 96.7497 24.6877 97.0417 24.5442C97.7719 24.1856 98.176 23.3279 98.3888 22.5931C98.6292 21.7549 98.563 20.8186 98.2344 20.0338C97.7945 19.0133 96.8865 18.675 95.9272 18.2913C82.3152 12.9497 67.04 9.14199 52.551 7.19188C52.5066 7.18 52.4583 7.18288 52.41 7.18577C52.3656 7.17388 52.3212 7.16199 52.2769 7.15011C51.2947 7.02947 50.3706 6.98775 49.5357 7.61918C48.8399 8.14537 48.3895 8.87983 48.1786 9.72598C47.9984 10.517 48.0952 11.3981 48.5334 12.0698C48.6713 12.2651 48.8171 12.4308 48.9748 12.5522C48.7214 13.4979 48.4562 14.4878 48.1791 15.5221C44.8212 14.2106 44.1839 8.06973 41.9574 5.49369C40.0117 3.23042 35.6657 3.95044 33.6 5.56649C28.2713 9.77636 26.8014 17.5697 26.3053 23.977C25.0188 40.1967 32.2979 56.336 48.9563 60.7202C49.0007 60.7321 49.049 60.7292 49.0934 60.7411C50.0015 61.9663 51.0676 63.0754 52.2728 64.0792C52.2787 64.1758 52.2845 64.2724 52.3239 64.3621C53.455 67.5948 53.2919 71.1617 52.7907 74.5113C51.7698 74.7129 50.9221 75.2142 50.6381 76.215C50.2245 77.6402 49.848 79.5188 51.0284 80.6744C48.2649 86.0783 43.6387 88.9087 37.9798 90.8605C33.8225 92.2962 32.767 92.5677 31.5521 96.6287C29.1855 96.2321 28.4288 97.518 27.7716 99.9707C26.4652 104.846 25.1628 109.708 23.7824 114.564C22.6742 114.203 21.5286 113.865 20.4851 113.854C16.8647 113.819 16.7706 119.494 16.0936 122.021C15.9511 122.553 16.2721 123.13 16.8193 123.276C34.1206 127.864 51.4109 132.434 68.7122 137.022C68.9932 137.097 69.2427 137.053 69.4302 136.945C69.666 136.834 69.8625 136.633 69.9535 136.293C70.579 133.959 72.7526 129.87 70.9696 127.65C70.2928 126.804 68.3601 126.444 66.9609 126.164C68.125 121.583 69.3483 117.017 70.5528 112.463C71.2892 109.714 71.9182 107.84 69.2031 106.733C70.0753 103.181 69.8644 102.016 67.1588 99.217C62.8284 94.7312 59.9901 89.4099 60.3096 83.1295C61.8091 82.7395 62.4714 81.0958 62.8327 79.6882C62.8564 79.5995 62.8654 79.5069 62.8704 79.4291C62.8704 79.4291 62.8704 79.4291 62.8744 79.4143C62.9877 78.3995 62.5516 77.6017 61.8717 76.9445C63.0817 73.8481 64.6853 70.7622 67.1845 68.5338C68.8792 68.2436 70.508 67.6665 72.0512 66.8765C72.066 66.8804 72.0956 66.8883 72.1104 66.8923C88.9067 71.4718 102.87 61.0081 110.098 46.3962C112.922 40.7076 115.459 33.0735 112.944 26.8412ZM59.9775 65.9694C50.7043 63.4848 47.6478 55.1913 46.5039 46.6817C44.9916 35.5239 48.0253 23.9056 50.9506 13.2241C51.0877 13.245 51.2099 13.262 51.351 13.2681C65.687 15.2564 80.8046 18.9427 94.2795 24.2634C91.4527 35.0504 88.2595 46.436 81.583 55.5581C76.3087 62.7597 69.4726 68.5135 59.9775 65.9694ZM45.0887 51.8452C35.4568 45.9072 32.4487 33.351 33.3177 22.5937C33.5172 20.1926 34.1678 13.209 37.5402 12.7507C38.6272 12.5985 39.4581 16.2417 39.7651 16.9891C41.0531 20.1688 43.1103 22.4303 46.2305 23.7414C44.2939 32.8033 43.0069 43.2269 45.0887 51.8452ZM96.0571 22.776C96.0719 22.7799 96.0867 22.7839 96.1015 22.7879C96.0975 22.8026 96.0719 22.7799 96.0571 22.776ZM81.888 58.4427C87.1742 52.0837 90.4796 44.2437 93.0148 36.2607C96.3617 36.6665 99.2444 35.7286 101.942 33.6484C102.785 32.9874 104.818 30.6027 105.988 31.0901C108.964 32.3468 105.422 40.1234 104.723 41.7257C100.406 51.6858 90.7804 61.047 79.4622 61.1659C80.2974 60.2969 81.1109 59.3906 81.888 58.4427ZM52.1615 9.17788C66.6062 11.1161 81.8331 14.9267 95.4007 20.2564C95.8433 20.4383 96.2062 20.5039 96.411 20.923C96.5586 21.2001 96.5069 21.6296 96.4573 21.9331C96.3998 22.266 96.2723 22.5644 96.0384 22.7868C95.7238 22.7184 95.4074 22.5386 95.1235 22.415C81.5569 17.0222 66.3063 13.3003 51.8627 11.299C51.0659 11.1964 49.9642 11.3446 50.1604 10.257C50.3765 9.09551 51.1902 9.07598 52.1615 9.17788ZM28.2566 25.45C28.4516 19.5162 29.7114 12.7435 33.7613 8.15929C35.3093 6.40455 38.4743 5.24138 40.5221 6.94608C41.7933 7.99931 42.4056 10.2695 43.0315 11.72C44.0284 14.0932 45.1493 16.5948 47.693 17.5138C47.3475 18.8623 47.001 20.2739 46.6722 21.7377C43.4722 20.3103 42.1029 17.5522 40.9264 14.3706C40.464 13.1382 40.0267 11.5166 38.7214 10.9452C34.1058 8.88503 32.1751 16.9191 31.6548 19.6302C29.2128 32.2939 33.537 48.5759 45.8712 54.6044C46.2892 55.8249 46.8157 56.9953 47.4025 58.1185C33.4911 53.3619 27.7906 39.6725 28.2566 25.45ZM60.8448 79.2981C60.5627 80.4102 60.2926 81.2405 59.0599 81.2269C58.0352 81.2057 56.9959 80.9431 56.0158 80.6963C53.9413 80.1563 51.3401 79.5703 52.6002 76.8198C53.0281 75.8735 56.3904 76.6952 57.0451 76.8548C58.0844 77.1174 60.8353 77.8545 60.8448 79.2981ZM68.2626 134.795C51.6121 130.381 34.9468 125.964 18.2924 121.565C18.8719 118.87 19.3424 115.575 22.5666 116.439C24.3414 116.915 26.131 117.394 27.9058 117.87C33.5407 119.379 39.1904 120.893 44.8254 122.403C50.4603 123.913 56.11 125.426 61.745 126.936C63.5198 127.412 65.3093 127.891 67.0841 128.367C70.2639 129.219 69.0776 132.226 68.2626 134.795ZM68.0345 114.052C66.9973 117.923 65.9748 121.799 64.978 125.696C58.7219 124.02 52.451 122.34 46.1949 120.664C39.3768 118.837 32.5439 117.006 25.7257 115.179C26.7083 111.689 27.6614 108.192 28.5996 104.69C29.332 101.956 29.4766 98.1629 33.0261 99.114C38.4984 100.58 43.9558 102.042 49.4281 103.509C55.0482 105.014 60.6684 106.52 66.2737 108.022C69.6606 108.93 68.8421 111.038 68.0345 114.052ZM65.0889 99.9609C65.8869 100.887 67.9949 102.545 67.7688 103.862C67.6448 104.621 67.4577 105.378 67.2746 106.121C61.8726 104.452 56.2847 103.24 50.8272 101.777C45.0592 100.232 39.2911 98.6864 33.5231 97.1409C34.1988 94.9149 34.9621 93.9001 37.6039 93.151C39.5967 92.5764 41.5265 91.7633 43.4091 90.89C47.556 88.9606 50.7021 85.797 52.7445 81.7835C53.6366 82.1809 54.6128 82.4424 55.4666 82.687C56.35 82.9396 57.3233 83.1528 58.2838 83.236C58.05 87.4807 59.0791 91.272 61.2611 94.9605C62.3236 96.7338 63.7225 98.3755 65.0889 99.9609ZM60.1449 75.8167C59.2458 75.3857 58.2963 75.0838 57.5421 74.8817C56.8765 74.7034 55.8846 74.501 54.8461 74.4128C55.2344 71.603 55.3831 68.6815 54.8314 65.8891C55.9827 66.5618 57.2317 67.1657 58.6051 67.6603C60.5394 68.3686 62.3834 68.7043 64.1467 68.7492C62.4149 70.8348 61.163 73.3182 60.1449 75.8167ZM107.663 46.7258C101.143 59.4054 88.9481 68.2999 74.5715 65.398C75.5633 64.7136 76.5117 63.9542 77.4317 63.1239C77.4613 63.1318 77.5057 63.1437 77.5392 63.1369C90.954 64.2449 102.535 52.9688 107.142 41.2177C108.306 38.2356 111.237 30.3113 106.135 28.9442C104.833 28.5955 103.687 29.6186 102.743 30.3632C99.9051 32.6118 97.3863 34.6765 93.6192 34.3006C94.0397 32.9089 94.4266 31.5239 94.8135 30.139C100.681 31.0776 108.442 18.3821 111.541 28.9992C113.204 34.6863 110.216 41.7562 107.663 46.7258Z" fill="white" fill-opacity="0.1"/>
<path d="M59.0044 113.026C59.2509 112.047 59.3672 111.081 58.9223 110.138C58.3947 109.031 56.9878 108.543 55.8934 108.25C51.0867 106.962 46.28 105.674 41.4733 104.386C40.5859 104.148 39.6589 104.058 38.8231 104.515C37.9686 104.983 37.5692 106 37.3169 106.883C36.9408 108.287 36.5687 109.675 36.1778 111.075C35.8374 112.346 35.5067 113.698 36.1959 114.912C36.762 115.935 37.9236 116.215 38.9737 116.496C43.2479 117.641 47.5222 118.786 51.8113 119.936C53.0388 120.264 54.427 120.763 55.7035 120.377C57.2228 119.913 57.6326 118.265 57.9781 116.916C58.3156 115.597 58.66 114.312 59.0044 113.026ZM55.0377 118.425C54.2425 118.671 53.096 118.158 52.3417 117.956C48.0675 116.81 43.7932 115.665 39.5041 114.516C39.2379 114.445 38.9717 114.373 38.7055 114.302C38.6759 114.294 38.4284 114.212 38.4136 114.208C38.1741 114.096 38.0312 113.979 37.9622 113.881C37.5565 113.266 37.9746 112.238 38.1488 111.587C38.5397 110.188 38.9118 108.799 39.2879 107.395C39.375 107.07 39.4531 106.838 39.5608 106.613C39.5688 106.584 39.6981 106.397 39.7021 106.382C39.7248 106.356 39.7475 106.331 39.7702 106.305C39.7742 106.29 39.7742 106.29 39.789 106.294C39.8077 106.283 39.8077 106.283 39.8265 106.273C39.8452 106.262 39.8492 106.247 39.8492 106.247C39.864 106.251 39.8975 106.244 39.9498 106.227C39.9646 106.23 39.9646 106.23 39.9685 106.216C40.0169 106.213 40.0652 106.21 40.1135 106.207C40.4183 106.194 40.5326 106.24 40.9172 106.343C45.7239 107.631 50.5306 108.919 55.3373 110.207C55.7662 110.322 56.1764 110.447 56.5628 110.662C56.8279 110.796 56.9817 110.932 57.0723 111.068C57.152 111.184 57.1608 111.329 57.1685 111.537C57.1712 111.823 57.088 112.133 56.993 112.487C56.6486 113.773 56.3002 115.073 55.9706 116.363C55.8566 116.965 55.743 118.218 55.0377 118.425Z" fill="white" fill-opacity="0.1"/>
<path d="M91.2889 27.9117C91.291 27.7856 91.1164 27.7863 91.0739 27.8858C87.8988 35.7131 84.5179 43.1845 79.2628 49.9003C76.4358 53.5294 73.0864 56.8602 69.089 59.178C65.0915 61.4959 61.037 61.6606 56.5489 61.3132C56.5341 61.3092 56.5302 61.324 56.5154 61.32C56.4966 61.3309 56.4779 61.3417 56.4739 61.3564L56.47 61.3712L56.466 61.386C56.4621 61.4008 56.4581 61.4155 56.4689 61.4343C56.4798 61.453 56.4798 61.453 56.4906 61.4718C56.5054 61.4757 56.5054 61.4757 56.5162 61.4945C64.7145 68.1093 74.7985 59.9952 79.8048 53.4978C83.1108 49.2052 85.6983 44.3401 87.7938 39.3589C89.3051 35.7891 90.9824 31.8361 91.2889 27.9117Z" fill="white" fill-opacity="0.1"/>
<path d="M56.7914 86.5575C56.7737 86.5052 56.7333 86.4786 56.685 86.4815C56.6367 86.4843 56.5844 86.502 56.5833 86.5651C55.658 93.0949 57.6549 100.788 64.7777 102.601C64.8221 102.613 64.8784 102.581 64.9011 102.555C64.9277 102.515 64.9248 102.466 64.8844 102.44C62.8327 100.75 61.0394 98.9233 59.7151 96.589C57.9359 93.4677 57.4549 89.9975 56.7914 86.5575Z" fill="white" fill-opacity="0.1"/>
<path d="M72.4072 19.638C72.4219 19.642 72.4219 19.642 72.4367 19.6459C72.4811 19.6578 72.5078 19.6174 72.5196 19.5731C72.5196 19.5731 72.5196 19.5731 72.5236 19.5583C72.5236 19.5583 72.5236 19.5583 72.5276 19.5436C72.5394 19.4992 72.5326 19.4657 72.4922 19.4391C72.4774 19.4351 72.4774 19.4351 72.4626 19.4311C68.8593 17.9114 65.0541 17.1453 61.2144 16.449C58.3557 15.9365 54.9905 15.0665 52.0935 15.5255C52.0116 15.5352 51.981 15.5904 51.9948 15.6574C51.9937 15.7205 52.041 15.7806 52.0962 15.8113C54.911 16.7238 58.0422 16.9293 60.9629 17.506C64.7572 18.2534 68.5376 19.1713 72.4072 19.638Z" fill="white" fill-opacity="0.1"/>
</svg>
