<svg width="83" height="109" viewBox="0 0 83 109" fill="none" xmlns="http://www.w3.org/2000/svg">
<path d="M65.4368 43.2539C68.3684 27.2193 58.019 12.6733 42.0333 9.58286C26.5497 6.58952 12.3618 17.495 9.67327 32.5426C6.93611 47.8652 17.3017 63.3982 32.9796 65.4693C48.447 67.508 61.9708 58.528 65.4368 43.2539ZM35.5872 63.5924C20.055 62.9128 10.2887 48.836 11.6168 34.1282C12.9773 19.1777 27.068 9.6314 41.4664 11.6701C56.3508 13.7735 65.9875 28.3034 63.3637 42.6875C60.3026 56.1171 49.2892 64.191 35.5872 63.5924Z" fill="white" fill-opacity="0.1"/>
<path d="M81.0824 88.882C75.689 80.4197 70.2795 71.9575 64.8862 63.4952C65.9389 61.8772 65.8741 59.8547 65.0643 58.1558C67.2184 58.6574 69.4211 58.1072 70.6034 55.8905C71.6076 54.046 71.2837 51.9911 70.1823 50.3893C72.0611 50.1142 73.6645 48.9978 74.1828 46.8458C74.6363 44.9689 73.9561 43.2053 72.7089 41.9432C74.2962 41.1342 75.4137 39.678 75.3327 37.5746C75.2355 35.2284 73.6159 33.5133 71.5752 32.7852C73.454 31.6202 74.6039 29.6786 73.8913 27.2678C73.292 25.2452 71.6076 24.0317 69.6965 23.6758C70.8626 22.1063 71.2027 20.1323 69.9556 18.223C68.919 16.6374 67.2508 15.9093 65.5178 15.9093C66.0685 14.2589 65.8256 12.4791 64.3517 11.0552C62.6349 9.38864 60.2217 9.30774 58.2133 10.2624C58.7154 8.11041 58.1647 5.9099 55.9459 4.72875C54.0995 3.72558 52.0426 4.04918 50.4392 5.14943C50.1638 3.27253 49.0463 1.67069 46.8922 1.15292C45.0134 0.699877 43.248 1.37945 41.9847 2.62532C41.1749 1.03966 39.7172 -0.0767728 37.6117 0.00412823C35.2633 0.101209 33.5465 1.71923 32.8177 3.77411C31.6515 1.89721 29.708 0.748417 27.2948 1.46035C25.2702 2.05901 24.0555 3.74176 23.6992 5.65102C22.1282 4.48604 20.1522 4.14626 18.2411 5.39213C16.6538 6.42767 15.925 8.09423 15.925 9.82551C14.273 9.27538 12.4914 9.51809 11.0661 10.9905C9.39793 12.7056 9.31696 15.1164 10.2725 17.1228C8.11844 16.6212 5.91575 17.1713 4.73343 19.388C3.72926 21.2326 4.05318 23.2874 5.15453 24.8893C3.27577 25.1643 1.67234 26.2808 1.15406 28.4327C0.700566 30.3096 1.38081 32.0733 2.62792 33.3353C1.04069 34.1444 -0.0768488 35.6006 0.00413231 37.704C0.10131 40.0501 1.72093 41.7652 3.77785 42.4933C1.89909 43.6583 0.749158 45.5999 1.46179 48.0108C2.06105 50.0333 3.74546 51.2468 5.65662 51.6028C4.49049 53.1723 4.15036 55.1463 5.39747 57.0555C6.43403 58.6412 8.10224 59.3693 9.83524 59.3693C9.28456 61.0197 9.52751 62.7995 11.0014 64.2395C12.7182 65.9061 15.1314 65.987 17.1397 65.0324C16.6376 67.1843 17.1883 69.3848 19.4072 70.566C21.2536 71.5692 23.3105 71.2456 24.9139 70.1453C25.1893 72.0222 26.3068 73.624 28.4609 74.1418C29.3355 74.3522 30.1939 74.3198 30.9713 74.0933C30.9713 84.4162 30.9875 94.7392 30.9875 105.062C30.9875 111.421 37.2554 106.47 39.4905 104.722C42.1629 102.635 43.41 103.897 45.9366 105.774C47.0541 106.615 48.8195 108.492 50.3906 108.476C53.3383 108.428 52.9981 105.014 52.9981 102.862C52.9981 97.1824 52.9981 91.487 52.9819 85.8077C55.3628 89.5454 57.7436 93.283 60.1245 97.0206C61.6145 99.3506 63.0074 102.91 65.7284 103.994C68.0606 104.917 69.3077 99.8036 69.745 98.6386C70.8302 95.7747 71.1055 93.7199 74.4905 94.4803C75.4947 94.7068 76.5798 94.6907 77.6002 94.7878C82.2809 95.1923 83.5766 92.7976 81.0824 88.882ZM47.6858 71.6339C46.0824 72.4591 44.8029 71.3103 44.1226 69.9673C46.0176 69.5952 47.8477 69.0612 49.5969 68.3817C49.6293 69.7408 48.9977 70.9543 47.6858 71.6339ZM6.91992 33.756C7.38961 28.368 9.25217 23.5625 12.0865 19.5498C12.3133 19.388 12.4914 19.1615 12.5562 18.9026C12.5724 18.8864 12.5886 18.8702 12.5886 18.8541C12.8153 18.7084 12.9935 18.4819 13.0745 18.223C19.2938 10.4242 29.4165 5.9908 40.0736 6.75127C58.5373 8.07805 71.2675 25.941 67.9634 43.626C64.4489 59.2884 51.5405 68.8832 35.571 68.3008C17.2693 67.6212 5.38128 51.2306 6.91992 33.756ZM34.8584 70.4204C36.8019 70.5822 38.7131 70.5984 40.5756 70.4366C40.2193 71.7957 39.2152 72.9283 37.7089 73.0739C35.9759 73.2519 35.1175 71.9089 34.8584 70.4204ZM52.2045 67.2329C53.9213 66.3915 55.541 65.4045 57.0796 64.2719C57.4683 65.6149 57.193 67.0711 55.9782 67.9772C54.6016 69.0289 53.1925 68.3493 52.2045 67.2329ZM58.9422 62.8157C60.3836 61.586 61.7279 60.2268 62.9588 58.7383C63.6553 59.9194 63.7848 61.3918 62.8778 62.5568C61.7765 63.9806 60.2055 63.6894 58.9422 62.8157ZM68.8219 54.5961C68.255 56.3112 66.522 56.3921 65.0805 55.9067C66.1333 54.3372 67.0403 52.6545 67.8339 50.8909C68.8704 51.8455 69.2915 53.1723 68.8219 54.5961ZM68.8866 48.2859C69.3563 46.9753 69.745 45.6161 70.069 44.2084C70.1661 43.723 70.2309 43.2376 70.2957 42.7522C71.4942 43.4156 72.2231 44.5644 72.1421 46.053C72.0449 47.849 70.3929 48.3829 68.8866 48.2859ZM73.1786 37.5584C73.3568 39.2897 72.0287 40.1472 70.5548 40.4061C70.7006 38.4645 70.6682 36.5552 70.4901 34.6783C71.8667 35.0181 73.0167 36.0374 73.1786 37.5584ZM71.721 27.6076C72.5632 29.2256 71.3485 30.5362 69.9718 31.1996C69.5831 29.3065 69.0324 27.4619 68.336 25.6821C69.7612 25.6174 71.0245 26.2484 71.721 27.6076ZM68.0768 19.3071C69.1458 20.7471 68.4007 22.1872 67.2184 23.1742C66.36 21.4429 65.3559 19.8087 64.2059 18.2554C65.5826 17.7862 67.1375 18.0451 68.0768 19.3071ZM62.6511 12.4143C64.125 13.547 63.7524 15.1973 62.8131 16.4756C61.566 15.0032 60.1893 13.6602 58.6992 12.4143C59.8977 11.6377 61.4526 11.4759 62.6511 12.4143ZM54.6826 6.49239C56.4479 7.07488 56.4965 8.88706 55.9621 10.3433C54.391 9.27538 52.7066 8.33693 50.925 7.52792C51.8644 6.46003 53.2249 6.00698 54.6826 6.49239ZM46.1147 3.15927C47.9287 3.25635 48.447 4.95527 48.3498 6.46003C46.6492 5.84518 44.8839 5.34359 43.0537 4.98763C42.9889 4.97145 42.9241 4.97145 42.8431 4.95527C43.5072 3.7903 44.6571 3.07837 46.1147 3.15927ZM37.6117 2.13991C39.2799 1.96193 40.1383 3.20781 40.4299 4.59931C38.5349 4.38896 36.6724 4.34042 34.826 4.45368C35.2471 3.24017 36.2189 2.26936 37.6117 2.13991ZM27.6511 3.59613C29.1249 2.83566 30.3234 3.75794 31.0361 4.95527C29.2221 5.29505 27.4405 5.79664 25.7237 6.44385C25.8209 5.24651 26.4687 4.1948 27.6511 3.59613ZM19.3424 7.2205C20.6057 6.26587 21.9014 6.75127 22.857 7.68972C21.205 8.51491 19.6339 9.46955 18.1439 10.5698C17.9009 9.3401 18.2411 8.04569 19.3424 7.2205ZM12.4428 12.657C13.4632 11.3465 14.8723 11.4921 16.0708 12.204C14.6779 13.4175 13.366 14.7281 12.1837 16.1681C11.6492 15.0355 11.6168 13.7088 12.4428 12.657ZM6.51501 20.6177C7.03329 19.032 8.57193 18.8379 9.94861 19.21C8.92825 20.7633 8.05365 22.3975 7.29243 24.1288C6.41783 23.1904 6.07771 21.9445 6.51501 20.6177ZM6.22348 26.928C5.80238 28.2062 5.44606 29.5168 5.17073 30.8598C5.07355 31.3775 4.97637 31.8791 4.91158 32.3807C3.79404 31.7173 3.11381 30.5847 3.19479 29.1609C3.27577 27.4619 4.78202 26.8956 6.22348 26.928ZM2.15823 37.6555C1.99626 35.9889 3.21098 35.1314 4.62005 34.8401C4.47429 36.7494 4.47428 38.6263 4.63625 40.4708C3.35675 40.0987 2.30399 39.1117 2.15823 37.6555ZM3.61589 47.6063C2.82227 46.053 3.87503 44.7909 5.17073 44.1114C5.54324 45.9721 6.07771 47.7843 6.75796 49.5317C5.42987 49.5317 4.27993 48.8845 3.61589 47.6063ZM7.26003 55.9229C6.23967 54.5638 6.87133 53.1885 7.94028 52.2015C8.78248 53.9004 9.77045 55.5184 10.888 57.0393C9.5599 57.3791 8.13463 57.1041 7.26003 55.9229ZM12.6858 62.7995C11.2929 61.7154 11.552 60.1783 12.378 58.9324C13.609 60.3725 14.9532 61.6992 16.4271 62.9128C15.261 63.5923 13.8195 63.6732 12.6858 62.7995ZM20.6543 68.7376C18.9699 68.1875 18.8565 66.4886 19.31 65.0809C20.8811 66.1164 22.5493 67.0387 24.3146 67.7992C23.3753 68.7862 22.0634 69.1907 20.6543 68.7376ZM29.2059 72.0546C27.4081 71.9575 26.8737 70.3071 26.9708 68.8023C28.7524 69.401 30.5988 69.8541 32.5261 70.1615C31.8945 71.375 30.7122 72.1355 29.2059 72.0546ZM33.1254 101.551C33.1254 91.9724 33.1092 82.4099 33.1092 72.8312C33.1902 72.7665 33.2712 72.6856 33.3359 72.6209C33.6599 73.2681 34.0972 73.8344 34.6478 74.2874C34.826 84.6428 34.988 94.9981 35.0851 105.353C34.907 105.483 34.7288 105.612 34.5507 105.726C32.5747 106.971 33.1254 102.587 33.1254 101.551ZM40.5756 100.92C39.0694 101.357 37.6279 103.347 36.3646 104.383C36.2837 94.5936 36.1217 84.7884 35.9597 74.9994C36.478 75.1774 37.0611 75.2583 37.7089 75.2421C40.0574 75.145 41.7742 73.527 42.503 71.4721C43.6205 73.2843 45.4831 74.4007 47.7668 73.8506C47.783 83.8985 47.2485 93.9464 47.2485 103.994C45.3697 102.441 42.9565 100.224 40.5756 100.92ZM48.5442 104.965C48.5118 94.4318 49.1111 83.8985 49.0625 73.349C49.7913 72.9445 50.3744 72.362 50.7955 71.6824C50.7955 79.9991 50.8116 88.3157 50.8116 96.6485C50.8278 98.493 51.7834 106.777 48.5442 104.965ZM64.8538 100.354C64.5137 99.836 64.1897 99.302 63.8496 98.7843C62.7645 97.0692 61.6631 95.354 60.578 93.639C58.0514 89.6748 55.5247 85.7107 52.9981 81.7465C52.9981 80.9213 52.9981 80.1123 52.9981 79.2871C57.6303 86.0828 62.1166 92.9756 66.7811 99.7551C66.2952 100.111 65.6474 100.305 64.8538 100.354ZM70.7168 92.2151C69 93.0565 68.2712 96.4543 67.6881 98.0076C67.6557 98.2179 67.6071 98.4121 67.5585 98.5901C62.6511 91.4223 57.9218 84.125 52.9981 76.9734C52.9981 74.7567 52.9981 72.54 52.9981 70.3233C54.2776 70.8087 55.7029 70.744 57.112 69.8379C58.683 68.8185 59.4119 67.1682 59.4281 65.453C65.7932 74.2065 71.1055 83.7367 77.3411 92.5872C76.5636 92.5063 75.77 92.3769 75.0088 92.3122C73.3892 92.1827 72.2393 91.4708 70.7168 92.2151ZM79.1712 92.6843C79.0903 92.6843 79.0093 92.6843 78.9445 92.6843C72.6927 83.9147 67.3966 74.4492 61.1448 65.6796C61.8899 65.6634 62.6349 65.453 63.3313 65.0162C67.7205 71.909 72.1259 78.8017 76.5151 85.6945C77.1629 86.7624 81.6493 92.5387 79.1712 92.6843Z" fill="white" fill-opacity="0.1"/>
<path d="M51.7348 50.8585C51.2165 48.9169 50.6983 46.9753 50.1476 45.0337C49.9856 44.4512 49.3864 44.1438 48.8195 44.2732C47.6048 44.5644 46.3739 44.8719 45.1592 45.1631C42.7135 36.8141 40.2841 28.4651 37.8385 20.1162C37.6765 19.566 37.0773 19.1777 36.5104 19.3557C33.676 20.2456 30.5502 20.4236 28.882 22.98C27.7968 24.6466 26.7117 26.297 25.6427 27.9636C24.4766 29.7434 25.6265 31.5717 26.1772 33.5295C26.3392 34.0959 26.9384 34.4518 27.5053 34.29C28.8496 33.9017 30.1938 33.5134 31.5381 33.1089C32.931 37.9953 34.3563 42.8655 35.7977 47.7358C34.4697 48.1241 33.1254 48.5124 31.7973 48.9007C31.2466 49.0625 30.8741 49.6612 31.0361 50.2275C31.6515 52.2986 32.267 54.3696 32.9148 56.4084C33.093 56.9585 33.6598 57.3306 34.2429 57.1688C39.8144 55.5023 45.3859 53.8195 50.9736 52.1853C51.5405 52.0235 51.8968 51.441 51.7348 50.8585ZM31.9916 30.7465C30.6312 31.1349 29.2707 31.5394 27.9102 31.9277C27.4243 30.6656 27.0194 29.8243 27.8292 28.5622C28.6714 27.2678 29.5298 25.9572 30.372 24.6466C31.7001 22.6241 33.6274 22.3814 36.0569 21.7342C38.5025 30.067 40.9319 38.3998 43.3614 46.7326C43.5233 47.3151 44.1064 47.6225 44.6895 47.4931C45.9042 47.2018 47.1189 46.8944 48.3336 46.6031C48.6899 47.8652 49.0301 49.1273 49.3702 50.4055C44.4627 51.8455 39.5715 53.3179 34.6802 54.7903C34.2591 53.415 33.838 52.0559 33.4331 50.6806C34.7612 50.2922 36.1055 49.9039 37.4336 49.5156C37.6603 49.4509 37.8223 49.3376 37.9356 49.192C37.9518 49.1758 37.968 49.1596 37.9842 49.1434C37.9842 49.1434 37.9842 49.1434 37.9842 49.1273C38.1948 48.9007 38.292 48.5771 38.1786 48.1726C36.5266 42.6228 34.9069 37.0568 33.3197 31.4747C33.1578 30.9407 32.5585 30.5686 31.9916 30.7465Z" fill="white" fill-opacity="0.1"/>
<path d="M31.198 13.9515C31.198 13.9353 31.198 13.903 31.198 13.8868C31.1819 13.8383 31.1333 13.8059 31.0685 13.8221C22.5493 15.4077 16.6377 23.239 14.5969 31.1996C13.0097 37.3805 13.0259 47.396 18.3545 51.975C18.3706 51.9912 18.403 52.0074 18.4354 52.0074C18.5326 52.0074 18.6136 51.9426 18.5812 51.8456C15.9736 45.4058 14.9856 39.1926 16.4109 32.2999C17.1883 28.5137 18.7432 24.9217 21.0106 21.7827C23.6344 18.1584 27.23 15.974 31.1495 14.0001C31.1657 14.0001 31.1819 13.9839 31.198 13.9515Z" fill="white" fill-opacity="0.1"/>
<path d="M34.2754 13.903C35.1338 13.8382 35.976 13.8059 36.7858 13.5308C36.8506 13.5146 36.883 13.4337 36.8182 13.3852C36.1217 12.7056 35.1662 12.7703 34.2754 12.8836C33.7085 12.9483 32.6719 13.1587 32.3966 13.7573C32.3966 13.7735 32.3966 13.7897 32.4128 13.8059C32.8825 14.1133 33.7247 13.9353 34.2754 13.903Z" fill="white" fill-opacity="0.1"/>
<path d="M60.2865 29.63C60.2541 29.5815 60.2055 29.5653 60.1408 29.5815C60.1246 29.5815 60.0922 29.5977 60.076 29.6139H60.0598C60.0436 29.63 60.0274 29.6624 60.0436 29.6948C60.5942 34.4679 60.3513 39.2573 59.1528 43.901C57.7113 49.4346 54.715 53.6415 50.7631 57.638C50.6984 57.7027 50.7631 57.8483 50.8603 57.816C60.74 54.0136 64.4003 38.5453 60.2865 29.63Z" fill="white" fill-opacity="0.1"/>
</svg>
