<svg width="28" height="28" viewBox="0 0 28 28" fill="none" xmlns="http://www.w3.org/2000/svg">
<g clip-path="url(#clip0_7_1507)">
<path d="M28 14C28 14.0656 28 14.1313 28 14.1969C27.9617 17.1281 27.0211 19.8352 25.4461 22.0664C23.6852 24.5602 21.1258 26.4523 18.1453 27.3766C16.8328 27.7812 15.4438 28 14 28C12.5562 28 11.1672 27.7812 9.86016 27.3766C6.87422 26.4578 4.32031 24.5602 2.55938 22.0664C0.984375 19.8406 0.04375 17.1281 0 14.1969C0 14.1313 0 14.0656 0 14C0 10.8555 1.03906 7.95156 2.78906 5.61094C4.4625 3.37969 6.78672 1.6625 9.48281 0.74375C10.9047 0.2625 12.4195 0 14 0C15.5805 0 17.0953 0.2625 18.5117 0.74375C21.2078 1.6625 23.532 3.37969 25.2109 5.61094C26.9609 7.95156 28 10.8555 28 14Z" fill="#F0E1D8"/>
<path d="M14 27.5351C12.6328 27.5351 11.2875 27.3327 9.99687 26.9335C7.16406 26.0585 4.65937 24.2374 2.94218 21.8038C1.36171 19.5671 0.508588 16.9366 0.470306 14.1913C0.470306 14.1257 0.470306 14.0655 0.470306 13.9999C0.470306 11.0468 1.40546 8.24678 3.1664 5.88975C4.81249 3.69131 7.04921 2.06709 9.6414 1.18662C11.0359 0.71084 12.507 0.470215 14 0.470215C15.4875 0.470215 16.9476 0.71084 18.3422 1.18115L18.3586 1.18662C20.9453 2.06709 23.182 3.69678 24.8336 5.88975L24.8555 5.91709C26.6055 8.26318 27.5297 11.0577 27.5297 13.9944C27.5297 14.0601 27.5297 14.1257 27.5297 14.1858C27.4914 16.9257 26.6383 19.5562 25.0578 21.7929C23.3406 24.2265 20.8305 26.0476 17.9977 26.9226C16.7125 27.3272 15.3672 27.5351 14 27.5351ZM14 0.688965C12.5289 0.688965 11.0851 0.92959 9.70702 1.39443C7.16406 2.2585 4.96015 3.86084 3.3414 6.021C1.60234 8.33975 0.683588 11.096 0.683588 13.9999C0.683588 14.0601 0.683588 14.1257 0.683588 14.1913C0.721869 16.8874 1.56406 19.4796 3.11171 21.6726C4.80156 24.0679 7.26796 25.8616 10.057 26.7202C11.3258 27.114 12.6492 27.3108 13.9945 27.3108C15.3398 27.3108 16.6633 27.114 17.932 26.7202C20.7211 25.8616 23.182 24.0679 24.8773 21.6726C26.4305 19.4741 27.2726 16.8874 27.3055 14.1913C27.3055 14.1257 27.3055 14.0655 27.3055 13.9999C27.3055 11.096 26.3867 8.33975 24.6531 6.021L24.6312 5.99365C23.0234 3.8499 20.8359 2.26396 18.3094 1.3999L18.293 1.39443C16.9148 0.924121 15.4711 0.688965 14 0.688965Z" fill="#414042"/>
<path d="M14.2734 3.56567H13.7266V9.92583H14.2734V3.56567Z" fill="#414042"/>
<path d="M2.72578 9.84714L2.51108 10.3501L9.79898 13.4611L10.0137 12.9582L2.72578 9.84714Z" fill="#414042"/>
<path d="M11.5954 17.3713L6.9823 23.1987L7.4111 23.5382L12.0242 17.7107L11.5954 17.3713Z" fill="#414042"/>
<path d="M16.4691 17.3969L16.0419 17.7383L21.6914 24.8097L22.1186 24.4683L16.4691 17.3969Z" fill="#414042"/>
<path d="M24.3755 10.3406L18.3062 12.8086L18.5122 13.3152L24.5816 10.8472L24.3755 10.3406Z" fill="#414042"/>
<path d="M14 9.40088L9.16016 12.9118L11.0086 18.5993H16.9914L18.8398 12.9118L14 9.40088Z" fill="#414042"/>
<path d="M18.8344 1.47656L14 4.04688L9.16016 1.47656L9.48281 0.74375C10.9047 0.2625 12.4195 0 14 0C15.5805 0 17.0953 0.2625 18.5117 0.74375L18.8344 1.47656Z" fill="#414042"/>
<path d="M4.53359 10.9265L0.590625 14.7327L0 14.1968C0 14.1312 0 14.0655 0 13.9999C0 10.8554 1.03906 7.95146 2.78906 5.61084L3.58203 5.52881L4.53359 10.9265Z" fill="#414042"/>
<path d="M10.5492 26.9773L9.86017 27.3765C6.87423 26.4578 4.32032 24.5601 2.55939 22.0664L2.72345 21.2898L8.14845 22.05L10.5492 26.9773Z" fill="#414042"/>
<path d="M25.4406 22.0664C23.6797 24.5601 21.1203 26.4523 18.1398 27.3765L17.4508 26.9773L19.8516 22.05L25.2766 21.2898L25.4406 22.0664Z" fill="#414042"/>
<path d="M28 14C28 14.0656 28 14.1312 28 14.1969L27.4094 14.7273L23.4664 10.9211L24.418 5.52344L25.2109 5.60547C26.9609 7.95156 28 10.8555 28 14Z" fill="#414042"/>
</g>
<defs>
<clipPath id="clip0_7_1507">
<rect width="28" height="28" fill="white"/>
</clipPath>
</defs>
</svg>
