<svg width="296" height="268" viewBox="0 0 296 268" fill="none" xmlns="http://www.w3.org/2000/svg">
<path d="M281.605 108.294L283.917 112.918L289.028 113.648L285.316 117.299L286.229 122.41L281.605 119.976L277.041 122.41L277.893 117.299L274.181 113.648L279.353 112.918L281.605 108.294Z" fill="#F9CF6A"/>
<path d="M215.342 259.255C222.644 255.057 229.033 249.398 234.448 243.009C252.155 222.26 258.483 198.043 292.922 154.781C289.636 153.017 286.29 151.252 283.004 149.487C285.134 147.358 287.324 145.167 289.454 143.038C286.047 141.334 282.7 138.9 278.988 138.17C280.144 136.466 281.24 134.762 282.396 133.059C266.88 128.374 251.364 123.749 235.848 119.064C237.795 119.672 228.546 139.326 227.816 140.543C223.496 148.392 218.385 155.755 213.456 163.239C203.66 177.903 193.316 192.506 187.535 209.118C181.511 226.52 184.98 243.679 184.554 261.507C184.493 263.089 184.554 264.853 185.649 266.009C187.048 267.531 189.482 267.226 191.49 266.74C199.887 264.732 207.676 263.697 215.342 259.255Z" fill="#E9F1FF"/>
<path d="M212.969 246.66C215.951 242.827 216.681 237.776 217.411 232.969C223.131 195.305 235.665 158.675 254.223 125.331C241.932 133.241 234.387 146.567 228.059 159.71C218.445 179.667 210.474 200.416 204.329 221.713C202.138 229.258 199.461 237.837 200.252 245.747C200.861 253.171 209.501 251.041 212.969 246.66Z" fill="#19223C"/>
<path d="M250.877 96.6113C253.311 97.3414 268.462 101.053 268.949 103.304C269.131 104.217 268.583 105.191 268.036 105.982C246.435 138.535 232.684 160.561 214.612 208.752C209.379 222.747 202.382 237.837 200.191 252.562C198.305 265.036 191.795 268.626 181.937 264.853C171.958 261.02 161.919 260.594 151.757 256.578C137.397 250.858 123.828 243.009 108.799 239.297C74.2381 230.718 21.3013 245.626 10.1054 212.038C4.56834 195.427 11.9917 184.413 18.4415 169.323C25.1955 153.442 31.9495 137.5 38.7035 121.619C47.1612 101.722 52.3941 80.1826 61.156 60.5898C81.6006 62.9629 100.159 76.2884 119.934 81.8863C165.144 94.6642 213.091 85.0503 250.877 96.6113Z" fill="#C5D6EF"/>
<path d="M264.02 88.9445C259.335 96.7938 252.459 104.156 247.652 112.249C240.959 123.506 234.327 134.823 228.729 146.688C215.281 175.226 201.713 201.998 198.853 233.578C198.305 240.271 193.802 253.962 205.303 253.171C209.379 252.866 212.908 250.311 216.194 247.877C217.411 249.641 217.168 252.136 216.072 253.901C214.977 255.726 213.213 257.065 211.448 258.221C195.628 268.504 185.771 269.295 170.072 264.427C156.929 260.29 143.117 253.11 130.461 248.729C82.0266 231.935 57.6269 241.184 30.9759 233.395C5.72442 225.972 -6.56667 199.686 3.53393 175.408C13.3303 151.739 23.1267 128.069 32.9839 104.4C41.3808 84.0768 46.5528 62.0502 55.3147 42.0315C75.7593 44.4654 94.3785 58.156 114.154 63.8756C162.527 77.9921 222.279 65.7618 263.046 85.7196C264.202 86.3281 264.689 87.7884 264.02 88.9445Z" fill="#E9F1FF"/>
<path d="M203.538 252.866C196.845 252.866 196.601 245.2 199.522 245.686C200.313 245.808 200.861 246.599 200.739 247.39C200.617 248.12 200.922 248.911 201.53 249.398C202.686 250.311 205.728 249.885 207.493 248.911C210.657 247.207 212.848 243.983 214.855 240.758C237.004 205.71 250.329 163.969 279.11 133.91C271.382 131.902 260.491 128.982 252.824 127.035C252.033 126.852 251.546 126 251.729 125.209C251.911 124.418 252.763 123.931 253.554 124.114C262.438 126.365 273.451 129.347 282.335 131.659C283.43 131.963 283.856 133.363 283.004 134.154C253.432 163.847 239.864 206.683 217.35 242.34C215.099 245.869 212.604 249.52 208.832 251.528C207.554 252.258 205.546 252.866 203.538 252.866Z" fill="#C0D3ED"/>
<path d="M188.326 265.888C187.535 265.705 186.988 264.914 187.17 264.123C187.353 263.332 188.144 262.784 188.935 262.967C195.141 264.245 202.139 262.784 208.649 258.768C213.76 255.604 218.506 251.102 223.983 244.165C248.504 213.072 259.396 172.122 286.838 143.098L277.832 138.109C277.102 137.683 276.859 136.831 277.224 136.101C277.65 135.371 278.502 135.127 279.232 135.492C289.941 141.638 290.488 141.151 290.732 142.49C290.793 142.977 290.671 143.403 290.306 143.768C262.438 172.244 251.303 214.35 226.295 245.991C222.462 250.858 217.168 257.004 210.17 261.263C203.66 265.34 195.871 267.409 188.326 265.888Z" fill="#C0D3ED"/>
<path d="M196.662 264.61C196.601 263.819 197.149 263.089 198.001 262.967C211.57 261.507 225.991 253.536 234.692 242.705C250.816 222.625 256.962 196.461 291.401 155.876C289.393 154.477 285.256 151.556 283.004 150.582C282.274 150.217 281.909 149.366 282.274 148.635C282.639 147.905 283.491 147.54 284.221 147.905C286.472 148.94 289.637 151.069 292.375 153.016C294.018 154.294 294.93 154.416 295.052 155.45C295.113 155.876 294.991 156.302 294.687 156.606C260.126 196.887 253.311 224.207 236.943 244.591C227.633 256.213 212.787 264.366 198.244 265.948C197.514 266.009 196.784 265.401 196.662 264.61Z" fill="#C0D3ED"/>
<path d="M199.522 173.887C178.165 164.699 154.07 162.813 130.826 160.987C126.567 160.622 122.368 160.318 118.17 159.953C91.2146 157.519 60.6086 152.59 37.9126 133.971C36.6349 132.937 36.4523 131.051 37.4867 129.773C38.5211 128.495 40.4074 128.312 41.6852 129.347C84.6431 164.699 150.906 146.567 201.834 168.471C203.356 169.141 204.025 170.844 203.416 172.366C202.808 173.765 201.043 174.495 199.522 173.887Z" fill="#4883FC"/>
<path d="M231.832 102.635C180.72 82.7381 115.432 103.852 68.9444 68.2565C67.6667 67.2829 67.3624 65.3967 68.3968 64.0581C69.3704 62.7803 71.2566 62.5369 72.5344 63.5104C116.77 97.4022 182.181 76.8968 233.961 97.098C235.483 97.7064 236.274 99.4102 235.665 100.931C235.057 102.513 233.353 103.244 231.832 102.635Z" fill="#4883FC"/>
<path d="M85.6774 89.0053C88.4764 92.9603 89.3283 97.9498 89.024 99.2276C88.5372 100.992 85.7991 101.722 83.6086 100.323C82.0266 99.1667 82.6351 98.1323 81.7832 95.3334C79.1059 86.328 71.7435 88.6402 70.6482 92.7169C69.4313 97.2805 74.1165 101.236 78.5583 109.511C82.5134 116.873 83.1219 123.992 77.5848 130.381C71.135 137.744 57.4444 136.283 55.0714 121.619C54.5846 118.881 58.1137 118.151 60.3651 119.672C62.0079 120.767 61.3995 121.619 62.4947 124.479C63.8334 128.008 66.1455 129.955 69.553 128.312C78.7409 123.81 74.4816 113.709 68.7011 105.312C65.6588 100.87 62.799 96.0027 64.0159 91.3175C66.2064 82.738 79.2276 79.7565 85.6774 89.0053Z" fill="#ED3151"/>
<path d="M99.5507 94.786C99.3682 93.0214 100.585 91.8653 102.593 92.1087C116.466 94.1775 121.699 107.442 118.109 117.117C115.797 124.905 109.408 128.313 101.254 128.617C99.5507 128.799 98.5163 129.286 98.2121 130.321C96.9951 135.675 96.5083 138.109 95.839 141.212C94.9263 144.559 88.7199 142.855 89.3892 139.204C89.5718 138.292 99.5507 94.4209 99.5507 94.786ZM105.453 100.871C105.392 101.175 104.601 104.704 104.662 104.4C100.098 122.411 100.403 121.376 100.342 121.498C100.342 122.106 100.768 122.715 101.802 122.836C108.069 122.471 112.207 117.908 112.45 112.067C112.876 102.818 106.487 96.9765 105.453 100.871Z" fill="#ED3151"/>
<path d="M136.667 146.992C123.342 145.715 120.421 121.68 125.593 109.937C127.845 104.765 131.495 101.114 136.606 98.9234C151.027 93.3254 157.294 110.119 154.556 125.453C152.853 135.006 146.281 147.905 136.667 146.992ZM129.731 123.992C130.035 130.32 132.834 140.238 136.485 141.151H136.667C142.448 142.186 148.167 128.069 148.472 119.55C150.115 93.8122 128.818 102.818 129.731 123.992Z" fill="#ED3151"/>
<path d="M179.26 152.712C182.363 155.572 177.739 159.405 174.575 156.485C167.882 150.4 166.117 143.159 165.204 141.638C164.961 141.151 164.231 141.09 164.048 141.76C163.622 143.524 162.588 147.662 162.162 149.426C161.128 152.773 155.043 150.887 155.773 147.297C157.964 137.683 167.091 105.13 167.03 105.434C167.395 104.278 167.273 102.635 168.186 101.722C169.646 100.201 171.472 100.688 173.54 101.357C190.821 106.651 190.882 133.91 171.958 136.831C171.167 137.257 170.498 137.622 171.046 138.717C173.175 144.376 175.548 149.305 179.26 152.712ZM179.199 122.289C181.572 113.466 174.271 105.738 172.81 109.511V109.45C167.577 129.408 165.63 131.111 169.159 131.233C177.374 130.564 179.017 122.593 179.199 122.289Z" fill="#ED3151"/>
<path d="M199.705 115.291C195.324 114.683 195.141 108.963 199.339 109.511C206.824 110.423 221.123 114.804 221.975 116.204C223.131 118.212 221.609 121.072 218.506 120.281C217.411 119.976 212.543 118.516 211.874 118.273C211.265 118.151 210.474 118.273 210.231 118.82C206.215 132.511 202.26 149.487 199.522 158.736C198.488 162.265 192.099 160.683 192.951 157.276C196.845 143.585 200.374 127.947 203.72 117.117C203.842 116.63 203.599 116.265 203.173 116.021C202.929 115.9 203.173 115.717 199.705 115.291Z" fill="#ED3151"/>
<path d="M183.458 199.382C176.096 220.07 171.593 242.462 169.95 264.488C149.628 258.038 136.545 248.425 105.148 241.853C105.027 237.29 105.148 232.665 105.635 228.163C106.974 214.472 112.267 200.66 116.405 187.334C117.379 184.292 120.238 182.223 123.402 182.466C141.961 183.744 160.397 186.422 178.591 190.559C182.546 191.35 184.797 195.549 183.458 199.382Z" fill="#C5D6EF"/>
<path d="M98.3944 178.755C73.1429 173.4 48.3781 165.49 24.7087 155.207C23.9785 154.903 23.6134 153.99 23.9177 153.26C24.2219 152.53 25.1346 152.165 25.8648 152.469C49.3517 162.63 73.9947 170.48 99.0028 175.834C99.7939 176.017 100.341 176.808 100.159 177.599C100.037 178.39 99.2462 178.937 98.3944 178.755Z" fill="#C0D3ED"/>
<path d="M80.9313 193.175C62.2513 189.525 44.058 183.379 26.96 174.921C26.2298 174.556 25.9256 173.644 26.2907 172.913C26.6558 172.183 27.5685 171.879 28.2986 172.244C45.1533 180.58 63.1031 186.665 81.5398 190.255C82.3308 190.437 82.8784 191.167 82.6958 192.019C82.5133 192.81 81.6614 193.297 80.9313 193.175Z" fill="#C0D3ED"/>
<path d="M89.4499 209.422C63.4682 207.535 37.3649 200.538 13.9388 189.16C13.2086 188.795 12.9044 187.882 13.2694 187.152C13.6345 186.421 14.5472 186.117 15.2774 186.482C38.3993 197.678 64.1375 204.615 89.7541 206.501C90.5451 206.562 91.2144 207.292 91.1536 208.083C90.9711 208.874 90.2409 209.483 89.4499 209.422Z" fill="#C0D3ED"/>
<path d="M58.783 220.009C56.3491 219.583 41.4416 219.644 24.6478 209.847C23.9177 209.421 23.6743 208.509 24.1002 207.839C24.5261 207.109 25.4388 206.866 26.1082 207.292C36.0262 213.072 47.3438 216.48 58.8438 217.088C60.791 217.149 60.6693 220.009 58.783 220.009Z" fill="#C0D3ED"/>
<path d="M166.117 178.207L140.805 172.487C140.014 172.305 139.527 171.514 139.709 170.723C139.892 169.932 140.683 169.445 141.474 169.628L166.786 175.347C167.577 175.53 168.064 176.321 167.882 177.112C167.699 177.903 166.847 178.39 166.117 178.207Z" fill="#C0D3ED"/>
<path d="M159.424 206.866C171.168 222.808 157.234 245.869 137.093 241.792C136.363 241.61 134.659 241.305 132.53 240.332C130.278 239.358 128.21 238.02 126.384 236.316C126.141 236.133 125.958 235.89 125.715 235.647C121.942 231.874 119.813 227.006 119.326 222.321C118.231 212.221 124.194 202.12 134.659 198.713C134.659 198.713 134.659 198.713 134.72 198.713C137.154 197.922 139.588 197.617 141.718 197.678C153.4 197.8 159.12 206.623 159.424 206.866Z" fill="white"/>
<path d="M145.186 219.461C145.49 219.34 145.855 218.792 146.099 218.549C150.054 214.837 152.183 214.046 151.696 212.768C151.514 212.221 150.966 211.612 150.662 211.125C149.506 209.178 148.228 207.231 146.89 205.467C146.707 205.284 146.464 205.162 146.22 205.162C143.36 205.527 140.561 206.136 137.823 207.049C136.911 207.353 137.702 208.083 136.18 214.898C136.12 215.202 136.241 215.567 136.546 215.689C138.736 216.967 141.109 217.819 143.482 218.792C143.847 219.035 144.76 219.583 145.186 219.461Z" fill="#071D61"/>
<path d="M163.318 223.964C163.136 224.512 163.014 224.998 162.831 225.485C160.884 224.512 160.154 224.877 160.154 224.451C160.154 221.591 159.728 218.792 158.815 216.054C158.694 215.628 160.215 215.385 161.249 212.403C161.31 212.281 161.493 212.221 161.614 212.342C162.101 212.951 162.588 213.498 162.953 214.168C162.953 214.654 164.292 218.549 163.318 223.964Z" fill="#071D61"/>
<path d="M153.948 231.326C151.392 230.9 148.776 230.231 146.342 229.258C143.969 231.083 141.596 232.969 139.223 234.795C140.196 236.498 141.291 238.08 142.508 239.602C145.612 239.48 148.715 238.932 151.575 237.654C152.974 235.707 153.704 233.639 153.948 231.326Z" fill="#071D61"/>
<path d="M124.133 218.305C125.715 219.461 127.297 220.557 129.001 221.591C129.183 221.713 129.305 221.895 129.305 222.139C129.122 229.258 130.765 230.475 129.609 230.84C126.567 231.813 125.776 232.239 125.411 231.631C124.194 229.927 120.847 225.546 120.969 224.816C121.334 222.504 122.064 220.435 123.281 218.427C123.403 218.184 123.829 218.123 124.133 218.305Z" fill="#071D61"/>
<path d="M132.834 200.355C131.921 201.451 131.374 202.789 131.009 204.128C128.088 205.345 125.654 207.414 123.829 210.03C123.463 209.361 123.038 208.752 122.551 208.205C124.924 204.371 128.392 201.451 132.043 199.808C132.286 200.051 132.53 200.234 132.834 200.355Z" fill="#071D61"/>
<path d="M157.051 204.189C154.495 203.033 152.487 201.268 148.776 201.207C147.133 199.686 145.186 198.53 143.056 197.921C144.882 197.8 149.749 198.834 153.948 201.694C155.104 202.363 156.077 203.215 157.051 204.189Z" fill="#071D61"/>
<path d="M141.657 236.194C141.352 236.133 135.207 235.89 129.426 231.022C128.696 230.414 129.67 229.258 130.4 229.866C133.564 232.543 137.58 234.308 141.717 234.673C142.63 234.795 142.569 236.194 141.657 236.194Z" fill="#071D61"/>
<path d="M127.966 222.26C130.826 218.427 134.233 215.628 137.945 214.168C138.31 214.046 138.736 214.229 138.919 214.594C139.101 214.959 138.858 215.385 138.493 215.567C134.173 217.271 131.069 220.678 129.183 223.173C128.575 223.964 127.358 223.051 127.966 222.26Z" fill="#071D61"/>
<path d="M123.281 220.131C120.543 216.054 122.855 210.334 123.95 208.083C124.376 207.17 125.715 207.84 125.289 208.752C124.498 210.334 122.186 215.81 124.498 219.279L123.281 220.131Z" fill="#071D61"/>
<path d="M130.096 204.676C129.122 204.432 129.487 202.972 130.461 203.215C133.26 203.885 135.937 205.102 138.31 206.684C138.675 206.927 138.736 207.353 138.493 207.718C137.58 209.057 136.485 206.197 130.096 204.676Z" fill="#071D61"/>
<path d="M146.281 206.927C145.855 206.866 145.612 206.44 145.733 206.014C146.159 203.945 147.133 201.998 148.593 200.416C149.263 199.686 150.358 200.66 149.689 201.39C146.646 204.797 147.741 207.231 146.281 206.927Z" fill="#071D61"/>
<path d="M151.331 213.985C150.358 213.742 150.723 212.281 151.696 212.525C154.982 213.316 157.842 214.472 160.215 216.054C160.58 216.297 160.641 216.723 160.397 217.088C159.485 218.366 158.755 215.689 151.331 213.985Z" fill="#071D61"/>
<path d="M146.159 231.752C145.003 227.189 144.577 222.443 144.881 217.758C144.942 216.784 146.403 216.906 146.342 217.879C146.038 222.443 146.463 227.006 147.62 231.448C147.863 232.361 146.403 232.726 146.159 231.752Z" fill="#071D61"/>
<path d="M152.609 231.022C155.591 229.136 158.876 227.006 160.032 223.538C160.154 223.173 160.58 222.93 160.945 223.051C161.31 223.173 161.554 223.599 161.432 223.964C160.823 225.668 159.728 227.311 158.025 228.832C156.625 230.11 154.982 231.144 153.4 232.178C152.609 232.787 151.818 231.57 152.609 231.022Z" fill="#071D61"/>
<path d="M143.421 239.419C141.474 240.697 139.588 241.549 137.032 241.792C136.728 241.731 136.12 241.61 135.146 241.305C137.945 241.427 140.866 240.636 143.117 238.993C143.421 238.811 143.725 239.237 143.421 239.419Z" fill="#071D61"/>
<path d="M154.8 237.776C154.556 237.959 154.313 238.141 154.009 238.324C153.035 238.324 152.061 238.202 151.088 237.898C150.723 237.776 150.905 237.29 151.27 237.35C152.427 237.776 153.643 237.898 154.8 237.776Z" fill="#071D61"/>
<path d="M121.456 224.633C121.577 224.755 121.577 224.877 121.516 224.998C121.456 225.12 121.273 225.12 121.151 225.059C120.543 224.573 119.934 224.025 119.448 223.477C119.387 223.112 119.326 222.808 119.326 222.443C119.934 223.234 120.665 223.964 121.456 224.633Z" fill="#071D61"/>
<path d="M161.189 209.787C161.493 210.76 161.675 211.795 161.736 212.829C161.797 213.194 161.249 213.194 161.189 212.89C161.067 210.821 160.458 208.752 159.424 206.866C160.641 208.631 161.067 209.482 161.189 209.787Z" fill="#071D61"/>
<path d="M141.657 197.739C141.596 197.739 141.535 197.8 141.535 197.8C138.249 197.8 134.903 198.895 132.53 200.72C132.225 200.964 131.921 200.538 132.225 200.294C133.26 199.442 133.99 199.138 134.72 198.773C136.971 198.043 139.344 197.739 141.657 197.739Z" fill="#071D61"/>
<path d="M126.08 231.266C125.897 232.969 126.019 234.673 126.384 236.377C126.141 236.194 125.958 235.951 125.715 235.768C125.472 234.308 125.411 232.787 125.593 231.266C125.593 231.144 125.715 231.022 125.897 231.022C126.019 231.022 126.08 231.144 126.08 231.266Z" fill="#071D61"/>
<path d="M127.601 193.541C125.411 193.541 123.646 195.366 123.646 197.557C123.646 195.366 121.881 193.602 119.691 193.602C121.881 193.602 123.646 191.837 123.646 189.646C123.585 191.776 125.411 193.541 127.601 193.541Z" fill="white"/>
<path d="M158.633 244.835C156.929 244.835 155.591 246.234 155.591 247.938C155.591 246.234 154.252 244.895 152.548 244.895C154.252 244.895 155.591 243.557 155.591 241.853C155.53 243.496 156.929 244.835 158.633 244.835Z" fill="white"/>
<path d="M166.421 202.668C164.718 202.668 163.379 204.067 163.379 205.771C163.379 204.067 162.04 202.728 160.337 202.728C162.04 202.728 163.379 201.39 163.379 199.686C163.379 201.268 164.718 202.668 166.421 202.668Z" fill="white"/>
<path d="M263.776 40.5103L266.697 46.4124L273.208 47.3251L268.462 51.8886L269.618 58.3993L263.776 55.3569L257.996 58.3993L259.091 51.8886L254.345 47.3251L260.856 46.4124L263.776 40.5103Z" fill="#F74F6C"/>
<path d="M77.9499 243.739L81.479 250.858L89.3892 252.014L83.6695 257.612L85.0082 265.401L77.9499 261.75L70.8917 265.401L72.2912 257.612L66.5715 252.014L74.4208 250.858L77.9499 243.739Z" fill="#F99BD3"/>
<path d="M256.84 236.864L260.552 244.287L268.766 245.504L262.803 251.284L264.203 259.438L256.84 255.604L249.478 259.438L250.877 251.284L244.975 245.504L253.189 244.287L256.84 236.864Z" fill="#F9CF6A"/>
<path d="M20.997 64.7881L23.8568 70.6902L30.3674 71.603L25.6822 76.2273L26.7774 82.6771L20.997 79.6348L15.1556 82.6771L16.2509 76.2273L11.5657 71.603L18.0763 70.6902L20.997 64.7881Z" fill="#9CED5A"/>
<path d="M129.183 61.6243C128.453 59.0079 120.604 28.1584 117.44 15.8673C116.649 12.7641 118.231 9.53925 121.151 8.32231C123.463 7.34876 125.532 7.10537 127.297 7.28791C131.069 7.65299 133.868 11.3038 133.503 15.0763L129.183 61.6243Z" fill="#F9CF6A"/>
<path d="M152.061 0.594563C157.173 -0.804918 163.927 0.107787 170.62 5.03639C174.575 7.95705 174.088 8.80891 171.654 12.5206C168.551 17.2666 152.792 41.3012 150.479 44.7695C147.072 50.0023 143.665 55.2352 140.196 60.4072C140.44 58.7643 149.384 7.77451 149.445 7.47027C149.871 5.15809 149.567 1.26388 152.061 0.594563Z" fill="#F6BB35"/>
<path d="M161.493 48.177C165.874 42.0315 178.469 24.4467 182.85 18.2403C184.128 16.4757 184.919 14.4678 187.353 15.198C192.951 16.8408 197.271 21.2826 200.678 25.9679C202.869 28.9494 202.99 29.7404 199.705 32.296C197.697 33.8171 195.324 34.8515 193.255 36.1902C184.25 42.0315 175.244 47.8119 166.239 53.6532C161.006 57.0607 155.773 60.4073 150.54 63.8147C149.993 64.1798 150.723 63.2671 161.493 48.177Z" fill="#F9CF6A"/>
</svg>
