<svg width="221" height="255" viewBox="0 0 221 255" fill="none" xmlns="http://www.w3.org/2000/svg">
<path d="M121.553 219.469C122.258 213.444 122.15 208.288 122.801 202.264C91.4852 200.527 61.3636 200.907 28.3111 201.45C22.8838 208.777 20.5501 210.893 15.3398 217.678C35.8551 218.709 85.8408 219.74 121.553 219.469Z" fill="#6E9DFF"/>
<path d="M31.2964 211.599C45.9502 214.964 60.9839 216.755 76.0176 216.918C85.6782 217.026 97.1842 217.135 109.233 214.747C111.132 214.367 113.249 213.499 114.932 212.63C120.413 209.754 109.83 207.094 106.845 206.714C103.588 206.334 102.123 205.575 98.9209 206.28C74.1723 211.49 51.486 204.706 41.1741 206.226C37.8092 206.66 34.2271 209.754 31.2964 211.599Z" fill="black"/>
<path d="M104.348 125.467C100.549 140.067 96.6957 154.883 97.0756 169.971C97.4555 184.354 101.797 199.17 112.001 208.777C112.869 209.591 107.062 211.653 106.248 211.816C87.3607 215.724 69.559 216.104 52.083 214.53C49.098 214.258 30.0481 213.499 29.9395 210.134C29.8853 208.288 35.5839 203.947 36.8865 202.481C39.3288 199.767 41.554 196.837 43.3993 193.689C47.0356 187.447 49.6407 180.555 50.9976 173.391C52.8971 163.296 54.851 153.798 54.6339 143.432C54.0911 119.009 45.2989 86.9876 25.0549 55.1292C24.7293 54.5865 25.3806 53.9895 25.869 54.3694C29.6139 57.3544 32.816 60.6108 36.5609 63.7044C42.5852 68.7518 49.6407 72.9308 56.045 77.4898C65.7599 84.3825 75.5291 91.2752 85.244 98.1679C87.035 99.4162 91.8654 104.301 94.0363 104.464C94.1448 104.464 94.1991 104.518 94.2534 104.572C100.223 108.86 106.248 118.249 104.348 125.467Z" fill="#FCE39E"/>
<path d="M134.524 240.038C131.376 227.664 127.034 214.421 122.747 202.373C122.475 207.42 121.01 212.359 120.684 217.406C120.521 217.406 121.01 217.352 120.63 217.352C123.289 229.238 126.057 242.535 128.879 254.746H129.097C130.779 249.699 132.896 245.031 134.524 240.038Z" fill="#2169F9"/>
<path d="M15.3401 217.623C12.355 230.106 8.23024 242.209 5.35376 254.692H128.88C126.058 242.481 123.344 229.238 120.684 217.352C86.2209 217.244 49.7493 219.414 15.3401 217.623Z" fill="#4883FC"/>
<path d="M74.9864 184.191C57.8361 184.191 44.8647 176.918 44.8647 167.203C44.8647 157.488 57.7818 150.216 74.9864 150.216C92.1368 150.216 105.108 157.488 105.108 167.203C105.108 176.918 92.1368 184.191 74.9864 184.191Z" fill="#F6BB35"/>
<path d="M74.9862 180.066C89.3739 180.066 101.037 174.308 101.037 167.204C101.037 160.1 89.3739 154.341 74.9862 154.341C60.5986 154.341 48.9351 160.1 48.9351 167.204C48.9351 174.308 60.5986 180.066 74.9862 180.066Z" fill="#F9CF6A"/>
<path d="M106.899 133.554C103.86 136.159 101.2 139.307 99.4636 142.075C98.8666 142.998 97.564 143.378 96.4243 142.943L94.1448 142.021C93.1136 141.587 92.5166 140.61 92.8423 139.687C93.9277 136.322 94.1991 132.197 93.2222 128.29L106.899 133.554Z" fill="#19223C"/>
<path d="M23.4268 64.3014C20.6046 66.0924 17.7281 67.7749 14.7974 69.4573C13.4405 70.2172 7.95892 74.2877 6.76491 73.0936C4.70253 70.977 2.80299 68.8603 0.68633 66.7437C0.0893239 66.0381 0.197864 66.5266 2.74871 54.2608C2.91153 53.4467 3.67135 53.0125 4.26835 53.2839C8.55594 55.2377 12.4094 57.7343 16.6969 59.7424C19.085 60.8279 21.4187 62.5646 23.4268 64.3014Z" fill="#19223C"/>
<path d="M60.061 87.0419C57.7272 90.0812 54.6337 94.2602 52.5713 97.6252C52.2456 98.1136 51.7572 98.2765 51.4316 98.0051C49.4235 96.4854 47.3068 95.1829 45.4615 93.229C44.9188 92.632 45.0816 92.632 47.9581 80.312C48.1209 79.6064 48.7179 79.118 49.2063 79.3894C52.8969 81.1261 56.2619 83.4598 59.8982 85.2509C60.4952 85.5222 60.5495 86.4449 60.061 87.0419Z" fill="#19223C"/>
<path d="M82.259 113.202C78.6227 115.807 75.312 119.117 72.8154 122.319C72.0013 123.351 70.5903 123.568 69.5048 122.862L67.3339 121.343C66.3569 120.691 65.977 119.389 66.4655 118.358C67.3338 116.404 67.4967 115.752 67.6052 115.481C68.7992 112.008 72.1642 105.169 72.0556 101.479L82.259 113.202Z" fill="#19223C"/>
<path d="M133.547 146.417C131.105 148.642 129.151 151.301 127.794 153.906C127.36 154.72 126.22 155.046 125.189 154.558L123.072 153.635C122.095 153.201 121.498 152.332 121.661 151.464C122.258 148.533 122.204 144.897 120.901 141.152L133.547 146.417Z" fill="#19223C"/>
<path d="M142.502 143.486C141.254 149.402 136.098 151.573 130.074 150.161C126.546 149.402 106.193 141.803 94.4161 135.616C94.4161 135.616 94.3618 135.562 94.3076 135.562C89.2602 132.903 78.2427 126.39 74.1179 121.722C73.3581 120.854 72.6525 119.877 72.0555 118.9C70.8615 116.838 69.7217 114.721 68.6363 112.604C65.2713 106.254 62.9376 102.075 55.5022 93.9886C52.68 90.8408 49.6406 87.8558 46.3842 85.1964C46.1672 84.9793 45.8958 84.7622 45.6787 84.5994C30.3194 72.1165 25.5433 78.7921 11.5951 67.9917C9.15279 66.0922 6.81904 63.9755 4.81093 61.5332C0.577615 56.5944 -1.97322 53.0123 1.93445 44.6C6.76477 34.1252 30.4279 4.38348 34.7698 1.45272C36.7236 0.258707 38.5146 0.204433 40.1428 1.83263C40.1428 1.83263 40.1428 1.83263 40.1971 1.83263C43.6163 5.57749 41.4454 10.6792 44.0505 16.7035C45.2988 20.6112 49.6949 26.0385 55.0137 28.3723C57.0761 29.4577 61.0923 30.3804 64.1859 29.9462C64.2402 29.9462 64.2402 29.9462 64.2402 29.9462C70.4273 29.4035 78.1341 25.6043 83.9957 28.5894C84.6469 28.8607 85.4067 29.4577 85.6781 29.7291C85.6781 29.7291 85.6781 29.7834 85.7324 29.7834C86.3836 30.2176 87.4691 31.6287 87.849 32.2799C93.7648 41.6692 92.408 75.8071 116.777 106.037C124.538 115.589 128.988 119.334 133.059 123.513C136.098 126.661 139.246 130.297 141.145 134.205C142.611 137.082 143.099 140.501 142.502 143.486Z" fill="#F9CF6A"/>
<path d="M93.5476 75.5359C80.6305 68.4804 59.8439 71.574 47.4153 80.4748C50.346 83.4598 53.9823 85.4137 55.3392 89.5927C65.8682 79.0094 83.3985 73.0936 96.424 78.6838L93.5476 75.5359Z" fill="#19223C"/>
<path d="M99.572 88.7242C88.0661 82.4827 73.3038 83.5682 62.3406 91.5464C64.9457 94.2058 65.9226 97.0823 67.1166 100.719C76.4516 91.3293 90.1285 86.0105 101.689 90.9494L99.572 88.7242Z" fill="#19223C"/>
<path d="M107.224 99.4704C95.3386 94.0973 80.6848 96.214 70.1558 104.952C72.9237 107.394 74.0634 110.162 75.4745 113.744C84.2668 103.758 97.2924 97.408 109.124 101.479L107.224 99.4704Z" fill="#19223C"/>
<path d="M116.831 106.037C114.009 107.34 110.047 106.906 106.248 103.378C100.115 97.7337 93.2764 83.6226 90.0743 76.947C89.4773 75.753 88.9345 74.6133 88.3918 73.4192C86.3294 69.0774 84.3213 64.6813 82.0961 60.4479C79.8709 56.2146 77.3201 51.8728 73.1953 49.8647C67.3338 47.0424 60.4411 49.9189 53.9825 50.0817C44.4847 50.2988 35.7467 44.3288 30.2108 36.2421C26.0861 30.272 23.6438 23.325 21.8528 16.1609C26.3575 10.6793 32.7074 2.97254 34.8784 1.50716C36.8322 0.31315 38.6232 0.258877 40.2514 1.88707C40.2514 1.88707 40.2514 1.88707 40.3057 1.88707C43.7249 5.63193 41.554 10.7336 44.1591 16.758C45.4074 20.6656 49.8035 26.093 55.1223 28.4267C57.1847 29.5122 61.2009 30.4348 64.2945 30.0006C64.3487 30.0006 64.3487 30.0006 64.3487 30.0006C70.5359 29.4579 78.2427 25.6588 84.1042 28.6438C84.7555 28.9152 85.5153 29.5122 85.7867 29.7835C85.7867 29.7835 85.7867 29.8378 85.841 29.8378C86.4922 30.272 87.5777 31.6831 87.9576 32.3344C92.7879 40.0412 92.4623 63.6501 106.519 90.5153C109.45 96.214 112.978 101.261 116.831 106.037Z" fill="#F6BB35"/>
<path d="M135.935 150.325C132.082 151.139 128.228 149.782 124.592 148.425C111.512 143.54 98.3237 138.547 86.6006 131.112C81.6618 128.018 75.149 124.219 72.1097 118.9C68.8533 113.31 66.2481 107.232 62.3405 102.076C57.4559 95.7256 51.92 89.5927 45.7871 84.5453C39.6542 79.5522 34.9868 77.1642 27.5513 75.4817C18.8676 73.5278 10.8894 68.5347 4.91935 61.5335C2.5856 58.7655 0.143311 56.0519 0.143311 52.1442C0.143311 47.748 2.47705 43.4062 4.64799 39.8784C4.97363 39.987 4.91934 39.987 5.24498 40.0955C4.48515 53.3925 13.3317 65.7668 26.1402 67.8292C29.2338 68.3176 32.4902 68.1548 35.4752 69.0774C38.5688 70.0544 41.2282 72.0625 43.8876 74.0163C63.4259 88.7786 67.4422 91.2752 70.8614 96.1598C72.8695 99.0363 74.172 102.618 74.172 106.2C74.172 108.697 75.4746 110.922 77.4827 112.17C98.0523 125.033 119.924 135.562 142.665 143.486C141.851 146.742 139.788 149.456 135.935 150.325Z" fill="#F6BB35"/>
<path d="M43.7249 5.41493C45.516 8.29141 46.4386 11.7649 48.0668 14.8585C51.2147 20.9371 57.1304 25.1704 63.5889 25.9845C67.9851 26.5272 72.4898 25.5503 76.8859 25.9302C80.1966 26.2016 83.7243 27.4499 85.9495 29.9464C86.4923 30.5435 85.841 31.5204 85.1354 31.1947C81.8248 29.5665 77.8628 29.4037 74.3893 30.8691C71.5129 32.0631 69.0163 34.2883 66.1398 35.5366C57.1847 39.39 44.9189 33.7456 40.7942 16.4324C39.7087 11.982 39.0574 7.64013 37.4292 3.40682C35.2583 -2.2376 42.4224 3.29827 43.7249 5.41493Z" fill="#19223C"/>
<path d="M87.9033 32.2801C81.4991 29.2408 76.6145 33.5827 70.4274 35.9164C55.665 41.6151 40.1429 31.6288 37.9177 15.184C37.592 12.4161 37.592 9.70242 36.8865 6.88021C36.398 5.03492 34.9869 3.73236 33.8472 2.10416C35.0955 1.07297 36.4523 0.367416 37.9719 0.584509C39.98 0.910148 41.4997 3.13535 41.9339 4.8721C42.5309 6.88021 42.4766 9.10541 42.748 11.2221C43.6164 19.2002 49.4779 26.31 56.0449 28.6981C63.6432 31.6831 68.962 28.5352 75.9632 27.6126C82.2589 26.7442 85.7324 28.8609 87.9033 32.2801Z" fill="#FCE39E"/>
<path d="M133.113 123.514C128.337 124.273 122.041 121.343 118.133 118.738C110.101 113.419 102.828 101.533 103.208 88.6702C103.263 87.5847 103.643 86.2821 103.805 85.0881C107.17 92.4693 110.807 98.6022 116.777 106.038C124.592 115.59 129.042 119.335 133.113 123.514Z" fill="#19223C"/>
<path d="M181.036 67.5576C181.036 67.5576 181.091 67.5576 181.036 67.6119C181.145 67.8832 184.076 73.3648 184.673 81.3973C187.169 114.667 149.883 135.671 122.91 116.892C111.024 108.751 104.728 94.6942 105.922 81.1802C107.387 63.27 121.064 47.6393 140.548 45.197H140.603C145.107 44.6543 149.449 44.9799 153.14 45.7397C173.601 49.7017 180.819 67.2862 181.036 67.5576Z" fill="#FCE39E"/>
<path d="M152.054 84.7078C152.651 84.6536 153.466 83.7309 153.954 83.4053C156.125 82.0484 158.35 80.8544 160.521 79.5519C162.041 78.6835 165.948 77.3267 165.623 75.2643C165.46 74.2874 164.7 72.9848 164.374 72.0079C163.072 68.2088 161.444 64.4096 159.653 60.9361C159.436 60.502 159.001 60.2306 158.567 60.2306C153.466 59.9049 148.364 59.9592 143.316 60.6648C142.828 60.719 142.394 61.099 142.231 61.5874C138.649 73.5275 136.749 74.1245 138.106 75.3186C141.525 78.2493 145.379 80.5831 149.124 83.0254C149.829 83.4595 151.186 84.7621 152.054 84.7078Z" fill="#F6BB35"/>
<path d="M184.672 81.4514C185.378 91.2748 182.013 98.8731 182.121 98.6017C181.687 99.4158 181.253 100.23 180.765 100.99C177.725 98.6017 176.314 98.9816 176.423 98.3304C177.345 93.3372 177.508 88.2898 176.911 83.2424C176.911 83.0796 176.966 82.971 177.074 82.9167C179.299 81.8313 181.09 79.8775 182.284 77.7065C182.447 77.4894 182.773 77.4894 182.881 77.7065C183.533 78.9005 184.13 80.0403 184.618 81.2886C184.672 81.3971 184.672 81.4514 184.672 81.4514Z" fill="#F6BB35"/>
<path d="M163.343 108.317C159.002 106.743 154.66 104.68 150.861 102.13C146.139 104.463 141.363 107.014 136.587 109.348C137.726 112.604 139.083 115.806 140.711 118.846C146.193 119.714 151.729 119.768 157.102 118.52C160.087 115.644 162.041 112.224 163.343 108.317Z" fill="#F6BB35"/>
<path d="M115.691 75.6444C122.475 83.0799 123.669 82.7542 123.398 84.0025C120.684 96.2683 123.181 99.0362 121.01 99.3076C115.42 99.9588 113.9 100.447 113.412 99.3076C111.838 95.8883 107.496 87.2046 107.984 85.9021C109.395 82.0487 111.404 78.6295 114.063 75.5901C114.497 75.156 115.257 75.156 115.691 75.6444Z" fill="#F6BB35"/>
<path d="M136.912 47.3679C135.013 48.9961 133.547 51.0585 132.462 53.338C126.926 54.532 122.041 57.1914 118.025 61.1533C117.645 59.905 117.048 58.6568 116.397 57.517C121.824 51.6555 128.826 47.7478 135.718 46.1196C136.044 46.5538 136.424 46.988 136.912 47.3679Z" fill="#F6BB35"/>
<path d="M177.834 62.0216C173.764 59.1452 170.833 55.4003 164.483 54.0435C162.149 50.8413 159.056 48.2362 155.582 46.3367C157.536 46.5538 157.427 46.7709 159.218 47.4221C167.468 50.5157 173.112 55.5631 177.834 62.0216Z" fill="#F6BB35"/>
<path d="M140.386 111.953H140.332C132.896 109.728 126.112 105.169 121.282 99.0904C120.793 98.4392 121.716 97.6793 122.259 98.3306C126.98 104.192 133.547 108.588 140.711 110.759C141.037 110.868 141.2 111.193 141.146 111.519C140.983 111.79 140.657 112.007 140.386 111.953Z" fill="#F6BB35"/>
<path d="M121.553 84.3282C127.686 78.7381 134.47 75.0475 141.254 73.745C142.068 73.5821 142.285 74.7761 141.471 74.939C133.221 76.5672 126.546 81.3975 122.367 85.1966C121.77 85.7936 120.956 84.9252 121.553 84.3282Z" fill="#F6BB35"/>
<path d="M114.226 78.2496C110.969 70.597 116.722 61.6962 119.328 58.2227C119.816 57.5714 120.793 58.3313 120.304 58.9825C118.351 61.5877 112.272 70.5427 115.366 77.7611L114.823 78.0867L114.226 78.2496Z" fill="#F6BB35"/>
<path d="M142.828 61.5876C139.463 58.1141 135.392 55.2919 130.996 53.2838C130.236 52.9582 130.779 51.8184 131.485 52.1441C135.989 54.1522 140.223 57.1372 143.696 60.7193C143.913 60.9906 143.913 61.3705 143.696 61.5876C143.479 61.8047 143.099 61.8047 142.828 61.5876Z" fill="#F6BB35"/>
<path d="M158.024 61.7503C159.436 58.3854 161.715 55.4003 164.646 53.1751C165.297 52.6867 166.057 53.6636 165.406 54.152C162.692 56.2687 160.521 59.0909 159.164 62.2388C158.839 62.9986 157.699 62.5101 158.024 61.7503Z" fill="#F6BB35"/>
<path d="M164.863 76.5671C164.537 76.4043 164.429 76.0787 164.537 75.753C164.7 75.4274 165.026 75.2646 165.351 75.4274C170.724 77.8154 175.229 80.8005 178.757 84.3282C178.974 84.5453 178.974 84.9795 178.757 85.1966C177.563 86.3906 176.64 81.7774 164.863 76.5671Z" fill="#F6BB35"/>
<path d="M150.317 106.418C149.829 98.1138 150.643 89.8642 152.705 81.7775C152.923 80.9634 154.117 81.3433 153.899 82.1032C151.837 90.0271 151.023 98.1681 151.511 106.363C151.511 106.689 151.294 107.015 150.914 107.015C150.589 107.015 150.317 106.743 150.317 106.418Z" fill="#F6BB35"/>
<path d="M161.335 107.991C164.374 106.797 167.468 105.549 170.29 103.812C177.291 99.5247 176.64 96.1598 177.997 96.9196C178.268 97.0825 178.377 97.4624 178.214 97.788C176.694 100.502 174.252 102.89 170.941 104.898C168.065 106.689 164.863 107.937 161.823 109.131C161.063 109.402 160.575 108.263 161.335 107.991Z" fill="#F6BB35"/>
<path d="M142.556 118.249C142.665 118.52 142.556 118.792 142.285 118.9C138.486 120.474 134.958 121.342 130.399 120.908C129.965 120.745 128.879 120.311 127.197 119.443C132.027 120.637 137.346 120.148 141.851 118.032C142.122 117.978 142.448 118.032 142.556 118.249Z" fill="#F6BB35"/>
<path d="M162.638 119.823C162.149 120.094 161.606 120.311 161.064 120.528C159.327 120.203 157.699 119.66 156.125 118.846C155.528 118.52 156.016 117.706 156.559 117.978C158.459 118.954 160.521 119.606 162.638 119.823Z" fill="#F6BB35"/>
<path d="M108.962 86.3907C108.799 86.5535 108.473 86.5535 108.256 86.3364C107.333 85.3052 106.465 84.1655 105.814 82.9714C105.814 82.3744 105.868 81.7774 105.922 81.1804C107.822 85.1424 109.667 85.7394 108.962 86.3907Z" fill="#F6BB35"/>
<path d="M183.153 73.2564C183.316 75.1017 183.261 76.947 183.044 78.7923C182.99 79.3893 182.013 79.2807 182.122 78.6837C182.556 74.9931 182.23 71.194 181.036 67.6663C182.719 71.194 182.99 72.7679 183.153 73.2564Z" fill="#F6BB35"/>
<path d="M153.14 45.6855C153.031 45.7398 152.977 45.7398 152.868 45.7398C147.17 44.6001 140.928 45.4142 136.207 47.8565C135.664 48.1278 135.23 47.368 135.772 46.9881C137.238 46.2283 138.866 45.6313 140.548 45.1971H140.603C144.836 44.6543 149.069 44.8714 153.14 45.6855Z" fill="#F6BB35"/>
<path d="M114.769 98.8734C113.9 101.75 113.521 104.789 113.575 107.828C113.249 107.394 112.924 106.96 112.598 106.472C112.652 103.812 113.086 101.153 113.846 98.5477C113.9 98.2763 114.172 98.1678 114.443 98.2221C114.715 98.3849 114.877 98.6563 114.769 98.8734Z" fill="#F6BB35"/>
<path d="M82.0963 173.77L75.5835 172.088L70.4818 176.484L70.0477 169.754L64.2947 166.281L70.5904 163.784L72.11 157.217L76.3976 162.427L83.0732 161.885L79.4369 167.529L82.0963 173.77Z" fill="white"/>
<path d="M96.8585 167.42C96.8585 169.211 95.3931 170.677 93.6021 170.677C91.8111 170.677 90.3457 169.211 90.3457 167.42C90.3457 165.629 91.8111 164.164 93.6021 164.164C95.3388 164.164 96.8585 165.629 96.8585 167.42Z" fill="white"/>
<path d="M58.1073 167.42C58.1073 169.211 56.6419 170.677 54.8509 170.677C53.0599 170.677 51.5945 169.211 51.5945 167.42C51.5945 165.629 53.0599 164.164 54.8509 164.164C56.6419 164.164 58.1073 165.629 58.1073 167.42Z" fill="white"/>
<path d="M169.367 68.9689C163.506 68.9689 158.73 73.6906 158.73 79.6064C158.73 73.7449 153.954 68.9689 148.092 68.9689C153.954 68.9689 158.73 64.2471 158.73 58.3313C158.73 64.1928 163.506 68.9689 169.367 68.9689Z" fill="white"/>
<path d="M153.52 82.9715C150.643 82.9715 148.31 85.2509 148.31 88.1817C148.31 85.3052 145.976 82.9715 143.099 82.9715C144.565 82.9715 145.813 82.3745 146.79 81.4518C147.713 80.5292 148.31 79.2266 148.31 77.7612C148.31 80.692 150.643 82.9715 153.52 82.9715Z" fill="white"/>
<path d="M94.2532 198.465C92.8421 198.465 91.5396 199.062 90.5627 199.984C89.64 200.907 89.043 202.209 89.043 203.675C89.043 200.798 86.7092 198.465 83.8328 198.465C85.2981 198.465 86.5465 197.868 87.5234 196.945C88.446 196.022 89.043 194.72 89.043 193.254C89.043 196.131 91.3768 198.465 94.2532 198.465Z" fill="white"/>
<path d="M29.5052 49.0506C26.6287 49.0506 24.295 51.33 24.295 54.2608C24.295 51.3843 21.9612 49.0506 19.0847 49.0506C21.9612 49.0506 24.295 46.7168 24.295 43.8403C24.295 46.7168 26.6287 49.0506 29.5052 49.0506Z" fill="white"/>
<path d="M174.523 45.9567L197.047 11.1133L212.298 23.379L174.523 45.9567Z" fill="#E9F1FF"/>
<path d="M183.587 51.9271L217.888 42.2122L220.764 58.7655L183.587 51.9271Z" fill="#E9F1FF"/>
<path d="M169.313 41.2895L161.824 6.44605L178.54 4.65503L169.313 41.2895Z" fill="#E9F1FF"/>
<path d="M19.5732 143.54C16.6967 141.587 13.4946 139.361 11.2151 136.213C4.7023 127.258 10.998 121.94 15.6655 117.652C25.3804 108.751 23.2638 97.9508 16.5882 94.9115C15.9369 94.5859 15.6112 93.8261 15.9369 93.1748C16.2625 92.5235 17.0224 92.1979 17.6736 92.5235C26.1403 96.3769 28.5283 109.402 17.4023 119.606C14.0373 122.699 7.57878 126.716 13.2775 134.64C15.2856 137.353 18.1621 139.361 20.9843 141.315C21.5813 141.749 21.7441 142.563 21.3099 143.16C20.9843 143.812 20.1159 143.975 19.5732 143.54Z" fill="#F25ABC"/>
<path d="M166.003 180.175C165.297 180.066 164.754 179.415 164.863 178.655C165.786 172.522 166.762 165.847 169.15 159.66C163.94 154.992 162.312 146.417 167.359 137.625C169.965 133.12 173.818 129.484 176.912 126.879C177.454 126.39 178.323 126.444 178.757 127.041C179.245 127.584 179.191 128.452 178.594 128.887C175.663 131.383 172.027 134.802 169.585 138.981C166.165 144.897 165.568 152.116 170.182 157.054C171.701 153.69 174.198 149.402 177.454 147.665C182.936 144.68 188.363 148.913 187.115 154.938C185.921 160.962 178.106 165.195 171.267 161.342C169.15 167.149 168.228 173.391 167.359 179.144C167.414 179.795 166.708 180.283 166.003 180.175ZM172.407 158.791C177.671 162.102 183.804 158.845 184.673 154.395C184.944 152.93 184.618 150.867 183.207 149.89C181.905 149.022 180.059 149.293 178.811 149.945C176.097 151.41 173.655 155.86 172.407 158.791Z" fill="#ED3151"/>
<path d="M107.062 40.2041C105.434 38.3588 103.751 36.4592 102.666 34.0712C101.363 31.249 101.255 28.3182 102.34 26.0388C103.805 22.8909 107.333 21.2084 108.147 18.6033C108.69 16.9208 107.984 14.7499 106.356 13.0674C104.728 11.4392 102.503 10.4081 100.386 9.37686C99.7349 9.05122 99.4093 8.29139 99.7349 7.64011C100.061 6.98883 100.82 6.66319 101.472 6.98883C103.697 8.02003 106.248 9.21404 108.202 11.2221C110.047 13.0674 111.621 16.2153 110.644 19.4174C109.558 22.9994 105.976 24.5191 104.728 27.1785C103.968 28.8067 104.077 30.9233 105.054 32.9857C105.976 34.9938 107.55 36.7306 109.016 38.4673C109.504 39.0101 109.45 39.8784 108.907 40.3126C108.364 40.8011 107.55 40.7468 107.062 40.2041Z" fill="#9CED5A"/>
<path d="M121.824 193.092C120.901 188.696 123.941 184.462 122.801 181.043C122.367 179.795 120.956 178.601 119.762 179.035C118.079 179.578 117.211 177.136 118.839 176.538C121.498 175.562 124.429 177.57 125.297 180.229C126.817 184.734 123.615 188.859 124.429 192.549C124.7 193.906 125.949 195.371 127.251 195.208C127.957 195.154 128.662 195.643 128.717 196.348C128.825 197.054 128.282 197.759 127.577 197.814C124.7 198.139 122.367 195.697 121.824 193.092Z" fill="#6E9DFF"/>
<path d="M214.36 92.9576C200.683 78.7381 220.818 79.0637 207.359 70.0543C206.762 69.6744 206.599 68.806 206.979 68.209C207.413 67.612 208.227 67.4492 208.824 67.8291C210.344 68.806 211.863 69.8915 213.057 71.3569C214.523 73.1479 215.174 75.3188 214.74 77.2727C214.251 79.6064 212.84 80.6376 212.243 82.3744C211.266 85.3594 213.871 88.6158 216.26 91.1124C216.748 91.6551 216.748 92.4692 216.205 93.0119C215.717 93.5004 214.848 93.5004 214.36 92.9576Z" fill="#F57AC8"/>
</svg>
