<svg width="25" height="25" viewBox="0 0 25 25" fill="none" xmlns="http://www.w3.org/2000/svg">
<g clip-path="url(#clip0_7_1677)">
<path d="M18.5252 2.38184C18.0696 2.3824 17.6598 2.65881 17.4886 3.08097C17.3174 3.50312 17.4189 3.98692 17.7453 4.30465L18.3578 4.91715C11.8041 5.01395 6.49721 10.3765 6.49721 16.9528C6.4915 17.3567 6.70371 17.7324 7.05259 17.936C7.40147 18.1396 7.83296 18.1396 8.18183 17.936C8.53071 17.7324 8.74292 17.3567 8.73721 16.9528C8.73721 11.5922 13.0086 7.26629 18.3436 7.16262L17.7453 7.7609C17.4527 8.04181 17.3349 8.45896 17.4372 8.85145C17.5395 9.24395 17.846 9.55046 18.2385 9.65278C18.631 9.7551 19.0482 9.63724 19.3291 9.34465L21.7496 6.92418C22.0291 6.71179 22.193 6.3806 22.1921 6.0295C22.1912 5.67839 22.0258 5.34801 21.7452 5.13699L19.3291 2.7209C19.118 2.50387 18.828 2.38156 18.5252 2.38184ZM5.65721 2.39277C3.66017 2.39277 2.01721 4.03573 2.01721 6.03277V18.9128C2.01721 20.9098 3.66017 22.5528 5.65721 22.5528H18.5372C20.5343 22.5528 22.1772 20.9098 22.1772 18.9128V14.7128C22.1829 14.3089 21.9707 13.9332 21.6218 13.7295C21.273 13.5259 20.8415 13.5259 20.4926 13.7295C20.1437 13.9332 19.9315 14.3089 19.9372 14.7128V18.9128C19.9372 19.6989 19.3234 20.3128 18.5372 20.3128H5.65721C4.87106 20.3128 4.25721 19.6989 4.25721 18.9128V6.03277C4.25721 5.24662 4.87106 4.63277 5.65721 4.63277H9.85721C10.2611 4.63849 10.6368 4.42627 10.8404 4.0774C11.0441 3.72852 11.0441 3.29703 10.8404 2.94815C10.6368 2.59927 10.2611 2.38706 9.85721 2.39277H5.65721Z" fill="white"/>
</g>
<defs>
<clipPath id="clip0_7_1677">
<rect width="24" height="24" fill="white" transform="translate(0.102783 0.467285)"/>
</clipPath>
</defs>
</svg>
