<svg width="25" height="25" viewBox="0 0 25 25" fill="none" xmlns="http://www.w3.org/2000/svg">
<g clip-path="url(#clip0_7_1687)">
<path d="M4.78778 2.18628C3.51247 2.18628 2.47778 3.22097 2.47778 4.49628V18.3563C2.47778 19.6316 3.51247 20.6663 4.78778 20.6663H11.7178V19.1263H4.78778C4.36669 19.1263 4.01778 18.7774 4.01778 18.3563V4.49628C4.01778 4.07519 4.36669 3.72628 4.78778 3.72628H15.5678C15.9889 3.72628 16.3378 4.07519 16.3378 4.49628V12.9663H17.8778V4.49628C17.8778 3.22097 16.8431 2.18628 15.5678 2.18628H4.78778ZM8.63778 5.26628C7.78958 5.26628 7.09778 5.95808 7.09778 6.80628C7.09778 7.65448 7.78958 8.34628 8.63778 8.34628C9.48599 8.34628 10.1778 7.65448 10.1778 6.80628C10.1778 5.95808 9.48599 5.26628 8.63778 5.26628ZM8.63778 8.34628C6.94138 8.34628 5.55778 9.72987 5.55778 11.4263H11.7178C11.7178 9.72987 10.3342 8.34628 8.63778 8.34628ZM13.2578 6.80628V8.34628H14.7978V6.80628H13.2578ZM13.2578 9.88628V11.4263H14.7978V9.88628H13.2578ZM5.55778 12.9663V14.5063H14.7978V12.9663H5.55778ZM17.8778 14.5063V17.5863H13.2578V19.1263H17.8778V22.2063L21.7278 18.3563L17.8778 14.5063ZM5.55778 16.0463V17.5863H11.7178V16.0463H5.55778Z" fill="white"/>
</g>
<defs>
<clipPath id="clip0_7_1687">
<rect width="24" height="24" fill="white" transform="translate(0.102783 0.196289)"/>
</clipPath>
</defs>
</svg>
