<svg width="290" height="89" viewBox="0 0 290 89" fill="none" xmlns="http://www.w3.org/2000/svg">
<path fill-rule="evenodd" clip-rule="evenodd" d="M48.0533 0H241.946L289.827 89H0.172302L48.0533 0Z" fill="#A2E300"/>
<path d="M11.5404 83.1456L52.3569 5.85474H237.628L278.459 83.1456H11.5404Z" stroke="white" stroke-width="2"/>
<path d="M48.2199 14.5637H74.6087L55.5735 71.2001H17.9724" stroke="white" stroke-width="2"/>
<path d="M42.2637 23.4636H54.3815L41.1394 52.5909H26.8724" stroke="white" stroke-width="2"/>
<path d="M242.829 14.5637H215.391L233.672 71.2001H272.027" stroke="white" stroke-width="2"/>
<path d="M247.229 23.4636H234.809L248.031 52.5909H262.318" stroke="white" stroke-width="2"/>
<path d="M70.5721 27.5093C70.5721 27.5093 81.628 32.2495 79.4634 38.4954C77.2987 44.7413 63.2816 48.5456 63.2816 48.5456" stroke="white" stroke-width="2"/>
<path d="M219.244 27.5093C219.244 27.5093 207.707 30.6215 209.727 36.9974C211.748 43.3733 225.909 48.5456 225.909 48.5456" stroke="white" stroke-width="2"/>
<path d="M145 4.85474V84.1456" stroke="white" stroke-width="2"/>
<path d="M167.464 37.2182C167.464 40.5155 165.177 43.6831 161.085 46.0814C157.018 48.4658 151.333 49.9727 145 49.9727C138.667 49.9727 132.982 48.4658 128.914 46.0814C124.823 43.6831 122.536 40.5155 122.536 37.2182C122.536 33.9208 124.823 30.7532 128.914 28.3549C132.982 25.9705 138.667 24.4636 145 24.4636C151.333 24.4636 157.018 25.9705 161.085 28.3549C165.177 30.7532 167.464 33.9208 167.464 37.2182Z" stroke="white" stroke-width="2"/>
</svg>
