<svg width="29" height="29" viewBox="0 0 29 29" fill="none" xmlns="http://www.w3.org/2000/svg">
<g clip-path="url(#clip0_7_1735)">
<path d="M14.4999 25.5322C20.5927 25.5322 25.5319 20.593 25.5319 14.5001C25.5319 8.40725 20.5927 3.46802 14.4999 3.46802C8.40701 3.46802 3.46777 8.40725 3.46777 14.5001C3.46777 20.593 8.40701 25.5322 14.4999 25.5322Z" stroke="white" stroke-width="1.66" stroke-linejoin="round"/>
<path d="M17.1746 17.5089H11.825L10.4882 12.9957L14.4998 10.4884L18.5115 12.9957L17.1746 17.5089ZM11.0729 3.46802L10.4882 5.22312L14.4998 8.23187L18.5115 5.22312L17.9268 3.46802H11.0729Z" fill="white"/>
<path d="M14.4999 6.47681V13.4972" stroke="white" stroke-width="1.66" stroke-linecap="round" stroke-linejoin="round"/>
<path d="M23.6665 7.3855L21.8171 7.45971L20.4241 12.2767L24.6584 14.9635L26.0926 13.7951L23.6665 7.3855Z" fill="white"/>
<path d="M22.0659 11.6548L15.4998 14.141" stroke="white" stroke-width="1.66" stroke-linecap="round" stroke-linejoin="round"/>
<path d="M5.33316 7.3855L7.18254 7.45971L8.57559 12.2767L4.34128 14.9635L2.9071 13.7951L5.33316 7.3855Z" fill="white"/>
<path d="M6.93384 11.6548L13.4999 14.141" stroke="white" stroke-width="1.66" stroke-linecap="round" stroke-linejoin="round"/>
<path d="M24.3765 20.4915L23.6514 18.7896L18.6539 19.1947L17.6429 24.106L19.2436 25.0327L24.3765 20.4915Z" fill="white"/>
<path d="M19.8163 20.5085L15.1648 15.2512" stroke="white" stroke-width="1.66" stroke-linecap="round" stroke-linejoin="round"/>
<path d="M4.62305 20.4915L5.34816 18.7896L10.3457 19.1947L11.3566 24.106L9.75597 25.0327L4.62305 20.4915Z" fill="white"/>
<path d="M9.18335 20.5085L13.8349 15.2512" stroke="white" stroke-width="1.66" stroke-linecap="round" stroke-linejoin="round"/>
</g>
<defs>
<clipPath id="clip0_7_1735">
<rect width="29" height="29" fill="white"/>
</clipPath>
</defs>
</svg>
