<svg width="24" height="24" viewBox="0 0 24 24" fill="none" xmlns="http://www.w3.org/2000/svg">
<g clip-path="url(#clip0_7_1770)">
<path d="M6.43502 1.92993C4.82753 1.92993 3.52002 3.23797 3.52002 4.84493V16.5049C3.52002 18.1119 4.82753 19.4199 6.43502 19.4199H14.915C16.5225 19.4199 17.83 18.1119 17.83 16.5049V4.84493C17.83 3.23797 16.5225 1.92993 14.915 1.92993H6.43502ZM18.89 4.57993V17.0349C18.89 18.9376 17.3477 20.4799 15.445 20.4799H6.17002L6.60064 21.1259C6.99337 21.7158 7.65541 22.0699 8.36455 22.0699H15.445C18.2259 22.0699 20.48 19.8158 20.48 17.0349V6.77446C20.48 6.06585 20.1258 5.40382 19.536 5.01056L18.89 4.57993ZM10.675 5.10993C12.2825 5.10993 13.59 6.41797 13.59 8.02493C13.59 9.70609 12.8023 10.3085 12.2267 10.7484C11.7391 11.121 11.47 11.3258 11.47 12.2649C11.47 12.7038 11.1144 13.0599 10.675 13.0599C10.2356 13.0599 9.88002 12.7038 9.88002 12.2649C9.88002 10.5393 10.6779 9.93023 11.2609 9.4845C11.7374 9.12092 12 8.91957 12 8.02493C12 7.29406 11.4054 6.69993 10.675 6.69993C9.94468 6.69993 9.35002 7.29406 9.35002 8.02493V8.25991C9.35002 8.69875 8.99439 9.05491 8.55502 9.05491C8.11565 9.05491 7.76002 8.69875 7.76002 8.25991V8.02493C7.76002 6.41797 9.06753 5.10993 10.675 5.10993ZM10.675 14.1199C11.2607 14.1199 11.735 14.5943 11.735 15.1799C11.735 15.7656 11.2607 16.2399 10.675 16.2399C10.0894 16.2399 9.61502 15.7656 9.61502 15.1799C9.61502 14.5943 10.0894 14.1199 10.675 14.1199Z" fill="#082250"/>
</g>
<defs>
<clipPath id="clip0_7_1770">
<rect width="24" height="24" fill="white"/>
</clipPath>
</defs>
</svg>
