<svg width="20" height="20" viewBox="0 0 20 20" fill="none" xmlns="http://www.w3.org/2000/svg">
<path d="M10.052 0.0400391C8.15204 0.0400391 8.18447 0.221602 8.18447 0.221602C7.95751 1.31746 7.72083 2.05992 7.56197 2.5041C6.59579 2.82184 5.70419 3.31789 4.94228 3.9566C4.48189 3.86582 3.73943 3.69723 2.71165 3.3341C2.71165 3.3341 2.57224 3.21414 1.59634 4.86441C0.617201 6.51469 0.766342 6.60223 0.766342 6.60223C1.52501 7.31551 2.02107 7.86344 2.32259 8.23629C2.1929 8.80367 2.11509 9.39375 2.11509 10C2.11509 10.5512 2.16372 11.0894 2.27072 11.6082C1.96271 11.9745 1.45693 12.5257 0.688529 13.2163C0.688529 13.2163 0.549115 13.2844 1.49259 14.9541C2.43607 16.6238 2.55603 16.5104 2.55603 16.5104C3.59353 16.1667 4.34896 16.0208 4.81259 15.9397C5.57126 16.6076 6.45638 17.1069 7.43228 17.4441C7.59439 17.8818 7.84728 18.6437 8.08072 19.7785C8.08072 19.7785 8.05154 19.96 9.94822 19.96C11.8449 19.96 11.8417 19.7785 11.8417 19.7785C12.0686 18.6859 12.2761 17.9402 12.4382 17.496C13.4044 17.1782 14.296 16.6822 15.0579 16.0435C15.5183 16.1343 16.2608 16.3029 17.2885 16.666C17.2885 16.666 17.4247 16.7859 18.4038 15.1357C19.3797 13.4854 19.2338 13.3979 19.2338 13.3979C18.4752 12.6846 17.9791 12.1366 17.6776 11.7638C17.8073 11.1932 17.8851 10.6063 17.8851 10C17.8851 9.44887 17.8365 8.91066 17.7295 8.39191C18.0375 8.02555 18.5433 7.47437 19.3117 6.78379C19.3117 6.78379 19.4511 6.7157 18.5076 5.04598C17.5641 3.37625 17.4442 3.48973 17.4442 3.48973C16.4067 3.8334 15.6512 3.9793 15.1876 4.06035C14.4289 3.3957 13.5438 2.89316 12.5679 2.55598C12.409 2.11828 12.1529 1.35637 11.9195 0.221602C11.9195 0.221602 11.9486 0.0400391 10.052 0.0400391ZM10.0001 3.36004C13.667 3.36004 16.6401 6.33312 16.6401 10C16.6401 13.667 13.667 16.64 10.0001 16.64C6.33318 16.64 3.36009 13.667 3.36009 10C3.36009 6.33312 6.33318 3.36004 10.0001 3.36004ZM10.0001 4.19004C6.79033 4.19004 4.19009 6.79027 4.19009 10C4.19009 13.2098 6.79033 15.81 10.0001 15.81C13.2099 15.81 15.8101 13.2098 15.8101 10C15.8101 6.79027 13.2099 4.19004 10.0001 4.19004ZM10.0001 6.68004C11.8352 6.68004 13.3201 8.16496 13.3201 10C13.3201 11.8351 11.8352 13.32 10.0001 13.32C8.16501 13.32 6.68009 11.8351 6.68009 10C6.68009 8.16496 8.16501 6.68004 10.0001 6.68004Z" fill="white"/>
</svg>
