<svg width="24" height="24" viewBox="0 0 24 24" fill="none" xmlns="http://www.w3.org/2000/svg">
<g clip-path="url(#clip0_7_1763)">
<path d="M4 3C2.895 3 2 3.895 2 5V18C2 19.657 3.343 21 5 21H19C20.645 21 22 19.645 22 18V8C22.0037 7.7297 21.8978 7.46941 21.7065 7.27845C21.5152 7.08748 21.2547 6.98211 20.9844 6.98633C20.4329 6.99495 19.9924 7.44847 20 8V18C20 18.565 19.565 19 19 19C18.448 19 18 18.551 18 18V5C18 3.895 17.105 3 16 3H4ZM7 6H13C13.552 6 14 6.448 14 7V8C14 8.552 13.552 9 13 9H7C6.448 9 6 8.552 6 8V7C6 6.448 6.448 6 7 6ZM7 12H13C13.552 12 14 12.448 14 13C14 13.552 13.552 14 13 14H7C6.448 14 6 13.552 6 13C6 12.448 6.448 12 7 12ZM7 16H13C13.552 16 14 16.448 14 17C14 17.552 13.552 18 13 18H7C6.448 18 6 17.552 6 17C6 16.448 6.448 16 7 16Z" fill="white"/>
</g>
<defs>
<clipPath id="clip0_7_1763">
<rect width="24" height="24" fill="white"/>
</clipPath>
</defs>
</svg>
